G75*
G70*
%OFA0B0*%
%FSLAX24Y24*%
%IPPOS*%
%LPD*%
%AMOC8*
5,1,8,0,0,1.08239X$1,22.5*
%
%ADD10OC8,0.1025*%
%ADD11C,0.0749*%
%ADD12C,0.1773*%
%ADD13OC8,0.0820*%
%ADD14C,0.0674*%
%ADD15R,0.0474X0.1182*%
%ADD16R,0.1182X0.0474*%
%ADD17R,0.0674X0.0674*%
%ADD18C,0.0780*%
%ADD19C,0.0555*%
D10*
X015927Y010266D03*
X020947Y010266D03*
X020691Y033967D03*
X018329Y033967D03*
X015967Y033967D03*
X013604Y033967D03*
X005829Y033967D03*
D11*
X013191Y038692D03*
X014569Y038692D03*
X020941Y005123D03*
X022319Y005123D03*
D12*
X004880Y004880D03*
X026130Y004880D03*
X026130Y038880D03*
X004755Y038880D03*
D13*
X025380Y029880D03*
X025380Y028880D03*
X025380Y027880D03*
X025380Y026880D03*
X025380Y025880D03*
X026380Y025880D03*
X026380Y026880D03*
X026380Y027880D03*
X026380Y028880D03*
X026380Y029880D03*
X026630Y010630D03*
X026530Y009630D03*
X026630Y008630D03*
X025630Y008630D03*
X025530Y009630D03*
X025630Y010630D03*
D14*
X016630Y005630D03*
X016630Y004630D03*
X015630Y004630D03*
X015630Y005630D03*
X014630Y005630D03*
X014630Y004630D03*
X013630Y004630D03*
X013630Y005630D03*
X012630Y005630D03*
X012630Y004630D03*
X011630Y004630D03*
X011630Y005630D03*
X010630Y005630D03*
X010630Y004630D03*
X009630Y004630D03*
X009630Y005630D03*
D15*
X010880Y037705D03*
X010880Y039555D03*
X008130Y039555D03*
X008130Y037705D03*
X022880Y037705D03*
X022880Y039555D03*
D16*
X024955Y021880D03*
X026805Y021880D03*
D17*
X027130Y012630D03*
D18*
X027130Y013630D03*
X027130Y014630D03*
X027130Y015630D03*
X027130Y016630D03*
X027130Y017630D03*
D19*
X022296Y006188D03*
X020949Y006188D03*
X016130Y028130D03*
X017380Y032130D03*
X019630Y032880D03*
X014380Y035130D03*
X012130Y035130D03*
M02*
