G75*
G70*
%OFA0B0*%
%FSLAX24Y24*%
%IPPOS*%
%LPD*%
%AMOC8*
5,1,8,0,0,1.08239X$1,22.5*
%
%ADD10OC8,0.0945*%
%ADD11C,0.0669*%
%ADD12OC8,0.0740*%
%ADD13C,0.0594*%
%ADD14R,0.0394X0.1102*%
%ADD15R,0.1102X0.0394*%
%ADD16R,0.0594X0.0594*%
%ADD17C,0.0700*%
%ADD18C,0.0475*%
%ADD19C,0.0070*%
%ADD20C,0.0060*%
%ADD21OC8,0.0278*%
%ADD22C,0.0320*%
%ADD23C,0.0480*%
%ADD24C,0.0640*%
%ADD25C,0.0120*%
%ADD26C,0.0360*%
%ADD27C,0.0160*%
D10*
X015927Y010266D03*
X020947Y010266D03*
X020691Y033967D03*
X018329Y033967D03*
X015967Y033967D03*
X013604Y033967D03*
X005829Y033967D03*
D11*
X013191Y038692D03*
X014569Y038692D03*
X020941Y005123D03*
X022319Y005123D03*
D12*
X025530Y009630D03*
X025630Y008630D03*
X026530Y009630D03*
X026630Y008630D03*
X026630Y010630D03*
X025630Y010630D03*
X025380Y025880D03*
X025380Y026880D03*
X025380Y027880D03*
X025380Y028880D03*
X025380Y029880D03*
X026380Y029880D03*
X026380Y028880D03*
X026380Y027880D03*
X026380Y026880D03*
X026380Y025880D03*
D13*
X016630Y005630D03*
X016630Y004630D03*
X015630Y004630D03*
X015630Y005630D03*
X014630Y005630D03*
X014630Y004630D03*
X013630Y004630D03*
X013630Y005630D03*
X012630Y005630D03*
X012630Y004630D03*
X011630Y004630D03*
X011630Y005630D03*
X010630Y005630D03*
X010630Y004630D03*
X009630Y004630D03*
X009630Y005630D03*
D14*
X010880Y037705D03*
X010880Y039555D03*
X008130Y039555D03*
X008130Y037705D03*
X022880Y037705D03*
X022880Y039555D03*
D15*
X024955Y021880D03*
X026805Y021880D03*
D16*
X027130Y012630D03*
D17*
X027130Y013630D03*
X027130Y014630D03*
X027130Y015630D03*
X027130Y016630D03*
X027130Y017630D03*
D18*
X022296Y006188D03*
X020949Y006188D03*
X016130Y028130D03*
X017380Y032130D03*
X019630Y032880D03*
X014380Y035130D03*
X012130Y035130D03*
D19*
X011129Y037028D02*
X011160Y037046D01*
X011185Y037071D01*
X011203Y037102D01*
X011212Y037136D01*
X011212Y037670D01*
X010915Y037670D01*
X010915Y037740D01*
X010845Y037740D01*
X010845Y038391D01*
X010665Y038391D01*
X010631Y038382D01*
X010600Y038364D01*
X010575Y038339D01*
X010557Y038308D01*
X010548Y038274D01*
X010548Y037740D01*
X010845Y037740D01*
X010845Y037670D01*
X010548Y037670D01*
X010548Y037136D01*
X010557Y037102D01*
X010575Y037071D01*
X010600Y037046D01*
X010631Y037028D01*
X010665Y037019D01*
X010845Y037019D01*
X010845Y037670D01*
X010915Y037670D01*
X010915Y037019D01*
X011095Y037019D01*
X011129Y037028D01*
X011176Y037062D02*
X015130Y037062D01*
X015130Y037130D02*
X011210Y037130D01*
X011212Y037199D02*
X015130Y037199D01*
X015130Y037267D02*
X011212Y037267D01*
X011212Y037336D02*
X015130Y037336D01*
X015130Y037404D02*
X011212Y037404D01*
X011212Y037473D02*
X015130Y037473D01*
X015130Y037541D02*
X011212Y037541D01*
X011212Y037610D02*
X015130Y037610D01*
X015130Y037678D02*
X010915Y037678D01*
X010915Y037740D02*
X011212Y037740D01*
X011212Y038274D01*
X011203Y038308D01*
X011185Y038339D01*
X011160Y038364D01*
X011129Y038382D01*
X011095Y038391D01*
X010915Y038391D01*
X010915Y037740D01*
X010915Y037747D02*
X010845Y037747D01*
X010845Y037815D02*
X010915Y037815D01*
X010915Y037884D02*
X010845Y037884D01*
X010845Y037952D02*
X010915Y037952D01*
X010915Y038021D02*
X010845Y038021D01*
X010845Y038089D02*
X010915Y038089D01*
X010915Y038158D02*
X010845Y038158D01*
X010845Y038226D02*
X010915Y038226D01*
X010915Y038295D02*
X010845Y038295D01*
X010845Y038363D02*
X010915Y038363D01*
X011161Y038363D02*
X012220Y038363D01*
X012289Y038295D02*
X011206Y038295D01*
X011212Y038226D02*
X012357Y038226D01*
X012426Y038158D02*
X011212Y038158D01*
X011212Y038089D02*
X012494Y038089D01*
X012541Y038042D02*
X012578Y038005D01*
X012630Y038005D01*
X013705Y038000D01*
X013706Y038000D01*
X013757Y038000D01*
X013809Y038000D01*
X013809Y038000D01*
X013809Y038000D01*
X013846Y038036D01*
X013882Y038073D01*
X013882Y038073D01*
X013882Y038073D01*
X013882Y038125D01*
X013883Y038176D01*
X013882Y038176D01*
X013882Y039380D01*
X015130Y039380D01*
X015130Y036630D01*
X007130Y036630D01*
X007130Y038505D01*
X012078Y038505D01*
X012541Y038042D01*
X012562Y038021D02*
X011212Y038021D01*
X011212Y037952D02*
X015130Y037952D01*
X015130Y037884D02*
X011212Y037884D01*
X011212Y037815D02*
X015130Y037815D01*
X015130Y037747D02*
X011212Y037747D01*
X010915Y037610D02*
X010845Y037610D01*
X010845Y037678D02*
X008165Y037678D01*
X008165Y037670D02*
X008165Y037740D01*
X008095Y037740D01*
X008095Y038391D01*
X007915Y038391D01*
X007881Y038382D01*
X007850Y038364D01*
X007825Y038339D01*
X007807Y038308D01*
X007798Y038274D01*
X007798Y037740D01*
X008095Y037740D01*
X008095Y037670D01*
X007798Y037670D01*
X007798Y037136D01*
X007807Y037102D01*
X007825Y037071D01*
X007850Y037046D01*
X007881Y037028D01*
X007915Y037019D01*
X008095Y037019D01*
X008095Y037670D01*
X008165Y037670D01*
X008462Y037670D01*
X008462Y037136D01*
X008453Y037102D01*
X008435Y037071D01*
X008410Y037046D01*
X008379Y037028D01*
X008345Y037019D01*
X008165Y037019D01*
X008165Y037670D01*
X008165Y037610D02*
X008095Y037610D01*
X008095Y037678D02*
X007130Y037678D01*
X007130Y037610D02*
X007798Y037610D01*
X007798Y037541D02*
X007130Y037541D01*
X007130Y037473D02*
X007798Y037473D01*
X007798Y037404D02*
X007130Y037404D01*
X007130Y037336D02*
X007798Y037336D01*
X007798Y037267D02*
X007130Y037267D01*
X007130Y037199D02*
X007798Y037199D01*
X007800Y037130D02*
X007130Y037130D01*
X007130Y037062D02*
X007834Y037062D01*
X008095Y037062D02*
X008165Y037062D01*
X008165Y037130D02*
X008095Y037130D01*
X008095Y037199D02*
X008165Y037199D01*
X008165Y037267D02*
X008095Y037267D01*
X008095Y037336D02*
X008165Y037336D01*
X008165Y037404D02*
X008095Y037404D01*
X008095Y037473D02*
X008165Y037473D01*
X008165Y037541D02*
X008095Y037541D01*
X008095Y037747D02*
X008165Y037747D01*
X008165Y037740D02*
X008165Y038391D01*
X008345Y038391D01*
X008379Y038382D01*
X008410Y038364D01*
X008435Y038339D01*
X008453Y038308D01*
X008462Y038274D01*
X008462Y037740D01*
X008165Y037740D01*
X008165Y037815D02*
X008095Y037815D01*
X008095Y037884D02*
X008165Y037884D01*
X008165Y037952D02*
X008095Y037952D01*
X008095Y038021D02*
X008165Y038021D01*
X008165Y038089D02*
X008095Y038089D01*
X008095Y038158D02*
X008165Y038158D01*
X008165Y038226D02*
X008095Y038226D01*
X008095Y038295D02*
X008165Y038295D01*
X008165Y038363D02*
X008095Y038363D01*
X007849Y038363D02*
X007130Y038363D01*
X007130Y038295D02*
X007804Y038295D01*
X007798Y038226D02*
X007130Y038226D01*
X007130Y038158D02*
X007798Y038158D01*
X007798Y038089D02*
X007130Y038089D01*
X007130Y038021D02*
X007798Y038021D01*
X007798Y037952D02*
X007130Y037952D01*
X007130Y037884D02*
X007798Y037884D01*
X007798Y037815D02*
X007130Y037815D01*
X007130Y037747D02*
X007798Y037747D01*
X008462Y037747D02*
X010548Y037747D01*
X010548Y037815D02*
X008462Y037815D01*
X008462Y037884D02*
X010548Y037884D01*
X010548Y037952D02*
X008462Y037952D01*
X008462Y038021D02*
X010548Y038021D01*
X010548Y038089D02*
X008462Y038089D01*
X008462Y038158D02*
X010548Y038158D01*
X010548Y038226D02*
X008462Y038226D01*
X008456Y038295D02*
X010554Y038295D01*
X010599Y038363D02*
X008411Y038363D01*
X008462Y037610D02*
X010548Y037610D01*
X010548Y037541D02*
X008462Y037541D01*
X008462Y037473D02*
X010548Y037473D01*
X010548Y037404D02*
X008462Y037404D01*
X008462Y037336D02*
X010548Y037336D01*
X010548Y037267D02*
X008462Y037267D01*
X008462Y037199D02*
X010548Y037199D01*
X010550Y037130D02*
X008460Y037130D01*
X008426Y037062D02*
X010584Y037062D01*
X010845Y037062D02*
X010915Y037062D01*
X010915Y037130D02*
X010845Y037130D01*
X010845Y037199D02*
X010915Y037199D01*
X010915Y037267D02*
X010845Y037267D01*
X010845Y037336D02*
X010915Y037336D01*
X010915Y037404D02*
X010845Y037404D01*
X010845Y037473D02*
X010915Y037473D01*
X010915Y037541D02*
X010845Y037541D01*
X012083Y038500D02*
X007130Y038500D01*
X007130Y038432D02*
X012152Y038432D01*
X012578Y038005D02*
X012578Y038005D01*
X012578Y038005D01*
X013830Y038021D02*
X015130Y038021D01*
X015130Y038089D02*
X013882Y038089D01*
X013883Y038158D02*
X015130Y038158D01*
X015130Y038226D02*
X014631Y038226D01*
X014606Y038222D02*
X014679Y038234D01*
X014749Y038257D01*
X014815Y038290D01*
X014875Y038334D01*
X014927Y038386D01*
X014971Y038446D01*
X015004Y038512D01*
X015027Y038582D01*
X015039Y038655D01*
X015039Y038657D01*
X014604Y038657D01*
X014604Y038727D01*
X014534Y038727D01*
X014534Y039162D01*
X014532Y039162D01*
X014459Y039150D01*
X014389Y039127D01*
X014323Y039094D01*
X014263Y039050D01*
X014211Y038998D01*
X014167Y038938D01*
X014134Y038872D01*
X014111Y038802D01*
X014099Y038729D01*
X014099Y038727D01*
X014534Y038727D01*
X014534Y038657D01*
X014099Y038657D01*
X014099Y038655D01*
X014111Y038582D01*
X014134Y038512D01*
X014167Y038446D01*
X014211Y038386D01*
X014263Y038334D01*
X014323Y038290D01*
X014389Y038257D01*
X014459Y038234D01*
X014532Y038222D01*
X014534Y038222D01*
X014534Y038657D01*
X014604Y038657D01*
X014604Y038222D01*
X014606Y038222D01*
X014604Y038226D02*
X014534Y038226D01*
X014507Y038226D02*
X013882Y038226D01*
X013882Y038295D02*
X014317Y038295D01*
X014234Y038363D02*
X013882Y038363D01*
X013882Y038432D02*
X014178Y038432D01*
X014140Y038500D02*
X013882Y038500D01*
X013882Y038569D02*
X014115Y038569D01*
X014102Y038637D02*
X013882Y038637D01*
X013882Y038706D02*
X014534Y038706D01*
X014534Y038774D02*
X014604Y038774D01*
X014604Y038727D02*
X014604Y039162D01*
X014606Y039162D01*
X014679Y039150D01*
X014749Y039127D01*
X014815Y039094D01*
X014875Y039050D01*
X014927Y038998D01*
X014971Y038938D01*
X015004Y038872D01*
X015027Y038802D01*
X015039Y038729D01*
X015039Y038727D01*
X014604Y038727D01*
X014604Y038706D02*
X015130Y038706D01*
X015130Y038774D02*
X015031Y038774D01*
X015014Y038843D02*
X015130Y038843D01*
X015130Y038911D02*
X014984Y038911D01*
X014940Y038980D02*
X015130Y038980D01*
X015130Y039048D02*
X014877Y039048D01*
X014770Y039117D02*
X015130Y039117D01*
X015130Y039185D02*
X013882Y039185D01*
X013882Y039117D02*
X014368Y039117D01*
X014261Y039048D02*
X013882Y039048D01*
X013882Y038980D02*
X014198Y038980D01*
X014154Y038911D02*
X013882Y038911D01*
X013882Y038843D02*
X014124Y038843D01*
X014107Y038774D02*
X013882Y038774D01*
X013882Y039254D02*
X015130Y039254D01*
X015130Y039322D02*
X013882Y039322D01*
X014534Y039117D02*
X014604Y039117D01*
X014604Y039048D02*
X014534Y039048D01*
X014534Y038980D02*
X014604Y038980D01*
X014604Y038911D02*
X014534Y038911D01*
X014534Y038843D02*
X014604Y038843D01*
X014604Y038637D02*
X014534Y038637D01*
X014534Y038569D02*
X014604Y038569D01*
X014604Y038500D02*
X014534Y038500D01*
X014534Y038432D02*
X014604Y038432D01*
X014604Y038363D02*
X014534Y038363D01*
X014534Y038295D02*
X014604Y038295D01*
X014821Y038295D02*
X015130Y038295D01*
X015130Y038363D02*
X014904Y038363D01*
X014960Y038432D02*
X015130Y038432D01*
X015130Y038500D02*
X014998Y038500D01*
X015023Y038569D02*
X015130Y038569D01*
X015130Y038637D02*
X015036Y038637D01*
X015130Y036993D02*
X007130Y036993D01*
X007130Y036925D02*
X015130Y036925D01*
X015130Y036856D02*
X007130Y036856D01*
X007130Y036788D02*
X015130Y036788D01*
X015130Y036719D02*
X007130Y036719D01*
X007130Y036651D02*
X015130Y036651D01*
X018630Y031380D02*
X018630Y030508D01*
X018380Y030258D01*
X018880Y029880D02*
X019446Y029880D01*
X023130Y032130D02*
X023130Y033380D01*
X022130Y024130D02*
X021630Y024130D01*
X021630Y021880D02*
X022130Y021880D01*
X021880Y018691D02*
X024069Y018691D01*
X024130Y018630D01*
X023773Y018380D02*
X022569Y018380D01*
X022385Y018196D01*
X021880Y018691D02*
X021630Y018380D01*
X021630Y018206D01*
X021635Y018201D01*
X021380Y016880D02*
X021630Y016630D01*
X023380Y016630D01*
X024130Y015880D01*
X024130Y015130D01*
X025130Y014130D01*
X025630Y014130D01*
X026130Y013630D01*
X026130Y012630D01*
X025380Y013880D02*
X024380Y013880D01*
X023941Y014319D01*
X023941Y015819D01*
X023874Y015880D01*
X023521Y016233D01*
X023093Y016233D01*
X022740Y015880D01*
X022630Y015880D01*
X023031Y015559D02*
X022848Y015375D01*
X022848Y014456D01*
X024134Y013170D01*
X024134Y012986D01*
X024808Y012313D01*
X024930Y012313D01*
X025130Y012630D02*
X025130Y013130D01*
X024630Y013630D01*
X024319Y013630D01*
X023691Y014258D01*
X023691Y014941D01*
X023758Y015008D01*
X023758Y015258D01*
X023399Y015616D01*
X023399Y015620D01*
X023319Y015700D01*
X023319Y015941D01*
X023503Y015130D02*
X023503Y014315D01*
X023521Y014211D01*
X024256Y013476D01*
X024501Y013476D01*
X024880Y013098D01*
X024880Y012880D01*
X024380Y013130D02*
X023130Y014380D01*
X023130Y015130D01*
X023130Y011880D02*
X023031Y011781D01*
X023031Y010659D01*
X022630Y010630D02*
X022630Y011880D01*
X026650Y016110D02*
X026630Y016130D01*
X026650Y016110D02*
X027380Y016110D01*
X027686Y015804D01*
X027686Y014186D01*
X027130Y013630D01*
X014630Y009880D02*
X014630Y008880D01*
X013880Y008880D02*
X013880Y010130D01*
X014380Y010130D02*
X014630Y009880D01*
X013380Y010130D02*
X013380Y008880D01*
X013380Y013630D02*
X012880Y014130D01*
X008380Y013630D02*
X007880Y014130D01*
X008380Y022130D02*
X007880Y022630D01*
X012880Y022630D02*
X013380Y022130D01*
X007630Y039130D02*
X007630Y039380D01*
D20*
X003010Y037879D02*
X003010Y005660D01*
X003018Y005689D01*
X003018Y005689D01*
X003305Y006161D01*
X003305Y006161D01*
X003709Y006538D01*
X003709Y006538D01*
X004200Y006793D01*
X004200Y006793D01*
X004741Y006905D01*
X004741Y006905D01*
X005293Y006868D01*
X005293Y006868D01*
X005814Y006682D01*
X005814Y006682D01*
X006266Y006364D01*
X006266Y006364D01*
X006614Y005935D01*
X006614Y005935D01*
X006835Y005428D01*
X006835Y005428D01*
X006910Y004880D01*
X006835Y004332D01*
X006835Y004332D01*
X006614Y003825D01*
X006614Y003825D01*
X006266Y003396D01*
X006266Y003396D01*
X006266Y003396D01*
X005814Y003078D01*
X005814Y003078D01*
X005624Y003010D01*
X025368Y003010D01*
X024959Y003222D01*
X024959Y003222D01*
X024555Y003599D01*
X024555Y003599D01*
X024268Y004071D01*
X024268Y004071D01*
X024119Y004604D01*
X024119Y005156D01*
X024268Y005689D01*
X024268Y005689D01*
X024555Y006161D01*
X024555Y006161D01*
X024959Y006538D01*
X024959Y006538D01*
X025450Y006793D01*
X025450Y006793D01*
X025991Y006905D01*
X025991Y006905D01*
X026543Y006868D01*
X026543Y006868D01*
X027064Y006682D01*
X027516Y006364D01*
X027516Y006364D01*
X027864Y005935D01*
X027992Y005641D01*
X027992Y038119D01*
X027864Y037825D01*
X027864Y037825D01*
X027516Y037396D01*
X027516Y037396D01*
X027516Y037396D01*
X027064Y037078D01*
X027064Y037078D01*
X026543Y036892D01*
X026543Y036892D01*
X025991Y036855D01*
X025991Y036855D01*
X025450Y036967D01*
X025450Y036967D01*
X024959Y037222D01*
X024959Y037222D01*
X024555Y037599D01*
X024555Y037599D01*
X024268Y038071D01*
X024268Y038071D01*
X024119Y038604D01*
X024119Y039156D01*
X024268Y039689D01*
X024268Y039689D01*
X024555Y040161D01*
X024555Y040161D01*
X024959Y040538D01*
X024959Y040538D01*
X025117Y040620D01*
X013877Y040620D01*
X013877Y040380D01*
X016180Y040380D01*
X016272Y040342D01*
X016842Y039772D01*
X016853Y039745D01*
X016869Y039729D01*
X016869Y039706D01*
X016880Y039680D01*
X016880Y039580D01*
X016869Y039554D01*
X016869Y039531D01*
X016853Y039515D01*
X016842Y039488D01*
X016772Y039418D01*
X016745Y039407D01*
X016729Y039391D01*
X016706Y039391D01*
X016680Y039380D01*
X016580Y039380D01*
X016554Y039391D01*
X016531Y039391D01*
X016515Y039407D01*
X016488Y039418D01*
X016026Y039880D01*
X013877Y039880D01*
X013877Y039505D01*
X015182Y039505D01*
X015255Y039432D01*
X015255Y036578D01*
X015182Y036505D01*
X007078Y036505D01*
X007005Y036578D01*
X007005Y039432D01*
X007010Y039437D01*
X007010Y040620D01*
X005777Y040620D01*
X006141Y040364D01*
X006141Y040364D01*
X006489Y039935D01*
X006710Y039428D01*
X006710Y039428D01*
X006785Y038880D01*
X006710Y038332D01*
X006710Y038332D01*
X006489Y037825D01*
X006489Y037825D01*
X006141Y037396D01*
X006141Y037396D01*
X006141Y037396D01*
X005689Y037078D01*
X005689Y037078D01*
X005168Y036892D01*
X005168Y036892D01*
X004616Y036855D01*
X004616Y036855D01*
X004075Y036967D01*
X004075Y036967D01*
X003584Y037222D01*
X003584Y037222D01*
X003180Y037599D01*
X003180Y037599D01*
X003010Y037879D01*
X003010Y037863D02*
X003020Y037863D01*
X003010Y037805D02*
X003055Y037805D01*
X003091Y037746D02*
X003010Y037746D01*
X003010Y037688D02*
X003126Y037688D01*
X003162Y037629D02*
X003010Y037629D01*
X003010Y037571D02*
X003211Y037571D01*
X003273Y037512D02*
X003010Y037512D01*
X003010Y037454D02*
X003336Y037454D01*
X003398Y037395D02*
X003010Y037395D01*
X003010Y037337D02*
X003461Y037337D01*
X003524Y037278D02*
X003010Y037278D01*
X003010Y037220D02*
X003588Y037220D01*
X003701Y037161D02*
X003010Y037161D01*
X003010Y037103D02*
X003814Y037103D01*
X003927Y037044D02*
X003010Y037044D01*
X003010Y036986D02*
X004040Y036986D01*
X004268Y036927D02*
X003010Y036927D01*
X003010Y036869D02*
X004550Y036869D01*
X004820Y036869D02*
X007005Y036869D01*
X007005Y036927D02*
X005266Y036927D01*
X005430Y036986D02*
X007005Y036986D01*
X007005Y037044D02*
X005595Y037044D01*
X005724Y037103D02*
X007005Y037103D01*
X007005Y037161D02*
X005807Y037161D01*
X005890Y037220D02*
X007005Y037220D01*
X007005Y037278D02*
X005973Y037278D01*
X006056Y037337D02*
X007005Y037337D01*
X007005Y037395D02*
X006139Y037395D01*
X006187Y037454D02*
X007005Y037454D01*
X007005Y037512D02*
X006235Y037512D01*
X006282Y037571D02*
X007005Y037571D01*
X007005Y037629D02*
X006330Y037629D01*
X006378Y037688D02*
X007005Y037688D01*
X007005Y037746D02*
X006425Y037746D01*
X006473Y037805D02*
X007005Y037805D01*
X007005Y037863D02*
X006506Y037863D01*
X006531Y037922D02*
X007005Y037922D01*
X007005Y037980D02*
X006557Y037980D01*
X006582Y038039D02*
X007005Y038039D01*
X007005Y038097D02*
X006608Y038097D01*
X006633Y038156D02*
X007005Y038156D01*
X007005Y038214D02*
X006658Y038214D01*
X006684Y038273D02*
X007005Y038273D01*
X007005Y038331D02*
X006709Y038331D01*
X006718Y038390D02*
X007005Y038390D01*
X007005Y038448D02*
X006726Y038448D01*
X006734Y038507D02*
X007005Y038507D01*
X007005Y038565D02*
X006742Y038565D01*
X006750Y038624D02*
X007005Y038624D01*
X007005Y038682D02*
X006758Y038682D01*
X006766Y038741D02*
X007005Y038741D01*
X007005Y038799D02*
X006774Y038799D01*
X006782Y038858D02*
X007005Y038858D01*
X007005Y038916D02*
X006780Y038916D01*
X006772Y038975D02*
X007005Y038975D01*
X007005Y039033D02*
X006764Y039033D01*
X006756Y039092D02*
X007005Y039092D01*
X007005Y039150D02*
X006748Y039150D01*
X006740Y039209D02*
X007005Y039209D01*
X007005Y039267D02*
X006732Y039267D01*
X006724Y039326D02*
X007005Y039326D01*
X007005Y039384D02*
X006716Y039384D01*
X006703Y039443D02*
X007010Y039443D01*
X007010Y039501D02*
X006678Y039501D01*
X006652Y039560D02*
X007010Y039560D01*
X007010Y039618D02*
X006627Y039618D01*
X006602Y039677D02*
X007010Y039677D01*
X007010Y039735D02*
X006576Y039735D01*
X006551Y039794D02*
X007010Y039794D01*
X007010Y039852D02*
X006525Y039852D01*
X006500Y039911D02*
X007010Y039911D01*
X007010Y039969D02*
X006461Y039969D01*
X006414Y040028D02*
X007010Y040028D01*
X007010Y040086D02*
X006366Y040086D01*
X006319Y040145D02*
X007010Y040145D01*
X007010Y040203D02*
X006271Y040203D01*
X006224Y040262D02*
X007010Y040262D01*
X007010Y040320D02*
X006176Y040320D01*
X006119Y040379D02*
X007010Y040379D01*
X007010Y040437D02*
X006036Y040437D01*
X005953Y040496D02*
X007010Y040496D01*
X007010Y040554D02*
X005871Y040554D01*
X005788Y040613D02*
X007010Y040613D01*
X007130Y040613D02*
X013758Y040613D01*
X013758Y040620D02*
X013758Y038125D01*
X012630Y038130D01*
X012130Y038630D01*
X007130Y038630D01*
X007130Y040620D01*
X013758Y040620D01*
X013758Y040554D02*
X007130Y040554D01*
X007130Y040496D02*
X013758Y040496D01*
X013758Y040437D02*
X007130Y040437D01*
X007130Y040379D02*
X013758Y040379D01*
X013758Y040320D02*
X007130Y040320D01*
X007130Y040262D02*
X013758Y040262D01*
X013758Y040203D02*
X011164Y040203D01*
X011157Y040210D02*
X011181Y040186D01*
X011198Y040157D01*
X011207Y040123D01*
X011207Y039585D01*
X010910Y039585D01*
X010910Y039525D01*
X010910Y038874D01*
X011094Y038874D01*
X011127Y038883D01*
X011157Y038900D01*
X011181Y038924D01*
X011198Y038954D01*
X011207Y038987D01*
X011207Y039525D01*
X010910Y039525D01*
X010850Y039525D01*
X010850Y038874D01*
X010666Y038874D01*
X010633Y038883D01*
X010603Y038900D01*
X010579Y038924D01*
X010562Y038954D01*
X010553Y038987D01*
X010553Y039525D01*
X010850Y039525D01*
X010850Y039585D01*
X010553Y039585D01*
X010553Y040123D01*
X010562Y040157D01*
X010579Y040186D01*
X010603Y040210D01*
X010633Y040228D01*
X010666Y040236D01*
X010850Y040236D01*
X010850Y039585D01*
X010910Y039585D01*
X010910Y040236D01*
X011094Y040236D01*
X011127Y040228D01*
X011157Y040210D01*
X011201Y040145D02*
X013758Y040145D01*
X013758Y040086D02*
X011207Y040086D01*
X011207Y040028D02*
X013758Y040028D01*
X013758Y039969D02*
X011207Y039969D01*
X011207Y039911D02*
X013758Y039911D01*
X013758Y039852D02*
X011207Y039852D01*
X011207Y039794D02*
X013758Y039794D01*
X013758Y039735D02*
X011207Y039735D01*
X011207Y039677D02*
X013758Y039677D01*
X013758Y039618D02*
X011207Y039618D01*
X011207Y039501D02*
X013758Y039501D01*
X013758Y039443D02*
X011207Y039443D01*
X011207Y039384D02*
X013758Y039384D01*
X013758Y039326D02*
X011207Y039326D01*
X011207Y039267D02*
X013758Y039267D01*
X013758Y039209D02*
X011207Y039209D01*
X011207Y039150D02*
X013114Y039150D01*
X013082Y039145D02*
X013154Y039157D01*
X013161Y039157D01*
X013161Y038722D01*
X013221Y038722D01*
X013221Y039157D01*
X013228Y039157D01*
X013300Y039145D01*
X013369Y039122D01*
X013435Y039089D01*
X013494Y039046D01*
X013545Y038995D01*
X013588Y038935D01*
X013622Y038870D01*
X013644Y038801D01*
X013656Y038728D01*
X013656Y038722D01*
X013221Y038722D01*
X013221Y038662D01*
X013656Y038662D01*
X013656Y038655D01*
X013644Y038583D01*
X013622Y038514D01*
X013588Y038448D01*
X013758Y038448D01*
X013758Y038390D02*
X013546Y038390D01*
X013545Y038389D02*
X013588Y038448D01*
X013618Y038507D02*
X013758Y038507D01*
X013758Y038565D02*
X013638Y038565D01*
X013651Y038624D02*
X013758Y038624D01*
X013758Y038682D02*
X013221Y038682D01*
X013221Y038662D02*
X013221Y038227D01*
X013228Y038227D01*
X013300Y038239D01*
X013369Y038261D01*
X013435Y038294D01*
X013494Y038337D01*
X013545Y038389D01*
X013485Y038331D02*
X013758Y038331D01*
X013758Y038273D02*
X013392Y038273D01*
X013221Y038273D02*
X013161Y038273D01*
X013161Y038227D02*
X013161Y038662D01*
X012726Y038662D01*
X012726Y038655D01*
X012738Y038583D01*
X012760Y038514D01*
X012794Y038448D01*
X012312Y038448D01*
X012370Y038390D02*
X012836Y038390D01*
X012837Y038389D02*
X012888Y038337D01*
X012947Y038294D01*
X013013Y038261D01*
X013082Y038239D01*
X013154Y038227D01*
X013161Y038227D01*
X013161Y038331D02*
X013221Y038331D01*
X013221Y038390D02*
X013161Y038390D01*
X013161Y038448D02*
X013221Y038448D01*
X013221Y038507D02*
X013161Y038507D01*
X013161Y038565D02*
X013221Y038565D01*
X013221Y038624D02*
X013161Y038624D01*
X013161Y038662D02*
X013221Y038662D01*
X013161Y038662D02*
X013161Y038722D01*
X012726Y038722D01*
X012726Y038728D01*
X012738Y038801D01*
X012760Y038870D01*
X012794Y038935D01*
X012837Y038995D01*
X012888Y039046D01*
X012947Y039089D01*
X013013Y039122D01*
X013082Y039145D01*
X013161Y039150D02*
X013221Y039150D01*
X013268Y039150D02*
X013758Y039150D01*
X013758Y039092D02*
X013430Y039092D01*
X013507Y039033D02*
X013758Y039033D01*
X013758Y038975D02*
X013560Y038975D01*
X013598Y038916D02*
X013758Y038916D01*
X013758Y038858D02*
X013626Y038858D01*
X013644Y038799D02*
X013758Y038799D01*
X013758Y038741D02*
X013654Y038741D01*
X013221Y038741D02*
X013161Y038741D01*
X013161Y038799D02*
X013221Y038799D01*
X013221Y038858D02*
X013161Y038858D01*
X013161Y038916D02*
X013221Y038916D01*
X013221Y038975D02*
X013161Y038975D01*
X013161Y039033D02*
X013221Y039033D01*
X013221Y039092D02*
X013161Y039092D01*
X012952Y039092D02*
X011207Y039092D01*
X011207Y039033D02*
X012875Y039033D01*
X012822Y038975D02*
X011204Y038975D01*
X011173Y038916D02*
X012784Y038916D01*
X012756Y038858D02*
X007130Y038858D01*
X007130Y038916D02*
X007837Y038916D01*
X007829Y038924D02*
X007853Y038900D01*
X007883Y038883D01*
X007916Y038874D01*
X008100Y038874D01*
X008100Y039525D01*
X008160Y039525D01*
X008160Y038874D01*
X008344Y038874D01*
X008377Y038883D01*
X008407Y038900D01*
X008431Y038924D01*
X008448Y038954D01*
X008457Y038987D01*
X008457Y039525D01*
X008160Y039525D01*
X008160Y039585D01*
X008457Y039585D01*
X008457Y040123D01*
X008448Y040157D01*
X008431Y040186D01*
X008407Y040210D01*
X008377Y040228D01*
X008344Y040236D01*
X008160Y040236D01*
X008160Y039585D01*
X008100Y039585D01*
X008100Y039525D01*
X007803Y039525D01*
X007803Y038987D01*
X007812Y038954D01*
X007829Y038924D01*
X007806Y038975D02*
X007130Y038975D01*
X007130Y039033D02*
X007803Y039033D01*
X007803Y039092D02*
X007130Y039092D01*
X007130Y039150D02*
X007803Y039150D01*
X007803Y039209D02*
X007130Y039209D01*
X007130Y039267D02*
X007803Y039267D01*
X007803Y039326D02*
X007130Y039326D01*
X007130Y039384D02*
X007803Y039384D01*
X007803Y039443D02*
X007130Y039443D01*
X007130Y039501D02*
X007803Y039501D01*
X007803Y039585D02*
X007803Y040123D01*
X007812Y040157D01*
X007829Y040186D01*
X007853Y040210D01*
X007883Y040228D01*
X007916Y040236D01*
X008100Y040236D01*
X008100Y039585D01*
X007803Y039585D01*
X007803Y039618D02*
X007130Y039618D01*
X007130Y039560D02*
X008100Y039560D01*
X008100Y039618D02*
X008160Y039618D01*
X008160Y039560D02*
X010850Y039560D01*
X010850Y039618D02*
X010910Y039618D01*
X010910Y039560D02*
X013758Y039560D01*
X013877Y039560D02*
X016347Y039560D01*
X016288Y039618D02*
X013877Y039618D01*
X013877Y039677D02*
X016230Y039677D01*
X016171Y039735D02*
X013877Y039735D01*
X013877Y039794D02*
X016113Y039794D01*
X016054Y039852D02*
X013877Y039852D01*
X013877Y040437D02*
X024851Y040437D01*
X024788Y040379D02*
X016183Y040379D01*
X016293Y040320D02*
X024726Y040320D01*
X024663Y040262D02*
X016352Y040262D01*
X016410Y040203D02*
X022639Y040203D01*
X022642Y040206D02*
X022583Y040148D01*
X022583Y039880D01*
X018580Y039880D01*
X018554Y039869D01*
X018531Y039869D01*
X018515Y039853D01*
X018488Y039842D01*
X018418Y039772D01*
X018407Y039745D01*
X018391Y039729D01*
X018391Y039706D01*
X018380Y039680D01*
X018380Y039580D01*
X018391Y039554D01*
X018391Y039531D01*
X018407Y039515D01*
X018418Y039488D01*
X018488Y039418D01*
X018515Y039407D01*
X018531Y039391D01*
X018554Y039391D01*
X018580Y039380D01*
X022583Y039380D01*
X022583Y038963D01*
X022642Y038904D01*
X023118Y038904D01*
X023177Y038963D01*
X023177Y040148D01*
X023118Y040206D01*
X022642Y040206D01*
X022583Y040145D02*
X016469Y040145D01*
X016527Y040086D02*
X022583Y040086D01*
X022583Y040028D02*
X016586Y040028D01*
X016644Y039969D02*
X022583Y039969D01*
X022583Y039911D02*
X016703Y039911D01*
X016761Y039852D02*
X018513Y039852D01*
X018440Y039794D02*
X016820Y039794D01*
X016863Y039735D02*
X018397Y039735D01*
X018380Y039677D02*
X016880Y039677D01*
X016880Y039618D02*
X018380Y039618D01*
X018389Y039560D02*
X016871Y039560D01*
X016847Y039501D02*
X018413Y039501D01*
X018464Y039443D02*
X016796Y039443D01*
X016690Y039384D02*
X018570Y039384D01*
X016570Y039384D02*
X015255Y039384D01*
X015255Y039326D02*
X022583Y039326D01*
X022583Y039267D02*
X015255Y039267D01*
X015255Y039209D02*
X022583Y039209D01*
X022583Y039150D02*
X015255Y039150D01*
X015255Y039092D02*
X022583Y039092D01*
X022583Y039033D02*
X015255Y039033D01*
X015255Y038975D02*
X022583Y038975D01*
X022630Y038916D02*
X015255Y038916D01*
X015255Y038858D02*
X024119Y038858D01*
X024119Y038916D02*
X023130Y038916D01*
X023177Y038975D02*
X024119Y038975D01*
X024119Y039033D02*
X023177Y039033D01*
X023177Y039092D02*
X024119Y039092D01*
X024119Y039150D02*
X023177Y039150D01*
X023177Y039209D02*
X024134Y039209D01*
X024150Y039267D02*
X023177Y039267D01*
X023177Y039326D02*
X024166Y039326D01*
X024183Y039384D02*
X023177Y039384D01*
X023177Y039443D02*
X024199Y039443D01*
X024215Y039501D02*
X023177Y039501D01*
X023177Y039560D02*
X024232Y039560D01*
X024248Y039618D02*
X023177Y039618D01*
X023177Y039677D02*
X024265Y039677D01*
X024296Y039735D02*
X023177Y039735D01*
X023177Y039794D02*
X024332Y039794D01*
X024367Y039852D02*
X023177Y039852D01*
X023177Y039911D02*
X024403Y039911D01*
X024439Y039969D02*
X023177Y039969D01*
X023177Y040028D02*
X024474Y040028D01*
X024510Y040086D02*
X023177Y040086D01*
X023177Y040145D02*
X024545Y040145D01*
X024600Y040203D02*
X023121Y040203D01*
X024119Y038799D02*
X015255Y038799D01*
X015255Y038741D02*
X024119Y038741D01*
X024119Y038682D02*
X015255Y038682D01*
X015255Y038624D02*
X024119Y038624D01*
X024130Y038565D02*
X015255Y038565D01*
X015255Y038507D02*
X024146Y038507D01*
X024162Y038448D02*
X015255Y038448D01*
X015255Y038390D02*
X024179Y038390D01*
X024195Y038331D02*
X023184Y038331D01*
X023181Y038336D02*
X023157Y038360D01*
X023127Y038377D01*
X023094Y038386D01*
X022910Y038386D01*
X022910Y037735D01*
X022850Y037735D01*
X022850Y038386D01*
X022666Y038386D01*
X022633Y038377D01*
X022603Y038360D01*
X022579Y038336D01*
X022562Y038306D01*
X022553Y038273D01*
X022553Y037735D01*
X022850Y037735D01*
X022850Y037675D01*
X022553Y037675D01*
X022553Y037137D01*
X022562Y037103D01*
X022579Y037074D01*
X022603Y037050D01*
X022633Y037032D01*
X022666Y037024D01*
X022850Y037024D01*
X022850Y037675D01*
X022910Y037675D01*
X022910Y037735D01*
X023207Y037735D01*
X023207Y038273D01*
X023198Y038306D01*
X023181Y038336D01*
X023207Y038273D02*
X024212Y038273D01*
X024228Y038214D02*
X023207Y038214D01*
X023207Y038156D02*
X024244Y038156D01*
X024261Y038097D02*
X023207Y038097D01*
X023207Y038039D02*
X024288Y038039D01*
X024323Y037980D02*
X023207Y037980D01*
X023207Y037922D02*
X024359Y037922D01*
X024395Y037863D02*
X023207Y037863D01*
X023207Y037805D02*
X024430Y037805D01*
X024466Y037746D02*
X023207Y037746D01*
X023207Y037675D02*
X022910Y037675D01*
X022910Y037024D01*
X023094Y037024D01*
X023127Y037032D01*
X023157Y037050D01*
X023181Y037074D01*
X023198Y037103D01*
X023207Y037137D01*
X023207Y037675D01*
X023207Y037629D02*
X024537Y037629D01*
X024555Y037599D02*
X024555Y037599D01*
X024586Y037571D02*
X023207Y037571D01*
X023207Y037512D02*
X024648Y037512D01*
X024711Y037454D02*
X023207Y037454D01*
X023207Y037395D02*
X024773Y037395D01*
X024836Y037337D02*
X023207Y037337D01*
X023207Y037278D02*
X024899Y037278D01*
X024963Y037220D02*
X023207Y037220D01*
X023207Y037161D02*
X025076Y037161D01*
X025189Y037103D02*
X023198Y037103D01*
X023147Y037044D02*
X025302Y037044D01*
X025415Y036986D02*
X015255Y036986D01*
X015255Y037044D02*
X022613Y037044D01*
X022562Y037103D02*
X015255Y037103D01*
X015255Y037161D02*
X022553Y037161D01*
X022553Y037220D02*
X015255Y037220D01*
X015255Y037278D02*
X022553Y037278D01*
X022553Y037337D02*
X015255Y037337D01*
X015255Y037395D02*
X022553Y037395D01*
X022553Y037454D02*
X015255Y037454D01*
X015255Y037512D02*
X022553Y037512D01*
X022553Y037571D02*
X015255Y037571D01*
X015255Y037629D02*
X022553Y037629D01*
X022553Y037746D02*
X015255Y037746D01*
X015255Y037688D02*
X022850Y037688D01*
X022850Y037746D02*
X022910Y037746D01*
X022910Y037688D02*
X024501Y037688D01*
X025643Y036927D02*
X015255Y036927D01*
X015255Y036869D02*
X025925Y036869D01*
X026195Y036869D02*
X027992Y036869D01*
X027992Y036927D02*
X026641Y036927D01*
X026805Y036986D02*
X027992Y036986D01*
X027992Y037044D02*
X026970Y037044D01*
X027099Y037103D02*
X027992Y037103D01*
X027992Y037161D02*
X027182Y037161D01*
X027265Y037220D02*
X027992Y037220D01*
X027992Y037278D02*
X027348Y037278D01*
X027431Y037337D02*
X027992Y037337D01*
X027992Y037395D02*
X027514Y037395D01*
X027562Y037454D02*
X027992Y037454D01*
X027992Y037512D02*
X027610Y037512D01*
X027657Y037571D02*
X027992Y037571D01*
X027992Y037629D02*
X027705Y037629D01*
X027753Y037688D02*
X027992Y037688D01*
X027992Y037746D02*
X027800Y037746D01*
X027848Y037805D02*
X027992Y037805D01*
X027992Y037863D02*
X027881Y037863D01*
X027906Y037922D02*
X027992Y037922D01*
X027992Y037980D02*
X027932Y037980D01*
X027957Y038039D02*
X027992Y038039D01*
X027983Y038097D02*
X027992Y038097D01*
X027992Y036810D02*
X015255Y036810D01*
X015255Y036752D02*
X027992Y036752D01*
X027992Y036693D02*
X015255Y036693D01*
X015255Y036635D02*
X027992Y036635D01*
X027992Y036576D02*
X015253Y036576D01*
X015194Y036518D02*
X027992Y036518D01*
X027992Y036459D02*
X003010Y036459D01*
X003010Y036401D02*
X027992Y036401D01*
X027992Y036342D02*
X003010Y036342D01*
X003010Y036284D02*
X027992Y036284D01*
X027992Y036225D02*
X003010Y036225D01*
X003010Y036167D02*
X027992Y036167D01*
X027992Y036108D02*
X003010Y036108D01*
X003010Y036050D02*
X027992Y036050D01*
X027992Y035991D02*
X003010Y035991D01*
X003010Y035933D02*
X027992Y035933D01*
X027992Y035874D02*
X003010Y035874D01*
X003010Y035816D02*
X027992Y035816D01*
X027992Y035757D02*
X003010Y035757D01*
X003010Y035699D02*
X027992Y035699D01*
X027992Y035640D02*
X003010Y035640D01*
X003010Y035582D02*
X027992Y035582D01*
X027992Y035523D02*
X017752Y035523D01*
X017712Y035540D02*
X017548Y035540D01*
X017398Y035478D01*
X017032Y035112D01*
X016970Y034962D01*
X016970Y027048D01*
X017032Y026898D01*
X017148Y026782D01*
X019470Y024460D01*
X019470Y023460D01*
X006064Y023460D01*
X005943Y023410D01*
X005850Y023317D01*
X005800Y023196D01*
X005800Y023064D01*
X005850Y022943D01*
X005943Y022850D01*
X006064Y022800D01*
X007712Y022800D01*
X007641Y022729D01*
X007641Y022531D01*
X007781Y022391D01*
X007942Y022391D01*
X008141Y022192D01*
X008141Y022031D01*
X008281Y021891D01*
X008479Y021891D01*
X008619Y022031D01*
X008619Y022229D01*
X008479Y022369D01*
X008318Y022369D01*
X008119Y022568D01*
X008119Y022729D01*
X008048Y022800D01*
X012712Y022800D01*
X012641Y022729D01*
X012641Y022531D01*
X012781Y022391D01*
X012942Y022391D01*
X013141Y022192D01*
X013141Y022031D01*
X013281Y021891D01*
X013479Y021891D01*
X013619Y022031D01*
X013619Y022229D01*
X013479Y022369D01*
X013318Y022369D01*
X013119Y022568D01*
X013119Y022729D01*
X013048Y022800D01*
X019470Y022800D01*
X019470Y014960D01*
X006064Y014960D01*
X005943Y014910D01*
X005850Y014817D01*
X005800Y014696D01*
X005800Y014564D01*
X005850Y014443D01*
X005943Y014350D01*
X006064Y014300D01*
X007712Y014300D01*
X007641Y014229D01*
X003010Y014229D01*
X003010Y014171D02*
X007641Y014171D01*
X007641Y014229D02*
X007641Y014031D01*
X007781Y013891D01*
X007942Y013891D01*
X008141Y013692D01*
X008141Y013531D01*
X008281Y013391D01*
X008479Y013391D01*
X008619Y013531D01*
X008619Y013729D01*
X008479Y013869D01*
X008318Y013869D01*
X008119Y014068D01*
X008119Y014229D01*
X012641Y014229D01*
X012641Y014031D01*
X012781Y013891D01*
X012942Y013891D01*
X013141Y013692D01*
X013141Y013531D01*
X013281Y013391D01*
X013479Y013391D01*
X013619Y013531D01*
X013619Y013729D01*
X013479Y013869D01*
X013318Y013869D01*
X013119Y014068D01*
X013119Y014229D01*
X018110Y014229D01*
X018110Y014171D02*
X013119Y014171D01*
X013119Y014229D02*
X013048Y014300D01*
X018110Y014300D01*
X018110Y009742D01*
X015477Y007109D01*
X015401Y007033D01*
X015360Y006934D01*
X015360Y005921D01*
X015294Y005855D01*
X015233Y005709D01*
X015233Y005551D01*
X015294Y005405D01*
X015405Y005294D01*
X015551Y005233D01*
X015709Y005233D01*
X015855Y005294D01*
X015966Y005405D01*
X016027Y005551D01*
X016027Y005709D01*
X015966Y005855D01*
X015900Y005921D01*
X015900Y006768D01*
X018609Y009477D01*
X018650Y009576D01*
X018650Y014300D01*
X019630Y014300D01*
X019648Y014282D01*
X019798Y014220D01*
X019962Y014220D01*
X020112Y014282D01*
X020228Y014398D01*
X020290Y014548D01*
X020290Y022720D01*
X024545Y022720D01*
X024545Y022177D01*
X024362Y022177D01*
X024304Y022118D01*
X024304Y021642D01*
X024362Y021583D01*
X024672Y021583D01*
X024723Y021532D01*
X024873Y021470D01*
X025036Y021470D01*
X025187Y021532D01*
X025238Y021583D01*
X025547Y021583D01*
X025606Y021642D01*
X025606Y022118D01*
X025547Y022177D01*
X025365Y022177D01*
X025365Y022720D01*
X025462Y022720D01*
X025612Y022782D01*
X025728Y022898D01*
X025790Y023048D01*
X025790Y023212D01*
X025728Y023362D01*
X025612Y023478D01*
X025462Y023540D01*
X020290Y023540D01*
X020290Y024712D01*
X020228Y024862D01*
X017790Y027300D01*
X017790Y033696D01*
X018092Y033394D01*
X018566Y033394D01*
X018901Y033730D01*
X018901Y034204D01*
X018566Y034539D01*
X018092Y034539D01*
X017790Y034237D01*
X017790Y034710D01*
X017978Y034898D01*
X018040Y035048D01*
X018040Y035212D01*
X017978Y035362D01*
X017862Y035478D01*
X017712Y035540D01*
X017875Y035465D02*
X027992Y035465D01*
X027992Y035406D02*
X017934Y035406D01*
X017984Y035348D02*
X027992Y035348D01*
X027992Y035289D02*
X018008Y035289D01*
X018032Y035231D02*
X027992Y035231D01*
X027992Y035172D02*
X018040Y035172D01*
X018040Y035114D02*
X027992Y035114D01*
X027992Y035055D02*
X018040Y035055D01*
X018019Y034997D02*
X027992Y034997D01*
X027992Y034938D02*
X017994Y034938D01*
X017959Y034880D02*
X027992Y034880D01*
X027992Y034821D02*
X017901Y034821D01*
X017842Y034763D02*
X027992Y034763D01*
X027992Y034704D02*
X017790Y034704D01*
X017790Y034646D02*
X027992Y034646D01*
X027992Y034587D02*
X017790Y034587D01*
X017790Y034529D02*
X018081Y034529D01*
X018023Y034470D02*
X017790Y034470D01*
X017790Y034412D02*
X017964Y034412D01*
X017906Y034353D02*
X017790Y034353D01*
X017790Y034295D02*
X017847Y034295D01*
X017835Y033651D02*
X017790Y033651D01*
X017790Y033593D02*
X017893Y033593D01*
X017952Y033534D02*
X017790Y033534D01*
X017790Y033476D02*
X018010Y033476D01*
X018069Y033417D02*
X017790Y033417D01*
X017790Y033359D02*
X022891Y033359D01*
X022891Y033417D02*
X020951Y033417D01*
X020928Y033394D02*
X021263Y033730D01*
X021263Y034204D01*
X020928Y034539D01*
X020454Y034539D01*
X020119Y034204D01*
X020119Y033730D01*
X020454Y033394D01*
X020928Y033394D01*
X021010Y033476D02*
X022891Y033476D01*
X022891Y033479D02*
X022891Y033281D01*
X023005Y033167D01*
X023005Y032343D01*
X022891Y032229D01*
X022891Y032031D01*
X023031Y031891D01*
X023229Y031891D01*
X023369Y032031D01*
X023369Y032229D01*
X023255Y032343D01*
X023255Y033167D01*
X023369Y033281D01*
X023369Y033479D01*
X023229Y033619D01*
X023031Y033619D01*
X022891Y033479D01*
X022946Y033534D02*
X021068Y033534D01*
X021127Y033593D02*
X023005Y033593D01*
X023255Y033593D02*
X027992Y033593D01*
X027992Y033651D02*
X021185Y033651D01*
X021244Y033710D02*
X027992Y033710D01*
X027992Y033768D02*
X021263Y033768D01*
X021263Y033827D02*
X027992Y033827D01*
X027992Y033885D02*
X021263Y033885D01*
X021263Y033944D02*
X027992Y033944D01*
X027992Y034002D02*
X021263Y034002D01*
X021263Y034061D02*
X027992Y034061D01*
X027992Y034119D02*
X021263Y034119D01*
X021263Y034178D02*
X027992Y034178D01*
X027992Y034236D02*
X021231Y034236D01*
X021173Y034295D02*
X027992Y034295D01*
X027992Y034353D02*
X021114Y034353D01*
X021056Y034412D02*
X027992Y034412D01*
X027992Y034470D02*
X020997Y034470D01*
X020939Y034529D02*
X027992Y034529D01*
X027992Y033534D02*
X023314Y033534D01*
X023369Y033476D02*
X027992Y033476D01*
X027992Y033417D02*
X023369Y033417D01*
X023369Y033359D02*
X027992Y033359D01*
X027992Y033300D02*
X023369Y033300D01*
X023330Y033242D02*
X027992Y033242D01*
X027992Y033183D02*
X023271Y033183D01*
X023255Y033125D02*
X027992Y033125D01*
X027992Y033066D02*
X023255Y033066D01*
X023255Y033008D02*
X027992Y033008D01*
X027992Y032949D02*
X023255Y032949D01*
X023255Y032891D02*
X027992Y032891D01*
X027992Y032832D02*
X023255Y032832D01*
X023255Y032774D02*
X027992Y032774D01*
X027992Y032715D02*
X023255Y032715D01*
X023255Y032657D02*
X027992Y032657D01*
X027992Y032598D02*
X023255Y032598D01*
X023255Y032540D02*
X027992Y032540D01*
X027992Y032481D02*
X023255Y032481D01*
X023255Y032423D02*
X027992Y032423D01*
X027992Y032364D02*
X023255Y032364D01*
X023292Y032306D02*
X027992Y032306D01*
X027992Y032247D02*
X023351Y032247D01*
X023369Y032189D02*
X027992Y032189D01*
X027992Y032130D02*
X023369Y032130D01*
X023369Y032072D02*
X027992Y032072D01*
X027992Y032013D02*
X023351Y032013D01*
X023293Y031955D02*
X027992Y031955D01*
X027992Y031896D02*
X023234Y031896D01*
X023026Y031896D02*
X017790Y031896D01*
X017790Y031838D02*
X027992Y031838D01*
X027992Y031779D02*
X017790Y031779D01*
X017790Y031721D02*
X027992Y031721D01*
X027992Y031662D02*
X017790Y031662D01*
X017790Y031604D02*
X018516Y031604D01*
X018531Y031619D02*
X018391Y031479D01*
X018391Y031281D01*
X018505Y031167D01*
X018505Y030559D01*
X018442Y030497D01*
X018281Y030497D01*
X018141Y030357D01*
X018141Y030158D01*
X018281Y030018D01*
X018479Y030018D01*
X018619Y030158D01*
X018619Y030320D01*
X018682Y030383D01*
X018755Y030456D01*
X018755Y031167D01*
X018869Y031281D01*
X018869Y031479D01*
X018729Y031619D01*
X018531Y031619D01*
X018457Y031545D02*
X017790Y031545D01*
X017790Y031487D02*
X018399Y031487D01*
X018391Y031428D02*
X017790Y031428D01*
X017790Y031370D02*
X018391Y031370D01*
X018391Y031311D02*
X017790Y031311D01*
X017790Y031253D02*
X018419Y031253D01*
X018478Y031194D02*
X017790Y031194D01*
X017790Y031136D02*
X018505Y031136D01*
X018505Y031077D02*
X017790Y031077D01*
X017790Y031019D02*
X018505Y031019D01*
X018505Y030960D02*
X017790Y030960D01*
X017790Y030902D02*
X018505Y030902D01*
X018505Y030843D02*
X017790Y030843D01*
X017790Y030785D02*
X018505Y030785D01*
X018505Y030726D02*
X017790Y030726D01*
X017790Y030668D02*
X018505Y030668D01*
X018505Y030609D02*
X017790Y030609D01*
X017790Y030551D02*
X018496Y030551D01*
X018277Y030492D02*
X017790Y030492D01*
X017790Y030434D02*
X018218Y030434D01*
X018160Y030375D02*
X017790Y030375D01*
X017790Y030317D02*
X018141Y030317D01*
X018141Y030258D02*
X017790Y030258D01*
X017790Y030200D02*
X018141Y030200D01*
X018158Y030141D02*
X017790Y030141D01*
X017790Y030083D02*
X018217Y030083D01*
X018275Y030024D02*
X017790Y030024D01*
X017790Y029966D02*
X018641Y029966D01*
X018641Y029979D02*
X018641Y029781D01*
X018781Y029641D01*
X018979Y029641D01*
X019093Y029755D01*
X019233Y029755D01*
X019347Y029641D01*
X019545Y029641D01*
X019685Y029781D01*
X019685Y029979D01*
X019545Y030119D01*
X019347Y030119D01*
X019233Y030005D01*
X019093Y030005D01*
X018979Y030119D01*
X018781Y030119D01*
X018641Y029979D01*
X018686Y030024D02*
X018485Y030024D01*
X018543Y030083D02*
X018745Y030083D01*
X018602Y030141D02*
X024976Y030141D01*
X024918Y030083D02*
X019582Y030083D01*
X019640Y030024D02*
X024910Y030024D01*
X024910Y030075D02*
X024910Y029685D01*
X025185Y029410D01*
X025575Y029410D01*
X025850Y029685D01*
X025850Y030075D01*
X025575Y030350D01*
X025185Y030350D01*
X024910Y030075D01*
X024910Y029966D02*
X019685Y029966D01*
X019685Y029907D02*
X024910Y029907D01*
X024910Y029849D02*
X019685Y029849D01*
X019685Y029790D02*
X024910Y029790D01*
X024910Y029732D02*
X019636Y029732D01*
X019577Y029673D02*
X024922Y029673D01*
X024981Y029615D02*
X017790Y029615D01*
X017790Y029673D02*
X018749Y029673D01*
X018690Y029732D02*
X017790Y029732D01*
X017790Y029790D02*
X018641Y029790D01*
X018641Y029849D02*
X017790Y029849D01*
X017790Y029907D02*
X018641Y029907D01*
X018619Y030200D02*
X025035Y030200D01*
X025093Y030258D02*
X018619Y030258D01*
X018619Y030317D02*
X025152Y030317D01*
X025608Y030317D02*
X026152Y030317D01*
X026185Y030350D02*
X025910Y030075D01*
X025910Y029685D01*
X026185Y029410D01*
X026575Y029410D01*
X026850Y029685D01*
X026850Y030075D01*
X026575Y030350D01*
X026185Y030350D01*
X026093Y030258D02*
X025667Y030258D01*
X025725Y030200D02*
X026035Y030200D01*
X025976Y030141D02*
X025784Y030141D01*
X025842Y030083D02*
X025918Y030083D01*
X025910Y030024D02*
X025850Y030024D01*
X025850Y029966D02*
X025910Y029966D01*
X025910Y029907D02*
X025850Y029907D01*
X025850Y029849D02*
X025910Y029849D01*
X025910Y029790D02*
X025850Y029790D01*
X025850Y029732D02*
X025910Y029732D01*
X025922Y029673D02*
X025838Y029673D01*
X025779Y029615D02*
X025981Y029615D01*
X026039Y029556D02*
X025721Y029556D01*
X025662Y029498D02*
X026098Y029498D01*
X026156Y029439D02*
X025604Y029439D01*
X025575Y029350D02*
X025185Y029350D01*
X024910Y029075D01*
X024910Y028685D01*
X025185Y028410D01*
X025575Y028410D01*
X025850Y028685D01*
X025850Y029075D01*
X025575Y029350D01*
X025603Y029322D02*
X026157Y029322D01*
X026185Y029350D02*
X025910Y029075D01*
X025910Y028685D01*
X026185Y028410D01*
X026575Y028410D01*
X026850Y028685D01*
X026850Y029075D01*
X026575Y029350D01*
X026185Y029350D01*
X026099Y029264D02*
X025661Y029264D01*
X025720Y029205D02*
X026040Y029205D01*
X025982Y029147D02*
X025778Y029147D01*
X025837Y029088D02*
X025923Y029088D01*
X025910Y029030D02*
X025850Y029030D01*
X025850Y028971D02*
X025910Y028971D01*
X025910Y028913D02*
X025850Y028913D01*
X025850Y028854D02*
X025910Y028854D01*
X025910Y028796D02*
X025850Y028796D01*
X025850Y028737D02*
X025910Y028737D01*
X025917Y028679D02*
X025843Y028679D01*
X025785Y028620D02*
X025975Y028620D01*
X026034Y028562D02*
X025726Y028562D01*
X025668Y028503D02*
X026092Y028503D01*
X026151Y028445D02*
X025609Y028445D01*
X025575Y028350D02*
X025185Y028350D01*
X024910Y028075D01*
X024910Y027685D01*
X025185Y027410D01*
X025575Y027410D01*
X025850Y027685D01*
X025850Y028075D01*
X025575Y028350D01*
X025597Y028328D02*
X026121Y028328D01*
X026173Y028380D02*
X025880Y028087D01*
X025880Y027910D01*
X026350Y027910D01*
X026350Y028380D01*
X026173Y028380D01*
X026062Y028269D02*
X025656Y028269D01*
X025714Y028211D02*
X026004Y028211D01*
X025945Y028152D02*
X025773Y028152D01*
X025831Y028094D02*
X025887Y028094D01*
X025880Y028035D02*
X025850Y028035D01*
X025850Y027977D02*
X025880Y027977D01*
X025880Y027918D02*
X025850Y027918D01*
X025850Y027860D02*
X026350Y027860D01*
X026350Y027850D02*
X025880Y027850D01*
X025880Y027673D01*
X026173Y027380D01*
X026350Y027380D01*
X026350Y027850D01*
X026350Y027910D01*
X026410Y027910D01*
X026410Y028380D01*
X026587Y028380D01*
X026880Y028087D01*
X026880Y027910D01*
X026410Y027910D01*
X026410Y027850D01*
X026880Y027850D01*
X026880Y027673D01*
X026587Y027380D01*
X026410Y027380D01*
X026410Y027850D01*
X026350Y027850D01*
X026350Y027801D02*
X026410Y027801D01*
X026410Y027743D02*
X026350Y027743D01*
X026350Y027684D02*
X026410Y027684D01*
X026410Y027626D02*
X026350Y027626D01*
X026350Y027567D02*
X026410Y027567D01*
X026410Y027509D02*
X026350Y027509D01*
X026350Y027450D02*
X026410Y027450D01*
X026410Y027392D02*
X026350Y027392D01*
X026350Y027380D02*
X026173Y027380D01*
X025880Y027087D01*
X025880Y026910D01*
X026350Y026910D01*
X026350Y027380D01*
X026350Y027333D02*
X026410Y027333D01*
X026410Y027380D02*
X026410Y026910D01*
X026350Y026910D01*
X026350Y026850D01*
X025880Y026850D01*
X025880Y026673D01*
X026173Y026380D01*
X025880Y026087D01*
X025880Y025910D01*
X026350Y025910D01*
X026350Y026380D01*
X026350Y026850D01*
X026410Y026850D01*
X026410Y026910D01*
X026880Y026910D01*
X026880Y027087D01*
X026587Y027380D01*
X026410Y027380D01*
X026410Y027275D02*
X026350Y027275D01*
X026350Y027216D02*
X026410Y027216D01*
X026410Y027158D02*
X026350Y027158D01*
X026350Y027099D02*
X026410Y027099D01*
X026410Y027041D02*
X026350Y027041D01*
X026350Y026982D02*
X026410Y026982D01*
X026410Y026924D02*
X026350Y026924D01*
X026350Y026865D02*
X025850Y026865D01*
X025850Y026807D02*
X025880Y026807D01*
X025880Y026748D02*
X025850Y026748D01*
X025850Y026690D02*
X025880Y026690D01*
X025850Y026685D02*
X025575Y026410D01*
X025185Y026410D01*
X024910Y026685D01*
X024910Y027075D01*
X025185Y027350D01*
X025575Y027350D01*
X025850Y027075D01*
X025850Y026685D01*
X025796Y026631D02*
X025922Y026631D01*
X025980Y026573D02*
X025737Y026573D01*
X025679Y026514D02*
X026039Y026514D01*
X026097Y026456D02*
X025620Y026456D01*
X025575Y026350D02*
X025185Y026350D01*
X024910Y026075D01*
X024910Y025685D01*
X025185Y025410D01*
X025575Y025410D01*
X025850Y025685D01*
X025850Y026075D01*
X025575Y026350D01*
X025586Y026339D02*
X026131Y026339D01*
X026173Y026380D02*
X026350Y026380D01*
X026173Y026380D01*
X026156Y026397D02*
X018693Y026397D01*
X018751Y026339D02*
X025174Y026339D01*
X025115Y026280D02*
X018810Y026280D01*
X018868Y026222D02*
X025057Y026222D01*
X024998Y026163D02*
X018927Y026163D01*
X018985Y026105D02*
X024940Y026105D01*
X024910Y026046D02*
X019044Y026046D01*
X019102Y025988D02*
X024910Y025988D01*
X024910Y025929D02*
X019161Y025929D01*
X019219Y025871D02*
X024910Y025871D01*
X024910Y025812D02*
X019278Y025812D01*
X019336Y025754D02*
X024910Y025754D01*
X024910Y025695D02*
X019395Y025695D01*
X019453Y025637D02*
X024959Y025637D01*
X025017Y025578D02*
X019512Y025578D01*
X019570Y025520D02*
X025076Y025520D01*
X025134Y025461D02*
X019629Y025461D01*
X019687Y025403D02*
X026150Y025403D01*
X026173Y025380D02*
X025880Y025673D01*
X025880Y025850D01*
X026350Y025850D01*
X026350Y025910D01*
X026410Y025910D01*
X026410Y026380D01*
X026587Y026380D01*
X026880Y026087D01*
X026880Y025910D01*
X026410Y025910D01*
X026410Y025850D01*
X026880Y025850D01*
X026880Y025673D01*
X026587Y025380D01*
X026410Y025380D01*
X026410Y025850D01*
X026350Y025850D01*
X026350Y025380D01*
X026173Y025380D01*
X026092Y025461D02*
X025626Y025461D01*
X025684Y025520D02*
X026033Y025520D01*
X025975Y025578D02*
X025743Y025578D01*
X025801Y025637D02*
X025916Y025637D01*
X025880Y025695D02*
X025850Y025695D01*
X025850Y025754D02*
X025880Y025754D01*
X025880Y025812D02*
X025850Y025812D01*
X025850Y025871D02*
X026350Y025871D01*
X026350Y025929D02*
X026410Y025929D01*
X026410Y025871D02*
X027992Y025871D01*
X027992Y025929D02*
X026880Y025929D01*
X026880Y025988D02*
X027992Y025988D01*
X027992Y026046D02*
X026880Y026046D01*
X026863Y026105D02*
X027992Y026105D01*
X027992Y026163D02*
X026804Y026163D01*
X026746Y026222D02*
X027992Y026222D01*
X027992Y026280D02*
X026687Y026280D01*
X026629Y026339D02*
X027992Y026339D01*
X027992Y026397D02*
X026604Y026397D01*
X026587Y026380D02*
X026880Y026673D01*
X026880Y026850D01*
X026410Y026850D01*
X026410Y026380D01*
X026587Y026380D01*
X026663Y026456D02*
X027992Y026456D01*
X027992Y026514D02*
X026721Y026514D01*
X026780Y026573D02*
X027992Y026573D01*
X027992Y026631D02*
X026838Y026631D01*
X026880Y026690D02*
X027992Y026690D01*
X027992Y026748D02*
X026880Y026748D01*
X026880Y026807D02*
X027992Y026807D01*
X027992Y026865D02*
X026410Y026865D01*
X026410Y026807D02*
X026350Y026807D01*
X026350Y026748D02*
X026410Y026748D01*
X026410Y026690D02*
X026350Y026690D01*
X026350Y026631D02*
X026410Y026631D01*
X026410Y026573D02*
X026350Y026573D01*
X026350Y026514D02*
X026410Y026514D01*
X026410Y026456D02*
X026350Y026456D01*
X026350Y026397D02*
X026410Y026397D01*
X026410Y026339D02*
X026350Y026339D01*
X026350Y026280D02*
X026410Y026280D01*
X026410Y026222D02*
X026350Y026222D01*
X026350Y026163D02*
X026410Y026163D01*
X026410Y026105D02*
X026350Y026105D01*
X026350Y026046D02*
X026410Y026046D01*
X026410Y025988D02*
X026350Y025988D01*
X026350Y025812D02*
X026410Y025812D01*
X026410Y025754D02*
X026350Y025754D01*
X026350Y025695D02*
X026410Y025695D01*
X026410Y025637D02*
X026350Y025637D01*
X026350Y025578D02*
X026410Y025578D01*
X026410Y025520D02*
X026350Y025520D01*
X026350Y025461D02*
X026410Y025461D01*
X026410Y025403D02*
X026350Y025403D01*
X026610Y025403D02*
X027992Y025403D01*
X027992Y025461D02*
X026668Y025461D01*
X026727Y025520D02*
X027992Y025520D01*
X027992Y025578D02*
X026785Y025578D01*
X026844Y025637D02*
X027992Y025637D01*
X027992Y025695D02*
X026880Y025695D01*
X026880Y025754D02*
X027992Y025754D01*
X027992Y025812D02*
X026880Y025812D01*
X026880Y026924D02*
X027992Y026924D01*
X027992Y026982D02*
X026880Y026982D01*
X026880Y027041D02*
X027992Y027041D01*
X027992Y027099D02*
X026868Y027099D01*
X026810Y027158D02*
X027992Y027158D01*
X027992Y027216D02*
X026751Y027216D01*
X026693Y027275D02*
X027992Y027275D01*
X027992Y027333D02*
X026634Y027333D01*
X026599Y027392D02*
X027992Y027392D01*
X027992Y027450D02*
X026657Y027450D01*
X026716Y027509D02*
X027992Y027509D01*
X027992Y027567D02*
X026774Y027567D01*
X026833Y027626D02*
X027992Y027626D01*
X027992Y027684D02*
X026880Y027684D01*
X026880Y027743D02*
X027992Y027743D01*
X027992Y027801D02*
X026880Y027801D01*
X026880Y027918D02*
X027992Y027918D01*
X027992Y027860D02*
X026410Y027860D01*
X026410Y027918D02*
X026350Y027918D01*
X026350Y027977D02*
X026410Y027977D01*
X026410Y028035D02*
X026350Y028035D01*
X026350Y028094D02*
X026410Y028094D01*
X026410Y028152D02*
X026350Y028152D01*
X026350Y028211D02*
X026410Y028211D01*
X026410Y028269D02*
X026350Y028269D01*
X026350Y028328D02*
X026410Y028328D01*
X026639Y028328D02*
X027992Y028328D01*
X027992Y028386D02*
X017790Y028386D01*
X017790Y028328D02*
X025163Y028328D01*
X025104Y028269D02*
X017790Y028269D01*
X017790Y028211D02*
X025046Y028211D01*
X024987Y028152D02*
X017790Y028152D01*
X017790Y028094D02*
X024929Y028094D01*
X024910Y028035D02*
X017790Y028035D01*
X017790Y027977D02*
X024910Y027977D01*
X024910Y027918D02*
X017790Y027918D01*
X017790Y027860D02*
X024910Y027860D01*
X024910Y027801D02*
X017790Y027801D01*
X017790Y027743D02*
X024910Y027743D01*
X024911Y027684D02*
X017790Y027684D01*
X017790Y027626D02*
X024970Y027626D01*
X025028Y027567D02*
X017790Y027567D01*
X017790Y027509D02*
X025087Y027509D01*
X025145Y027450D02*
X017790Y027450D01*
X017790Y027392D02*
X026161Y027392D01*
X026126Y027333D02*
X025592Y027333D01*
X025650Y027275D02*
X026067Y027275D01*
X026009Y027216D02*
X025709Y027216D01*
X025767Y027158D02*
X025950Y027158D01*
X025892Y027099D02*
X025826Y027099D01*
X025850Y027041D02*
X025880Y027041D01*
X025880Y026982D02*
X025850Y026982D01*
X025850Y026924D02*
X025880Y026924D01*
X026103Y027450D02*
X025615Y027450D01*
X025673Y027509D02*
X026044Y027509D01*
X025986Y027567D02*
X025732Y027567D01*
X025790Y027626D02*
X025927Y027626D01*
X025880Y027684D02*
X025849Y027684D01*
X025850Y027743D02*
X025880Y027743D01*
X025880Y027801D02*
X025850Y027801D01*
X025168Y027333D02*
X017790Y027333D01*
X017815Y027275D02*
X025110Y027275D01*
X025051Y027216D02*
X017874Y027216D01*
X017932Y027158D02*
X024993Y027158D01*
X024934Y027099D02*
X017991Y027099D01*
X018049Y027041D02*
X024910Y027041D01*
X024910Y026982D02*
X018108Y026982D01*
X018166Y026924D02*
X024910Y026924D01*
X024910Y026865D02*
X018225Y026865D01*
X018283Y026807D02*
X024910Y026807D01*
X024910Y026748D02*
X018342Y026748D01*
X018400Y026690D02*
X024910Y026690D01*
X024964Y026631D02*
X018459Y026631D01*
X018517Y026573D02*
X025023Y026573D01*
X025081Y026514D02*
X018576Y026514D01*
X018634Y026456D02*
X025140Y026456D01*
X025645Y026280D02*
X026073Y026280D01*
X026014Y026222D02*
X025703Y026222D01*
X025762Y026163D02*
X025956Y026163D01*
X025897Y026105D02*
X025820Y026105D01*
X025850Y026046D02*
X025880Y026046D01*
X025880Y025988D02*
X025850Y025988D01*
X025850Y025929D02*
X025880Y025929D01*
X026880Y027977D02*
X027992Y027977D01*
X027992Y028035D02*
X026880Y028035D01*
X026873Y028094D02*
X027992Y028094D01*
X027992Y028152D02*
X026815Y028152D01*
X026756Y028211D02*
X027992Y028211D01*
X027992Y028269D02*
X026698Y028269D01*
X026609Y028445D02*
X027992Y028445D01*
X027992Y028503D02*
X026668Y028503D01*
X026726Y028562D02*
X027992Y028562D01*
X027992Y028620D02*
X026785Y028620D01*
X026843Y028679D02*
X027992Y028679D01*
X027992Y028737D02*
X026850Y028737D01*
X026850Y028796D02*
X027992Y028796D01*
X027992Y028854D02*
X026850Y028854D01*
X026850Y028913D02*
X027992Y028913D01*
X027992Y028971D02*
X026850Y028971D01*
X026850Y029030D02*
X027992Y029030D01*
X027992Y029088D02*
X026837Y029088D01*
X026778Y029147D02*
X027992Y029147D01*
X027992Y029205D02*
X026720Y029205D01*
X026661Y029264D02*
X027992Y029264D01*
X027992Y029322D02*
X026603Y029322D01*
X026604Y029439D02*
X027992Y029439D01*
X027992Y029381D02*
X017790Y029381D01*
X017790Y029439D02*
X025156Y029439D01*
X025098Y029498D02*
X017790Y029498D01*
X017790Y029556D02*
X025039Y029556D01*
X025157Y029322D02*
X017790Y029322D01*
X017790Y029264D02*
X025099Y029264D01*
X025040Y029205D02*
X017790Y029205D01*
X017790Y029147D02*
X024982Y029147D01*
X024923Y029088D02*
X017790Y029088D01*
X017790Y029030D02*
X024910Y029030D01*
X024910Y028971D02*
X017790Y028971D01*
X017790Y028913D02*
X024910Y028913D01*
X024910Y028854D02*
X017790Y028854D01*
X017790Y028796D02*
X024910Y028796D01*
X024910Y028737D02*
X017790Y028737D01*
X017790Y028679D02*
X024917Y028679D01*
X024975Y028620D02*
X017790Y028620D01*
X017790Y028562D02*
X025034Y028562D01*
X025092Y028503D02*
X017790Y028503D01*
X017790Y028445D02*
X025151Y028445D01*
X026662Y029498D02*
X027992Y029498D01*
X027992Y029556D02*
X026721Y029556D01*
X026779Y029615D02*
X027992Y029615D01*
X027992Y029673D02*
X026838Y029673D01*
X026850Y029732D02*
X027992Y029732D01*
X027992Y029790D02*
X026850Y029790D01*
X026850Y029849D02*
X027992Y029849D01*
X027992Y029907D02*
X026850Y029907D01*
X026850Y029966D02*
X027992Y029966D01*
X027992Y030024D02*
X026850Y030024D01*
X026842Y030083D02*
X027992Y030083D01*
X027992Y030141D02*
X026784Y030141D01*
X026725Y030200D02*
X027992Y030200D01*
X027992Y030258D02*
X026667Y030258D01*
X026608Y030317D02*
X027992Y030317D01*
X027992Y030375D02*
X018674Y030375D01*
X018682Y030383D02*
X018682Y030383D01*
X018733Y030434D02*
X027992Y030434D01*
X027992Y030492D02*
X018755Y030492D01*
X018755Y030551D02*
X027992Y030551D01*
X027992Y030609D02*
X018755Y030609D01*
X018755Y030668D02*
X027992Y030668D01*
X027992Y030726D02*
X018755Y030726D01*
X018755Y030785D02*
X027992Y030785D01*
X027992Y030843D02*
X018755Y030843D01*
X018755Y030902D02*
X027992Y030902D01*
X027992Y030960D02*
X018755Y030960D01*
X018755Y031019D02*
X027992Y031019D01*
X027992Y031077D02*
X018755Y031077D01*
X018755Y031136D02*
X027992Y031136D01*
X027992Y031194D02*
X018782Y031194D01*
X018841Y031253D02*
X027992Y031253D01*
X027992Y031311D02*
X018869Y031311D01*
X018869Y031370D02*
X027992Y031370D01*
X027992Y031428D02*
X018869Y031428D01*
X018861Y031487D02*
X027992Y031487D01*
X027992Y031545D02*
X018803Y031545D01*
X018744Y031604D02*
X027992Y031604D01*
X027992Y025344D02*
X019746Y025344D01*
X019804Y025286D02*
X027992Y025286D01*
X027992Y025227D02*
X019863Y025227D01*
X019921Y025169D02*
X027992Y025169D01*
X027992Y025110D02*
X019980Y025110D01*
X020038Y025052D02*
X027992Y025052D01*
X027992Y024993D02*
X020097Y024993D01*
X020155Y024935D02*
X027992Y024935D01*
X027992Y024876D02*
X020214Y024876D01*
X020246Y024818D02*
X027992Y024818D01*
X027992Y024759D02*
X020270Y024759D01*
X020290Y024701D02*
X027992Y024701D01*
X027992Y024642D02*
X020290Y024642D01*
X020290Y024584D02*
X027992Y024584D01*
X027992Y024525D02*
X020290Y024525D01*
X020290Y024467D02*
X027992Y024467D01*
X027992Y024408D02*
X020290Y024408D01*
X020290Y024350D02*
X021512Y024350D01*
X021531Y024369D02*
X021391Y024229D01*
X021391Y024031D01*
X021531Y023891D01*
X021729Y023891D01*
X021843Y024005D01*
X021917Y024005D01*
X022031Y023891D01*
X022229Y023891D01*
X022369Y024031D01*
X022369Y024229D01*
X022229Y024369D01*
X022031Y024369D01*
X021917Y024255D01*
X021843Y024255D01*
X021729Y024369D01*
X021531Y024369D01*
X021453Y024291D02*
X020290Y024291D01*
X020290Y024233D02*
X021395Y024233D01*
X021391Y024174D02*
X020290Y024174D01*
X020290Y024116D02*
X021391Y024116D01*
X021391Y024057D02*
X020290Y024057D01*
X020290Y023999D02*
X021423Y023999D01*
X021482Y023940D02*
X020290Y023940D01*
X020290Y023882D02*
X027992Y023882D01*
X027992Y023940D02*
X022278Y023940D01*
X022337Y023999D02*
X027992Y023999D01*
X027992Y024057D02*
X022369Y024057D01*
X022369Y024116D02*
X027992Y024116D01*
X027992Y024174D02*
X022369Y024174D01*
X022365Y024233D02*
X027992Y024233D01*
X027992Y024291D02*
X022307Y024291D01*
X022248Y024350D02*
X027992Y024350D01*
X027992Y023823D02*
X020290Y023823D01*
X020290Y023765D02*
X027992Y023765D01*
X027992Y023706D02*
X020290Y023706D01*
X020290Y023648D02*
X027992Y023648D01*
X027992Y023589D02*
X020290Y023589D01*
X020290Y022712D02*
X024545Y022712D01*
X024545Y022653D02*
X020290Y022653D01*
X020290Y022595D02*
X024545Y022595D01*
X024545Y022536D02*
X020290Y022536D01*
X020290Y022478D02*
X024545Y022478D01*
X024545Y022419D02*
X020290Y022419D01*
X020290Y022361D02*
X024545Y022361D01*
X024545Y022302D02*
X020290Y022302D01*
X020290Y022244D02*
X024545Y022244D01*
X024545Y022185D02*
X020290Y022185D01*
X020290Y022127D02*
X024312Y022127D01*
X024304Y022068D02*
X022280Y022068D01*
X022229Y022119D02*
X022369Y021979D01*
X022369Y021781D01*
X022229Y021641D01*
X022031Y021641D01*
X021917Y021755D01*
X021843Y021755D01*
X021729Y021641D01*
X021531Y021641D01*
X021391Y021781D01*
X021391Y021979D01*
X021531Y022119D01*
X021729Y022119D01*
X021843Y022005D01*
X021917Y022005D01*
X022031Y022119D01*
X022229Y022119D01*
X022338Y022010D02*
X024304Y022010D01*
X024304Y021951D02*
X022369Y021951D01*
X022369Y021893D02*
X024304Y021893D01*
X024304Y021834D02*
X022369Y021834D01*
X022364Y021776D02*
X024304Y021776D01*
X024304Y021717D02*
X022305Y021717D01*
X022247Y021659D02*
X024304Y021659D01*
X024345Y021600D02*
X020290Y021600D01*
X020290Y021542D02*
X024713Y021542D01*
X024842Y021483D02*
X020290Y021483D01*
X020290Y021425D02*
X027992Y021425D01*
X027992Y021483D02*
X025068Y021483D01*
X025196Y021542D02*
X027992Y021542D01*
X027992Y021600D02*
X027457Y021600D01*
X027460Y021603D02*
X027478Y021633D01*
X027486Y021666D01*
X027486Y021850D01*
X026835Y021850D01*
X026835Y021553D01*
X027373Y021553D01*
X027407Y021562D01*
X027436Y021579D01*
X027460Y021603D01*
X027484Y021659D02*
X027992Y021659D01*
X027992Y021717D02*
X027486Y021717D01*
X027486Y021776D02*
X027992Y021776D01*
X027992Y021834D02*
X027486Y021834D01*
X027486Y021910D02*
X027486Y022094D01*
X027478Y022127D01*
X027460Y022157D01*
X027436Y022181D01*
X027407Y022198D01*
X027373Y022207D01*
X026835Y022207D01*
X026835Y021910D01*
X026775Y021910D01*
X026775Y021850D01*
X026124Y021850D01*
X026124Y021666D01*
X026133Y021633D01*
X026150Y021603D01*
X026174Y021579D01*
X026204Y021562D01*
X026237Y021553D01*
X026775Y021553D01*
X026775Y021850D01*
X026835Y021850D01*
X026835Y021910D01*
X027486Y021910D01*
X027486Y021951D02*
X027992Y021951D01*
X027992Y021893D02*
X026835Y021893D01*
X026835Y021951D02*
X026775Y021951D01*
X026775Y021910D02*
X026775Y022207D01*
X026237Y022207D01*
X026204Y022198D01*
X026174Y022181D01*
X026150Y022157D01*
X026133Y022127D01*
X026124Y022094D01*
X026124Y021910D01*
X026775Y021910D01*
X026775Y021893D02*
X025606Y021893D01*
X025606Y021951D02*
X026124Y021951D01*
X026124Y022010D02*
X025606Y022010D01*
X025606Y022068D02*
X026124Y022068D01*
X026133Y022127D02*
X025598Y022127D01*
X025365Y022185D02*
X026181Y022185D01*
X026124Y021834D02*
X025606Y021834D01*
X025606Y021776D02*
X026124Y021776D01*
X026124Y021717D02*
X025606Y021717D01*
X025606Y021659D02*
X026126Y021659D01*
X026153Y021600D02*
X025564Y021600D01*
X025365Y022244D02*
X027992Y022244D01*
X027992Y022302D02*
X025365Y022302D01*
X025365Y022361D02*
X027992Y022361D01*
X027992Y022419D02*
X025365Y022419D01*
X025365Y022478D02*
X027992Y022478D01*
X027992Y022536D02*
X025365Y022536D01*
X025365Y022595D02*
X027992Y022595D01*
X027992Y022653D02*
X025365Y022653D01*
X025365Y022712D02*
X027992Y022712D01*
X027992Y022770D02*
X025582Y022770D01*
X025658Y022829D02*
X027992Y022829D01*
X027992Y022887D02*
X025717Y022887D01*
X025747Y022946D02*
X027992Y022946D01*
X027992Y023004D02*
X025772Y023004D01*
X025790Y023063D02*
X027992Y023063D01*
X027992Y023121D02*
X025790Y023121D01*
X025790Y023180D02*
X027992Y023180D01*
X027992Y023238D02*
X025779Y023238D01*
X025755Y023297D02*
X027992Y023297D01*
X027992Y023355D02*
X025731Y023355D01*
X025676Y023414D02*
X027992Y023414D01*
X027992Y023472D02*
X025618Y023472D01*
X025484Y023531D02*
X027992Y023531D01*
X027992Y022185D02*
X027429Y022185D01*
X027478Y022127D02*
X027992Y022127D01*
X027992Y022068D02*
X027486Y022068D01*
X027486Y022010D02*
X027992Y022010D01*
X027992Y021366D02*
X020290Y021366D01*
X020290Y021308D02*
X027992Y021308D01*
X027992Y021249D02*
X020290Y021249D01*
X020290Y021191D02*
X027992Y021191D01*
X027992Y021132D02*
X020290Y021132D01*
X020290Y021074D02*
X027992Y021074D01*
X027992Y021015D02*
X020290Y021015D01*
X020290Y020957D02*
X027992Y020957D01*
X027992Y020898D02*
X020290Y020898D01*
X020290Y020840D02*
X027992Y020840D01*
X027992Y020781D02*
X020290Y020781D01*
X020290Y020723D02*
X027992Y020723D01*
X027992Y020664D02*
X020290Y020664D01*
X020290Y020606D02*
X027992Y020606D01*
X027992Y020547D02*
X020290Y020547D01*
X020290Y020489D02*
X027992Y020489D01*
X027992Y020430D02*
X020290Y020430D01*
X020290Y020372D02*
X027992Y020372D01*
X027992Y020313D02*
X020290Y020313D01*
X020290Y020255D02*
X027992Y020255D01*
X027992Y020196D02*
X020290Y020196D01*
X020290Y020138D02*
X027992Y020138D01*
X027992Y020079D02*
X020290Y020079D01*
X020290Y020021D02*
X027992Y020021D01*
X027992Y019962D02*
X020290Y019962D01*
X020290Y019904D02*
X027992Y019904D01*
X027992Y019845D02*
X020290Y019845D01*
X020290Y019787D02*
X027992Y019787D01*
X027992Y019728D02*
X020290Y019728D01*
X020290Y019670D02*
X027992Y019670D01*
X027992Y019611D02*
X020290Y019611D01*
X020290Y019553D02*
X027992Y019553D01*
X027992Y019494D02*
X020290Y019494D01*
X020290Y019436D02*
X027992Y019436D01*
X027992Y019377D02*
X020290Y019377D01*
X020290Y019319D02*
X027992Y019319D01*
X027992Y019260D02*
X020290Y019260D01*
X020290Y019202D02*
X027992Y019202D01*
X027992Y019143D02*
X020290Y019143D01*
X020290Y019085D02*
X027992Y019085D01*
X027992Y019026D02*
X020290Y019026D01*
X020290Y018968D02*
X027992Y018968D01*
X027992Y018909D02*
X020290Y018909D01*
X020290Y018851D02*
X024012Y018851D01*
X024031Y018869D02*
X023978Y018816D01*
X021924Y018816D01*
X021918Y018821D01*
X021873Y018816D01*
X021828Y018816D01*
X021823Y018811D01*
X021815Y018810D01*
X021787Y018775D01*
X021755Y018743D01*
X021755Y018735D01*
X021537Y018464D01*
X021505Y018432D01*
X021505Y018424D01*
X021500Y018418D01*
X021501Y018406D01*
X021396Y018300D01*
X021396Y018102D01*
X021536Y017962D01*
X021734Y017962D01*
X021874Y018102D01*
X021874Y018300D01*
X021792Y018382D01*
X021940Y018566D01*
X023621Y018566D01*
X023559Y018505D01*
X022517Y018505D01*
X022447Y018435D01*
X022286Y018435D01*
X022146Y018295D01*
X022146Y018097D01*
X022286Y017957D01*
X022484Y017957D01*
X022624Y018097D01*
X022624Y018255D01*
X023559Y018255D01*
X023673Y018141D01*
X023872Y018141D01*
X024012Y018281D01*
X024012Y018410D01*
X024031Y018391D01*
X024229Y018391D01*
X024369Y018531D01*
X024369Y018729D01*
X024229Y018869D01*
X024031Y018869D01*
X024248Y018851D02*
X027992Y018851D01*
X027992Y018792D02*
X024306Y018792D01*
X024365Y018734D02*
X027992Y018734D01*
X027992Y018675D02*
X024369Y018675D01*
X024369Y018617D02*
X027992Y018617D01*
X027992Y018558D02*
X024369Y018558D01*
X024338Y018500D02*
X027992Y018500D01*
X027992Y018441D02*
X024279Y018441D01*
X024012Y018383D02*
X027992Y018383D01*
X027992Y018324D02*
X024012Y018324D01*
X023996Y018266D02*
X027992Y018266D01*
X027992Y018207D02*
X023938Y018207D01*
X023879Y018149D02*
X027992Y018149D01*
X027992Y018090D02*
X027267Y018090D01*
X027242Y018098D02*
X027314Y018075D01*
X027382Y018041D01*
X027443Y017996D01*
X027496Y017943D01*
X027541Y017882D01*
X027575Y017814D01*
X027598Y017742D01*
X027610Y017668D01*
X027610Y017660D01*
X027160Y017660D01*
X027100Y017660D01*
X027100Y018110D01*
X027092Y018110D01*
X027018Y018098D01*
X026946Y018075D01*
X026878Y018041D01*
X026817Y017996D01*
X026764Y017943D01*
X026719Y017882D01*
X026685Y017814D01*
X026662Y017742D01*
X026650Y017668D01*
X026650Y017660D01*
X027100Y017660D01*
X027100Y017600D01*
X026650Y017600D01*
X026650Y017592D01*
X026662Y017518D01*
X026685Y017446D01*
X026719Y017378D01*
X026764Y017317D01*
X026817Y017264D01*
X026878Y017219D01*
X026946Y017185D01*
X027018Y017162D01*
X027092Y017150D01*
X027100Y017150D01*
X027100Y017600D01*
X027160Y017600D01*
X027160Y017660D01*
X027160Y018110D01*
X027168Y018110D01*
X027242Y018098D01*
X027160Y018090D02*
X027100Y018090D01*
X027100Y018032D02*
X027160Y018032D01*
X027160Y017973D02*
X027100Y017973D01*
X027100Y017915D02*
X027160Y017915D01*
X027160Y017856D02*
X027100Y017856D01*
X027100Y017798D02*
X027160Y017798D01*
X027160Y017739D02*
X027100Y017739D01*
X027100Y017681D02*
X027160Y017681D01*
X027160Y017622D02*
X027992Y017622D01*
X027992Y017564D02*
X027605Y017564D01*
X027610Y017592D02*
X027598Y017518D01*
X027575Y017446D01*
X027541Y017378D01*
X027496Y017317D01*
X027443Y017264D01*
X027382Y017219D01*
X027314Y017185D01*
X027242Y017162D01*
X027168Y017150D01*
X027160Y017150D01*
X027160Y017600D01*
X027610Y017600D01*
X027610Y017592D01*
X027594Y017505D02*
X027992Y017505D01*
X027992Y017447D02*
X027575Y017447D01*
X027545Y017388D02*
X027992Y017388D01*
X027992Y017330D02*
X027505Y017330D01*
X027450Y017271D02*
X027992Y017271D01*
X027992Y017213D02*
X027368Y017213D01*
X027323Y017037D02*
X027992Y017037D01*
X027992Y016979D02*
X027418Y016979D01*
X027385Y017011D02*
X027220Y017080D01*
X027040Y017080D01*
X026875Y017011D01*
X026749Y016885D01*
X026680Y016720D01*
X026680Y016540D01*
X026749Y016375D01*
X026875Y016249D01*
X026908Y016235D01*
X026863Y016235D01*
X026729Y016369D01*
X026531Y016369D01*
X026391Y016229D01*
X026391Y016031D01*
X026531Y015891D01*
X026729Y015891D01*
X026823Y015985D01*
X026849Y015985D01*
X026749Y015885D01*
X026680Y015720D01*
X026680Y015540D01*
X026749Y015375D01*
X026875Y015249D01*
X027040Y015180D01*
X027220Y015180D01*
X027385Y015249D01*
X027511Y015375D01*
X027561Y015495D01*
X027561Y014765D01*
X027511Y014885D01*
X027385Y015011D01*
X027220Y015080D01*
X027040Y015080D01*
X026875Y015011D01*
X026749Y014885D01*
X026680Y014720D01*
X026680Y014540D01*
X026749Y014375D01*
X026875Y014249D01*
X027040Y014180D01*
X027220Y014180D01*
X027385Y014249D01*
X027511Y014375D01*
X027561Y014495D01*
X027561Y014238D01*
X027349Y014026D01*
X027220Y014080D01*
X027040Y014080D01*
X026875Y014011D01*
X026749Y013885D01*
X026680Y013720D01*
X026680Y013540D01*
X026749Y013375D01*
X026875Y013249D01*
X027040Y013180D01*
X027220Y013180D01*
X027385Y013249D01*
X027511Y013375D01*
X027580Y013540D01*
X027580Y013720D01*
X027526Y013849D01*
X027811Y014134D01*
X027811Y015856D01*
X027738Y015929D01*
X027432Y016235D01*
X027352Y016235D01*
X027385Y016249D01*
X027511Y016375D01*
X027580Y016540D01*
X027580Y016720D01*
X027511Y016885D01*
X027385Y017011D01*
X027476Y016920D02*
X027992Y016920D01*
X027992Y016862D02*
X027521Y016862D01*
X027545Y016803D02*
X027992Y016803D01*
X027992Y016745D02*
X027570Y016745D01*
X027580Y016686D02*
X027992Y016686D01*
X027992Y016628D02*
X027580Y016628D01*
X027580Y016569D02*
X027992Y016569D01*
X027992Y016511D02*
X027568Y016511D01*
X027543Y016452D02*
X027992Y016452D01*
X027992Y016394D02*
X027519Y016394D01*
X027471Y016335D02*
X027992Y016335D01*
X027992Y016277D02*
X027413Y016277D01*
X027449Y016218D02*
X027992Y016218D01*
X027992Y016160D02*
X027507Y016160D01*
X027566Y016101D02*
X027992Y016101D01*
X027992Y016043D02*
X027624Y016043D01*
X027683Y015984D02*
X027992Y015984D01*
X027992Y015926D02*
X027741Y015926D01*
X027800Y015867D02*
X027992Y015867D01*
X027992Y015809D02*
X027811Y015809D01*
X027811Y015750D02*
X027992Y015750D01*
X027992Y015692D02*
X027811Y015692D01*
X027811Y015633D02*
X027992Y015633D01*
X027992Y015575D02*
X027811Y015575D01*
X027811Y015516D02*
X027992Y015516D01*
X027992Y015458D02*
X027811Y015458D01*
X027811Y015399D02*
X027992Y015399D01*
X027992Y015341D02*
X027811Y015341D01*
X027811Y015282D02*
X027992Y015282D01*
X027992Y015224D02*
X027811Y015224D01*
X027811Y015165D02*
X027992Y015165D01*
X027992Y015107D02*
X027811Y015107D01*
X027811Y015048D02*
X027992Y015048D01*
X027992Y014990D02*
X027811Y014990D01*
X027811Y014931D02*
X027992Y014931D01*
X027992Y014873D02*
X027811Y014873D01*
X027811Y014814D02*
X027992Y014814D01*
X027992Y014756D02*
X027811Y014756D01*
X027811Y014697D02*
X027992Y014697D01*
X027992Y014639D02*
X027811Y014639D01*
X027811Y014580D02*
X027992Y014580D01*
X027992Y014522D02*
X027811Y014522D01*
X027811Y014463D02*
X027992Y014463D01*
X027992Y014405D02*
X027811Y014405D01*
X027811Y014346D02*
X027992Y014346D01*
X027992Y014288D02*
X027811Y014288D01*
X027811Y014229D02*
X027992Y014229D01*
X027992Y014171D02*
X027811Y014171D01*
X027789Y014112D02*
X027992Y014112D01*
X027992Y014054D02*
X027730Y014054D01*
X027672Y013995D02*
X027992Y013995D01*
X027992Y013937D02*
X027613Y013937D01*
X027555Y013878D02*
X027992Y013878D01*
X027992Y013820D02*
X027539Y013820D01*
X027563Y013761D02*
X027992Y013761D01*
X027992Y013703D02*
X027580Y013703D01*
X027580Y013644D02*
X027992Y013644D01*
X027992Y013586D02*
X027580Y013586D01*
X027574Y013527D02*
X027992Y013527D01*
X027992Y013469D02*
X027550Y013469D01*
X027526Y013410D02*
X027992Y013410D01*
X027992Y013352D02*
X027488Y013352D01*
X027429Y013293D02*
X027992Y013293D01*
X027992Y013235D02*
X027351Y013235D01*
X027468Y013027D02*
X027527Y012968D01*
X027527Y012292D01*
X027468Y012233D01*
X026792Y012233D01*
X026733Y012292D01*
X026733Y012968D01*
X026792Y013027D01*
X027468Y013027D01*
X027495Y013001D02*
X027992Y013001D01*
X027992Y013059D02*
X026255Y013059D01*
X026255Y013001D02*
X026765Y013001D01*
X026733Y012942D02*
X026255Y012942D01*
X026255Y012884D02*
X026733Y012884D01*
X026733Y012825D02*
X026273Y012825D01*
X026255Y012843D02*
X026255Y013682D01*
X025755Y014182D01*
X025682Y014255D01*
X025182Y014255D01*
X024255Y015182D01*
X024255Y015932D01*
X023505Y016682D01*
X023432Y016755D01*
X021682Y016755D01*
X021619Y016818D01*
X021619Y016979D01*
X021479Y017119D01*
X021281Y017119D01*
X021141Y016979D01*
X021141Y016781D01*
X021281Y016641D01*
X021442Y016641D01*
X021578Y016505D01*
X023328Y016505D01*
X023476Y016357D01*
X023041Y016357D01*
X022968Y016284D01*
X022766Y016082D01*
X022729Y016119D01*
X022531Y016119D01*
X022391Y015979D01*
X022391Y015781D01*
X022531Y015641D01*
X022729Y015641D01*
X022869Y015781D01*
X022869Y015832D01*
X023144Y016108D01*
X023147Y016108D01*
X023080Y016040D01*
X023080Y015842D01*
X023124Y015798D01*
X022932Y015798D01*
X022792Y015658D01*
X022792Y015496D01*
X022723Y015427D01*
X022723Y014404D01*
X022796Y014331D01*
X024009Y013118D01*
X024009Y013088D01*
X022619Y014478D01*
X022619Y014604D01*
X022479Y014744D01*
X022281Y014744D01*
X022141Y014604D01*
X022141Y014406D01*
X022281Y014266D01*
X022407Y014266D01*
X023730Y012943D01*
X023730Y012693D01*
X023818Y012605D01*
X024943Y011480D01*
X026818Y011480D01*
X026891Y011407D01*
X026891Y011281D01*
X027031Y011141D01*
X027229Y011141D01*
X027369Y011281D01*
X027369Y011479D01*
X027229Y011619D01*
X027103Y011619D01*
X026942Y011780D01*
X025067Y011780D01*
X024030Y012817D01*
X024030Y012913D01*
X024082Y012861D01*
X024691Y012252D01*
X024691Y012213D01*
X024831Y012073D01*
X025029Y012073D01*
X025169Y012213D01*
X025169Y012391D01*
X025229Y012391D01*
X025369Y012531D01*
X025369Y012729D01*
X025255Y012843D01*
X025255Y013182D01*
X025182Y013255D01*
X025182Y013255D01*
X024755Y013682D01*
X024682Y013755D01*
X024371Y013755D01*
X024371Y013755D01*
X025167Y013755D01*
X025281Y013641D01*
X025479Y013641D01*
X025619Y013781D01*
X025619Y013964D01*
X026005Y013578D01*
X026005Y012843D01*
X025891Y012729D01*
X025891Y012531D01*
X026031Y012391D01*
X026229Y012391D01*
X026369Y012531D01*
X026369Y012729D01*
X026255Y012843D01*
X026332Y012767D02*
X026733Y012767D01*
X026733Y012708D02*
X026369Y012708D01*
X026369Y012650D02*
X026733Y012650D01*
X026733Y012591D02*
X026369Y012591D01*
X026369Y012533D02*
X026733Y012533D01*
X026733Y012474D02*
X026312Y012474D01*
X026254Y012416D02*
X026733Y012416D01*
X026733Y012357D02*
X025169Y012357D01*
X025169Y012299D02*
X026733Y012299D01*
X026785Y012240D02*
X025169Y012240D01*
X025137Y012182D02*
X027992Y012182D01*
X027992Y012240D02*
X027475Y012240D01*
X027527Y012299D02*
X027992Y012299D01*
X027992Y012357D02*
X027527Y012357D01*
X027527Y012416D02*
X027992Y012416D01*
X027992Y012474D02*
X027527Y012474D01*
X027527Y012533D02*
X027992Y012533D01*
X027992Y012591D02*
X027527Y012591D01*
X027527Y012650D02*
X027992Y012650D01*
X027992Y012708D02*
X027527Y012708D01*
X027527Y012767D02*
X027992Y012767D01*
X027992Y012825D02*
X027527Y012825D01*
X027527Y012884D02*
X027992Y012884D01*
X027992Y012942D02*
X027527Y012942D01*
X027992Y013118D02*
X026255Y013118D01*
X026255Y013176D02*
X027992Y013176D01*
X027992Y012123D02*
X025079Y012123D01*
X024900Y011948D02*
X027992Y011948D01*
X027992Y012006D02*
X024841Y012006D01*
X024783Y012065D02*
X027992Y012065D01*
X027992Y011889D02*
X024958Y011889D01*
X025017Y011831D02*
X027992Y011831D01*
X027992Y011772D02*
X026950Y011772D01*
X027009Y011714D02*
X027992Y011714D01*
X027992Y011655D02*
X027067Y011655D01*
X027252Y011597D02*
X027992Y011597D01*
X027992Y011538D02*
X027310Y011538D01*
X027369Y011480D02*
X027992Y011480D01*
X027992Y011421D02*
X027369Y011421D01*
X027369Y011363D02*
X027992Y011363D01*
X027992Y011304D02*
X027369Y011304D01*
X027334Y011246D02*
X027992Y011246D01*
X027992Y011187D02*
X027275Y011187D01*
X026985Y011187D02*
X023156Y011187D01*
X023156Y011129D02*
X027992Y011129D01*
X027992Y011070D02*
X026855Y011070D01*
X026825Y011100D02*
X026435Y011100D01*
X026160Y010825D01*
X026160Y010435D01*
X026435Y010160D01*
X026825Y010160D01*
X027100Y010435D01*
X027100Y010480D01*
X027442Y010480D01*
X027531Y010391D01*
X027729Y010391D01*
X027869Y010531D01*
X027869Y010729D01*
X027729Y010869D01*
X027531Y010869D01*
X027442Y010780D01*
X027100Y010780D01*
X027100Y010825D01*
X026825Y011100D01*
X026913Y011012D02*
X027992Y011012D01*
X027992Y010953D02*
X026972Y010953D01*
X027030Y010895D02*
X027992Y010895D01*
X027992Y010836D02*
X027762Y010836D01*
X027821Y010778D02*
X027992Y010778D01*
X027992Y010719D02*
X027869Y010719D01*
X027869Y010661D02*
X027992Y010661D01*
X027992Y010602D02*
X027869Y010602D01*
X027869Y010544D02*
X027992Y010544D01*
X027992Y010485D02*
X027823Y010485D01*
X027765Y010427D02*
X027992Y010427D01*
X027992Y010368D02*
X027033Y010368D01*
X027091Y010427D02*
X027495Y010427D01*
X027498Y010836D02*
X027089Y010836D01*
X026926Y011246D02*
X023156Y011246D01*
X023156Y011304D02*
X026891Y011304D01*
X026891Y011363D02*
X023156Y011363D01*
X023156Y011421D02*
X026877Y011421D01*
X026818Y011480D02*
X023156Y011480D01*
X023156Y011538D02*
X024885Y011538D01*
X024826Y011597D02*
X023156Y011597D01*
X023156Y011641D02*
X023229Y011641D01*
X023369Y011781D01*
X023369Y011979D01*
X023229Y012119D01*
X023031Y012119D01*
X022891Y011979D01*
X022891Y011781D01*
X022906Y011766D01*
X022906Y010872D01*
X022816Y010782D01*
X022755Y010843D01*
X022755Y011667D01*
X022869Y011781D01*
X022869Y011979D01*
X022729Y012119D01*
X022531Y012119D01*
X022391Y011979D01*
X022391Y011781D01*
X022505Y011667D01*
X022505Y010843D01*
X022391Y010729D01*
X022391Y010531D01*
X022531Y010391D01*
X022729Y010391D01*
X022845Y010507D01*
X022932Y010420D01*
X023130Y010420D01*
X023270Y010560D01*
X023270Y010758D01*
X023156Y010872D01*
X023156Y011641D01*
X023243Y011655D02*
X024768Y011655D01*
X024709Y011714D02*
X023302Y011714D01*
X023360Y011772D02*
X024651Y011772D01*
X024592Y011831D02*
X023369Y011831D01*
X023369Y011889D02*
X024534Y011889D01*
X024475Y011948D02*
X023369Y011948D01*
X023342Y012006D02*
X024417Y012006D01*
X024358Y012065D02*
X023284Y012065D01*
X022976Y012065D02*
X022784Y012065D01*
X022842Y012006D02*
X022918Y012006D01*
X022891Y011948D02*
X022869Y011948D01*
X022869Y011889D02*
X022891Y011889D01*
X022891Y011831D02*
X022869Y011831D01*
X022860Y011772D02*
X022900Y011772D01*
X022906Y011714D02*
X022802Y011714D01*
X022755Y011655D02*
X022906Y011655D01*
X022906Y011597D02*
X022755Y011597D01*
X022755Y011538D02*
X022906Y011538D01*
X022906Y011480D02*
X022755Y011480D01*
X022755Y011421D02*
X022906Y011421D01*
X022906Y011363D02*
X022755Y011363D01*
X022755Y011304D02*
X022906Y011304D01*
X022906Y011246D02*
X022755Y011246D01*
X022755Y011187D02*
X022906Y011187D01*
X022906Y011129D02*
X022755Y011129D01*
X022755Y011070D02*
X022906Y011070D01*
X022906Y011012D02*
X022755Y011012D01*
X022755Y010953D02*
X022906Y010953D01*
X022906Y010895D02*
X022755Y010895D01*
X022762Y010836D02*
X022870Y010836D01*
X023156Y010895D02*
X025230Y010895D01*
X025288Y010953D02*
X023156Y010953D01*
X023156Y011012D02*
X025347Y011012D01*
X025405Y011070D02*
X023156Y011070D01*
X023192Y010836D02*
X025171Y010836D01*
X025160Y010825D02*
X025160Y010435D01*
X025435Y010160D01*
X025825Y010160D01*
X026100Y010435D01*
X026100Y010825D01*
X025825Y011100D01*
X025435Y011100D01*
X025160Y010825D01*
X025160Y010778D02*
X023251Y010778D01*
X023270Y010719D02*
X025160Y010719D01*
X025160Y010661D02*
X023270Y010661D01*
X023270Y010602D02*
X025160Y010602D01*
X025160Y010544D02*
X023254Y010544D01*
X023196Y010485D02*
X025160Y010485D01*
X025169Y010427D02*
X023137Y010427D01*
X022925Y010427D02*
X022765Y010427D01*
X022823Y010485D02*
X022867Y010485D01*
X022495Y010427D02*
X021519Y010427D01*
X021519Y010485D02*
X022437Y010485D01*
X022391Y010544D02*
X021479Y010544D01*
X021519Y010503D02*
X021184Y010838D01*
X020710Y010838D01*
X020374Y010503D01*
X020374Y010029D01*
X020710Y009693D01*
X021184Y009693D01*
X021519Y010029D01*
X021519Y010503D01*
X021519Y010368D02*
X025227Y010368D01*
X025286Y010310D02*
X021519Y010310D01*
X021519Y010251D02*
X025344Y010251D01*
X025403Y010193D02*
X021519Y010193D01*
X021519Y010134D02*
X027992Y010134D01*
X027992Y010076D02*
X026749Y010076D01*
X026725Y010100D02*
X026335Y010100D01*
X026060Y009825D01*
X026060Y009435D01*
X026335Y009160D01*
X026725Y009160D01*
X027000Y009435D01*
X027000Y009825D01*
X026725Y010100D01*
X026808Y010017D02*
X027992Y010017D01*
X027992Y009959D02*
X026866Y009959D01*
X026925Y009900D02*
X027992Y009900D01*
X027992Y009842D02*
X026983Y009842D01*
X027000Y009783D02*
X027992Y009783D01*
X027992Y009725D02*
X027000Y009725D01*
X027000Y009666D02*
X027992Y009666D01*
X027992Y009608D02*
X027000Y009608D01*
X027000Y009549D02*
X027992Y009549D01*
X027992Y009491D02*
X027000Y009491D01*
X026997Y009432D02*
X027992Y009432D01*
X027992Y009374D02*
X026938Y009374D01*
X026880Y009315D02*
X027992Y009315D01*
X027992Y009257D02*
X026821Y009257D01*
X026763Y009198D02*
X027992Y009198D01*
X027992Y009140D02*
X018271Y009140D01*
X018330Y009198D02*
X025297Y009198D01*
X025335Y009160D02*
X025725Y009160D01*
X026000Y009435D01*
X026000Y009825D01*
X025725Y010100D01*
X025335Y010100D01*
X025060Y009825D01*
X025060Y009435D01*
X025335Y009160D01*
X025416Y009081D02*
X018213Y009081D01*
X018154Y009023D02*
X025358Y009023D01*
X025299Y008964D02*
X018096Y008964D01*
X018037Y008906D02*
X025241Y008906D01*
X025182Y008847D02*
X017979Y008847D01*
X017920Y008789D02*
X025160Y008789D01*
X025160Y008825D02*
X025160Y008435D01*
X025435Y008160D01*
X025825Y008160D01*
X026100Y008435D01*
X026100Y008825D01*
X025825Y009100D01*
X025435Y009100D01*
X025160Y008825D01*
X025160Y008730D02*
X017862Y008730D01*
X017803Y008672D02*
X025160Y008672D01*
X025160Y008613D02*
X017745Y008613D01*
X017686Y008555D02*
X025160Y008555D01*
X025160Y008496D02*
X017628Y008496D01*
X017569Y008438D02*
X025160Y008438D01*
X025216Y008379D02*
X017511Y008379D01*
X017452Y008321D02*
X025275Y008321D01*
X025333Y008262D02*
X017394Y008262D01*
X017335Y008204D02*
X025392Y008204D01*
X025868Y008204D02*
X026349Y008204D01*
X026291Y008262D02*
X025927Y008262D01*
X025985Y008321D02*
X026232Y008321D01*
X026174Y008379D02*
X026044Y008379D01*
X026100Y008438D02*
X026130Y008438D01*
X026130Y008423D02*
X026423Y008130D01*
X026600Y008130D01*
X026600Y008600D01*
X026130Y008600D01*
X026130Y008423D01*
X026130Y008496D02*
X026100Y008496D01*
X026100Y008555D02*
X026130Y008555D01*
X026100Y008613D02*
X026600Y008613D01*
X026600Y008600D02*
X026600Y008660D01*
X026600Y009130D01*
X026423Y009130D01*
X026130Y008837D01*
X026130Y008660D01*
X026600Y008660D01*
X026660Y008660D01*
X026660Y009130D01*
X026837Y009130D01*
X027130Y008837D01*
X027130Y008660D01*
X026660Y008660D01*
X026660Y008600D01*
X027130Y008600D01*
X027130Y008423D01*
X026837Y008130D01*
X026660Y008130D01*
X026660Y008600D01*
X026600Y008600D01*
X026600Y008555D02*
X026660Y008555D01*
X026660Y008613D02*
X027992Y008613D01*
X027992Y008555D02*
X027130Y008555D01*
X027130Y008496D02*
X027992Y008496D01*
X027992Y008438D02*
X027130Y008438D01*
X027086Y008379D02*
X027992Y008379D01*
X027992Y008321D02*
X027028Y008321D01*
X026969Y008262D02*
X027992Y008262D01*
X027992Y008204D02*
X026911Y008204D01*
X026852Y008145D02*
X027992Y008145D01*
X027992Y008087D02*
X017218Y008087D01*
X017277Y008145D02*
X026408Y008145D01*
X026600Y008145D02*
X026660Y008145D01*
X026660Y008204D02*
X026600Y008204D01*
X026600Y008262D02*
X026660Y008262D01*
X026660Y008321D02*
X026600Y008321D01*
X026600Y008379D02*
X026660Y008379D01*
X026660Y008438D02*
X026600Y008438D01*
X026600Y008496D02*
X026660Y008496D01*
X026660Y008672D02*
X026600Y008672D01*
X026600Y008730D02*
X026660Y008730D01*
X026660Y008789D02*
X026600Y008789D01*
X026600Y008847D02*
X026660Y008847D01*
X026660Y008906D02*
X026600Y008906D01*
X026600Y008964D02*
X026660Y008964D01*
X026660Y009023D02*
X026600Y009023D01*
X026600Y009081D02*
X026660Y009081D01*
X026886Y009081D02*
X027992Y009081D01*
X027992Y009023D02*
X026945Y009023D01*
X027003Y008964D02*
X027992Y008964D01*
X027992Y008906D02*
X027062Y008906D01*
X027120Y008847D02*
X027992Y008847D01*
X027992Y008789D02*
X027130Y008789D01*
X027130Y008730D02*
X027992Y008730D01*
X027992Y008672D02*
X027130Y008672D01*
X026374Y009081D02*
X025844Y009081D01*
X025902Y009023D02*
X026315Y009023D01*
X026257Y008964D02*
X025961Y008964D01*
X026019Y008906D02*
X026198Y008906D01*
X026140Y008847D02*
X026078Y008847D01*
X026100Y008789D02*
X026130Y008789D01*
X026130Y008730D02*
X026100Y008730D01*
X026100Y008672D02*
X026130Y008672D01*
X026297Y009198D02*
X025763Y009198D01*
X025821Y009257D02*
X026239Y009257D01*
X026180Y009315D02*
X025880Y009315D01*
X025938Y009374D02*
X026122Y009374D01*
X026063Y009432D02*
X025997Y009432D01*
X026000Y009491D02*
X026060Y009491D01*
X026060Y009549D02*
X026000Y009549D01*
X026000Y009608D02*
X026060Y009608D01*
X026060Y009666D02*
X026000Y009666D01*
X026000Y009725D02*
X026060Y009725D01*
X026060Y009783D02*
X026000Y009783D01*
X025983Y009842D02*
X026077Y009842D01*
X026135Y009900D02*
X025925Y009900D01*
X025866Y009959D02*
X026194Y009959D01*
X026252Y010017D02*
X025808Y010017D01*
X025749Y010076D02*
X026311Y010076D01*
X026403Y010193D02*
X025857Y010193D01*
X025916Y010251D02*
X026344Y010251D01*
X026286Y010310D02*
X025974Y010310D01*
X026033Y010368D02*
X026227Y010368D01*
X026169Y010427D02*
X026091Y010427D01*
X026100Y010485D02*
X026160Y010485D01*
X026160Y010544D02*
X026100Y010544D01*
X026100Y010602D02*
X026160Y010602D01*
X026160Y010661D02*
X026100Y010661D01*
X026100Y010719D02*
X026160Y010719D01*
X026160Y010778D02*
X026100Y010778D01*
X026089Y010836D02*
X026171Y010836D01*
X026230Y010895D02*
X026030Y010895D01*
X025972Y010953D02*
X026288Y010953D01*
X026347Y011012D02*
X025913Y011012D01*
X025855Y011070D02*
X026405Y011070D01*
X026974Y010310D02*
X027992Y010310D01*
X027992Y010251D02*
X026916Y010251D01*
X026857Y010193D02*
X027992Y010193D01*
X027992Y008028D02*
X017160Y008028D01*
X017101Y007970D02*
X027992Y007970D01*
X027992Y007911D02*
X017043Y007911D01*
X016984Y007853D02*
X027992Y007853D01*
X027992Y007794D02*
X016926Y007794D01*
X016867Y007736D02*
X027992Y007736D01*
X027992Y007677D02*
X016809Y007677D01*
X016750Y007619D02*
X027992Y007619D01*
X027992Y007560D02*
X016692Y007560D01*
X016633Y007502D02*
X027992Y007502D01*
X027992Y007443D02*
X016575Y007443D01*
X016516Y007385D02*
X027992Y007385D01*
X027992Y007326D02*
X016458Y007326D01*
X016399Y007268D02*
X027992Y007268D01*
X027992Y007209D02*
X016341Y007209D01*
X016282Y007151D02*
X027992Y007151D01*
X027992Y007092D02*
X016224Y007092D01*
X016165Y007034D02*
X027992Y007034D01*
X027992Y006975D02*
X016107Y006975D01*
X016048Y006917D02*
X027992Y006917D01*
X027992Y006858D02*
X026570Y006858D01*
X026734Y006800D02*
X027992Y006800D01*
X027992Y006741D02*
X026899Y006741D01*
X027064Y006683D02*
X027992Y006683D01*
X027992Y006624D02*
X027147Y006624D01*
X027230Y006566D02*
X027992Y006566D01*
X027992Y006507D02*
X027312Y006507D01*
X027395Y006449D02*
X027992Y006449D01*
X027992Y006390D02*
X027478Y006390D01*
X027542Y006332D02*
X027992Y006332D01*
X027992Y006273D02*
X027589Y006273D01*
X027637Y006215D02*
X027992Y006215D01*
X027992Y006156D02*
X027684Y006156D01*
X027732Y006098D02*
X027992Y006098D01*
X027992Y006039D02*
X027780Y006039D01*
X027827Y005981D02*
X027992Y005981D01*
X027992Y005922D02*
X027870Y005922D01*
X027895Y005864D02*
X027992Y005864D01*
X027992Y005805D02*
X027921Y005805D01*
X027946Y005747D02*
X027992Y005747D01*
X027992Y005688D02*
X027972Y005688D01*
X025764Y006858D02*
X015990Y006858D01*
X015931Y006800D02*
X025483Y006800D01*
X025350Y006741D02*
X015900Y006741D01*
X015900Y006683D02*
X025237Y006683D01*
X025124Y006624D02*
X015900Y006624D01*
X015900Y006566D02*
X025012Y006566D01*
X024926Y006507D02*
X022407Y006507D01*
X022363Y006525D02*
X022229Y006525D01*
X022105Y006474D01*
X022010Y006379D01*
X021959Y006255D01*
X021959Y006120D01*
X022010Y005996D01*
X022105Y005901D01*
X022229Y005850D01*
X022363Y005850D01*
X022487Y005901D01*
X022582Y005996D01*
X022634Y006120D01*
X022634Y006255D01*
X022582Y006379D01*
X022487Y006474D01*
X022363Y006525D01*
X022513Y006449D02*
X024863Y006449D01*
X024800Y006390D02*
X022571Y006390D01*
X022602Y006332D02*
X024738Y006332D01*
X024675Y006273D02*
X022626Y006273D01*
X022634Y006215D02*
X024612Y006215D01*
X024552Y006156D02*
X022634Y006156D01*
X022624Y006098D02*
X024517Y006098D01*
X024481Y006039D02*
X022600Y006039D01*
X022567Y005981D02*
X024445Y005981D01*
X024410Y005922D02*
X022508Y005922D01*
X022396Y005864D02*
X024374Y005864D01*
X024339Y005805D02*
X017020Y005805D01*
X017026Y005794D02*
X016995Y005854D01*
X016956Y005908D01*
X016908Y005956D01*
X016854Y005995D01*
X016794Y006026D01*
X016730Y006046D01*
X016664Y006057D01*
X016660Y006057D01*
X016660Y005660D01*
X017057Y005660D01*
X017057Y005664D01*
X017046Y005730D01*
X017026Y005794D01*
X017041Y005747D02*
X024303Y005747D01*
X024268Y005688D02*
X017053Y005688D01*
X017057Y005600D02*
X016660Y005600D01*
X016660Y005660D01*
X016600Y005660D01*
X016600Y006057D01*
X016596Y006057D01*
X016530Y006046D01*
X016466Y006026D01*
X016406Y005995D01*
X016352Y005956D01*
X016304Y005908D01*
X016265Y005854D01*
X016234Y005794D01*
X016214Y005730D01*
X016203Y005664D01*
X016203Y005660D01*
X016600Y005660D01*
X016600Y005600D01*
X016660Y005600D01*
X016660Y005203D01*
X016664Y005203D01*
X016730Y005214D01*
X016794Y005234D01*
X016854Y005265D01*
X016908Y005304D01*
X016956Y005352D01*
X016995Y005406D01*
X017026Y005466D01*
X017046Y005530D01*
X017057Y005596D01*
X017057Y005600D01*
X017053Y005571D02*
X024235Y005571D01*
X024219Y005513D02*
X022515Y005513D01*
X022565Y005492D02*
X022405Y005558D01*
X022233Y005558D01*
X022073Y005492D01*
X021951Y005369D01*
X021884Y005210D01*
X021884Y005037D01*
X021951Y004877D01*
X022073Y004755D01*
X022233Y004688D01*
X022405Y004688D01*
X022565Y004755D01*
X022687Y004877D01*
X022754Y005037D01*
X022754Y005210D01*
X022687Y005369D01*
X022565Y005492D01*
X022603Y005454D02*
X024202Y005454D01*
X024186Y005396D02*
X022661Y005396D01*
X022701Y005337D02*
X024170Y005337D01*
X024153Y005279D02*
X022725Y005279D01*
X022749Y005220D02*
X024137Y005220D01*
X024120Y005162D02*
X022754Y005162D01*
X022754Y005103D02*
X024119Y005103D01*
X024119Y005045D02*
X022754Y005045D01*
X022733Y004986D02*
X024119Y004986D01*
X024119Y004928D02*
X022708Y004928D01*
X022680Y004869D02*
X024119Y004869D01*
X024119Y004811D02*
X022621Y004811D01*
X022559Y004752D02*
X024119Y004752D01*
X024119Y004694D02*
X022418Y004694D01*
X022220Y004694D02*
X021040Y004694D01*
X021027Y004688D02*
X021187Y004755D01*
X021309Y004877D01*
X021376Y005037D01*
X021376Y005210D01*
X021309Y005369D01*
X021187Y005492D01*
X021027Y005558D01*
X020855Y005558D01*
X020695Y005492D01*
X020573Y005369D01*
X020506Y005210D01*
X020506Y005037D01*
X020573Y004877D01*
X020695Y004755D01*
X020855Y004688D01*
X021027Y004688D01*
X021181Y004752D02*
X022079Y004752D01*
X022017Y004811D02*
X021243Y004811D01*
X021302Y004869D02*
X021958Y004869D01*
X021930Y004928D02*
X021330Y004928D01*
X021355Y004986D02*
X021905Y004986D01*
X021884Y005045D02*
X021376Y005045D01*
X021376Y005103D02*
X021884Y005103D01*
X021884Y005162D02*
X021376Y005162D01*
X021371Y005220D02*
X021889Y005220D01*
X021913Y005279D02*
X021347Y005279D01*
X021323Y005337D02*
X021937Y005337D01*
X021977Y005396D02*
X021283Y005396D01*
X021225Y005454D02*
X022035Y005454D01*
X022123Y005513D02*
X021137Y005513D01*
X021016Y005850D02*
X020882Y005850D01*
X020758Y005901D01*
X020663Y005996D01*
X020611Y006120D01*
X020611Y006255D01*
X020663Y006379D01*
X020758Y006474D01*
X020882Y006525D01*
X021016Y006525D01*
X021140Y006474D01*
X021235Y006379D01*
X021286Y006255D01*
X021286Y006120D01*
X021235Y005996D01*
X021140Y005901D01*
X021016Y005850D01*
X021048Y005864D02*
X022197Y005864D01*
X022084Y005922D02*
X021161Y005922D01*
X021219Y005981D02*
X022026Y005981D01*
X021992Y006039D02*
X021253Y006039D01*
X021277Y006098D02*
X021968Y006098D01*
X021959Y006156D02*
X021286Y006156D01*
X021286Y006215D02*
X021959Y006215D01*
X021966Y006273D02*
X021279Y006273D01*
X021254Y006332D02*
X021991Y006332D01*
X022021Y006390D02*
X021224Y006390D01*
X021165Y006449D02*
X022080Y006449D01*
X022186Y006507D02*
X021059Y006507D01*
X020838Y006507D02*
X015900Y006507D01*
X015900Y006449D02*
X020732Y006449D01*
X020674Y006390D02*
X015900Y006390D01*
X015900Y006332D02*
X020643Y006332D01*
X020619Y006273D02*
X015900Y006273D01*
X015900Y006215D02*
X020611Y006215D01*
X020611Y006156D02*
X015900Y006156D01*
X015900Y006098D02*
X020621Y006098D01*
X020645Y006039D02*
X016753Y006039D01*
X016660Y006039D02*
X016600Y006039D01*
X016600Y005981D02*
X016660Y005981D01*
X016660Y005922D02*
X016600Y005922D01*
X016600Y005864D02*
X016660Y005864D01*
X016660Y005805D02*
X016600Y005805D01*
X016600Y005747D02*
X016660Y005747D01*
X016660Y005688D02*
X016600Y005688D01*
X016600Y005630D02*
X016027Y005630D01*
X016027Y005688D02*
X016207Y005688D01*
X016219Y005747D02*
X016011Y005747D01*
X015987Y005805D02*
X016240Y005805D01*
X016272Y005864D02*
X015958Y005864D01*
X015900Y005922D02*
X016318Y005922D01*
X016386Y005981D02*
X015900Y005981D01*
X015900Y006039D02*
X016508Y006039D01*
X016874Y005981D02*
X020678Y005981D01*
X020737Y005922D02*
X016942Y005922D01*
X016988Y005864D02*
X020849Y005864D01*
X020745Y005513D02*
X017041Y005513D01*
X017019Y005454D02*
X020657Y005454D01*
X020599Y005396D02*
X016987Y005396D01*
X016941Y005337D02*
X020559Y005337D01*
X020535Y005279D02*
X016872Y005279D01*
X016749Y005220D02*
X020511Y005220D01*
X020506Y005162D02*
X006871Y005162D01*
X006863Y005220D02*
X016511Y005220D01*
X016530Y005214D02*
X016596Y005203D01*
X016600Y005203D01*
X016600Y005600D01*
X016203Y005600D01*
X016203Y005596D01*
X016214Y005530D01*
X016234Y005466D01*
X016265Y005406D01*
X016304Y005352D01*
X016352Y005304D01*
X016406Y005265D01*
X016466Y005234D01*
X016530Y005214D01*
X016600Y005220D02*
X016660Y005220D01*
X016660Y005279D02*
X016600Y005279D01*
X016600Y005337D02*
X016660Y005337D01*
X016660Y005396D02*
X016600Y005396D01*
X016600Y005454D02*
X016660Y005454D01*
X016660Y005513D02*
X016600Y005513D01*
X016600Y005571D02*
X016660Y005571D01*
X016660Y005630D02*
X024251Y005630D01*
X024119Y004635D02*
X016660Y004635D01*
X016660Y004660D02*
X017057Y004660D01*
X017057Y004664D01*
X017046Y004730D01*
X017026Y004794D01*
X016995Y004854D01*
X016956Y004908D01*
X016908Y004956D01*
X016854Y004995D01*
X016794Y005026D01*
X016730Y005046D01*
X016664Y005057D01*
X016660Y005057D01*
X016660Y004660D01*
X016660Y004600D01*
X017057Y004600D01*
X017057Y004596D01*
X017046Y004530D01*
X017026Y004466D01*
X016995Y004406D01*
X016956Y004352D01*
X016908Y004304D01*
X016854Y004265D01*
X016794Y004234D01*
X016730Y004214D01*
X016664Y004203D01*
X016660Y004203D01*
X016660Y004600D01*
X016600Y004600D01*
X016600Y004203D01*
X016596Y004203D01*
X016530Y004214D01*
X016466Y004234D01*
X016406Y004265D01*
X016352Y004304D01*
X016304Y004352D01*
X016265Y004406D01*
X016234Y004466D01*
X016214Y004530D01*
X016203Y004596D01*
X016203Y004600D01*
X016600Y004600D01*
X016600Y004660D01*
X016600Y005057D01*
X016596Y005057D01*
X016530Y005046D01*
X016466Y005026D01*
X016406Y004995D01*
X016352Y004956D01*
X016304Y004908D01*
X016265Y004854D01*
X016234Y004794D01*
X016214Y004730D01*
X016203Y004664D01*
X016203Y004660D01*
X016600Y004660D01*
X016660Y004660D01*
X016660Y004694D02*
X016600Y004694D01*
X016600Y004752D02*
X016660Y004752D01*
X016660Y004811D02*
X016600Y004811D01*
X016600Y004869D02*
X016660Y004869D01*
X016660Y004928D02*
X016600Y004928D01*
X016600Y004986D02*
X016660Y004986D01*
X016660Y005045D02*
X016600Y005045D01*
X016524Y005045D02*
X006887Y005045D01*
X006879Y005103D02*
X020506Y005103D01*
X020506Y005045D02*
X016736Y005045D01*
X016866Y004986D02*
X020527Y004986D01*
X020552Y004928D02*
X016936Y004928D01*
X016984Y004869D02*
X020580Y004869D01*
X020639Y004811D02*
X017017Y004811D01*
X017039Y004752D02*
X020701Y004752D01*
X020842Y004694D02*
X017052Y004694D01*
X017054Y004577D02*
X024126Y004577D01*
X024143Y004518D02*
X017042Y004518D01*
X017022Y004460D02*
X024159Y004460D01*
X024176Y004401D02*
X016991Y004401D01*
X016946Y004343D02*
X024192Y004343D01*
X024208Y004284D02*
X016880Y004284D01*
X016766Y004226D02*
X024225Y004226D01*
X024241Y004167D02*
X006763Y004167D01*
X006788Y004226D02*
X016494Y004226D01*
X016600Y004226D02*
X016660Y004226D01*
X016660Y004284D02*
X016600Y004284D01*
X016600Y004343D02*
X016660Y004343D01*
X016660Y004401D02*
X016600Y004401D01*
X016600Y004460D02*
X016660Y004460D01*
X016660Y004518D02*
X016600Y004518D01*
X016600Y004577D02*
X016660Y004577D01*
X016600Y004635D02*
X016027Y004635D01*
X016027Y004577D02*
X016206Y004577D01*
X016218Y004518D02*
X016013Y004518D01*
X016027Y004551D02*
X015966Y004405D01*
X015855Y004294D01*
X015709Y004233D01*
X015551Y004233D01*
X015405Y004294D01*
X015294Y004405D01*
X015233Y004551D01*
X015233Y004709D01*
X015294Y004855D01*
X015405Y004966D01*
X015551Y005027D01*
X015709Y005027D01*
X015855Y004966D01*
X015966Y004855D01*
X016027Y004709D01*
X016027Y004551D01*
X015989Y004460D02*
X016238Y004460D01*
X016269Y004401D02*
X015962Y004401D01*
X015904Y004343D02*
X016314Y004343D01*
X016380Y004284D02*
X015832Y004284D01*
X015428Y004284D02*
X014832Y004284D01*
X014855Y004294D02*
X014966Y004405D01*
X015027Y004551D01*
X015027Y004709D01*
X014966Y004855D01*
X014855Y004966D01*
X014709Y005027D01*
X014551Y005027D01*
X014405Y004966D01*
X014294Y004855D01*
X014233Y004709D01*
X014233Y004551D01*
X014294Y004405D01*
X014405Y004294D01*
X014551Y004233D01*
X014709Y004233D01*
X014855Y004294D01*
X014904Y004343D02*
X015356Y004343D01*
X015298Y004401D02*
X014962Y004401D01*
X014989Y004460D02*
X015271Y004460D01*
X015247Y004518D02*
X015013Y004518D01*
X015027Y004577D02*
X015233Y004577D01*
X015233Y004635D02*
X015027Y004635D01*
X015027Y004694D02*
X015233Y004694D01*
X015251Y004752D02*
X015009Y004752D01*
X014985Y004811D02*
X015275Y004811D01*
X015308Y004869D02*
X014952Y004869D01*
X014894Y004928D02*
X015366Y004928D01*
X015452Y004986D02*
X014808Y004986D01*
X014709Y005233D02*
X014855Y005294D01*
X014966Y005405D01*
X015027Y005551D01*
X015027Y005709D01*
X014966Y005855D01*
X014855Y005966D01*
X014709Y006027D01*
X014551Y006027D01*
X014405Y005966D01*
X014294Y005855D01*
X014233Y005709D01*
X014233Y005551D01*
X014294Y005405D01*
X014405Y005294D01*
X014551Y005233D01*
X014709Y005233D01*
X014818Y005279D02*
X015442Y005279D01*
X015362Y005337D02*
X014898Y005337D01*
X014957Y005396D02*
X015303Y005396D01*
X015273Y005454D02*
X014987Y005454D01*
X015011Y005513D02*
X015249Y005513D01*
X015233Y005571D02*
X015027Y005571D01*
X015027Y005630D02*
X015233Y005630D01*
X015233Y005688D02*
X015027Y005688D01*
X015011Y005747D02*
X015249Y005747D01*
X015273Y005805D02*
X014987Y005805D01*
X014958Y005864D02*
X015302Y005864D01*
X015360Y005922D02*
X014899Y005922D01*
X014821Y005981D02*
X015360Y005981D01*
X015360Y006039D02*
X006530Y006039D01*
X006577Y005981D02*
X009439Y005981D01*
X009405Y005966D02*
X009294Y005855D01*
X009233Y005709D01*
X009233Y005551D01*
X009294Y005405D01*
X009405Y005294D01*
X009551Y005233D01*
X009709Y005233D01*
X009855Y005294D01*
X009966Y005405D01*
X010027Y005551D01*
X010027Y005709D01*
X009966Y005855D01*
X009855Y005966D01*
X009709Y006027D01*
X009551Y006027D01*
X009405Y005966D01*
X009361Y005922D02*
X006620Y005922D01*
X006645Y005864D02*
X009302Y005864D01*
X009273Y005805D02*
X006671Y005805D01*
X006696Y005747D02*
X009249Y005747D01*
X009233Y005688D02*
X006722Y005688D01*
X006747Y005630D02*
X009233Y005630D01*
X009233Y005571D02*
X006772Y005571D01*
X006798Y005513D02*
X009249Y005513D01*
X009273Y005454D02*
X006823Y005454D01*
X006839Y005396D02*
X009303Y005396D01*
X009362Y005337D02*
X006847Y005337D01*
X006855Y005279D02*
X009442Y005279D01*
X009551Y005027D02*
X009405Y004966D01*
X009294Y004855D01*
X009233Y004709D01*
X009233Y004551D01*
X009294Y004405D01*
X009405Y004294D01*
X009551Y004233D01*
X009709Y004233D01*
X009855Y004294D01*
X009966Y004405D01*
X010027Y004551D01*
X010027Y004709D01*
X009966Y004855D01*
X009855Y004966D01*
X009709Y005027D01*
X009551Y005027D01*
X009452Y004986D02*
X006895Y004986D01*
X006903Y004928D02*
X009366Y004928D01*
X009308Y004869D02*
X006908Y004869D01*
X006900Y004811D02*
X009275Y004811D01*
X009251Y004752D02*
X006892Y004752D01*
X006884Y004694D02*
X009233Y004694D01*
X009233Y004635D02*
X006876Y004635D01*
X006868Y004577D02*
X009233Y004577D01*
X009247Y004518D02*
X006860Y004518D01*
X006852Y004460D02*
X009271Y004460D01*
X009298Y004401D02*
X006844Y004401D01*
X006836Y004343D02*
X009356Y004343D01*
X009428Y004284D02*
X006814Y004284D01*
X006738Y004109D02*
X024258Y004109D01*
X024281Y004050D02*
X006712Y004050D01*
X006687Y003992D02*
X024317Y003992D01*
X024352Y003933D02*
X006661Y003933D01*
X006636Y003875D02*
X024388Y003875D01*
X024423Y003816D02*
X006607Y003816D01*
X006559Y003758D02*
X024459Y003758D01*
X024494Y003699D02*
X006512Y003699D01*
X006464Y003641D02*
X024530Y003641D01*
X024573Y003582D02*
X006417Y003582D01*
X006369Y003524D02*
X024636Y003524D01*
X024699Y003465D02*
X006321Y003465D01*
X006274Y003407D02*
X024761Y003407D01*
X024824Y003348D02*
X006197Y003348D01*
X006114Y003290D02*
X024887Y003290D01*
X024949Y003231D02*
X006031Y003231D01*
X005948Y003173D02*
X025054Y003173D01*
X025167Y003114D02*
X005866Y003114D01*
X005752Y003056D02*
X025280Y003056D01*
X025239Y009257D02*
X018388Y009257D01*
X018447Y009315D02*
X025180Y009315D01*
X025122Y009374D02*
X018505Y009374D01*
X018564Y009432D02*
X025063Y009432D01*
X025060Y009491D02*
X018614Y009491D01*
X018639Y009549D02*
X025060Y009549D01*
X025060Y009608D02*
X018650Y009608D01*
X018650Y009666D02*
X025060Y009666D01*
X025060Y009725D02*
X021215Y009725D01*
X021274Y009783D02*
X025060Y009783D01*
X025077Y009842D02*
X021332Y009842D01*
X021391Y009900D02*
X025135Y009900D01*
X025194Y009959D02*
X021449Y009959D01*
X021508Y010017D02*
X025252Y010017D01*
X025311Y010076D02*
X021519Y010076D01*
X021420Y010602D02*
X022391Y010602D01*
X022391Y010661D02*
X021362Y010661D01*
X021303Y010719D02*
X022391Y010719D01*
X022439Y010778D02*
X021245Y010778D01*
X021186Y010836D02*
X022498Y010836D01*
X022505Y010895D02*
X018650Y010895D01*
X018650Y010953D02*
X022505Y010953D01*
X022505Y011012D02*
X018650Y011012D01*
X018650Y011070D02*
X022505Y011070D01*
X022505Y011129D02*
X018650Y011129D01*
X018650Y011187D02*
X022505Y011187D01*
X022505Y011246D02*
X018650Y011246D01*
X018650Y011304D02*
X022505Y011304D01*
X022505Y011363D02*
X018650Y011363D01*
X018650Y011421D02*
X022505Y011421D01*
X022505Y011480D02*
X018650Y011480D01*
X018650Y011538D02*
X022505Y011538D01*
X022505Y011597D02*
X018650Y011597D01*
X018650Y011655D02*
X022505Y011655D01*
X022458Y011714D02*
X018650Y011714D01*
X018650Y011772D02*
X022400Y011772D01*
X022391Y011831D02*
X018650Y011831D01*
X018650Y011889D02*
X022391Y011889D01*
X022391Y011948D02*
X018650Y011948D01*
X018650Y012006D02*
X022418Y012006D01*
X022476Y012065D02*
X018650Y012065D01*
X018650Y012123D02*
X024300Y012123D01*
X024241Y012182D02*
X018650Y012182D01*
X018650Y012240D02*
X024183Y012240D01*
X024124Y012299D02*
X018650Y012299D01*
X018650Y012357D02*
X024066Y012357D01*
X024007Y012416D02*
X018650Y012416D01*
X018650Y012474D02*
X023949Y012474D01*
X023890Y012533D02*
X018650Y012533D01*
X018650Y012591D02*
X023832Y012591D01*
X023773Y012650D02*
X018650Y012650D01*
X018650Y012708D02*
X023730Y012708D01*
X023730Y012767D02*
X018650Y012767D01*
X018650Y012825D02*
X023730Y012825D01*
X023730Y012884D02*
X018650Y012884D01*
X018650Y012942D02*
X023730Y012942D01*
X023672Y013001D02*
X018650Y013001D01*
X018650Y013059D02*
X023614Y013059D01*
X023555Y013118D02*
X018650Y013118D01*
X018650Y013176D02*
X023497Y013176D01*
X023438Y013235D02*
X018650Y013235D01*
X018650Y013293D02*
X023380Y013293D01*
X023321Y013352D02*
X018650Y013352D01*
X018650Y013410D02*
X023263Y013410D01*
X023204Y013469D02*
X018650Y013469D01*
X018650Y013527D02*
X023146Y013527D01*
X023087Y013586D02*
X018650Y013586D01*
X018650Y013644D02*
X023029Y013644D01*
X022970Y013703D02*
X018650Y013703D01*
X018650Y013761D02*
X022912Y013761D01*
X022853Y013820D02*
X018650Y013820D01*
X018650Y013878D02*
X022795Y013878D01*
X022736Y013937D02*
X018650Y013937D01*
X018650Y013995D02*
X022678Y013995D01*
X022619Y014054D02*
X018650Y014054D01*
X018650Y014112D02*
X022561Y014112D01*
X022502Y014171D02*
X018650Y014171D01*
X018650Y014229D02*
X019777Y014229D01*
X019643Y014288D02*
X018650Y014288D01*
X018110Y014288D02*
X013061Y014288D01*
X013119Y014112D02*
X018110Y014112D01*
X018110Y014054D02*
X013133Y014054D01*
X013192Y013995D02*
X018110Y013995D01*
X018110Y013937D02*
X013250Y013937D01*
X013309Y013878D02*
X018110Y013878D01*
X018110Y013820D02*
X013529Y013820D01*
X013587Y013761D02*
X018110Y013761D01*
X018110Y013703D02*
X013619Y013703D01*
X013619Y013644D02*
X018110Y013644D01*
X018110Y013586D02*
X013619Y013586D01*
X013615Y013527D02*
X018110Y013527D01*
X018110Y013469D02*
X013557Y013469D01*
X013498Y013410D02*
X018110Y013410D01*
X018110Y013352D02*
X003010Y013352D01*
X003010Y013410D02*
X008262Y013410D01*
X008203Y013469D02*
X003010Y013469D01*
X003010Y013527D02*
X008145Y013527D01*
X008141Y013586D02*
X003010Y013586D01*
X003010Y013644D02*
X008141Y013644D01*
X008131Y013703D02*
X003010Y013703D01*
X003010Y013761D02*
X008072Y013761D01*
X008014Y013820D02*
X003010Y013820D01*
X003010Y013878D02*
X007955Y013878D01*
X007735Y013937D02*
X003010Y013937D01*
X003010Y013995D02*
X007677Y013995D01*
X007641Y014054D02*
X003010Y014054D01*
X003010Y014112D02*
X007641Y014112D01*
X007699Y014288D02*
X003010Y014288D01*
X003010Y014346D02*
X005953Y014346D01*
X005889Y014405D02*
X003010Y014405D01*
X003010Y014463D02*
X005842Y014463D01*
X005818Y014522D02*
X003010Y014522D01*
X003010Y014580D02*
X005800Y014580D01*
X005800Y014639D02*
X003010Y014639D01*
X003010Y014697D02*
X005801Y014697D01*
X005825Y014756D02*
X003010Y014756D01*
X003010Y014814D02*
X005849Y014814D01*
X005906Y014873D02*
X003010Y014873D01*
X003010Y014931D02*
X005994Y014931D01*
X008048Y014300D02*
X012712Y014300D01*
X012641Y014229D01*
X012641Y014171D02*
X008119Y014171D01*
X008119Y014229D02*
X008048Y014300D01*
X008061Y014288D02*
X012699Y014288D01*
X012641Y014112D02*
X008119Y014112D01*
X008133Y014054D02*
X012641Y014054D01*
X012677Y013995D02*
X008192Y013995D01*
X008250Y013937D02*
X012735Y013937D01*
X012955Y013878D02*
X008309Y013878D01*
X008529Y013820D02*
X013014Y013820D01*
X013072Y013761D02*
X008587Y013761D01*
X008619Y013703D02*
X013131Y013703D01*
X013141Y013644D02*
X008619Y013644D01*
X008619Y013586D02*
X013141Y013586D01*
X013145Y013527D02*
X008615Y013527D01*
X008557Y013469D02*
X013203Y013469D01*
X013262Y013410D02*
X008498Y013410D01*
X005814Y006683D02*
X015360Y006683D01*
X015360Y006741D02*
X005649Y006741D01*
X005484Y006800D02*
X015360Y006800D01*
X015360Y006858D02*
X005320Y006858D01*
X005897Y006624D02*
X015360Y006624D01*
X015360Y006566D02*
X005980Y006566D01*
X006062Y006507D02*
X015360Y006507D01*
X015360Y006449D02*
X006145Y006449D01*
X006228Y006390D02*
X015360Y006390D01*
X015360Y006332D02*
X006292Y006332D01*
X006339Y006273D02*
X015360Y006273D01*
X015360Y006215D02*
X006387Y006215D01*
X006434Y006156D02*
X015360Y006156D01*
X015360Y006098D02*
X006482Y006098D01*
X004514Y006858D02*
X003010Y006858D01*
X003010Y006800D02*
X004233Y006800D01*
X004100Y006741D02*
X003010Y006741D01*
X003010Y006683D02*
X003987Y006683D01*
X003874Y006624D02*
X003010Y006624D01*
X003010Y006566D02*
X003762Y006566D01*
X003676Y006507D02*
X003010Y006507D01*
X003010Y006449D02*
X003613Y006449D01*
X003550Y006390D02*
X003010Y006390D01*
X003010Y006332D02*
X003488Y006332D01*
X003425Y006273D02*
X003010Y006273D01*
X003010Y006215D02*
X003362Y006215D01*
X003302Y006156D02*
X003010Y006156D01*
X003010Y006098D02*
X003267Y006098D01*
X003231Y006039D02*
X003010Y006039D01*
X003010Y005981D02*
X003195Y005981D01*
X003160Y005922D02*
X003010Y005922D01*
X003010Y005864D02*
X003124Y005864D01*
X003089Y005805D02*
X003010Y005805D01*
X003010Y005747D02*
X003053Y005747D01*
X003018Y005688D02*
X003010Y005688D01*
X003010Y006917D02*
X015360Y006917D01*
X015377Y006975D02*
X003010Y006975D01*
X003010Y007034D02*
X015402Y007034D01*
X015460Y007092D02*
X003010Y007092D01*
X003010Y007151D02*
X015519Y007151D01*
X015577Y007209D02*
X003010Y007209D01*
X003010Y007268D02*
X015636Y007268D01*
X015694Y007326D02*
X003010Y007326D01*
X003010Y007385D02*
X015753Y007385D01*
X015811Y007443D02*
X003010Y007443D01*
X003010Y007502D02*
X015870Y007502D01*
X015928Y007560D02*
X003010Y007560D01*
X003010Y007619D02*
X015987Y007619D01*
X016045Y007677D02*
X003010Y007677D01*
X003010Y007736D02*
X016104Y007736D01*
X016162Y007794D02*
X003010Y007794D01*
X003010Y007853D02*
X016221Y007853D01*
X016279Y007911D02*
X003010Y007911D01*
X003010Y007970D02*
X016338Y007970D01*
X016396Y008028D02*
X003010Y008028D01*
X003010Y008087D02*
X016455Y008087D01*
X016513Y008145D02*
X003010Y008145D01*
X003010Y008204D02*
X016572Y008204D01*
X016630Y008262D02*
X003010Y008262D01*
X003010Y008321D02*
X016689Y008321D01*
X016747Y008379D02*
X003010Y008379D01*
X003010Y008438D02*
X016806Y008438D01*
X016864Y008496D02*
X003010Y008496D01*
X003010Y008555D02*
X016923Y008555D01*
X016981Y008613D02*
X003010Y008613D01*
X003010Y008672D02*
X013250Y008672D01*
X013281Y008641D02*
X013479Y008641D01*
X013619Y008781D01*
X013619Y008979D01*
X013505Y009093D01*
X013505Y009917D01*
X013619Y010031D01*
X013619Y010229D01*
X013479Y010369D01*
X013281Y010369D01*
X013141Y010229D01*
X013141Y010031D01*
X013255Y009917D01*
X013255Y009093D01*
X013141Y008979D01*
X013141Y008781D01*
X013281Y008641D01*
X013192Y008730D02*
X003010Y008730D01*
X003010Y008789D02*
X013141Y008789D01*
X013141Y008847D02*
X003010Y008847D01*
X003010Y008906D02*
X013141Y008906D01*
X013141Y008964D02*
X003010Y008964D01*
X003010Y009023D02*
X013184Y009023D01*
X013243Y009081D02*
X003010Y009081D01*
X003010Y009140D02*
X013255Y009140D01*
X013255Y009198D02*
X003010Y009198D01*
X003010Y009257D02*
X013255Y009257D01*
X013255Y009315D02*
X003010Y009315D01*
X003010Y009374D02*
X013255Y009374D01*
X013255Y009432D02*
X003010Y009432D01*
X003010Y009491D02*
X013255Y009491D01*
X013255Y009549D02*
X003010Y009549D01*
X003010Y009608D02*
X013255Y009608D01*
X013255Y009666D02*
X003010Y009666D01*
X003010Y009725D02*
X013255Y009725D01*
X013255Y009783D02*
X003010Y009783D01*
X003010Y009842D02*
X013255Y009842D01*
X013255Y009900D02*
X003010Y009900D01*
X003010Y009959D02*
X013213Y009959D01*
X013155Y010017D02*
X003010Y010017D01*
X003010Y010076D02*
X013141Y010076D01*
X013141Y010134D02*
X003010Y010134D01*
X003010Y010193D02*
X013141Y010193D01*
X013163Y010251D02*
X003010Y010251D01*
X003010Y010310D02*
X013221Y010310D01*
X013280Y010368D02*
X003010Y010368D01*
X003010Y010427D02*
X015355Y010427D01*
X015355Y010485D02*
X003010Y010485D01*
X003010Y010544D02*
X015395Y010544D01*
X015355Y010503D02*
X015355Y010029D01*
X015690Y009693D01*
X016164Y009693D01*
X016500Y010029D01*
X016500Y010503D01*
X016164Y010838D01*
X015690Y010838D01*
X015355Y010503D01*
X015355Y010368D02*
X014480Y010368D01*
X014479Y010369D02*
X014281Y010369D01*
X014141Y010229D01*
X014141Y010031D01*
X014281Y009891D01*
X014442Y009891D01*
X014505Y009828D01*
X014505Y009093D01*
X014391Y008979D01*
X014391Y008781D01*
X014531Y008641D01*
X014729Y008641D01*
X014869Y008781D01*
X014869Y008979D01*
X014755Y009093D01*
X014755Y009932D01*
X014619Y010068D01*
X014619Y010229D01*
X014479Y010369D01*
X014539Y010310D02*
X015355Y010310D01*
X015355Y010251D02*
X014597Y010251D01*
X014619Y010193D02*
X015355Y010193D01*
X015355Y010134D02*
X014619Y010134D01*
X014619Y010076D02*
X015355Y010076D01*
X015366Y010017D02*
X014670Y010017D01*
X014728Y009959D02*
X015425Y009959D01*
X015483Y009900D02*
X014755Y009900D01*
X014755Y009842D02*
X015542Y009842D01*
X015600Y009783D02*
X014755Y009783D01*
X014755Y009725D02*
X015659Y009725D01*
X016195Y009725D02*
X018093Y009725D01*
X018110Y009783D02*
X016254Y009783D01*
X016312Y009842D02*
X018110Y009842D01*
X018110Y009900D02*
X016371Y009900D01*
X016429Y009959D02*
X018110Y009959D01*
X018110Y010017D02*
X016488Y010017D01*
X016500Y010076D02*
X018110Y010076D01*
X018110Y010134D02*
X016500Y010134D01*
X016500Y010193D02*
X018110Y010193D01*
X018110Y010251D02*
X016500Y010251D01*
X016500Y010310D02*
X018110Y010310D01*
X018110Y010368D02*
X016500Y010368D01*
X016500Y010427D02*
X018110Y010427D01*
X018110Y010485D02*
X016500Y010485D01*
X016459Y010544D02*
X018110Y010544D01*
X018110Y010602D02*
X016401Y010602D01*
X016342Y010661D02*
X018110Y010661D01*
X018110Y010719D02*
X016284Y010719D01*
X016225Y010778D02*
X018110Y010778D01*
X018110Y010836D02*
X016167Y010836D01*
X015688Y010836D02*
X003010Y010836D01*
X003010Y010778D02*
X015629Y010778D01*
X015571Y010719D02*
X003010Y010719D01*
X003010Y010661D02*
X015512Y010661D01*
X015454Y010602D02*
X003010Y010602D01*
X003010Y010895D02*
X018110Y010895D01*
X018110Y010953D02*
X003010Y010953D01*
X003010Y011012D02*
X018110Y011012D01*
X018110Y011070D02*
X003010Y011070D01*
X003010Y011129D02*
X018110Y011129D01*
X018110Y011187D02*
X003010Y011187D01*
X003010Y011246D02*
X018110Y011246D01*
X018110Y011304D02*
X003010Y011304D01*
X003010Y011363D02*
X018110Y011363D01*
X018110Y011421D02*
X003010Y011421D01*
X003010Y011480D02*
X018110Y011480D01*
X018110Y011538D02*
X003010Y011538D01*
X003010Y011597D02*
X018110Y011597D01*
X018110Y011655D02*
X003010Y011655D01*
X003010Y011714D02*
X018110Y011714D01*
X018110Y011772D02*
X003010Y011772D01*
X003010Y011831D02*
X018110Y011831D01*
X018110Y011889D02*
X003010Y011889D01*
X003010Y011948D02*
X018110Y011948D01*
X018110Y012006D02*
X003010Y012006D01*
X003010Y012065D02*
X018110Y012065D01*
X018110Y012123D02*
X003010Y012123D01*
X003010Y012182D02*
X018110Y012182D01*
X018110Y012240D02*
X003010Y012240D01*
X003010Y012299D02*
X018110Y012299D01*
X018110Y012357D02*
X003010Y012357D01*
X003010Y012416D02*
X018110Y012416D01*
X018110Y012474D02*
X003010Y012474D01*
X003010Y012533D02*
X018110Y012533D01*
X018110Y012591D02*
X003010Y012591D01*
X003010Y012650D02*
X018110Y012650D01*
X018110Y012708D02*
X003010Y012708D01*
X003010Y012767D02*
X018110Y012767D01*
X018110Y012825D02*
X003010Y012825D01*
X003010Y012884D02*
X018110Y012884D01*
X018110Y012942D02*
X003010Y012942D01*
X003010Y013001D02*
X018110Y013001D01*
X018110Y013059D02*
X003010Y013059D01*
X003010Y013118D02*
X018110Y013118D01*
X018110Y013176D02*
X003010Y013176D01*
X003010Y013235D02*
X018110Y013235D01*
X018110Y013293D02*
X003010Y013293D01*
X003010Y014990D02*
X019470Y014990D01*
X019470Y015048D02*
X003010Y015048D01*
X003010Y015107D02*
X019470Y015107D01*
X019470Y015165D02*
X003010Y015165D01*
X003010Y015224D02*
X019470Y015224D01*
X019470Y015282D02*
X003010Y015282D01*
X003010Y015341D02*
X019470Y015341D01*
X019470Y015399D02*
X003010Y015399D01*
X003010Y015458D02*
X019470Y015458D01*
X019470Y015516D02*
X003010Y015516D01*
X003010Y015575D02*
X019470Y015575D01*
X019470Y015633D02*
X003010Y015633D01*
X003010Y015692D02*
X019470Y015692D01*
X019470Y015750D02*
X003010Y015750D01*
X003010Y015809D02*
X019470Y015809D01*
X019470Y015867D02*
X003010Y015867D01*
X003010Y015926D02*
X019470Y015926D01*
X019470Y015984D02*
X003010Y015984D01*
X003010Y016043D02*
X019470Y016043D01*
X019470Y016101D02*
X003010Y016101D01*
X003010Y016160D02*
X019470Y016160D01*
X019470Y016218D02*
X003010Y016218D01*
X003010Y016277D02*
X019470Y016277D01*
X019470Y016335D02*
X003010Y016335D01*
X003010Y016394D02*
X019470Y016394D01*
X019470Y016452D02*
X003010Y016452D01*
X003010Y016511D02*
X019470Y016511D01*
X019470Y016569D02*
X003010Y016569D01*
X003010Y016628D02*
X019470Y016628D01*
X019470Y016686D02*
X003010Y016686D01*
X003010Y016745D02*
X019470Y016745D01*
X019470Y016803D02*
X003010Y016803D01*
X003010Y016862D02*
X019470Y016862D01*
X019470Y016920D02*
X003010Y016920D01*
X003010Y016979D02*
X019470Y016979D01*
X019470Y017037D02*
X003010Y017037D01*
X003010Y017096D02*
X019470Y017096D01*
X019470Y017154D02*
X003010Y017154D01*
X003010Y017213D02*
X019470Y017213D01*
X019470Y017271D02*
X003010Y017271D01*
X003010Y017330D02*
X019470Y017330D01*
X019470Y017388D02*
X003010Y017388D01*
X003010Y017447D02*
X019470Y017447D01*
X019470Y017505D02*
X003010Y017505D01*
X003010Y017564D02*
X019470Y017564D01*
X019470Y017622D02*
X003010Y017622D01*
X003010Y017681D02*
X019470Y017681D01*
X019470Y017739D02*
X003010Y017739D01*
X003010Y017798D02*
X019470Y017798D01*
X019470Y017856D02*
X003010Y017856D01*
X003010Y017915D02*
X019470Y017915D01*
X019470Y017973D02*
X003010Y017973D01*
X003010Y018032D02*
X019470Y018032D01*
X019470Y018090D02*
X003010Y018090D01*
X003010Y018149D02*
X019470Y018149D01*
X019470Y018207D02*
X003010Y018207D01*
X003010Y018266D02*
X019470Y018266D01*
X019470Y018324D02*
X003010Y018324D01*
X003010Y018383D02*
X019470Y018383D01*
X019470Y018441D02*
X003010Y018441D01*
X003010Y018500D02*
X019470Y018500D01*
X019470Y018558D02*
X003010Y018558D01*
X003010Y018617D02*
X019470Y018617D01*
X019470Y018675D02*
X003010Y018675D01*
X003010Y018734D02*
X019470Y018734D01*
X019470Y018792D02*
X003010Y018792D01*
X003010Y018851D02*
X019470Y018851D01*
X019470Y018909D02*
X003010Y018909D01*
X003010Y018968D02*
X019470Y018968D01*
X019470Y019026D02*
X003010Y019026D01*
X003010Y019085D02*
X019470Y019085D01*
X019470Y019143D02*
X003010Y019143D01*
X003010Y019202D02*
X019470Y019202D01*
X019470Y019260D02*
X003010Y019260D01*
X003010Y019319D02*
X019470Y019319D01*
X019470Y019377D02*
X003010Y019377D01*
X003010Y019436D02*
X019470Y019436D01*
X019470Y019494D02*
X003010Y019494D01*
X003010Y019553D02*
X019470Y019553D01*
X019470Y019611D02*
X003010Y019611D01*
X003010Y019670D02*
X019470Y019670D01*
X019470Y019728D02*
X003010Y019728D01*
X003010Y019787D02*
X019470Y019787D01*
X019470Y019845D02*
X003010Y019845D01*
X003010Y019904D02*
X019470Y019904D01*
X019470Y019962D02*
X003010Y019962D01*
X003010Y020021D02*
X019470Y020021D01*
X019470Y020079D02*
X003010Y020079D01*
X003010Y020138D02*
X019470Y020138D01*
X019470Y020196D02*
X003010Y020196D01*
X003010Y020255D02*
X019470Y020255D01*
X019470Y020313D02*
X003010Y020313D01*
X003010Y020372D02*
X019470Y020372D01*
X019470Y020430D02*
X003010Y020430D01*
X003010Y020489D02*
X019470Y020489D01*
X019470Y020547D02*
X003010Y020547D01*
X003010Y020606D02*
X019470Y020606D01*
X019470Y020664D02*
X003010Y020664D01*
X003010Y020723D02*
X019470Y020723D01*
X019470Y020781D02*
X003010Y020781D01*
X003010Y020840D02*
X019470Y020840D01*
X019470Y020898D02*
X003010Y020898D01*
X003010Y020957D02*
X019470Y020957D01*
X019470Y021015D02*
X003010Y021015D01*
X003010Y021074D02*
X019470Y021074D01*
X019470Y021132D02*
X003010Y021132D01*
X003010Y021191D02*
X019470Y021191D01*
X019470Y021249D02*
X003010Y021249D01*
X003010Y021308D02*
X019470Y021308D01*
X019470Y021366D02*
X003010Y021366D01*
X003010Y021425D02*
X019470Y021425D01*
X019470Y021483D02*
X003010Y021483D01*
X003010Y021542D02*
X019470Y021542D01*
X019470Y021600D02*
X003010Y021600D01*
X003010Y021659D02*
X019470Y021659D01*
X019470Y021717D02*
X003010Y021717D01*
X003010Y021776D02*
X019470Y021776D01*
X019470Y021834D02*
X003010Y021834D01*
X003010Y021893D02*
X008279Y021893D01*
X008221Y021951D02*
X003010Y021951D01*
X003010Y022010D02*
X008162Y022010D01*
X008141Y022068D02*
X003010Y022068D01*
X003010Y022127D02*
X008141Y022127D01*
X008141Y022185D02*
X003010Y022185D01*
X003010Y022244D02*
X008090Y022244D01*
X008031Y022302D02*
X003010Y022302D01*
X003010Y022361D02*
X007973Y022361D01*
X007753Y022419D02*
X003010Y022419D01*
X003010Y022478D02*
X007694Y022478D01*
X007641Y022536D02*
X003010Y022536D01*
X003010Y022595D02*
X007641Y022595D01*
X007641Y022653D02*
X003010Y022653D01*
X003010Y022712D02*
X007641Y022712D01*
X007682Y022770D02*
X003010Y022770D01*
X003010Y022829D02*
X005995Y022829D01*
X005906Y022887D02*
X003010Y022887D01*
X003010Y022946D02*
X005849Y022946D01*
X005825Y023004D02*
X003010Y023004D01*
X003010Y023063D02*
X005801Y023063D01*
X005800Y023121D02*
X003010Y023121D01*
X003010Y023180D02*
X005800Y023180D01*
X005818Y023238D02*
X003010Y023238D01*
X003010Y023297D02*
X005842Y023297D01*
X005888Y023355D02*
X003010Y023355D01*
X003010Y023414D02*
X005952Y023414D01*
X008078Y022770D02*
X012682Y022770D01*
X012641Y022712D02*
X008119Y022712D01*
X008119Y022653D02*
X012641Y022653D01*
X012641Y022595D02*
X008119Y022595D01*
X008151Y022536D02*
X012641Y022536D01*
X012694Y022478D02*
X008209Y022478D01*
X008268Y022419D02*
X012753Y022419D01*
X012973Y022361D02*
X008487Y022361D01*
X008546Y022302D02*
X013031Y022302D01*
X013090Y022244D02*
X008604Y022244D01*
X008619Y022185D02*
X013141Y022185D01*
X013141Y022127D02*
X008619Y022127D01*
X008619Y022068D02*
X013141Y022068D01*
X013162Y022010D02*
X008598Y022010D01*
X008539Y021951D02*
X013221Y021951D01*
X013279Y021893D02*
X008481Y021893D01*
X013078Y022770D02*
X019470Y022770D01*
X019470Y022712D02*
X013119Y022712D01*
X013119Y022653D02*
X019470Y022653D01*
X019470Y022595D02*
X013119Y022595D01*
X013151Y022536D02*
X019470Y022536D01*
X019470Y022478D02*
X013209Y022478D01*
X013268Y022419D02*
X019470Y022419D01*
X019470Y022361D02*
X013487Y022361D01*
X013546Y022302D02*
X019470Y022302D01*
X019470Y022244D02*
X013604Y022244D01*
X013619Y022185D02*
X019470Y022185D01*
X019470Y022127D02*
X013619Y022127D01*
X013619Y022068D02*
X019470Y022068D01*
X019470Y022010D02*
X013598Y022010D01*
X013539Y021951D02*
X019470Y021951D01*
X019470Y021893D02*
X013481Y021893D01*
X017022Y026924D02*
X003010Y026924D01*
X003010Y026982D02*
X016997Y026982D01*
X016973Y027041D02*
X003010Y027041D01*
X003010Y027099D02*
X016970Y027099D01*
X016970Y027158D02*
X003010Y027158D01*
X003010Y027216D02*
X016970Y027216D01*
X016970Y027275D02*
X003010Y027275D01*
X003010Y027333D02*
X016970Y027333D01*
X016970Y027392D02*
X003010Y027392D01*
X003010Y027450D02*
X016970Y027450D01*
X016970Y027509D02*
X003010Y027509D01*
X003010Y027567D02*
X016970Y027567D01*
X016970Y027626D02*
X003010Y027626D01*
X003010Y027684D02*
X016970Y027684D01*
X016970Y027743D02*
X003010Y027743D01*
X003010Y027801D02*
X016042Y027801D01*
X016063Y027793D02*
X015939Y027844D01*
X015844Y027939D01*
X015793Y028063D01*
X015793Y028197D01*
X015844Y028321D01*
X015939Y028416D01*
X016063Y028467D01*
X016197Y028467D01*
X016321Y028416D01*
X016416Y028321D01*
X016467Y028197D01*
X016467Y028063D01*
X016416Y027939D01*
X016321Y027844D01*
X016197Y027793D01*
X016063Y027793D01*
X015923Y027860D02*
X003010Y027860D01*
X003010Y027918D02*
X015865Y027918D01*
X015828Y027977D02*
X003010Y027977D01*
X003010Y028035D02*
X015804Y028035D01*
X015793Y028094D02*
X003010Y028094D01*
X003010Y028152D02*
X015793Y028152D01*
X015798Y028211D02*
X003010Y028211D01*
X003010Y028269D02*
X015822Y028269D01*
X015850Y028328D02*
X003010Y028328D01*
X003010Y028386D02*
X015909Y028386D01*
X016008Y028445D02*
X003010Y028445D01*
X003010Y028503D02*
X016970Y028503D01*
X016970Y028445D02*
X016252Y028445D01*
X016351Y028386D02*
X016970Y028386D01*
X016970Y028328D02*
X016410Y028328D01*
X016438Y028269D02*
X016970Y028269D01*
X016970Y028211D02*
X016462Y028211D01*
X016467Y028152D02*
X016970Y028152D01*
X016970Y028094D02*
X016467Y028094D01*
X016456Y028035D02*
X016970Y028035D01*
X016970Y027977D02*
X016432Y027977D01*
X016395Y027918D02*
X016970Y027918D01*
X016970Y027860D02*
X016337Y027860D01*
X016218Y027801D02*
X016970Y027801D01*
X016970Y028562D02*
X003010Y028562D01*
X003010Y028620D02*
X016970Y028620D01*
X016970Y028679D02*
X003010Y028679D01*
X003010Y028737D02*
X016970Y028737D01*
X016970Y028796D02*
X003010Y028796D01*
X003010Y028854D02*
X016970Y028854D01*
X016970Y028913D02*
X003010Y028913D01*
X003010Y028971D02*
X016970Y028971D01*
X016970Y029030D02*
X003010Y029030D01*
X003010Y029088D02*
X016970Y029088D01*
X016970Y029147D02*
X003010Y029147D01*
X003010Y029205D02*
X016970Y029205D01*
X016970Y029264D02*
X003010Y029264D01*
X003010Y029322D02*
X016970Y029322D01*
X016970Y029381D02*
X003010Y029381D01*
X003010Y029439D02*
X016970Y029439D01*
X016970Y029498D02*
X003010Y029498D01*
X003010Y029556D02*
X016970Y029556D01*
X016970Y029615D02*
X003010Y029615D01*
X003010Y029673D02*
X016970Y029673D01*
X016970Y029732D02*
X003010Y029732D01*
X003010Y029790D02*
X016970Y029790D01*
X016970Y029849D02*
X003010Y029849D01*
X003010Y029907D02*
X016970Y029907D01*
X016970Y029966D02*
X003010Y029966D01*
X003010Y030024D02*
X016970Y030024D01*
X016970Y030083D02*
X003010Y030083D01*
X003010Y030141D02*
X016970Y030141D01*
X016970Y030200D02*
X003010Y030200D01*
X003010Y030258D02*
X016970Y030258D01*
X016970Y030317D02*
X003010Y030317D01*
X003010Y030375D02*
X016970Y030375D01*
X016970Y030434D02*
X003010Y030434D01*
X003010Y030492D02*
X016970Y030492D01*
X016970Y030551D02*
X003010Y030551D01*
X003010Y030609D02*
X016970Y030609D01*
X016970Y030668D02*
X003010Y030668D01*
X003010Y030726D02*
X016970Y030726D01*
X016970Y030785D02*
X003010Y030785D01*
X003010Y030843D02*
X016970Y030843D01*
X016970Y030902D02*
X003010Y030902D01*
X003010Y030960D02*
X016970Y030960D01*
X016970Y031019D02*
X003010Y031019D01*
X003010Y031077D02*
X016970Y031077D01*
X016970Y031136D02*
X003010Y031136D01*
X003010Y031194D02*
X016970Y031194D01*
X016970Y031253D02*
X003010Y031253D01*
X003010Y031311D02*
X016970Y031311D01*
X016970Y031370D02*
X003010Y031370D01*
X003010Y031428D02*
X016970Y031428D01*
X016970Y031487D02*
X003010Y031487D01*
X003010Y031545D02*
X016970Y031545D01*
X016970Y031604D02*
X003010Y031604D01*
X003010Y031662D02*
X016970Y031662D01*
X016970Y031721D02*
X003010Y031721D01*
X003010Y031779D02*
X016970Y031779D01*
X016970Y031838D02*
X003010Y031838D01*
X003010Y031896D02*
X016970Y031896D01*
X016970Y031955D02*
X003010Y031955D01*
X003010Y032013D02*
X016970Y032013D01*
X016970Y032072D02*
X003010Y032072D01*
X003010Y032130D02*
X016970Y032130D01*
X016970Y032189D02*
X003010Y032189D01*
X003010Y032247D02*
X016970Y032247D01*
X016970Y032306D02*
X003010Y032306D01*
X003010Y032364D02*
X016970Y032364D01*
X016970Y032423D02*
X003010Y032423D01*
X003010Y032481D02*
X016970Y032481D01*
X016970Y032540D02*
X003010Y032540D01*
X003010Y032598D02*
X016970Y032598D01*
X016970Y032657D02*
X003010Y032657D01*
X003010Y032715D02*
X016970Y032715D01*
X016970Y032774D02*
X003010Y032774D01*
X003010Y032832D02*
X016970Y032832D01*
X016970Y032891D02*
X003010Y032891D01*
X003010Y032949D02*
X016970Y032949D01*
X016970Y033008D02*
X003010Y033008D01*
X003010Y033066D02*
X016970Y033066D01*
X016970Y033125D02*
X003010Y033125D01*
X003010Y033183D02*
X016970Y033183D01*
X016970Y033242D02*
X003010Y033242D01*
X003010Y033300D02*
X016970Y033300D01*
X016970Y033359D02*
X003010Y033359D01*
X003010Y033417D02*
X005569Y033417D01*
X005592Y033394D02*
X005256Y033730D01*
X005256Y034204D01*
X005592Y034539D01*
X006066Y034539D01*
X006401Y034204D01*
X006401Y033730D01*
X006066Y033394D01*
X005592Y033394D01*
X005510Y033476D02*
X003010Y033476D01*
X003010Y033534D02*
X005452Y033534D01*
X005393Y033593D02*
X003010Y033593D01*
X003010Y033651D02*
X005335Y033651D01*
X005276Y033710D02*
X003010Y033710D01*
X003010Y033768D02*
X005256Y033768D01*
X005256Y033827D02*
X003010Y033827D01*
X003010Y033885D02*
X005256Y033885D01*
X005256Y033944D02*
X003010Y033944D01*
X003010Y034002D02*
X005256Y034002D01*
X005256Y034061D02*
X003010Y034061D01*
X003010Y034119D02*
X005256Y034119D01*
X005256Y034178D02*
X003010Y034178D01*
X003010Y034236D02*
X005289Y034236D01*
X005347Y034295D02*
X003010Y034295D01*
X003010Y034353D02*
X005406Y034353D01*
X005464Y034412D02*
X003010Y034412D01*
X003010Y034470D02*
X005523Y034470D01*
X005581Y034529D02*
X003010Y034529D01*
X003010Y034587D02*
X016970Y034587D01*
X016970Y034529D02*
X016214Y034529D01*
X016204Y034539D02*
X015730Y034539D01*
X015394Y034204D01*
X015394Y033730D01*
X015730Y033394D01*
X016204Y033394D01*
X016539Y033730D01*
X016539Y034204D01*
X016204Y034539D01*
X016273Y034470D02*
X016970Y034470D01*
X016970Y034412D02*
X016331Y034412D01*
X016390Y034353D02*
X016970Y034353D01*
X016970Y034295D02*
X016448Y034295D01*
X016507Y034236D02*
X016970Y034236D01*
X016970Y034178D02*
X016539Y034178D01*
X016539Y034119D02*
X016970Y034119D01*
X016970Y034061D02*
X016539Y034061D01*
X016539Y034002D02*
X016970Y034002D01*
X016970Y033944D02*
X016539Y033944D01*
X016539Y033885D02*
X016970Y033885D01*
X016970Y033827D02*
X016539Y033827D01*
X016539Y033768D02*
X016970Y033768D01*
X016970Y033710D02*
X016519Y033710D01*
X016461Y033651D02*
X016970Y033651D01*
X016970Y033593D02*
X016402Y033593D01*
X016344Y033534D02*
X016970Y033534D01*
X016970Y033476D02*
X016285Y033476D01*
X016227Y033417D02*
X016970Y033417D01*
X016970Y034646D02*
X003010Y034646D01*
X003010Y034704D02*
X016970Y034704D01*
X016970Y034763D02*
X003010Y034763D01*
X003010Y034821D02*
X011994Y034821D01*
X011939Y034844D02*
X012063Y034793D01*
X012197Y034793D01*
X012321Y034844D01*
X012416Y034939D01*
X012467Y035063D01*
X012467Y035197D01*
X012416Y035321D01*
X012321Y035416D01*
X012197Y035467D01*
X012063Y035467D01*
X011939Y035416D01*
X011844Y035321D01*
X011793Y035197D01*
X011793Y035063D01*
X011844Y034939D01*
X011939Y034844D01*
X011903Y034880D02*
X003010Y034880D01*
X003010Y034938D02*
X011845Y034938D01*
X011820Y034997D02*
X003010Y034997D01*
X003010Y035055D02*
X011796Y035055D01*
X011793Y035114D02*
X003010Y035114D01*
X003010Y035172D02*
X011793Y035172D01*
X011806Y035231D02*
X003010Y035231D01*
X003010Y035289D02*
X011831Y035289D01*
X011870Y035348D02*
X003010Y035348D01*
X003010Y035406D02*
X011929Y035406D01*
X012056Y035465D02*
X003010Y035465D01*
X003010Y035523D02*
X017508Y035523D01*
X017385Y035465D02*
X014454Y035465D01*
X014447Y035467D02*
X014313Y035467D01*
X014189Y035416D01*
X014094Y035321D01*
X014043Y035197D01*
X014043Y035063D01*
X014094Y034939D01*
X014189Y034844D01*
X014313Y034793D01*
X014447Y034793D01*
X014571Y034844D01*
X014666Y034939D01*
X014717Y035063D01*
X014717Y035197D01*
X014666Y035321D01*
X014571Y035416D01*
X014447Y035467D01*
X014306Y035465D02*
X012204Y035465D01*
X012331Y035406D02*
X014179Y035406D01*
X014120Y035348D02*
X012390Y035348D01*
X012429Y035289D02*
X014081Y035289D01*
X014056Y035231D02*
X012454Y035231D01*
X012467Y035172D02*
X014043Y035172D01*
X014043Y035114D02*
X012467Y035114D01*
X012464Y035055D02*
X014046Y035055D01*
X014070Y034997D02*
X012440Y034997D01*
X012415Y034938D02*
X014095Y034938D01*
X014153Y034880D02*
X012357Y034880D01*
X012266Y034821D02*
X014244Y034821D01*
X014516Y034821D02*
X016970Y034821D01*
X016970Y034880D02*
X014607Y034880D01*
X014665Y034938D02*
X016970Y034938D01*
X016985Y034997D02*
X014690Y034997D01*
X014714Y035055D02*
X017009Y035055D01*
X017034Y035114D02*
X014717Y035114D01*
X014717Y035172D02*
X017092Y035172D01*
X017151Y035231D02*
X014704Y035231D01*
X014679Y035289D02*
X017209Y035289D01*
X017268Y035348D02*
X014640Y035348D01*
X014581Y035406D02*
X017326Y035406D01*
X018576Y034529D02*
X020443Y034529D01*
X020385Y034470D02*
X018635Y034470D01*
X018693Y034412D02*
X020326Y034412D01*
X020268Y034353D02*
X018752Y034353D01*
X018810Y034295D02*
X020209Y034295D01*
X020151Y034236D02*
X018869Y034236D01*
X018901Y034178D02*
X020119Y034178D01*
X020119Y034119D02*
X018901Y034119D01*
X018901Y034061D02*
X020119Y034061D01*
X020119Y034002D02*
X018901Y034002D01*
X018901Y033944D02*
X020119Y033944D01*
X020119Y033885D02*
X018901Y033885D01*
X018901Y033827D02*
X020119Y033827D01*
X020119Y033768D02*
X018901Y033768D01*
X018881Y033710D02*
X020138Y033710D01*
X020197Y033651D02*
X018823Y033651D01*
X018764Y033593D02*
X020255Y033593D01*
X020314Y033534D02*
X018706Y033534D01*
X018647Y033476D02*
X020372Y033476D01*
X020431Y033417D02*
X018589Y033417D01*
X017790Y033300D02*
X022891Y033300D01*
X022930Y033242D02*
X017790Y033242D01*
X017790Y033183D02*
X019480Y033183D01*
X019439Y033166D02*
X019563Y033217D01*
X019697Y033217D01*
X019821Y033166D01*
X019916Y033071D01*
X019967Y032947D01*
X019967Y032813D01*
X019916Y032689D01*
X019821Y032594D01*
X019697Y032543D01*
X019563Y032543D01*
X019439Y032594D01*
X019344Y032689D01*
X019293Y032813D01*
X019293Y032947D01*
X019344Y033071D01*
X019439Y033166D01*
X019397Y033125D02*
X017790Y033125D01*
X017790Y033066D02*
X019342Y033066D01*
X019318Y033008D02*
X017790Y033008D01*
X017790Y032949D02*
X019293Y032949D01*
X019293Y032891D02*
X017790Y032891D01*
X017790Y032832D02*
X019293Y032832D01*
X019309Y032774D02*
X017790Y032774D01*
X017790Y032715D02*
X019333Y032715D01*
X019376Y032657D02*
X017790Y032657D01*
X017790Y032598D02*
X019435Y032598D01*
X019825Y032598D02*
X023005Y032598D01*
X023005Y032540D02*
X017790Y032540D01*
X017790Y032481D02*
X023005Y032481D01*
X023005Y032423D02*
X017790Y032423D01*
X017790Y032364D02*
X023005Y032364D01*
X022968Y032306D02*
X017790Y032306D01*
X017790Y032247D02*
X022909Y032247D01*
X022891Y032189D02*
X017790Y032189D01*
X017790Y032130D02*
X022891Y032130D01*
X022891Y032072D02*
X017790Y032072D01*
X017790Y032013D02*
X022909Y032013D01*
X022967Y031955D02*
X017790Y031955D01*
X019015Y030083D02*
X019311Y030083D01*
X019252Y030024D02*
X019074Y030024D01*
X019070Y029732D02*
X019257Y029732D01*
X019315Y029673D02*
X019011Y029673D01*
X019884Y032657D02*
X023005Y032657D01*
X023005Y032715D02*
X019927Y032715D01*
X019951Y032774D02*
X023005Y032774D01*
X023005Y032832D02*
X019967Y032832D01*
X019967Y032891D02*
X023005Y032891D01*
X023005Y032949D02*
X019967Y032949D01*
X019942Y033008D02*
X023005Y033008D01*
X023005Y033066D02*
X019918Y033066D01*
X019863Y033125D02*
X023005Y033125D01*
X022989Y033183D02*
X019780Y033183D01*
X022850Y037044D02*
X022910Y037044D01*
X022910Y037103D02*
X022850Y037103D01*
X022850Y037161D02*
X022910Y037161D01*
X022910Y037220D02*
X022850Y037220D01*
X022850Y037278D02*
X022910Y037278D01*
X022910Y037337D02*
X022850Y037337D01*
X022850Y037395D02*
X022910Y037395D01*
X022910Y037454D02*
X022850Y037454D01*
X022850Y037512D02*
X022910Y037512D01*
X022910Y037571D02*
X022850Y037571D01*
X022850Y037629D02*
X022910Y037629D01*
X022910Y037805D02*
X022850Y037805D01*
X022850Y037863D02*
X022910Y037863D01*
X022910Y037922D02*
X022850Y037922D01*
X022850Y037980D02*
X022910Y037980D01*
X022910Y038039D02*
X022850Y038039D01*
X022850Y038097D02*
X022910Y038097D01*
X022910Y038156D02*
X022850Y038156D01*
X022850Y038214D02*
X022910Y038214D01*
X022910Y038273D02*
X022850Y038273D01*
X022850Y038331D02*
X022910Y038331D01*
X022576Y038331D02*
X015255Y038331D01*
X015255Y038273D02*
X022553Y038273D01*
X022553Y038214D02*
X015255Y038214D01*
X015255Y038156D02*
X022553Y038156D01*
X022553Y038097D02*
X015255Y038097D01*
X015255Y038039D02*
X022553Y038039D01*
X022553Y037980D02*
X015255Y037980D01*
X015255Y037922D02*
X022553Y037922D01*
X022553Y037863D02*
X015255Y037863D01*
X015255Y037805D02*
X022553Y037805D01*
X024914Y040496D02*
X013877Y040496D01*
X013877Y040554D02*
X024990Y040554D01*
X025103Y040613D02*
X013877Y040613D01*
X015186Y039501D02*
X016405Y039501D01*
X016464Y039443D02*
X015244Y039443D01*
X013758Y038214D02*
X012546Y038214D01*
X012604Y038156D02*
X013758Y038156D01*
X013161Y038682D02*
X007130Y038682D01*
X007130Y038741D02*
X012728Y038741D01*
X012738Y038799D02*
X007130Y038799D01*
X007130Y039677D02*
X007803Y039677D01*
X007803Y039735D02*
X007130Y039735D01*
X007130Y039794D02*
X007803Y039794D01*
X007803Y039852D02*
X007130Y039852D01*
X007130Y039911D02*
X007803Y039911D01*
X007803Y039969D02*
X007130Y039969D01*
X007130Y040028D02*
X007803Y040028D01*
X007803Y040086D02*
X007130Y040086D01*
X007130Y040145D02*
X007809Y040145D01*
X007846Y040203D02*
X007130Y040203D01*
X008100Y040203D02*
X008160Y040203D01*
X008160Y040145D02*
X008100Y040145D01*
X008100Y040086D02*
X008160Y040086D01*
X008160Y040028D02*
X008100Y040028D01*
X008100Y039969D02*
X008160Y039969D01*
X008160Y039911D02*
X008100Y039911D01*
X008100Y039852D02*
X008160Y039852D01*
X008160Y039794D02*
X008100Y039794D01*
X008100Y039735D02*
X008160Y039735D01*
X008160Y039677D02*
X008100Y039677D01*
X008100Y039501D02*
X008160Y039501D01*
X008160Y039443D02*
X008100Y039443D01*
X008100Y039384D02*
X008160Y039384D01*
X008160Y039326D02*
X008100Y039326D01*
X008100Y039267D02*
X008160Y039267D01*
X008160Y039209D02*
X008100Y039209D01*
X008100Y039150D02*
X008160Y039150D01*
X008160Y039092D02*
X008100Y039092D01*
X008100Y039033D02*
X008160Y039033D01*
X008160Y038975D02*
X008100Y038975D01*
X008100Y038916D02*
X008160Y038916D01*
X008423Y038916D02*
X010587Y038916D01*
X010556Y038975D02*
X008454Y038975D01*
X008457Y039033D02*
X010553Y039033D01*
X010553Y039092D02*
X008457Y039092D01*
X008457Y039150D02*
X010553Y039150D01*
X010553Y039209D02*
X008457Y039209D01*
X008457Y039267D02*
X010553Y039267D01*
X010553Y039326D02*
X008457Y039326D01*
X008457Y039384D02*
X010553Y039384D01*
X010553Y039443D02*
X008457Y039443D01*
X008457Y039501D02*
X010553Y039501D01*
X010553Y039618D02*
X008457Y039618D01*
X008457Y039677D02*
X010553Y039677D01*
X010553Y039735D02*
X008457Y039735D01*
X008457Y039794D02*
X010553Y039794D01*
X010553Y039852D02*
X008457Y039852D01*
X008457Y039911D02*
X010553Y039911D01*
X010553Y039969D02*
X008457Y039969D01*
X008457Y040028D02*
X010553Y040028D01*
X010553Y040086D02*
X008457Y040086D01*
X008451Y040145D02*
X010559Y040145D01*
X010596Y040203D02*
X008414Y040203D01*
X007005Y036810D02*
X003010Y036810D01*
X003010Y036752D02*
X007005Y036752D01*
X007005Y036693D02*
X003010Y036693D01*
X003010Y036635D02*
X007005Y036635D01*
X007007Y036576D02*
X003010Y036576D01*
X003010Y036518D02*
X007066Y036518D01*
X006076Y034529D02*
X013357Y034529D01*
X013367Y034539D02*
X013032Y034204D01*
X013032Y033730D01*
X013367Y033394D01*
X013842Y033394D01*
X014177Y033730D01*
X014177Y034204D01*
X013842Y034539D01*
X013367Y034539D01*
X013298Y034470D02*
X006135Y034470D01*
X006193Y034412D02*
X013240Y034412D01*
X013181Y034353D02*
X006252Y034353D01*
X006310Y034295D02*
X013123Y034295D01*
X013064Y034236D02*
X006369Y034236D01*
X006401Y034178D02*
X013032Y034178D01*
X013032Y034119D02*
X006401Y034119D01*
X006401Y034061D02*
X013032Y034061D01*
X013032Y034002D02*
X006401Y034002D01*
X006401Y033944D02*
X013032Y033944D01*
X013032Y033885D02*
X006401Y033885D01*
X006401Y033827D02*
X013032Y033827D01*
X013032Y033768D02*
X006401Y033768D01*
X006381Y033710D02*
X013052Y033710D01*
X013110Y033651D02*
X006323Y033651D01*
X006264Y033593D02*
X013169Y033593D01*
X013227Y033534D02*
X006206Y033534D01*
X006147Y033476D02*
X013286Y033476D01*
X013344Y033417D02*
X006089Y033417D01*
X003010Y026865D02*
X017065Y026865D01*
X017124Y026807D02*
X003010Y026807D01*
X003010Y026748D02*
X017182Y026748D01*
X017241Y026690D02*
X003010Y026690D01*
X003010Y026631D02*
X017299Y026631D01*
X017358Y026573D02*
X003010Y026573D01*
X003010Y026514D02*
X017416Y026514D01*
X017475Y026456D02*
X003010Y026456D01*
X003010Y026397D02*
X017533Y026397D01*
X017592Y026339D02*
X003010Y026339D01*
X003010Y026280D02*
X017650Y026280D01*
X017709Y026222D02*
X003010Y026222D01*
X003010Y026163D02*
X017767Y026163D01*
X017826Y026105D02*
X003010Y026105D01*
X003010Y026046D02*
X017884Y026046D01*
X017943Y025988D02*
X003010Y025988D01*
X003010Y025929D02*
X018001Y025929D01*
X018060Y025871D02*
X003010Y025871D01*
X003010Y025812D02*
X018118Y025812D01*
X018177Y025754D02*
X003010Y025754D01*
X003010Y025695D02*
X018235Y025695D01*
X018294Y025637D02*
X003010Y025637D01*
X003010Y025578D02*
X018352Y025578D01*
X018411Y025520D02*
X003010Y025520D01*
X003010Y025461D02*
X018469Y025461D01*
X018528Y025403D02*
X003010Y025403D01*
X003010Y025344D02*
X018586Y025344D01*
X018645Y025286D02*
X003010Y025286D01*
X003010Y025227D02*
X018703Y025227D01*
X018762Y025169D02*
X003010Y025169D01*
X003010Y025110D02*
X018820Y025110D01*
X018879Y025052D02*
X003010Y025052D01*
X003010Y024993D02*
X018937Y024993D01*
X018996Y024935D02*
X003010Y024935D01*
X003010Y024876D02*
X019054Y024876D01*
X019113Y024818D02*
X003010Y024818D01*
X003010Y024759D02*
X019171Y024759D01*
X019230Y024701D02*
X003010Y024701D01*
X003010Y024642D02*
X019288Y024642D01*
X019347Y024584D02*
X003010Y024584D01*
X003010Y024525D02*
X019405Y024525D01*
X019464Y024467D02*
X003010Y024467D01*
X003010Y024408D02*
X019470Y024408D01*
X019470Y024350D02*
X003010Y024350D01*
X003010Y024291D02*
X019470Y024291D01*
X019470Y024233D02*
X003010Y024233D01*
X003010Y024174D02*
X019470Y024174D01*
X019470Y024116D02*
X003010Y024116D01*
X003010Y024057D02*
X019470Y024057D01*
X019470Y023999D02*
X003010Y023999D01*
X003010Y023940D02*
X019470Y023940D01*
X019470Y023882D02*
X003010Y023882D01*
X003010Y023823D02*
X019470Y023823D01*
X019470Y023765D02*
X003010Y023765D01*
X003010Y023706D02*
X019470Y023706D01*
X019470Y023648D02*
X003010Y023648D01*
X003010Y023589D02*
X019470Y023589D01*
X019470Y023531D02*
X003010Y023531D01*
X003010Y023472D02*
X019470Y023472D01*
X020290Y022068D02*
X021480Y022068D01*
X021422Y022010D02*
X020290Y022010D01*
X020290Y021951D02*
X021391Y021951D01*
X021391Y021893D02*
X020290Y021893D01*
X020290Y021834D02*
X021391Y021834D01*
X021396Y021776D02*
X020290Y021776D01*
X020290Y021717D02*
X021455Y021717D01*
X021513Y021659D02*
X020290Y021659D01*
X021747Y021659D02*
X022013Y021659D01*
X021955Y021717D02*
X021805Y021717D01*
X021838Y022010D02*
X021922Y022010D01*
X021980Y022068D02*
X021780Y022068D01*
X021778Y023940D02*
X021982Y023940D01*
X021923Y023999D02*
X021837Y023999D01*
X021807Y024291D02*
X021953Y024291D01*
X022012Y024350D02*
X021748Y024350D01*
X021801Y018792D02*
X020290Y018792D01*
X020290Y018734D02*
X021754Y018734D01*
X021707Y018675D02*
X020290Y018675D01*
X020290Y018617D02*
X021660Y018617D01*
X021613Y018558D02*
X020290Y018558D01*
X020290Y018500D02*
X021566Y018500D01*
X021514Y018441D02*
X020290Y018441D01*
X020290Y018383D02*
X021478Y018383D01*
X021420Y018324D02*
X020290Y018324D01*
X020290Y018266D02*
X021396Y018266D01*
X021396Y018207D02*
X020290Y018207D01*
X020290Y018149D02*
X021396Y018149D01*
X021408Y018090D02*
X020290Y018090D01*
X020290Y018032D02*
X021467Y018032D01*
X021525Y017973D02*
X020290Y017973D01*
X020290Y017915D02*
X026743Y017915D01*
X026706Y017856D02*
X020290Y017856D01*
X020290Y017798D02*
X026680Y017798D01*
X026661Y017739D02*
X020290Y017739D01*
X020290Y017681D02*
X026652Y017681D01*
X026655Y017564D02*
X020290Y017564D01*
X020290Y017622D02*
X027100Y017622D01*
X027100Y017564D02*
X027160Y017564D01*
X027160Y017505D02*
X027100Y017505D01*
X027100Y017447D02*
X027160Y017447D01*
X027160Y017388D02*
X027100Y017388D01*
X027100Y017330D02*
X027160Y017330D01*
X027160Y017271D02*
X027100Y017271D01*
X027100Y017213D02*
X027160Y017213D01*
X027160Y017154D02*
X027100Y017154D01*
X027067Y017154D02*
X020290Y017154D01*
X020290Y017096D02*
X021257Y017096D01*
X021199Y017037D02*
X020290Y017037D01*
X020290Y016979D02*
X021141Y016979D01*
X021141Y016920D02*
X020290Y016920D01*
X020290Y016862D02*
X021141Y016862D01*
X021141Y016803D02*
X020290Y016803D01*
X020290Y016745D02*
X021177Y016745D01*
X021236Y016686D02*
X020290Y016686D01*
X020290Y016628D02*
X021456Y016628D01*
X021514Y016569D02*
X020290Y016569D01*
X020290Y016511D02*
X021573Y016511D01*
X021634Y016803D02*
X026715Y016803D01*
X026739Y016862D02*
X021619Y016862D01*
X021619Y016920D02*
X026784Y016920D01*
X026842Y016979D02*
X021619Y016979D01*
X021561Y017037D02*
X026937Y017037D01*
X026892Y017213D02*
X020290Y017213D01*
X020290Y017271D02*
X026810Y017271D01*
X026755Y017330D02*
X020290Y017330D01*
X020290Y017388D02*
X026715Y017388D01*
X026685Y017447D02*
X020290Y017447D01*
X020290Y017505D02*
X026666Y017505D01*
X026794Y017973D02*
X022500Y017973D01*
X022558Y018032D02*
X026866Y018032D01*
X026993Y018090D02*
X022617Y018090D01*
X022624Y018149D02*
X023666Y018149D01*
X023607Y018207D02*
X022624Y018207D01*
X022453Y018441D02*
X021839Y018441D01*
X021792Y018383D02*
X022233Y018383D01*
X022175Y018324D02*
X021850Y018324D01*
X021874Y018266D02*
X022146Y018266D01*
X022146Y018207D02*
X021874Y018207D01*
X021874Y018149D02*
X022146Y018149D01*
X022153Y018090D02*
X021862Y018090D01*
X021803Y018032D02*
X022212Y018032D01*
X022270Y017973D02*
X021745Y017973D01*
X021886Y018500D02*
X022512Y018500D01*
X021933Y018558D02*
X023612Y018558D01*
X023442Y016745D02*
X026690Y016745D01*
X026680Y016686D02*
X023501Y016686D01*
X023559Y016628D02*
X026680Y016628D01*
X026680Y016569D02*
X023618Y016569D01*
X023676Y016511D02*
X026692Y016511D01*
X026717Y016452D02*
X023735Y016452D01*
X023793Y016394D02*
X026741Y016394D01*
X026763Y016335D02*
X026789Y016335D01*
X026822Y016277D02*
X026847Y016277D01*
X026848Y015984D02*
X026822Y015984D01*
X026789Y015926D02*
X026764Y015926D01*
X026741Y015867D02*
X024255Y015867D01*
X024255Y015809D02*
X026717Y015809D01*
X026693Y015750D02*
X024255Y015750D01*
X024255Y015692D02*
X026680Y015692D01*
X026680Y015633D02*
X024255Y015633D01*
X024255Y015575D02*
X026680Y015575D01*
X026690Y015516D02*
X024255Y015516D01*
X024255Y015458D02*
X026714Y015458D01*
X026739Y015399D02*
X024255Y015399D01*
X024255Y015341D02*
X026783Y015341D01*
X026842Y015282D02*
X024255Y015282D01*
X024255Y015224D02*
X026935Y015224D01*
X026963Y015048D02*
X024389Y015048D01*
X024447Y014990D02*
X026853Y014990D01*
X026795Y014931D02*
X024506Y014931D01*
X024564Y014873D02*
X026743Y014873D01*
X026719Y014814D02*
X024623Y014814D01*
X024681Y014756D02*
X026695Y014756D01*
X026680Y014697D02*
X024740Y014697D01*
X024798Y014639D02*
X026680Y014639D01*
X026680Y014580D02*
X024857Y014580D01*
X024915Y014522D02*
X026688Y014522D01*
X026712Y014463D02*
X024974Y014463D01*
X025032Y014405D02*
X026736Y014405D01*
X026778Y014346D02*
X025091Y014346D01*
X025149Y014288D02*
X026836Y014288D01*
X026922Y014229D02*
X025708Y014229D01*
X025766Y014171D02*
X027494Y014171D01*
X027552Y014229D02*
X027338Y014229D01*
X027424Y014288D02*
X027561Y014288D01*
X027561Y014346D02*
X027482Y014346D01*
X027524Y014405D02*
X027561Y014405D01*
X027561Y014463D02*
X027548Y014463D01*
X027541Y014814D02*
X027561Y014814D01*
X027561Y014873D02*
X027517Y014873D01*
X027561Y014931D02*
X027465Y014931D01*
X027407Y014990D02*
X027561Y014990D01*
X027561Y015048D02*
X027297Y015048D01*
X027325Y015224D02*
X027561Y015224D01*
X027561Y015282D02*
X027418Y015282D01*
X027477Y015341D02*
X027561Y015341D01*
X027561Y015399D02*
X027521Y015399D01*
X027546Y015458D02*
X027561Y015458D01*
X027561Y015165D02*
X024272Y015165D01*
X024330Y015107D02*
X027561Y015107D01*
X027435Y014112D02*
X025825Y014112D01*
X025883Y014054D02*
X026977Y014054D01*
X026859Y013995D02*
X025942Y013995D01*
X026000Y013937D02*
X026800Y013937D01*
X026746Y013878D02*
X026059Y013878D01*
X026117Y013820D02*
X026721Y013820D01*
X026697Y013761D02*
X026176Y013761D01*
X026234Y013703D02*
X026680Y013703D01*
X026680Y013644D02*
X026255Y013644D01*
X026255Y013586D02*
X026680Y013586D01*
X026686Y013527D02*
X026255Y013527D01*
X026255Y013469D02*
X026710Y013469D01*
X026734Y013410D02*
X026255Y013410D01*
X026255Y013352D02*
X026772Y013352D01*
X026831Y013293D02*
X026255Y013293D01*
X026255Y013235D02*
X026909Y013235D01*
X027283Y014054D02*
X027377Y014054D01*
X025998Y013586D02*
X024851Y013586D01*
X024793Y013644D02*
X025278Y013644D01*
X025219Y013703D02*
X024734Y013703D01*
X024755Y013682D02*
X024755Y013682D01*
X024910Y013527D02*
X026005Y013527D01*
X026005Y013469D02*
X024968Y013469D01*
X025027Y013410D02*
X026005Y013410D01*
X026005Y013352D02*
X025085Y013352D01*
X025144Y013293D02*
X026005Y013293D01*
X026005Y013235D02*
X025202Y013235D01*
X025255Y013176D02*
X026005Y013176D01*
X026005Y013118D02*
X025255Y013118D01*
X025255Y013059D02*
X026005Y013059D01*
X026005Y013001D02*
X025255Y013001D01*
X025255Y012942D02*
X026005Y012942D01*
X026005Y012884D02*
X025255Y012884D01*
X025273Y012825D02*
X025987Y012825D01*
X025928Y012767D02*
X025332Y012767D01*
X025369Y012708D02*
X025891Y012708D01*
X025891Y012650D02*
X025369Y012650D01*
X025369Y012591D02*
X025891Y012591D01*
X025891Y012533D02*
X025369Y012533D01*
X025312Y012474D02*
X025948Y012474D01*
X026006Y012416D02*
X025254Y012416D01*
X024781Y012123D02*
X024724Y012123D01*
X024723Y012182D02*
X024666Y012182D01*
X024691Y012240D02*
X024607Y012240D01*
X024645Y012299D02*
X024549Y012299D01*
X024586Y012357D02*
X024490Y012357D01*
X024528Y012416D02*
X024432Y012416D01*
X024469Y012474D02*
X024373Y012474D01*
X024411Y012533D02*
X024315Y012533D01*
X024352Y012591D02*
X024256Y012591D01*
X024294Y012650D02*
X024198Y012650D01*
X024235Y012708D02*
X024139Y012708D01*
X024177Y012767D02*
X024081Y012767D01*
X024118Y012825D02*
X024030Y012825D01*
X024030Y012884D02*
X024060Y012884D01*
X024009Y013118D02*
X023980Y013118D01*
X023951Y013176D02*
X023921Y013176D01*
X023892Y013235D02*
X023863Y013235D01*
X023834Y013293D02*
X023804Y013293D01*
X023775Y013352D02*
X023746Y013352D01*
X023717Y013410D02*
X023687Y013410D01*
X023658Y013469D02*
X023629Y013469D01*
X023600Y013527D02*
X023570Y013527D01*
X023541Y013586D02*
X023512Y013586D01*
X023483Y013644D02*
X023453Y013644D01*
X023424Y013703D02*
X023395Y013703D01*
X023366Y013761D02*
X023336Y013761D01*
X023307Y013820D02*
X023278Y013820D01*
X023249Y013878D02*
X023219Y013878D01*
X023190Y013937D02*
X023161Y013937D01*
X023132Y013995D02*
X023102Y013995D01*
X023073Y014054D02*
X023044Y014054D01*
X023015Y014112D02*
X022985Y014112D01*
X022956Y014171D02*
X022927Y014171D01*
X022898Y014229D02*
X022868Y014229D01*
X022839Y014288D02*
X022810Y014288D01*
X022781Y014346D02*
X022751Y014346D01*
X022723Y014405D02*
X022693Y014405D01*
X022723Y014463D02*
X022634Y014463D01*
X022619Y014522D02*
X022723Y014522D01*
X022723Y014580D02*
X022619Y014580D01*
X022585Y014639D02*
X022723Y014639D01*
X022723Y014697D02*
X022526Y014697D01*
X022723Y014756D02*
X020290Y014756D01*
X020290Y014814D02*
X022723Y014814D01*
X022723Y014873D02*
X020290Y014873D01*
X020290Y014931D02*
X022723Y014931D01*
X022723Y014990D02*
X020290Y014990D01*
X020290Y015048D02*
X022723Y015048D01*
X022723Y015107D02*
X020290Y015107D01*
X020290Y015165D02*
X022723Y015165D01*
X022723Y015224D02*
X020290Y015224D01*
X020290Y015282D02*
X022723Y015282D01*
X022723Y015341D02*
X020290Y015341D01*
X020290Y015399D02*
X022723Y015399D01*
X022753Y015458D02*
X020290Y015458D01*
X020290Y015516D02*
X022792Y015516D01*
X022792Y015575D02*
X020290Y015575D01*
X020290Y015633D02*
X022792Y015633D01*
X022780Y015692D02*
X022826Y015692D01*
X022838Y015750D02*
X022884Y015750D01*
X022869Y015809D02*
X023113Y015809D01*
X023080Y015867D02*
X022904Y015867D01*
X022962Y015926D02*
X023080Y015926D01*
X023080Y015984D02*
X023021Y015984D01*
X023079Y016043D02*
X023082Y016043D01*
X023138Y016101D02*
X023140Y016101D01*
X022960Y016277D02*
X020290Y016277D01*
X020290Y016335D02*
X023018Y016335D01*
X022901Y016218D02*
X020290Y016218D01*
X020290Y016160D02*
X022843Y016160D01*
X022784Y016101D02*
X022747Y016101D01*
X022513Y016101D02*
X020290Y016101D01*
X020290Y016043D02*
X022454Y016043D01*
X022396Y015984D02*
X020290Y015984D01*
X020290Y015926D02*
X022391Y015926D01*
X022391Y015867D02*
X020290Y015867D01*
X020290Y015809D02*
X022391Y015809D01*
X022422Y015750D02*
X020290Y015750D01*
X020290Y015692D02*
X022480Y015692D01*
X022234Y014697D02*
X020290Y014697D01*
X020290Y014639D02*
X022175Y014639D01*
X022141Y014580D02*
X020290Y014580D01*
X020279Y014522D02*
X022141Y014522D01*
X022141Y014463D02*
X020255Y014463D01*
X020230Y014405D02*
X022142Y014405D01*
X022201Y014346D02*
X020176Y014346D01*
X020117Y014288D02*
X022259Y014288D01*
X022444Y014229D02*
X019983Y014229D01*
X020290Y016394D02*
X023440Y016394D01*
X023381Y016452D02*
X020290Y016452D01*
X021503Y017096D02*
X027992Y017096D01*
X027992Y017154D02*
X027193Y017154D01*
X027608Y017681D02*
X027992Y017681D01*
X027992Y017739D02*
X027599Y017739D01*
X027580Y017798D02*
X027992Y017798D01*
X027992Y017856D02*
X027554Y017856D01*
X027517Y017915D02*
X027992Y017915D01*
X027992Y017973D02*
X027466Y017973D01*
X027394Y018032D02*
X027992Y018032D01*
X026497Y016335D02*
X023852Y016335D01*
X023910Y016277D02*
X026438Y016277D01*
X026391Y016218D02*
X023969Y016218D01*
X024027Y016160D02*
X026391Y016160D01*
X026391Y016101D02*
X024086Y016101D01*
X024144Y016043D02*
X026391Y016043D01*
X026438Y015984D02*
X024203Y015984D01*
X024255Y015926D02*
X026496Y015926D01*
X025647Y013937D02*
X025619Y013937D01*
X025619Y013878D02*
X025705Y013878D01*
X025764Y013820D02*
X025619Y013820D01*
X025599Y013761D02*
X025822Y013761D01*
X025881Y013703D02*
X025541Y013703D01*
X025482Y013644D02*
X025939Y013644D01*
X026775Y021600D02*
X026835Y021600D01*
X026835Y021659D02*
X026775Y021659D01*
X026775Y021717D02*
X026835Y021717D01*
X026835Y021776D02*
X026775Y021776D01*
X026775Y021834D02*
X026835Y021834D01*
X026835Y022010D02*
X026775Y022010D01*
X026775Y022068D02*
X026835Y022068D01*
X026835Y022127D02*
X026775Y022127D01*
X026775Y022185D02*
X026835Y022185D01*
X020708Y010836D02*
X018650Y010836D01*
X018650Y010778D02*
X020649Y010778D01*
X020591Y010719D02*
X018650Y010719D01*
X018650Y010661D02*
X020532Y010661D01*
X020474Y010602D02*
X018650Y010602D01*
X018650Y010544D02*
X020415Y010544D01*
X020374Y010485D02*
X018650Y010485D01*
X018650Y010427D02*
X020374Y010427D01*
X020374Y010368D02*
X018650Y010368D01*
X018650Y010310D02*
X020374Y010310D01*
X020374Y010251D02*
X018650Y010251D01*
X018650Y010193D02*
X020374Y010193D01*
X020374Y010134D02*
X018650Y010134D01*
X018650Y010076D02*
X020374Y010076D01*
X020386Y010017D02*
X018650Y010017D01*
X018650Y009959D02*
X020445Y009959D01*
X020503Y009900D02*
X018650Y009900D01*
X018650Y009842D02*
X020562Y009842D01*
X020620Y009783D02*
X018650Y009783D01*
X018650Y009725D02*
X020679Y009725D01*
X018034Y009666D02*
X014755Y009666D01*
X014755Y009608D02*
X017976Y009608D01*
X017917Y009549D02*
X014755Y009549D01*
X014755Y009491D02*
X017859Y009491D01*
X017800Y009432D02*
X014755Y009432D01*
X014755Y009374D02*
X017742Y009374D01*
X017683Y009315D02*
X014755Y009315D01*
X014755Y009257D02*
X017625Y009257D01*
X017566Y009198D02*
X014755Y009198D01*
X014755Y009140D02*
X017508Y009140D01*
X017449Y009081D02*
X014767Y009081D01*
X014826Y009023D02*
X017391Y009023D01*
X017332Y008964D02*
X014869Y008964D01*
X014869Y008906D02*
X017274Y008906D01*
X017215Y008847D02*
X014869Y008847D01*
X014869Y008789D02*
X017157Y008789D01*
X017098Y008730D02*
X014818Y008730D01*
X014760Y008672D02*
X017040Y008672D01*
X016207Y005571D02*
X016027Y005571D01*
X016011Y005513D02*
X016219Y005513D01*
X016241Y005454D02*
X015987Y005454D01*
X015957Y005396D02*
X016273Y005396D01*
X016319Y005337D02*
X015898Y005337D01*
X015818Y005279D02*
X016388Y005279D01*
X016394Y004986D02*
X015808Y004986D01*
X015894Y004928D02*
X016324Y004928D01*
X016276Y004869D02*
X015952Y004869D01*
X015985Y004811D02*
X016243Y004811D01*
X016221Y004752D02*
X016009Y004752D01*
X016027Y004694D02*
X016208Y004694D01*
X014452Y004986D02*
X013808Y004986D01*
X013855Y004966D02*
X013709Y005027D01*
X013551Y005027D01*
X013405Y004966D01*
X013294Y004855D01*
X013233Y004709D01*
X013233Y004551D01*
X013294Y004405D01*
X013405Y004294D01*
X013551Y004233D01*
X013709Y004233D01*
X013855Y004294D01*
X013966Y004405D01*
X014027Y004551D01*
X014027Y004709D01*
X013966Y004855D01*
X013855Y004966D01*
X013894Y004928D02*
X014366Y004928D01*
X014308Y004869D02*
X013952Y004869D01*
X013985Y004811D02*
X014275Y004811D01*
X014251Y004752D02*
X014009Y004752D01*
X014027Y004694D02*
X014233Y004694D01*
X014233Y004635D02*
X014027Y004635D01*
X014027Y004577D02*
X014233Y004577D01*
X014247Y004518D02*
X014013Y004518D01*
X013989Y004460D02*
X014271Y004460D01*
X014298Y004401D02*
X013962Y004401D01*
X013904Y004343D02*
X014356Y004343D01*
X014428Y004284D02*
X013832Y004284D01*
X013452Y004986D02*
X012808Y004986D01*
X012855Y004966D02*
X012709Y005027D01*
X012551Y005027D01*
X012405Y004966D01*
X012294Y004855D01*
X012233Y004709D01*
X012233Y004551D01*
X012294Y004405D01*
X012405Y004294D01*
X012551Y004233D01*
X012709Y004233D01*
X012855Y004294D01*
X012966Y004405D01*
X013027Y004551D01*
X013027Y004709D01*
X012966Y004855D01*
X012855Y004966D01*
X012894Y004928D02*
X013366Y004928D01*
X013308Y004869D02*
X012952Y004869D01*
X012985Y004811D02*
X013275Y004811D01*
X013251Y004752D02*
X013009Y004752D01*
X013027Y004694D02*
X013233Y004694D01*
X013233Y004635D02*
X013027Y004635D01*
X013027Y004577D02*
X013233Y004577D01*
X013247Y004518D02*
X013013Y004518D01*
X012989Y004460D02*
X013271Y004460D01*
X013298Y004401D02*
X012962Y004401D01*
X012904Y004343D02*
X013356Y004343D01*
X013428Y004284D02*
X012832Y004284D01*
X012452Y004986D02*
X011808Y004986D01*
X011855Y004966D02*
X011709Y005027D01*
X011551Y005027D01*
X011405Y004966D01*
X011294Y004855D01*
X011233Y004709D01*
X011233Y004551D01*
X011294Y004405D01*
X011405Y004294D01*
X011551Y004233D01*
X011709Y004233D01*
X011855Y004294D01*
X011966Y004405D01*
X012027Y004551D01*
X012027Y004709D01*
X011966Y004855D01*
X011855Y004966D01*
X011894Y004928D02*
X012366Y004928D01*
X012308Y004869D02*
X011952Y004869D01*
X011985Y004811D02*
X012275Y004811D01*
X012251Y004752D02*
X012009Y004752D01*
X012027Y004694D02*
X012233Y004694D01*
X012233Y004635D02*
X012027Y004635D01*
X012027Y004577D02*
X012233Y004577D01*
X012247Y004518D02*
X012013Y004518D01*
X011989Y004460D02*
X012271Y004460D01*
X012298Y004401D02*
X011962Y004401D01*
X011904Y004343D02*
X012356Y004343D01*
X012428Y004284D02*
X011832Y004284D01*
X011428Y004284D02*
X010832Y004284D01*
X010855Y004294D02*
X010966Y004405D01*
X011027Y004551D01*
X011027Y004709D01*
X010966Y004855D01*
X010855Y004966D01*
X010709Y005027D01*
X010551Y005027D01*
X010405Y004966D01*
X010294Y004855D01*
X010233Y004709D01*
X010233Y004551D01*
X010294Y004405D01*
X010405Y004294D01*
X010551Y004233D01*
X010709Y004233D01*
X010855Y004294D01*
X010904Y004343D02*
X011356Y004343D01*
X011298Y004401D02*
X010962Y004401D01*
X010989Y004460D02*
X011271Y004460D01*
X011247Y004518D02*
X011013Y004518D01*
X011027Y004577D02*
X011233Y004577D01*
X011233Y004635D02*
X011027Y004635D01*
X011027Y004694D02*
X011233Y004694D01*
X011251Y004752D02*
X011009Y004752D01*
X010985Y004811D02*
X011275Y004811D01*
X011308Y004869D02*
X010952Y004869D01*
X010894Y004928D02*
X011366Y004928D01*
X011452Y004986D02*
X010808Y004986D01*
X010709Y005233D02*
X010855Y005294D01*
X010966Y005405D01*
X011027Y005551D01*
X011027Y005709D01*
X010966Y005855D01*
X010855Y005966D01*
X010709Y006027D01*
X010551Y006027D01*
X010405Y005966D01*
X010294Y005855D01*
X010233Y005709D01*
X010233Y005551D01*
X010294Y005405D01*
X010405Y005294D01*
X010551Y005233D01*
X010709Y005233D01*
X010818Y005279D02*
X011442Y005279D01*
X011405Y005294D02*
X011551Y005233D01*
X011709Y005233D01*
X011855Y005294D01*
X011966Y005405D01*
X012027Y005551D01*
X012027Y005709D01*
X011966Y005855D01*
X011855Y005966D01*
X011709Y006027D01*
X011551Y006027D01*
X011405Y005966D01*
X011294Y005855D01*
X011233Y005709D01*
X011233Y005551D01*
X011294Y005405D01*
X011405Y005294D01*
X011362Y005337D02*
X010898Y005337D01*
X010957Y005396D02*
X011303Y005396D01*
X011273Y005454D02*
X010987Y005454D01*
X011011Y005513D02*
X011249Y005513D01*
X011233Y005571D02*
X011027Y005571D01*
X011027Y005630D02*
X011233Y005630D01*
X011233Y005688D02*
X011027Y005688D01*
X011011Y005747D02*
X011249Y005747D01*
X011273Y005805D02*
X010987Y005805D01*
X010958Y005864D02*
X011302Y005864D01*
X011361Y005922D02*
X010899Y005922D01*
X010821Y005981D02*
X011439Y005981D01*
X011821Y005981D02*
X012439Y005981D01*
X012405Y005966D02*
X012294Y005855D01*
X012233Y005709D01*
X012233Y005551D01*
X012294Y005405D01*
X012405Y005294D01*
X012551Y005233D01*
X012709Y005233D01*
X012855Y005294D01*
X012966Y005405D01*
X013027Y005551D01*
X013027Y005709D01*
X012966Y005855D01*
X012855Y005966D01*
X012709Y006027D01*
X012551Y006027D01*
X012405Y005966D01*
X012361Y005922D02*
X011899Y005922D01*
X011958Y005864D02*
X012302Y005864D01*
X012273Y005805D02*
X011987Y005805D01*
X012011Y005747D02*
X012249Y005747D01*
X012233Y005688D02*
X012027Y005688D01*
X012027Y005630D02*
X012233Y005630D01*
X012233Y005571D02*
X012027Y005571D01*
X012011Y005513D02*
X012249Y005513D01*
X012273Y005454D02*
X011987Y005454D01*
X011957Y005396D02*
X012303Y005396D01*
X012362Y005337D02*
X011898Y005337D01*
X011818Y005279D02*
X012442Y005279D01*
X012818Y005279D02*
X013442Y005279D01*
X013405Y005294D02*
X013551Y005233D01*
X013709Y005233D01*
X013855Y005294D01*
X013966Y005405D01*
X014027Y005551D01*
X014027Y005709D01*
X013966Y005855D01*
X013855Y005966D01*
X013709Y006027D01*
X013551Y006027D01*
X013405Y005966D01*
X013294Y005855D01*
X013233Y005709D01*
X013233Y005551D01*
X013294Y005405D01*
X013405Y005294D01*
X013362Y005337D02*
X012898Y005337D01*
X012957Y005396D02*
X013303Y005396D01*
X013273Y005454D02*
X012987Y005454D01*
X013011Y005513D02*
X013249Y005513D01*
X013233Y005571D02*
X013027Y005571D01*
X013027Y005630D02*
X013233Y005630D01*
X013233Y005688D02*
X013027Y005688D01*
X013011Y005747D02*
X013249Y005747D01*
X013273Y005805D02*
X012987Y005805D01*
X012958Y005864D02*
X013302Y005864D01*
X013361Y005922D02*
X012899Y005922D01*
X012821Y005981D02*
X013439Y005981D01*
X013821Y005981D02*
X014439Y005981D01*
X014361Y005922D02*
X013899Y005922D01*
X013958Y005864D02*
X014302Y005864D01*
X014273Y005805D02*
X013987Y005805D01*
X014011Y005747D02*
X014249Y005747D01*
X014233Y005688D02*
X014027Y005688D01*
X014027Y005630D02*
X014233Y005630D01*
X014233Y005571D02*
X014027Y005571D01*
X014011Y005513D02*
X014249Y005513D01*
X014273Y005454D02*
X013987Y005454D01*
X013957Y005396D02*
X014303Y005396D01*
X014362Y005337D02*
X013898Y005337D01*
X013818Y005279D02*
X014442Y005279D01*
X014500Y008672D02*
X014010Y008672D01*
X013979Y008641D02*
X014119Y008781D01*
X014119Y008979D01*
X014005Y009093D01*
X014005Y009917D01*
X014119Y010031D01*
X014119Y010229D01*
X013979Y010369D01*
X013781Y010369D01*
X013641Y010229D01*
X013641Y010031D01*
X013755Y009917D01*
X013755Y009093D01*
X013641Y008979D01*
X013641Y008781D01*
X013781Y008641D01*
X013979Y008641D01*
X014068Y008730D02*
X014442Y008730D01*
X014391Y008789D02*
X014119Y008789D01*
X014119Y008847D02*
X014391Y008847D01*
X014391Y008906D02*
X014119Y008906D01*
X014119Y008964D02*
X014391Y008964D01*
X014434Y009023D02*
X014076Y009023D01*
X014017Y009081D02*
X014493Y009081D01*
X014505Y009140D02*
X014005Y009140D01*
X014005Y009198D02*
X014505Y009198D01*
X014505Y009257D02*
X014005Y009257D01*
X014005Y009315D02*
X014505Y009315D01*
X014505Y009374D02*
X014005Y009374D01*
X014005Y009432D02*
X014505Y009432D01*
X014505Y009491D02*
X014005Y009491D01*
X014005Y009549D02*
X014505Y009549D01*
X014505Y009608D02*
X014005Y009608D01*
X014005Y009666D02*
X014505Y009666D01*
X014505Y009725D02*
X014005Y009725D01*
X014005Y009783D02*
X014505Y009783D01*
X014492Y009842D02*
X014005Y009842D01*
X014005Y009900D02*
X014272Y009900D01*
X014213Y009959D02*
X014047Y009959D01*
X014105Y010017D02*
X014155Y010017D01*
X014141Y010076D02*
X014119Y010076D01*
X014119Y010134D02*
X014141Y010134D01*
X014141Y010193D02*
X014119Y010193D01*
X014097Y010251D02*
X014163Y010251D01*
X014221Y010310D02*
X014039Y010310D01*
X013980Y010368D02*
X014280Y010368D01*
X013780Y010368D02*
X013480Y010368D01*
X013539Y010310D02*
X013721Y010310D01*
X013663Y010251D02*
X013597Y010251D01*
X013619Y010193D02*
X013641Y010193D01*
X013641Y010134D02*
X013619Y010134D01*
X013619Y010076D02*
X013641Y010076D01*
X013655Y010017D02*
X013605Y010017D01*
X013547Y009959D02*
X013713Y009959D01*
X013755Y009900D02*
X013505Y009900D01*
X013505Y009842D02*
X013755Y009842D01*
X013755Y009783D02*
X013505Y009783D01*
X013505Y009725D02*
X013755Y009725D01*
X013755Y009666D02*
X013505Y009666D01*
X013505Y009608D02*
X013755Y009608D01*
X013755Y009549D02*
X013505Y009549D01*
X013505Y009491D02*
X013755Y009491D01*
X013755Y009432D02*
X013505Y009432D01*
X013505Y009374D02*
X013755Y009374D01*
X013755Y009315D02*
X013505Y009315D01*
X013505Y009257D02*
X013755Y009257D01*
X013755Y009198D02*
X013505Y009198D01*
X013505Y009140D02*
X013755Y009140D01*
X013743Y009081D02*
X013517Y009081D01*
X013576Y009023D02*
X013684Y009023D01*
X013641Y008964D02*
X013619Y008964D01*
X013619Y008906D02*
X013641Y008906D01*
X013641Y008847D02*
X013619Y008847D01*
X013619Y008789D02*
X013641Y008789D01*
X013692Y008730D02*
X013568Y008730D01*
X013510Y008672D02*
X013750Y008672D01*
X010439Y005981D02*
X009821Y005981D01*
X009899Y005922D02*
X010361Y005922D01*
X010302Y005864D02*
X009958Y005864D01*
X009987Y005805D02*
X010273Y005805D01*
X010249Y005747D02*
X010011Y005747D01*
X010027Y005688D02*
X010233Y005688D01*
X010233Y005630D02*
X010027Y005630D01*
X010027Y005571D02*
X010233Y005571D01*
X010249Y005513D02*
X010011Y005513D01*
X009987Y005454D02*
X010273Y005454D01*
X010303Y005396D02*
X009957Y005396D01*
X009898Y005337D02*
X010362Y005337D01*
X010442Y005279D02*
X009818Y005279D01*
X009808Y004986D02*
X010452Y004986D01*
X010366Y004928D02*
X009894Y004928D01*
X009952Y004869D02*
X010308Y004869D01*
X010275Y004811D02*
X009985Y004811D01*
X010009Y004752D02*
X010251Y004752D01*
X010233Y004694D02*
X010027Y004694D01*
X010027Y004635D02*
X010233Y004635D01*
X010233Y004577D02*
X010027Y004577D01*
X010013Y004518D02*
X010247Y004518D01*
X010271Y004460D02*
X009989Y004460D01*
X009962Y004401D02*
X010298Y004401D01*
X010356Y004343D02*
X009904Y004343D01*
X009832Y004284D02*
X010428Y004284D01*
X013864Y033417D02*
X015707Y033417D01*
X015648Y033476D02*
X013923Y033476D01*
X013981Y033534D02*
X015590Y033534D01*
X015531Y033593D02*
X014040Y033593D01*
X014098Y033651D02*
X015473Y033651D01*
X015414Y033710D02*
X014157Y033710D01*
X014177Y033768D02*
X015394Y033768D01*
X015394Y033827D02*
X014177Y033827D01*
X014177Y033885D02*
X015394Y033885D01*
X015394Y033944D02*
X014177Y033944D01*
X014177Y034002D02*
X015394Y034002D01*
X015394Y034061D02*
X014177Y034061D01*
X014177Y034119D02*
X015394Y034119D01*
X015394Y034178D02*
X014177Y034178D01*
X014144Y034236D02*
X015427Y034236D01*
X015485Y034295D02*
X014086Y034295D01*
X014027Y034353D02*
X015544Y034353D01*
X015602Y034412D02*
X013969Y034412D01*
X013910Y034470D02*
X015661Y034470D01*
X015719Y034529D02*
X013852Y034529D01*
X012990Y038273D02*
X012487Y038273D01*
X012429Y038331D02*
X012897Y038331D01*
X012837Y038389D02*
X012794Y038448D01*
X012764Y038507D02*
X012253Y038507D01*
X012195Y038565D02*
X012744Y038565D01*
X012731Y038624D02*
X012136Y038624D01*
X010910Y038916D02*
X010850Y038916D01*
X010850Y038975D02*
X010910Y038975D01*
X010910Y039033D02*
X010850Y039033D01*
X010850Y039092D02*
X010910Y039092D01*
X010910Y039150D02*
X010850Y039150D01*
X010850Y039209D02*
X010910Y039209D01*
X010910Y039267D02*
X010850Y039267D01*
X010850Y039326D02*
X010910Y039326D01*
X010910Y039384D02*
X010850Y039384D01*
X010850Y039443D02*
X010910Y039443D01*
X010910Y039501D02*
X010850Y039501D01*
X010850Y039677D02*
X010910Y039677D01*
X010910Y039735D02*
X010850Y039735D01*
X010850Y039794D02*
X010910Y039794D01*
X010910Y039852D02*
X010850Y039852D01*
X010850Y039911D02*
X010910Y039911D01*
X010910Y039969D02*
X010850Y039969D01*
X010850Y040028D02*
X010910Y040028D01*
X010910Y040086D02*
X010850Y040086D01*
X010850Y040145D02*
X010910Y040145D01*
X010910Y040203D02*
X010850Y040203D01*
D21*
X010505Y036255D03*
X011505Y036255D03*
X009255Y036255D03*
X008005Y036255D03*
X006505Y036505D03*
X005255Y036505D03*
X003505Y036005D03*
X003505Y034755D03*
X003505Y033255D03*
X003505Y031755D03*
X003505Y030255D03*
X003505Y028755D03*
X003505Y027255D03*
X003505Y025755D03*
X003505Y024255D03*
X003505Y022755D03*
X003505Y021255D03*
X003505Y019505D03*
X004005Y017755D03*
X005255Y016380D03*
X006380Y017755D03*
X006005Y019005D03*
X006630Y020380D03*
X006145Y021926D03*
X006130Y023130D03*
X007146Y022630D03*
X007880Y022630D03*
X008380Y022130D03*
X008630Y020380D03*
X008255Y018630D03*
X008130Y017630D03*
X006130Y014630D03*
X007146Y014116D03*
X007880Y014130D03*
X008380Y013630D03*
X010130Y012630D03*
X010515Y014178D03*
X011130Y014630D03*
X010576Y015158D03*
X012108Y014178D03*
X012880Y014130D03*
X013380Y013630D03*
X013755Y011755D03*
X013880Y010130D03*
X014380Y010130D03*
X014880Y010130D03*
X014630Y008880D03*
X013880Y008880D03*
X013380Y008880D03*
X013130Y008005D03*
X013130Y006505D03*
X012005Y008005D03*
X011755Y006505D03*
X012005Y009755D03*
X013380Y010130D03*
X011505Y012005D03*
X009130Y007255D03*
X008255Y008255D03*
X008255Y009880D03*
X007130Y010005D03*
X007130Y008755D03*
X006880Y007005D03*
X008005Y005880D03*
X005005Y009005D03*
X005380Y010505D03*
X003755Y011880D03*
X005255Y013380D03*
X003755Y015005D03*
X010169Y021194D03*
X011149Y021990D03*
X010638Y022630D03*
X011130Y023130D03*
X010638Y023610D03*
X010880Y025255D03*
X012230Y022630D03*
X012880Y022630D03*
X013380Y022130D03*
X015140Y021191D03*
X016110Y021990D03*
X015599Y022630D03*
X015599Y023610D03*
X016130Y023130D03*
X017130Y022630D03*
X017130Y023630D03*
X016130Y025255D03*
X016630Y026880D03*
X017880Y025630D03*
X018880Y026630D03*
X019505Y027630D03*
X019505Y029005D03*
X019446Y029880D03*
X018880Y029880D03*
X018380Y030258D03*
X018630Y031380D03*
X018130Y032130D03*
X016630Y032130D03*
X017380Y034880D03*
X017630Y035130D03*
X017005Y035630D03*
X018255Y035630D03*
X019505Y035130D03*
X020630Y036630D03*
X021505Y037380D03*
X022255Y038630D03*
X022880Y039630D03*
X022630Y040380D03*
X020630Y040130D03*
X019755Y040130D03*
X019755Y039130D03*
X020630Y039130D03*
X020630Y038130D03*
X019630Y037380D03*
X018880Y038630D03*
X018630Y039630D03*
X018630Y040255D03*
X017380Y039005D03*
X016630Y039630D03*
X017380Y037380D03*
X018130Y037380D03*
X023130Y033380D03*
X023505Y034380D03*
X023130Y032130D03*
X023630Y031505D03*
X023630Y030380D03*
X023630Y029005D03*
X023630Y028005D03*
X023630Y026755D03*
X023630Y025505D03*
X023630Y023755D03*
X023630Y022505D03*
X023005Y022005D03*
X022505Y022505D03*
X022130Y021880D03*
X021630Y021880D03*
X021255Y022505D03*
X020505Y022505D03*
X020505Y023755D03*
X021005Y023755D03*
X021630Y024130D03*
X022130Y024130D03*
X022505Y023755D03*
X021630Y025380D03*
X020630Y024880D03*
X019130Y024380D03*
X019130Y023630D03*
X018380Y023630D03*
X018380Y022630D03*
X019130Y022630D03*
X019130Y021130D03*
X018630Y020130D03*
X019130Y019130D03*
X019880Y019130D03*
X020520Y020525D03*
X021635Y018201D03*
X022385Y018196D03*
X021380Y016880D03*
X020505Y015380D03*
X020505Y015005D03*
X019880Y014630D03*
X019005Y013380D03*
X017755Y011880D03*
X017630Y009755D03*
X017380Y007630D03*
X019130Y007630D03*
X020380Y006880D03*
X020380Y008380D03*
X021005Y009380D03*
X021630Y008255D03*
X022380Y009505D03*
X022755Y008130D03*
X022755Y006880D03*
X021630Y006880D03*
X023005Y004880D03*
X021630Y004505D03*
X020130Y004880D03*
X018880Y005505D03*
X017880Y005505D03*
X015505Y009005D03*
X015130Y012630D03*
X016129Y013474D03*
X015538Y014116D03*
X016130Y014630D03*
X015538Y015158D03*
X016755Y015380D03*
X017130Y014005D03*
X018380Y016005D03*
X018505Y016755D03*
X016130Y017130D03*
X015755Y018880D03*
X017255Y020130D03*
X013130Y017255D03*
X012630Y018130D03*
X011005Y018755D03*
X010755Y017630D03*
X013130Y026130D03*
X013130Y027255D03*
X012620Y031630D03*
X012620Y031946D03*
X012243Y031946D03*
X012243Y031630D03*
X011865Y031630D03*
X011865Y031946D03*
X016630Y029130D03*
X018130Y029130D03*
X024880Y023130D03*
X025380Y023130D03*
X025880Y021880D03*
X025130Y021255D03*
X025130Y020505D03*
X025005Y019630D03*
X025005Y018880D03*
X025005Y017880D03*
X024130Y018630D03*
X023773Y018380D03*
X023755Y017755D03*
X025005Y016505D03*
X025255Y015255D03*
X025880Y015255D03*
X026630Y016130D03*
X025380Y013880D03*
X024880Y012880D03*
X025130Y012630D03*
X024930Y012313D03*
X025255Y012005D03*
X024880Y011255D03*
X026130Y012630D03*
X027130Y011380D03*
X027630Y010630D03*
X024380Y013130D03*
X023130Y011880D03*
X022630Y011880D03*
X022630Y010630D03*
X023031Y010659D03*
X021880Y010630D03*
X019880Y010630D03*
X019005Y009755D03*
X022130Y014130D03*
X022380Y014505D03*
X022130Y015005D03*
X022630Y015880D03*
X023031Y015559D03*
X023130Y015130D03*
X023503Y015130D03*
X023319Y015941D03*
X026005Y019130D03*
X025880Y020505D03*
X026755Y021880D03*
X007630Y039380D03*
D22*
X013130Y039630D02*
X013130Y038630D01*
X013130Y039630D02*
X013630Y040130D01*
X016130Y040130D01*
X016630Y039630D01*
X018630Y039630D02*
X022880Y039630D01*
D23*
X019880Y023130D02*
X016130Y023130D01*
X011130Y023130D01*
X006130Y023130D01*
X006130Y014630D02*
X011130Y014630D01*
X016130Y014630D01*
X018380Y014630D01*
X019880Y014630D01*
D24*
X019880Y019130D01*
X019880Y023130D01*
X024880Y023130D01*
X024955Y023055D01*
X024955Y021880D01*
X024880Y023130D02*
X025380Y023130D01*
X019880Y023130D02*
X019880Y024630D01*
X017380Y027130D01*
X017380Y032130D01*
X017380Y034880D01*
X017630Y035130D01*
D25*
X022380Y014505D02*
X023880Y013005D01*
X023880Y012755D01*
X025005Y011630D01*
X026880Y011630D01*
X027130Y011380D01*
X026630Y010630D02*
X027630Y010630D01*
D26*
X018380Y009630D02*
X015630Y006880D01*
X015630Y005630D01*
X018380Y009630D02*
X018380Y014630D01*
D27*
X022880Y039555D02*
X022880Y039630D01*
M02*
