G75*
G70*
%OFA0B0*%
%FSLAX24Y24*%
%IPPOS*%
%LPD*%
%AMOC8*
5,1,8,0,0,1.08239X$1,22.5*
%
%ADD10C,0.0030*%
%ADD11C,0.0050*%
%ADD12C,0.0090*%
%ADD13C,0.0070*%
%ADD14C,0.0060*%
%ADD15C,0.0080*%
%ADD16C,0.0020*%
%ADD17C,0.0010*%
%ADD18C,0.0100*%
%ADD19R,0.0300X0.0340*%
%ADD20C,0.0040*%
%ADD21R,0.0118X0.0059*%
%ADD22R,0.0118X0.0118*%
D10*
X024876Y034645D02*
X025240Y034645D01*
X025058Y034645D02*
X025058Y034888D01*
X024876Y034888D02*
X025240Y034888D01*
X025240Y035008D02*
X025240Y035129D01*
X025240Y035068D02*
X024876Y035068D01*
X024876Y035008D02*
X024876Y035129D01*
X024937Y035249D02*
X024876Y035310D01*
X024876Y035431D01*
X024937Y035492D01*
X025058Y035492D02*
X025058Y035371D01*
X025058Y035492D02*
X025179Y035492D01*
X025240Y035431D01*
X025240Y035310D01*
X025179Y035249D01*
X024937Y035249D01*
X024876Y035612D02*
X025240Y035612D01*
X025058Y035612D02*
X025058Y035854D01*
X024876Y035854D02*
X025240Y035854D01*
X025626Y035613D02*
X025990Y035613D01*
X025869Y035491D01*
X025990Y035370D01*
X025626Y035370D01*
X025687Y035250D02*
X025626Y035190D01*
X025626Y035068D01*
X025687Y035008D01*
X025929Y035008D01*
X025990Y035068D01*
X025990Y035190D01*
X025929Y035250D01*
X025687Y035250D01*
X025990Y034888D02*
X025990Y034645D01*
X025626Y034645D01*
X026291Y033990D02*
X026170Y033869D01*
X026170Y033626D01*
X026170Y033808D02*
X026413Y033808D01*
X026413Y033869D02*
X026413Y033626D01*
X026532Y033626D02*
X026714Y033626D01*
X026775Y033687D01*
X026775Y033930D01*
X026714Y033990D01*
X026532Y033990D01*
X026532Y033626D01*
X026413Y033869D02*
X026291Y033990D01*
X026895Y033990D02*
X026895Y033626D01*
X026895Y033748D02*
X027077Y033748D01*
X027138Y033808D01*
X027138Y033930D01*
X027077Y033990D01*
X026895Y033990D01*
X027016Y033748D02*
X027138Y033626D01*
X027257Y033687D02*
X027500Y033930D01*
X027500Y033687D01*
X027439Y033626D01*
X027318Y033626D01*
X027257Y033687D01*
X027257Y033930D01*
X027318Y033990D01*
X027439Y033990D01*
X027500Y033930D01*
X027379Y032990D02*
X027379Y032626D01*
X027500Y032626D02*
X027257Y032626D01*
X027138Y032626D02*
X027016Y032748D01*
X027077Y032748D02*
X026895Y032748D01*
X026895Y032626D02*
X026895Y032990D01*
X027077Y032990D01*
X027138Y032930D01*
X027138Y032808D01*
X027077Y032748D01*
X027257Y032869D02*
X027379Y032990D01*
X026775Y032930D02*
X026714Y032990D01*
X026532Y032990D01*
X026532Y032626D01*
X026714Y032626D01*
X026775Y032687D01*
X026775Y032930D01*
X026413Y032869D02*
X026413Y032626D01*
X026413Y032808D02*
X026170Y032808D01*
X026170Y032869D02*
X026291Y032990D01*
X026413Y032869D01*
X026170Y032869D02*
X026170Y032626D01*
X022430Y039645D02*
X022430Y039892D01*
X022553Y039768D02*
X022306Y039768D01*
X008453Y040400D02*
X008206Y040400D01*
X008330Y040277D02*
X008330Y040524D01*
D11*
X008745Y039472D02*
X008655Y039382D01*
X008655Y039111D01*
X009196Y039111D01*
X009196Y039382D01*
X009105Y039472D01*
X008745Y039472D01*
X008655Y038928D02*
X008655Y038567D01*
X009196Y038567D01*
X009196Y038928D01*
X008925Y038748D02*
X008925Y038567D01*
X009196Y038384D02*
X009196Y038024D01*
X008655Y038024D01*
X008745Y037841D02*
X008925Y037841D01*
X009015Y037750D01*
X009015Y037480D01*
X009015Y037660D02*
X009196Y037841D01*
X009196Y037480D02*
X008655Y037480D01*
X008655Y037750D01*
X008745Y037841D01*
X008655Y037297D02*
X008655Y036936D01*
X009196Y036936D01*
X009196Y037297D01*
X008925Y037116D02*
X008925Y036936D01*
X008655Y036753D02*
X009196Y036753D01*
X009015Y036573D01*
X009196Y036392D01*
X008655Y036392D01*
X008745Y036209D02*
X008655Y036119D01*
X008655Y035939D01*
X008745Y035849D01*
X009105Y035849D01*
X009196Y035939D01*
X009196Y036119D01*
X009105Y036209D01*
X008745Y036209D01*
X008745Y035666D02*
X008925Y035666D01*
X009015Y035575D01*
X009015Y035305D01*
X009196Y035305D02*
X008655Y035305D01*
X008655Y035575D01*
X008745Y035666D01*
X011155Y034516D02*
X011335Y034696D01*
X011335Y034155D01*
X011155Y034155D02*
X011516Y034155D01*
X011699Y034155D02*
X012059Y034516D01*
X012059Y034606D01*
X011969Y034696D01*
X011789Y034696D01*
X011699Y034606D01*
X011699Y034155D02*
X012059Y034155D01*
X012243Y034335D02*
X012423Y034155D01*
X012603Y034335D01*
X012603Y034696D01*
X012243Y034696D02*
X012243Y034335D01*
X014155Y034245D02*
X014245Y034155D01*
X014426Y034155D01*
X014516Y034245D01*
X014516Y034426D01*
X014335Y034426D01*
X014155Y034606D02*
X014155Y034245D01*
X014155Y034606D02*
X014245Y034696D01*
X014426Y034696D01*
X014516Y034606D01*
X014699Y034696D02*
X014699Y034155D01*
X015059Y034155D02*
X015059Y034696D01*
X015243Y034696D02*
X015513Y034696D01*
X015603Y034606D01*
X015603Y034245D01*
X015513Y034155D01*
X015243Y034155D01*
X015243Y034696D01*
X014699Y034696D02*
X015059Y034155D01*
X016905Y033071D02*
X016905Y032801D01*
X017085Y032891D01*
X017176Y032891D01*
X017266Y032801D01*
X017266Y032620D01*
X017176Y032530D01*
X016995Y032530D01*
X016905Y032620D01*
X016905Y033071D02*
X017266Y033071D01*
X017449Y033071D02*
X017449Y032710D01*
X017629Y032530D01*
X017809Y032710D01*
X017809Y033071D01*
X018289Y031471D02*
X019471Y031471D01*
X019471Y030289D01*
X018289Y030289D01*
X018289Y031471D01*
X019905Y032280D02*
X020176Y032280D01*
X020266Y032370D01*
X020266Y032731D01*
X020176Y032821D01*
X019905Y032821D01*
X019905Y032280D01*
X020449Y032280D02*
X020629Y032280D01*
X020539Y032280D02*
X020539Y032821D01*
X020449Y032821D02*
X020629Y032821D01*
X020811Y032821D02*
X020811Y032280D01*
X021172Y032280D02*
X021172Y032821D01*
X020992Y032641D01*
X020811Y032821D01*
X018250Y028446D02*
X018250Y028085D01*
X018070Y027905D01*
X017889Y028085D01*
X017889Y028446D01*
X017706Y028356D02*
X017706Y028266D01*
X017616Y028176D01*
X017706Y028085D01*
X017706Y027995D01*
X017616Y027905D01*
X017436Y027905D01*
X017346Y027995D01*
X017164Y027995D02*
X017164Y027905D01*
X017074Y027905D01*
X017074Y027995D01*
X017164Y027995D01*
X016891Y027995D02*
X016801Y027905D01*
X016620Y027905D01*
X016530Y027995D01*
X016710Y028176D02*
X016801Y028176D01*
X016891Y028085D01*
X016891Y027995D01*
X016801Y028176D02*
X016891Y028266D01*
X016891Y028356D01*
X016801Y028446D01*
X016620Y028446D01*
X016530Y028356D01*
X017346Y028356D02*
X017436Y028446D01*
X017616Y028446D01*
X017706Y028356D01*
X017616Y028176D02*
X017526Y028176D01*
X026280Y018024D02*
X026235Y017979D01*
X026235Y017844D01*
X026505Y017844D01*
X026505Y017979D01*
X026460Y018024D01*
X026280Y018024D01*
X026235Y017730D02*
X026505Y017730D01*
X026235Y017550D01*
X026505Y017550D01*
X026460Y017435D02*
X026370Y017435D01*
X026370Y017345D01*
X026460Y017255D02*
X026505Y017300D01*
X026505Y017390D01*
X026460Y017435D01*
X026460Y017255D02*
X026280Y017255D01*
X026235Y017300D01*
X026235Y017390D01*
X026280Y017435D01*
X026280Y017024D02*
X026235Y016979D01*
X026235Y016889D01*
X026280Y016844D01*
X026325Y016844D01*
X026370Y016889D01*
X026370Y016979D01*
X026415Y017024D01*
X026460Y017024D01*
X026505Y016979D01*
X026505Y016889D01*
X026460Y016844D01*
X026505Y016640D02*
X026235Y016640D01*
X026235Y016550D02*
X026235Y016730D01*
X026280Y016435D02*
X026235Y016390D01*
X026235Y016300D01*
X026280Y016255D01*
X026460Y016255D01*
X026505Y016300D01*
X026505Y016390D01*
X026460Y016435D01*
X026460Y016024D02*
X026505Y015979D01*
X026505Y015889D01*
X026460Y015844D01*
X026280Y015844D01*
X026235Y015889D01*
X026235Y015979D01*
X026280Y016024D01*
X026280Y015730D02*
X026235Y015685D01*
X026235Y015595D01*
X026280Y015550D01*
X026460Y015550D01*
X026505Y015595D01*
X026505Y015685D01*
X026460Y015730D01*
X026415Y015435D02*
X026235Y015435D01*
X026415Y015435D02*
X026505Y015345D01*
X026415Y015255D01*
X026235Y015255D01*
X026235Y014934D02*
X026235Y014844D01*
X026235Y014889D02*
X026505Y014889D01*
X026505Y014844D02*
X026505Y014934D01*
X026505Y014730D02*
X026235Y014550D01*
X026280Y014435D02*
X026370Y014435D01*
X026415Y014390D01*
X026415Y014255D01*
X026505Y014255D02*
X026235Y014255D01*
X026235Y014390D01*
X026280Y014435D01*
X026415Y014345D02*
X026505Y014435D01*
X026505Y014550D02*
X026235Y014730D01*
X026280Y014024D02*
X026235Y013979D01*
X026235Y013889D01*
X026280Y013844D01*
X026460Y013844D01*
X026505Y013889D01*
X026505Y013979D01*
X026460Y014024D01*
X026280Y014024D01*
X026235Y013730D02*
X026505Y013550D01*
X026505Y013730D02*
X026235Y013550D01*
X026235Y013435D02*
X026235Y013255D01*
X026235Y013345D02*
X026505Y013345D01*
X026505Y013024D02*
X026415Y012934D01*
X026415Y012979D02*
X026415Y012844D01*
X026505Y012844D02*
X026235Y012844D01*
X026235Y012979D01*
X026280Y013024D01*
X026370Y013024D01*
X026415Y012979D01*
X026235Y012730D02*
X026235Y012550D01*
X026235Y012640D02*
X026505Y012640D01*
X026460Y012435D02*
X026280Y012435D01*
X026235Y012390D01*
X026235Y012255D01*
X026505Y012255D01*
X026505Y012390D01*
X026460Y012435D01*
X026630Y012130D02*
X027630Y012130D01*
X027630Y018130D01*
X026630Y018130D01*
X026630Y012130D01*
D12*
X022312Y004548D02*
X022312Y004214D01*
X022396Y004004D02*
X022062Y004004D01*
X022396Y004004D02*
X022563Y003837D01*
X022396Y003670D01*
X022062Y003670D01*
X021210Y003827D02*
X021043Y003994D01*
X020709Y003994D01*
X020960Y004204D02*
X020960Y004538D01*
X020793Y004371D02*
X021127Y004371D01*
X021210Y003827D02*
X021043Y003660D01*
X020709Y003660D01*
D13*
X011576Y013930D02*
X011578Y013952D01*
X011584Y013973D01*
X011593Y013993D01*
X011606Y014012D01*
X011621Y014027D01*
X011639Y014040D01*
X011660Y014049D01*
X011681Y014055D01*
X011703Y014057D01*
X011725Y014055D01*
X011746Y014049D01*
X011766Y014040D01*
X011785Y014027D01*
X011800Y014012D01*
X011813Y013993D01*
X011822Y013973D01*
X011828Y013952D01*
X011830Y013930D01*
X011828Y013908D01*
X011822Y013887D01*
X011813Y013867D01*
X011800Y013848D01*
X011785Y013833D01*
X011767Y013820D01*
X011746Y013811D01*
X011725Y013805D01*
X011703Y013803D01*
X011681Y013805D01*
X011660Y013811D01*
X011639Y013820D01*
X011621Y013833D01*
X011606Y013848D01*
X011593Y013866D01*
X011584Y013887D01*
X011578Y013908D01*
X011576Y013930D01*
X006614Y013930D02*
X006616Y013952D01*
X006622Y013973D01*
X006631Y013993D01*
X006644Y014012D01*
X006659Y014027D01*
X006677Y014040D01*
X006698Y014049D01*
X006719Y014055D01*
X006741Y014057D01*
X006763Y014055D01*
X006784Y014049D01*
X006804Y014040D01*
X006823Y014027D01*
X006838Y014012D01*
X006851Y013993D01*
X006860Y013973D01*
X006866Y013952D01*
X006868Y013930D01*
X006866Y013908D01*
X006860Y013887D01*
X006851Y013867D01*
X006838Y013848D01*
X006823Y013833D01*
X006805Y013820D01*
X006784Y013811D01*
X006763Y013805D01*
X006741Y013803D01*
X006719Y013805D01*
X006698Y013811D01*
X006677Y013820D01*
X006659Y013833D01*
X006644Y013848D01*
X006631Y013866D01*
X006622Y013887D01*
X006616Y013908D01*
X006614Y013930D01*
X006553Y022444D02*
X006555Y022466D01*
X006561Y022487D01*
X006570Y022507D01*
X006583Y022526D01*
X006598Y022541D01*
X006616Y022554D01*
X006637Y022563D01*
X006658Y022569D01*
X006680Y022571D01*
X006702Y022569D01*
X006723Y022563D01*
X006743Y022554D01*
X006762Y022541D01*
X006777Y022526D01*
X006790Y022507D01*
X006799Y022487D01*
X006805Y022466D01*
X006807Y022444D01*
X006805Y022422D01*
X006799Y022401D01*
X006790Y022381D01*
X006777Y022362D01*
X006762Y022347D01*
X006744Y022334D01*
X006723Y022325D01*
X006702Y022319D01*
X006680Y022317D01*
X006658Y022319D01*
X006637Y022325D01*
X006616Y022334D01*
X006598Y022347D01*
X006583Y022362D01*
X006570Y022380D01*
X006561Y022401D01*
X006555Y022422D01*
X006553Y022444D01*
X011576Y022444D02*
X011578Y022466D01*
X011584Y022487D01*
X011593Y022507D01*
X011606Y022526D01*
X011621Y022541D01*
X011639Y022554D01*
X011660Y022563D01*
X011681Y022569D01*
X011703Y022571D01*
X011725Y022569D01*
X011746Y022563D01*
X011766Y022554D01*
X011785Y022541D01*
X011800Y022526D01*
X011813Y022507D01*
X011822Y022487D01*
X011828Y022466D01*
X011830Y022444D01*
X011828Y022422D01*
X011822Y022401D01*
X011813Y022381D01*
X011800Y022362D01*
X011785Y022347D01*
X011767Y022334D01*
X011746Y022325D01*
X011725Y022319D01*
X011703Y022317D01*
X011681Y022319D01*
X011660Y022325D01*
X011639Y022334D01*
X011621Y022347D01*
X011606Y022362D01*
X011593Y022380D01*
X011584Y022401D01*
X011578Y022422D01*
X011576Y022444D01*
D14*
X003994Y004880D02*
X003996Y004939D01*
X004002Y004998D01*
X004012Y005056D01*
X004025Y005114D01*
X004043Y005171D01*
X004064Y005226D01*
X004089Y005280D01*
X004118Y005332D01*
X004150Y005381D01*
X004185Y005429D01*
X004223Y005474D01*
X004264Y005517D01*
X004308Y005557D01*
X004354Y005593D01*
X004403Y005627D01*
X004454Y005657D01*
X004507Y005684D01*
X004562Y005707D01*
X004617Y005726D01*
X004675Y005742D01*
X004733Y005754D01*
X004791Y005762D01*
X004850Y005766D01*
X004910Y005766D01*
X004969Y005762D01*
X005027Y005754D01*
X005085Y005742D01*
X005143Y005726D01*
X005198Y005707D01*
X005253Y005684D01*
X005306Y005657D01*
X005357Y005627D01*
X005406Y005593D01*
X005452Y005557D01*
X005496Y005517D01*
X005537Y005474D01*
X005575Y005429D01*
X005610Y005381D01*
X005642Y005332D01*
X005671Y005280D01*
X005696Y005226D01*
X005717Y005171D01*
X005735Y005114D01*
X005748Y005056D01*
X005758Y004998D01*
X005764Y004939D01*
X005766Y004880D01*
X005764Y004821D01*
X005758Y004762D01*
X005748Y004704D01*
X005735Y004646D01*
X005717Y004589D01*
X005696Y004534D01*
X005671Y004480D01*
X005642Y004428D01*
X005610Y004379D01*
X005575Y004331D01*
X005537Y004286D01*
X005496Y004243D01*
X005452Y004203D01*
X005406Y004167D01*
X005357Y004133D01*
X005306Y004103D01*
X005253Y004076D01*
X005198Y004053D01*
X005143Y004034D01*
X005085Y004018D01*
X005027Y004006D01*
X004969Y003998D01*
X004910Y003994D01*
X004850Y003994D01*
X004791Y003998D01*
X004733Y004006D01*
X004675Y004018D01*
X004617Y004034D01*
X004562Y004053D01*
X004507Y004076D01*
X004454Y004103D01*
X004403Y004133D01*
X004354Y004167D01*
X004308Y004203D01*
X004264Y004243D01*
X004223Y004286D01*
X004185Y004331D01*
X004150Y004379D01*
X004118Y004428D01*
X004089Y004480D01*
X004064Y004534D01*
X004043Y004589D01*
X004025Y004646D01*
X004012Y004704D01*
X004002Y004762D01*
X003996Y004821D01*
X003994Y004880D01*
X003110Y004880D02*
X003112Y004967D01*
X003119Y005053D01*
X003129Y005140D01*
X003144Y005225D01*
X003163Y005310D01*
X003186Y005394D01*
X003213Y005476D01*
X003245Y005557D01*
X003280Y005637D01*
X003319Y005714D01*
X003362Y005790D01*
X003408Y005863D01*
X003458Y005934D01*
X003512Y006003D01*
X003569Y006069D01*
X003628Y006132D01*
X003691Y006191D01*
X003757Y006248D01*
X003826Y006302D01*
X003897Y006352D01*
X003970Y006398D01*
X004046Y006441D01*
X004123Y006480D01*
X004203Y006515D01*
X004284Y006547D01*
X004366Y006574D01*
X004450Y006597D01*
X004535Y006616D01*
X004620Y006631D01*
X004707Y006641D01*
X004793Y006648D01*
X004880Y006650D01*
X004967Y006648D01*
X005053Y006641D01*
X005140Y006631D01*
X005225Y006616D01*
X005310Y006597D01*
X005394Y006574D01*
X005476Y006547D01*
X005557Y006515D01*
X005637Y006480D01*
X005714Y006441D01*
X005790Y006398D01*
X005863Y006352D01*
X005934Y006302D01*
X006003Y006248D01*
X006069Y006191D01*
X006132Y006132D01*
X006191Y006069D01*
X006248Y006003D01*
X006302Y005934D01*
X006352Y005863D01*
X006398Y005790D01*
X006441Y005714D01*
X006480Y005637D01*
X006515Y005557D01*
X006547Y005476D01*
X006574Y005394D01*
X006597Y005310D01*
X006616Y005225D01*
X006631Y005140D01*
X006641Y005053D01*
X006648Y004967D01*
X006650Y004880D01*
X006648Y004793D01*
X006641Y004707D01*
X006631Y004620D01*
X006616Y004535D01*
X006597Y004450D01*
X006574Y004366D01*
X006547Y004284D01*
X006515Y004203D01*
X006480Y004123D01*
X006441Y004046D01*
X006398Y003970D01*
X006352Y003897D01*
X006302Y003826D01*
X006248Y003757D01*
X006191Y003691D01*
X006132Y003628D01*
X006069Y003569D01*
X006003Y003512D01*
X005934Y003458D01*
X005863Y003408D01*
X005790Y003362D01*
X005714Y003319D01*
X005637Y003280D01*
X005557Y003245D01*
X005476Y003213D01*
X005394Y003186D01*
X005310Y003163D01*
X005225Y003144D01*
X005140Y003129D01*
X005053Y003119D01*
X004967Y003112D01*
X004880Y003110D01*
X004793Y003112D01*
X004707Y003119D01*
X004620Y003129D01*
X004535Y003144D01*
X004450Y003163D01*
X004366Y003186D01*
X004284Y003213D01*
X004203Y003245D01*
X004123Y003280D01*
X004046Y003319D01*
X003970Y003362D01*
X003897Y003408D01*
X003826Y003458D01*
X003757Y003512D01*
X003691Y003569D01*
X003628Y003628D01*
X003569Y003691D01*
X003512Y003757D01*
X003458Y003826D01*
X003408Y003897D01*
X003362Y003970D01*
X003319Y004046D01*
X003280Y004123D01*
X003245Y004203D01*
X003213Y004284D01*
X003186Y004366D01*
X003163Y004450D01*
X003144Y004535D01*
X003129Y004620D01*
X003119Y004707D01*
X003112Y004793D01*
X003110Y004880D01*
X006880Y013260D02*
X006880Y013680D01*
X006880Y014080D01*
X006880Y014500D01*
X006882Y014523D01*
X006887Y014546D01*
X006896Y014568D01*
X006909Y014588D01*
X006924Y014606D01*
X006942Y014621D01*
X006962Y014634D01*
X006984Y014643D01*
X007007Y014648D01*
X007030Y014650D01*
X006880Y014080D02*
X006907Y014078D01*
X006934Y014073D01*
X006960Y014063D01*
X006984Y014051D01*
X007006Y014035D01*
X007026Y014017D01*
X007043Y013995D01*
X007058Y013972D01*
X007068Y013947D01*
X007076Y013921D01*
X007080Y013894D01*
X007080Y013866D01*
X007076Y013839D01*
X007068Y013813D01*
X007058Y013788D01*
X007043Y013765D01*
X007026Y013743D01*
X007006Y013725D01*
X006984Y013709D01*
X006960Y013697D01*
X006934Y013687D01*
X006907Y013682D01*
X006880Y013680D01*
X006880Y013260D02*
X006882Y013237D01*
X006887Y013214D01*
X006896Y013192D01*
X006909Y013172D01*
X006924Y013154D01*
X006942Y013139D01*
X006962Y013126D01*
X006984Y013117D01*
X007007Y013112D01*
X007030Y013110D01*
X010230Y013110D02*
X010253Y013112D01*
X010276Y013117D01*
X010298Y013126D01*
X010318Y013139D01*
X010336Y013154D01*
X010351Y013172D01*
X010364Y013192D01*
X010373Y013214D01*
X010378Y013237D01*
X010380Y013260D01*
X010380Y014500D01*
X010378Y014523D01*
X010373Y014546D01*
X010364Y014568D01*
X010351Y014588D01*
X010336Y014606D01*
X010318Y014621D01*
X010298Y014634D01*
X010276Y014643D01*
X010253Y014648D01*
X010230Y014650D01*
X011880Y014500D02*
X011880Y014080D01*
X011880Y013680D01*
X011880Y013260D01*
X011882Y013237D01*
X011887Y013214D01*
X011896Y013192D01*
X011909Y013172D01*
X011924Y013154D01*
X011942Y013139D01*
X011962Y013126D01*
X011984Y013117D01*
X012007Y013112D01*
X012030Y013110D01*
X011880Y013680D02*
X011907Y013682D01*
X011934Y013687D01*
X011960Y013697D01*
X011984Y013709D01*
X012006Y013725D01*
X012026Y013743D01*
X012043Y013765D01*
X012058Y013788D01*
X012068Y013813D01*
X012076Y013839D01*
X012080Y013866D01*
X012080Y013894D01*
X012076Y013921D01*
X012068Y013947D01*
X012058Y013972D01*
X012043Y013995D01*
X012026Y014017D01*
X012006Y014035D01*
X011984Y014051D01*
X011960Y014063D01*
X011934Y014073D01*
X011907Y014078D01*
X011880Y014080D01*
X011880Y014500D02*
X011882Y014523D01*
X011887Y014546D01*
X011896Y014568D01*
X011909Y014588D01*
X011924Y014606D01*
X011942Y014621D01*
X011962Y014634D01*
X011984Y014643D01*
X012007Y014648D01*
X012030Y014650D01*
X015230Y014650D02*
X015253Y014648D01*
X015276Y014643D01*
X015298Y014634D01*
X015318Y014621D01*
X015336Y014606D01*
X015351Y014588D01*
X015364Y014568D01*
X015373Y014546D01*
X015378Y014523D01*
X015380Y014500D01*
X015380Y013260D01*
X015378Y013237D01*
X015373Y013214D01*
X015364Y013192D01*
X015351Y013172D01*
X015336Y013154D01*
X015318Y013139D01*
X015298Y013126D01*
X015276Y013117D01*
X015253Y013112D01*
X015230Y013110D01*
X015230Y021610D02*
X015253Y021612D01*
X015276Y021617D01*
X015298Y021626D01*
X015318Y021639D01*
X015336Y021654D01*
X015351Y021672D01*
X015364Y021692D01*
X015373Y021714D01*
X015378Y021737D01*
X015380Y021760D01*
X015380Y023000D01*
X015378Y023023D01*
X015373Y023046D01*
X015364Y023068D01*
X015351Y023088D01*
X015336Y023106D01*
X015318Y023121D01*
X015298Y023134D01*
X015276Y023143D01*
X015253Y023148D01*
X015230Y023150D01*
X012030Y023150D02*
X012007Y023148D01*
X011984Y023143D01*
X011962Y023134D01*
X011942Y023121D01*
X011924Y023106D01*
X011909Y023088D01*
X011896Y023068D01*
X011887Y023046D01*
X011882Y023023D01*
X011880Y023000D01*
X011880Y022580D01*
X011880Y022180D01*
X011880Y021760D01*
X011882Y021737D01*
X011887Y021714D01*
X011896Y021692D01*
X011909Y021672D01*
X011924Y021654D01*
X011942Y021639D01*
X011962Y021626D01*
X011984Y021617D01*
X012007Y021612D01*
X012030Y021610D01*
X011880Y022180D02*
X011907Y022182D01*
X011934Y022187D01*
X011960Y022197D01*
X011984Y022209D01*
X012006Y022225D01*
X012026Y022243D01*
X012043Y022265D01*
X012058Y022288D01*
X012068Y022313D01*
X012076Y022339D01*
X012080Y022366D01*
X012080Y022394D01*
X012076Y022421D01*
X012068Y022447D01*
X012058Y022472D01*
X012043Y022495D01*
X012026Y022517D01*
X012006Y022535D01*
X011984Y022551D01*
X011960Y022563D01*
X011934Y022573D01*
X011907Y022578D01*
X011880Y022580D01*
X010380Y023000D02*
X010380Y021760D01*
X010378Y021737D01*
X010373Y021714D01*
X010364Y021692D01*
X010351Y021672D01*
X010336Y021654D01*
X010318Y021639D01*
X010298Y021626D01*
X010276Y021617D01*
X010253Y021612D01*
X010230Y021610D01*
X010380Y023000D02*
X010378Y023023D01*
X010373Y023046D01*
X010364Y023068D01*
X010351Y023088D01*
X010336Y023106D01*
X010318Y023121D01*
X010298Y023134D01*
X010276Y023143D01*
X010253Y023148D01*
X010230Y023150D01*
X007030Y023150D02*
X007007Y023148D01*
X006984Y023143D01*
X006962Y023134D01*
X006942Y023121D01*
X006924Y023106D01*
X006909Y023088D01*
X006896Y023068D01*
X006887Y023046D01*
X006882Y023023D01*
X006880Y023000D01*
X006880Y022580D01*
X006880Y022180D01*
X006880Y021760D01*
X006882Y021737D01*
X006887Y021714D01*
X006896Y021692D01*
X006909Y021672D01*
X006924Y021654D01*
X006942Y021639D01*
X006962Y021626D01*
X006984Y021617D01*
X007007Y021612D01*
X007030Y021610D01*
X006880Y022180D02*
X006907Y022182D01*
X006934Y022187D01*
X006960Y022197D01*
X006984Y022209D01*
X007006Y022225D01*
X007026Y022243D01*
X007043Y022265D01*
X007058Y022288D01*
X007068Y022313D01*
X007076Y022339D01*
X007080Y022366D01*
X007080Y022394D01*
X007076Y022421D01*
X007068Y022447D01*
X007058Y022472D01*
X007043Y022495D01*
X007026Y022517D01*
X007006Y022535D01*
X006984Y022551D01*
X006960Y022563D01*
X006934Y022573D01*
X006907Y022578D01*
X006880Y022580D01*
X003869Y038880D02*
X003871Y038939D01*
X003877Y038998D01*
X003887Y039056D01*
X003900Y039114D01*
X003918Y039171D01*
X003939Y039226D01*
X003964Y039280D01*
X003993Y039332D01*
X004025Y039381D01*
X004060Y039429D01*
X004098Y039474D01*
X004139Y039517D01*
X004183Y039557D01*
X004229Y039593D01*
X004278Y039627D01*
X004329Y039657D01*
X004382Y039684D01*
X004437Y039707D01*
X004492Y039726D01*
X004550Y039742D01*
X004608Y039754D01*
X004666Y039762D01*
X004725Y039766D01*
X004785Y039766D01*
X004844Y039762D01*
X004902Y039754D01*
X004960Y039742D01*
X005018Y039726D01*
X005073Y039707D01*
X005128Y039684D01*
X005181Y039657D01*
X005232Y039627D01*
X005281Y039593D01*
X005327Y039557D01*
X005371Y039517D01*
X005412Y039474D01*
X005450Y039429D01*
X005485Y039381D01*
X005517Y039332D01*
X005546Y039280D01*
X005571Y039226D01*
X005592Y039171D01*
X005610Y039114D01*
X005623Y039056D01*
X005633Y038998D01*
X005639Y038939D01*
X005641Y038880D01*
X005639Y038821D01*
X005633Y038762D01*
X005623Y038704D01*
X005610Y038646D01*
X005592Y038589D01*
X005571Y038534D01*
X005546Y038480D01*
X005517Y038428D01*
X005485Y038379D01*
X005450Y038331D01*
X005412Y038286D01*
X005371Y038243D01*
X005327Y038203D01*
X005281Y038167D01*
X005232Y038133D01*
X005181Y038103D01*
X005128Y038076D01*
X005073Y038053D01*
X005018Y038034D01*
X004960Y038018D01*
X004902Y038006D01*
X004844Y037998D01*
X004785Y037994D01*
X004725Y037994D01*
X004666Y037998D01*
X004608Y038006D01*
X004550Y038018D01*
X004492Y038034D01*
X004437Y038053D01*
X004382Y038076D01*
X004329Y038103D01*
X004278Y038133D01*
X004229Y038167D01*
X004183Y038203D01*
X004139Y038243D01*
X004098Y038286D01*
X004060Y038331D01*
X004025Y038379D01*
X003993Y038428D01*
X003964Y038480D01*
X003939Y038534D01*
X003918Y038589D01*
X003900Y038646D01*
X003887Y038704D01*
X003877Y038762D01*
X003871Y038821D01*
X003869Y038880D01*
X002985Y038880D02*
X002987Y038967D01*
X002994Y039053D01*
X003004Y039140D01*
X003019Y039225D01*
X003038Y039310D01*
X003061Y039394D01*
X003088Y039476D01*
X003120Y039557D01*
X003155Y039637D01*
X003194Y039714D01*
X003237Y039790D01*
X003283Y039863D01*
X003333Y039934D01*
X003387Y040003D01*
X003444Y040069D01*
X003503Y040132D01*
X003566Y040191D01*
X003632Y040248D01*
X003701Y040302D01*
X003772Y040352D01*
X003845Y040398D01*
X003921Y040441D01*
X003998Y040480D01*
X004078Y040515D01*
X004159Y040547D01*
X004241Y040574D01*
X004325Y040597D01*
X004410Y040616D01*
X004495Y040631D01*
X004582Y040641D01*
X004668Y040648D01*
X004755Y040650D01*
X004842Y040648D01*
X004928Y040641D01*
X005015Y040631D01*
X005100Y040616D01*
X005185Y040597D01*
X005269Y040574D01*
X005351Y040547D01*
X005432Y040515D01*
X005512Y040480D01*
X005589Y040441D01*
X005665Y040398D01*
X005738Y040352D01*
X005809Y040302D01*
X005878Y040248D01*
X005944Y040191D01*
X006007Y040132D01*
X006066Y040069D01*
X006123Y040003D01*
X006177Y039934D01*
X006227Y039863D01*
X006273Y039790D01*
X006316Y039714D01*
X006355Y039637D01*
X006390Y039557D01*
X006422Y039476D01*
X006449Y039394D01*
X006472Y039310D01*
X006491Y039225D01*
X006506Y039140D01*
X006516Y039053D01*
X006523Y038967D01*
X006525Y038880D01*
X006523Y038793D01*
X006516Y038707D01*
X006506Y038620D01*
X006491Y038535D01*
X006472Y038450D01*
X006449Y038366D01*
X006422Y038284D01*
X006390Y038203D01*
X006355Y038123D01*
X006316Y038046D01*
X006273Y037970D01*
X006227Y037897D01*
X006177Y037826D01*
X006123Y037757D01*
X006066Y037691D01*
X006007Y037628D01*
X005944Y037569D01*
X005878Y037512D01*
X005809Y037458D01*
X005738Y037408D01*
X005665Y037362D01*
X005589Y037319D01*
X005512Y037280D01*
X005432Y037245D01*
X005351Y037213D01*
X005269Y037186D01*
X005185Y037163D01*
X005100Y037144D01*
X005015Y037129D01*
X004928Y037119D01*
X004842Y037112D01*
X004755Y037110D01*
X004668Y037112D01*
X004582Y037119D01*
X004495Y037129D01*
X004410Y037144D01*
X004325Y037163D01*
X004241Y037186D01*
X004159Y037213D01*
X004078Y037245D01*
X003998Y037280D01*
X003921Y037319D01*
X003845Y037362D01*
X003772Y037408D01*
X003701Y037458D01*
X003632Y037512D01*
X003566Y037569D01*
X003503Y037628D01*
X003444Y037691D01*
X003387Y037757D01*
X003333Y037826D01*
X003283Y037897D01*
X003237Y037970D01*
X003194Y038046D01*
X003155Y038123D01*
X003120Y038203D01*
X003088Y038284D01*
X003061Y038366D01*
X003038Y038450D01*
X003019Y038535D01*
X003004Y038620D01*
X002994Y038707D01*
X002987Y038793D01*
X002985Y038880D01*
X017262Y039394D02*
X017498Y039394D01*
X017498Y039866D02*
X017262Y039866D01*
X024880Y034180D02*
X024880Y033580D01*
X024882Y033563D01*
X024886Y033546D01*
X024893Y033530D01*
X024903Y033516D01*
X024916Y033503D01*
X024930Y033493D01*
X024946Y033486D01*
X024963Y033482D01*
X024980Y033480D01*
X025980Y033480D01*
X025997Y033482D01*
X026014Y033486D01*
X026030Y033493D01*
X026044Y033503D01*
X026057Y033516D01*
X026067Y033530D01*
X026074Y033546D01*
X026078Y033563D01*
X026080Y033580D01*
X026080Y034180D01*
X026078Y034197D01*
X026074Y034214D01*
X026067Y034230D01*
X026057Y034244D01*
X026044Y034257D01*
X026030Y034267D01*
X026014Y034274D01*
X025997Y034278D01*
X025980Y034280D01*
X024980Y034280D01*
X024963Y034278D01*
X024946Y034274D01*
X024930Y034267D01*
X024916Y034257D01*
X024903Y034244D01*
X024893Y034230D01*
X024886Y034214D01*
X024882Y034197D01*
X024880Y034180D01*
X024980Y033280D02*
X025980Y033280D01*
X025997Y033278D01*
X026014Y033274D01*
X026030Y033267D01*
X026044Y033257D01*
X026057Y033244D01*
X026067Y033230D01*
X026074Y033214D01*
X026078Y033197D01*
X026080Y033180D01*
X026080Y032580D01*
X026078Y032563D01*
X026074Y032546D01*
X026067Y032530D01*
X026057Y032516D01*
X026044Y032503D01*
X026030Y032493D01*
X026014Y032486D01*
X025997Y032482D01*
X025980Y032480D01*
X024980Y032480D01*
X024963Y032482D01*
X024946Y032486D01*
X024930Y032493D01*
X024916Y032503D01*
X024903Y032516D01*
X024893Y032530D01*
X024886Y032546D01*
X024882Y032563D01*
X024880Y032580D01*
X024880Y033180D01*
X024882Y033197D01*
X024886Y033214D01*
X024893Y033230D01*
X024903Y033244D01*
X024916Y033257D01*
X024930Y033267D01*
X024946Y033274D01*
X024963Y033278D01*
X024980Y033280D01*
X025244Y038880D02*
X025246Y038939D01*
X025252Y038998D01*
X025262Y039056D01*
X025275Y039114D01*
X025293Y039171D01*
X025314Y039226D01*
X025339Y039280D01*
X025368Y039332D01*
X025400Y039381D01*
X025435Y039429D01*
X025473Y039474D01*
X025514Y039517D01*
X025558Y039557D01*
X025604Y039593D01*
X025653Y039627D01*
X025704Y039657D01*
X025757Y039684D01*
X025812Y039707D01*
X025867Y039726D01*
X025925Y039742D01*
X025983Y039754D01*
X026041Y039762D01*
X026100Y039766D01*
X026160Y039766D01*
X026219Y039762D01*
X026277Y039754D01*
X026335Y039742D01*
X026393Y039726D01*
X026448Y039707D01*
X026503Y039684D01*
X026556Y039657D01*
X026607Y039627D01*
X026656Y039593D01*
X026702Y039557D01*
X026746Y039517D01*
X026787Y039474D01*
X026825Y039429D01*
X026860Y039381D01*
X026892Y039332D01*
X026921Y039280D01*
X026946Y039226D01*
X026967Y039171D01*
X026985Y039114D01*
X026998Y039056D01*
X027008Y038998D01*
X027014Y038939D01*
X027016Y038880D01*
X027014Y038821D01*
X027008Y038762D01*
X026998Y038704D01*
X026985Y038646D01*
X026967Y038589D01*
X026946Y038534D01*
X026921Y038480D01*
X026892Y038428D01*
X026860Y038379D01*
X026825Y038331D01*
X026787Y038286D01*
X026746Y038243D01*
X026702Y038203D01*
X026656Y038167D01*
X026607Y038133D01*
X026556Y038103D01*
X026503Y038076D01*
X026448Y038053D01*
X026393Y038034D01*
X026335Y038018D01*
X026277Y038006D01*
X026219Y037998D01*
X026160Y037994D01*
X026100Y037994D01*
X026041Y037998D01*
X025983Y038006D01*
X025925Y038018D01*
X025867Y038034D01*
X025812Y038053D01*
X025757Y038076D01*
X025704Y038103D01*
X025653Y038133D01*
X025604Y038167D01*
X025558Y038203D01*
X025514Y038243D01*
X025473Y038286D01*
X025435Y038331D01*
X025400Y038379D01*
X025368Y038428D01*
X025339Y038480D01*
X025314Y038534D01*
X025293Y038589D01*
X025275Y038646D01*
X025262Y038704D01*
X025252Y038762D01*
X025246Y038821D01*
X025244Y038880D01*
X024360Y038880D02*
X024362Y038967D01*
X024369Y039053D01*
X024379Y039140D01*
X024394Y039225D01*
X024413Y039310D01*
X024436Y039394D01*
X024463Y039476D01*
X024495Y039557D01*
X024530Y039637D01*
X024569Y039714D01*
X024612Y039790D01*
X024658Y039863D01*
X024708Y039934D01*
X024762Y040003D01*
X024819Y040069D01*
X024878Y040132D01*
X024941Y040191D01*
X025007Y040248D01*
X025076Y040302D01*
X025147Y040352D01*
X025220Y040398D01*
X025296Y040441D01*
X025373Y040480D01*
X025453Y040515D01*
X025534Y040547D01*
X025616Y040574D01*
X025700Y040597D01*
X025785Y040616D01*
X025870Y040631D01*
X025957Y040641D01*
X026043Y040648D01*
X026130Y040650D01*
X026217Y040648D01*
X026303Y040641D01*
X026390Y040631D01*
X026475Y040616D01*
X026560Y040597D01*
X026644Y040574D01*
X026726Y040547D01*
X026807Y040515D01*
X026887Y040480D01*
X026964Y040441D01*
X027040Y040398D01*
X027113Y040352D01*
X027184Y040302D01*
X027253Y040248D01*
X027319Y040191D01*
X027382Y040132D01*
X027441Y040069D01*
X027498Y040003D01*
X027552Y039934D01*
X027602Y039863D01*
X027648Y039790D01*
X027691Y039714D01*
X027730Y039637D01*
X027765Y039557D01*
X027797Y039476D01*
X027824Y039394D01*
X027847Y039310D01*
X027866Y039225D01*
X027881Y039140D01*
X027891Y039053D01*
X027898Y038967D01*
X027900Y038880D01*
X027898Y038793D01*
X027891Y038707D01*
X027881Y038620D01*
X027866Y038535D01*
X027847Y038450D01*
X027824Y038366D01*
X027797Y038284D01*
X027765Y038203D01*
X027730Y038123D01*
X027691Y038046D01*
X027648Y037970D01*
X027602Y037897D01*
X027552Y037826D01*
X027498Y037757D01*
X027441Y037691D01*
X027382Y037628D01*
X027319Y037569D01*
X027253Y037512D01*
X027184Y037458D01*
X027113Y037408D01*
X027040Y037362D01*
X026964Y037319D01*
X026887Y037280D01*
X026807Y037245D01*
X026726Y037213D01*
X026644Y037186D01*
X026560Y037163D01*
X026475Y037144D01*
X026390Y037129D01*
X026303Y037119D01*
X026217Y037112D01*
X026130Y037110D01*
X026043Y037112D01*
X025957Y037119D01*
X025870Y037129D01*
X025785Y037144D01*
X025700Y037163D01*
X025616Y037186D01*
X025534Y037213D01*
X025453Y037245D01*
X025373Y037280D01*
X025296Y037319D01*
X025220Y037362D01*
X025147Y037408D01*
X025076Y037458D01*
X025007Y037512D01*
X024941Y037569D01*
X024878Y037628D01*
X024819Y037691D01*
X024762Y037757D01*
X024708Y037826D01*
X024658Y037897D01*
X024612Y037970D01*
X024569Y038046D01*
X024530Y038123D01*
X024495Y038203D01*
X024463Y038284D01*
X024436Y038366D01*
X024413Y038450D01*
X024394Y038535D01*
X024379Y038620D01*
X024369Y038707D01*
X024362Y038793D01*
X024360Y038880D01*
X024690Y019890D02*
X023570Y019890D01*
X023570Y019370D01*
X024690Y019370D01*
X024690Y019890D01*
X022818Y019890D02*
X022818Y019370D01*
X021698Y019370D01*
X021698Y019890D01*
X022818Y019890D01*
X021640Y016260D02*
X021500Y016120D01*
X021500Y013500D01*
X024260Y013500D01*
X024260Y016260D01*
X021640Y016260D01*
X021659Y015960D02*
X021661Y015983D01*
X021667Y016006D01*
X021676Y016027D01*
X021689Y016047D01*
X021705Y016064D01*
X021723Y016078D01*
X021743Y016089D01*
X021765Y016097D01*
X021788Y016101D01*
X021812Y016101D01*
X021835Y016097D01*
X021857Y016089D01*
X021877Y016078D01*
X021895Y016064D01*
X021911Y016047D01*
X021924Y016027D01*
X021933Y016006D01*
X021939Y015983D01*
X021941Y015960D01*
X021939Y015937D01*
X021933Y015914D01*
X021924Y015893D01*
X021911Y015873D01*
X021895Y015856D01*
X021877Y015842D01*
X021857Y015831D01*
X021835Y015823D01*
X021812Y015819D01*
X021788Y015819D01*
X021765Y015823D01*
X021743Y015831D01*
X021723Y015842D01*
X021705Y015856D01*
X021689Y015873D01*
X021676Y015893D01*
X021667Y015914D01*
X021661Y015937D01*
X021659Y015960D01*
X027230Y011880D02*
X027230Y010880D01*
X027232Y010863D01*
X027236Y010846D01*
X027243Y010830D01*
X027253Y010816D01*
X027266Y010803D01*
X027280Y010793D01*
X027296Y010786D01*
X027313Y010782D01*
X027330Y010780D01*
X027930Y010780D01*
X027947Y010782D01*
X027964Y010786D01*
X027980Y010793D01*
X027994Y010803D01*
X028007Y010816D01*
X028017Y010830D01*
X028024Y010846D01*
X028028Y010863D01*
X028030Y010880D01*
X028030Y011880D01*
X028028Y011897D01*
X028024Y011914D01*
X028017Y011930D01*
X028007Y011944D01*
X027994Y011957D01*
X027980Y011967D01*
X027964Y011974D01*
X027947Y011978D01*
X027930Y011980D01*
X027330Y011980D01*
X027313Y011978D01*
X027296Y011974D01*
X027280Y011967D01*
X027266Y011957D01*
X027253Y011944D01*
X027243Y011930D01*
X027236Y011914D01*
X027232Y011897D01*
X027230Y011880D01*
X025244Y004880D02*
X025246Y004939D01*
X025252Y004998D01*
X025262Y005056D01*
X025275Y005114D01*
X025293Y005171D01*
X025314Y005226D01*
X025339Y005280D01*
X025368Y005332D01*
X025400Y005381D01*
X025435Y005429D01*
X025473Y005474D01*
X025514Y005517D01*
X025558Y005557D01*
X025604Y005593D01*
X025653Y005627D01*
X025704Y005657D01*
X025757Y005684D01*
X025812Y005707D01*
X025867Y005726D01*
X025925Y005742D01*
X025983Y005754D01*
X026041Y005762D01*
X026100Y005766D01*
X026160Y005766D01*
X026219Y005762D01*
X026277Y005754D01*
X026335Y005742D01*
X026393Y005726D01*
X026448Y005707D01*
X026503Y005684D01*
X026556Y005657D01*
X026607Y005627D01*
X026656Y005593D01*
X026702Y005557D01*
X026746Y005517D01*
X026787Y005474D01*
X026825Y005429D01*
X026860Y005381D01*
X026892Y005332D01*
X026921Y005280D01*
X026946Y005226D01*
X026967Y005171D01*
X026985Y005114D01*
X026998Y005056D01*
X027008Y004998D01*
X027014Y004939D01*
X027016Y004880D01*
X027014Y004821D01*
X027008Y004762D01*
X026998Y004704D01*
X026985Y004646D01*
X026967Y004589D01*
X026946Y004534D01*
X026921Y004480D01*
X026892Y004428D01*
X026860Y004379D01*
X026825Y004331D01*
X026787Y004286D01*
X026746Y004243D01*
X026702Y004203D01*
X026656Y004167D01*
X026607Y004133D01*
X026556Y004103D01*
X026503Y004076D01*
X026448Y004053D01*
X026393Y004034D01*
X026335Y004018D01*
X026277Y004006D01*
X026219Y003998D01*
X026160Y003994D01*
X026100Y003994D01*
X026041Y003998D01*
X025983Y004006D01*
X025925Y004018D01*
X025867Y004034D01*
X025812Y004053D01*
X025757Y004076D01*
X025704Y004103D01*
X025653Y004133D01*
X025604Y004167D01*
X025558Y004203D01*
X025514Y004243D01*
X025473Y004286D01*
X025435Y004331D01*
X025400Y004379D01*
X025368Y004428D01*
X025339Y004480D01*
X025314Y004534D01*
X025293Y004589D01*
X025275Y004646D01*
X025262Y004704D01*
X025252Y004762D01*
X025246Y004821D01*
X025244Y004880D01*
X024360Y004880D02*
X024362Y004967D01*
X024369Y005053D01*
X024379Y005140D01*
X024394Y005225D01*
X024413Y005310D01*
X024436Y005394D01*
X024463Y005476D01*
X024495Y005557D01*
X024530Y005637D01*
X024569Y005714D01*
X024612Y005790D01*
X024658Y005863D01*
X024708Y005934D01*
X024762Y006003D01*
X024819Y006069D01*
X024878Y006132D01*
X024941Y006191D01*
X025007Y006248D01*
X025076Y006302D01*
X025147Y006352D01*
X025220Y006398D01*
X025296Y006441D01*
X025373Y006480D01*
X025453Y006515D01*
X025534Y006547D01*
X025616Y006574D01*
X025700Y006597D01*
X025785Y006616D01*
X025870Y006631D01*
X025957Y006641D01*
X026043Y006648D01*
X026130Y006650D01*
X026217Y006648D01*
X026303Y006641D01*
X026390Y006631D01*
X026475Y006616D01*
X026560Y006597D01*
X026644Y006574D01*
X026726Y006547D01*
X026807Y006515D01*
X026887Y006480D01*
X026964Y006441D01*
X027040Y006398D01*
X027113Y006352D01*
X027184Y006302D01*
X027253Y006248D01*
X027319Y006191D01*
X027382Y006132D01*
X027441Y006069D01*
X027498Y006003D01*
X027552Y005934D01*
X027602Y005863D01*
X027648Y005790D01*
X027691Y005714D01*
X027730Y005637D01*
X027765Y005557D01*
X027797Y005476D01*
X027824Y005394D01*
X027847Y005310D01*
X027866Y005225D01*
X027881Y005140D01*
X027891Y005053D01*
X027898Y004967D01*
X027900Y004880D01*
X027898Y004793D01*
X027891Y004707D01*
X027881Y004620D01*
X027866Y004535D01*
X027847Y004450D01*
X027824Y004366D01*
X027797Y004284D01*
X027765Y004203D01*
X027730Y004123D01*
X027691Y004046D01*
X027648Y003970D01*
X027602Y003897D01*
X027552Y003826D01*
X027498Y003757D01*
X027441Y003691D01*
X027382Y003628D01*
X027319Y003569D01*
X027253Y003512D01*
X027184Y003458D01*
X027113Y003408D01*
X027040Y003362D01*
X026964Y003319D01*
X026887Y003280D01*
X026807Y003245D01*
X026726Y003213D01*
X026644Y003186D01*
X026560Y003163D01*
X026475Y003144D01*
X026390Y003129D01*
X026303Y003119D01*
X026217Y003112D01*
X026130Y003110D01*
X026043Y003112D01*
X025957Y003119D01*
X025870Y003129D01*
X025785Y003144D01*
X025700Y003163D01*
X025616Y003186D01*
X025534Y003213D01*
X025453Y003245D01*
X025373Y003280D01*
X025296Y003319D01*
X025220Y003362D01*
X025147Y003408D01*
X025076Y003458D01*
X025007Y003512D01*
X024941Y003569D01*
X024878Y003628D01*
X024819Y003691D01*
X024762Y003757D01*
X024708Y003826D01*
X024658Y003897D01*
X024612Y003970D01*
X024569Y004046D01*
X024530Y004123D01*
X024495Y004203D01*
X024463Y004284D01*
X024436Y004366D01*
X024413Y004450D01*
X024394Y004535D01*
X024379Y004620D01*
X024369Y004707D01*
X024362Y004793D01*
X024360Y004880D01*
D15*
X023999Y007440D02*
X023011Y007440D01*
X022511Y007834D02*
X022511Y009046D01*
X023023Y009440D02*
X023999Y009440D01*
X024511Y009046D02*
X024511Y007834D01*
X025130Y008380D02*
X025130Y008880D01*
X025380Y009130D01*
X026880Y009130D01*
X027130Y008880D01*
X027130Y008380D01*
X026880Y008130D01*
X025380Y008130D01*
X025130Y008380D01*
X025380Y009130D02*
X025130Y009380D01*
X025130Y009880D01*
X025380Y010130D01*
X026880Y010130D01*
X027130Y009880D01*
X027130Y009380D01*
X026880Y009130D01*
X026880Y010130D02*
X027130Y010380D01*
X027130Y010880D01*
X026880Y011130D01*
X025380Y011130D01*
X025130Y010880D01*
X025130Y010380D01*
X025380Y010130D01*
X024998Y010380D02*
X024998Y010880D01*
X026139Y011640D02*
X026209Y011570D01*
X026349Y011570D01*
X026419Y011640D01*
X026419Y011780D01*
X026279Y011780D01*
X026139Y011920D02*
X026139Y011640D01*
X026139Y011920D02*
X026209Y011990D01*
X026349Y011990D01*
X026419Y011920D01*
X026599Y011990D02*
X026809Y011990D01*
X026879Y011920D01*
X026879Y011780D01*
X026809Y011710D01*
X026599Y011710D01*
X026599Y011570D02*
X026599Y011990D01*
X026739Y011710D02*
X026879Y011570D01*
X027060Y011570D02*
X027060Y011990D01*
X027340Y011570D01*
X027340Y011990D01*
X023011Y008440D02*
X023013Y008484D01*
X023019Y008528D01*
X023029Y008571D01*
X023042Y008613D01*
X023059Y008654D01*
X023080Y008693D01*
X023104Y008730D01*
X023131Y008765D01*
X023161Y008797D01*
X023194Y008827D01*
X023230Y008853D01*
X023267Y008877D01*
X023307Y008896D01*
X023348Y008913D01*
X023391Y008925D01*
X023434Y008934D01*
X023478Y008939D01*
X023522Y008940D01*
X023566Y008937D01*
X023610Y008930D01*
X023653Y008919D01*
X023695Y008905D01*
X023735Y008887D01*
X023774Y008865D01*
X023810Y008841D01*
X023844Y008813D01*
X023876Y008782D01*
X023905Y008748D01*
X023931Y008712D01*
X023953Y008674D01*
X023972Y008634D01*
X023987Y008592D01*
X023999Y008550D01*
X024007Y008506D01*
X024011Y008462D01*
X024011Y008418D01*
X024007Y008374D01*
X023999Y008330D01*
X023987Y008288D01*
X023972Y008246D01*
X023953Y008206D01*
X023931Y008168D01*
X023905Y008132D01*
X023876Y008098D01*
X023844Y008067D01*
X023810Y008039D01*
X023774Y008015D01*
X023735Y007993D01*
X023695Y007975D01*
X023653Y007961D01*
X023610Y007950D01*
X023566Y007943D01*
X023522Y007940D01*
X023478Y007941D01*
X023434Y007946D01*
X023391Y007955D01*
X023348Y007967D01*
X023307Y007984D01*
X023267Y008003D01*
X023230Y008027D01*
X023194Y008053D01*
X023161Y008083D01*
X023131Y008115D01*
X023104Y008150D01*
X023080Y008187D01*
X023059Y008226D01*
X023042Y008267D01*
X023029Y008309D01*
X023019Y008352D01*
X023013Y008396D01*
X023011Y008440D01*
X020136Y012671D02*
X019624Y012671D01*
X019624Y014089D02*
X020136Y014089D01*
X018567Y006784D02*
X016371Y006784D01*
X016371Y006173D01*
X014889Y006173D01*
X014889Y006784D01*
X016371Y006784D01*
X016374Y006419D02*
X018124Y006419D01*
X018124Y003841D01*
X013871Y003841D01*
X013871Y004087D02*
X013871Y003476D01*
X012389Y003476D01*
X010468Y003476D01*
X010468Y003595D01*
X009886Y003595D01*
X009886Y003476D01*
X007693Y003476D01*
X007693Y006784D01*
X009889Y006784D01*
X009889Y006173D01*
X011371Y006173D01*
X011371Y006784D01*
X014889Y006784D01*
X014888Y006419D02*
X011372Y006419D01*
X011371Y006784D02*
X009889Y006784D01*
X009886Y006419D02*
X008136Y006419D01*
X008136Y003841D01*
X012389Y003841D01*
X012389Y004087D02*
X012389Y003476D01*
X012389Y004087D02*
X013871Y004087D01*
X013871Y003476D02*
X015886Y003476D01*
X015886Y003595D01*
X016468Y003595D01*
X016468Y003476D01*
X018567Y003476D01*
X018567Y006784D01*
X026139Y018270D02*
X026349Y018270D01*
X026419Y018340D01*
X026419Y018410D01*
X026349Y018480D01*
X026139Y018480D01*
X026139Y018270D02*
X026139Y018690D01*
X026349Y018690D01*
X026419Y018620D01*
X026419Y018550D01*
X026349Y018480D01*
X026599Y018690D02*
X026599Y018270D01*
X026879Y018270D01*
X027060Y018270D02*
X027060Y018690D01*
X027130Y018480D02*
X027340Y018270D01*
X027060Y018410D02*
X027340Y018690D01*
X027652Y023904D02*
X024148Y023904D01*
X024108Y023904D02*
X024108Y031856D01*
X027652Y031856D01*
X027652Y028746D01*
X027061Y028746D01*
X027061Y027014D01*
X027652Y027014D01*
X027652Y023904D01*
X026973Y025630D02*
X026973Y026130D01*
X027652Y027014D02*
X027652Y028746D01*
X021140Y036090D02*
X018780Y036090D01*
X018780Y038670D01*
X021140Y038670D01*
X016774Y037667D02*
X015986Y037667D01*
X016380Y037667D02*
X015986Y037127D01*
X016774Y037127D01*
X016380Y037667D01*
D16*
X016081Y035667D02*
X016081Y035522D01*
X016081Y035595D02*
X015865Y035595D01*
X015937Y035522D01*
X015901Y035449D02*
X015865Y035413D01*
X015865Y035305D01*
X016081Y035305D01*
X016081Y035413D01*
X016045Y035449D01*
X015901Y035449D01*
X015031Y032870D02*
X015067Y032834D01*
X015067Y032798D01*
X015031Y032762D01*
X015067Y032726D01*
X015067Y032690D01*
X015031Y032654D01*
X014959Y032654D01*
X014922Y032690D01*
X014849Y032690D02*
X014813Y032654D01*
X014741Y032654D01*
X014705Y032690D01*
X014705Y032834D01*
X014741Y032870D01*
X014813Y032870D01*
X014849Y032834D01*
X014922Y032834D02*
X014959Y032870D01*
X015031Y032870D01*
X015031Y032762D02*
X014995Y032762D01*
X013457Y032672D02*
X013241Y032672D01*
X013241Y032781D01*
X013277Y032817D01*
X013349Y032817D01*
X013385Y032781D01*
X013385Y032672D01*
X013421Y032563D02*
X013241Y032563D01*
X013241Y032527D02*
X013241Y032599D01*
X013421Y032563D02*
X013457Y032527D01*
X013457Y032491D01*
X013421Y032455D01*
X013494Y032382D02*
X013494Y032237D01*
X013421Y032164D02*
X013277Y032164D01*
X013241Y032128D01*
X013241Y032020D01*
X013457Y032020D01*
X013457Y032128D01*
X013421Y032164D01*
X013457Y031947D02*
X013241Y031947D01*
X013241Y031802D02*
X013457Y031947D01*
X013457Y031802D02*
X013241Y031802D01*
X013277Y031729D02*
X013241Y031693D01*
X013241Y031621D01*
X013277Y031585D01*
X013421Y031585D01*
X013457Y031621D01*
X013457Y031693D01*
X013421Y031729D01*
X013349Y031729D01*
X013349Y031657D01*
X013245Y030252D02*
X013245Y030108D01*
X013101Y030252D01*
X013065Y030252D01*
X013029Y030216D01*
X013029Y030144D01*
X013065Y030108D01*
X013065Y030034D02*
X013029Y029998D01*
X013029Y029926D01*
X013065Y029890D01*
X013209Y029890D01*
X013245Y029926D01*
X013245Y029998D01*
X013209Y030034D01*
X014741Y028370D02*
X014705Y028334D01*
X014705Y028190D01*
X014741Y028154D01*
X014813Y028154D01*
X014849Y028190D01*
X014922Y028190D02*
X014959Y028154D01*
X015031Y028154D01*
X015067Y028190D01*
X015067Y028262D01*
X015031Y028298D01*
X014995Y028298D01*
X014922Y028262D01*
X014922Y028370D01*
X015067Y028370D01*
X014849Y028334D02*
X014813Y028370D01*
X014741Y028370D01*
X015940Y029890D02*
X016084Y029890D01*
X016120Y029926D01*
X016120Y029998D01*
X016084Y030034D01*
X016012Y030108D02*
X016012Y030252D01*
X016120Y030216D02*
X015904Y030216D01*
X016012Y030108D01*
X015940Y030034D02*
X015904Y029998D01*
X015904Y029926D01*
X015940Y029890D01*
X018279Y032140D02*
X018279Y032248D01*
X018315Y032284D01*
X018387Y032284D01*
X018423Y032248D01*
X018423Y032140D01*
X018495Y032140D02*
X018279Y032140D01*
X018423Y032212D02*
X018495Y032284D01*
X018459Y032358D02*
X018495Y032394D01*
X018495Y032466D01*
X018459Y032502D01*
X018315Y032502D01*
X018279Y032466D01*
X018279Y032394D01*
X018315Y032358D01*
X018459Y032358D01*
X018459Y032575D02*
X018495Y032611D01*
X018495Y032683D01*
X018459Y032719D01*
X018279Y032719D01*
X018279Y032793D02*
X018279Y032937D01*
X018279Y032865D02*
X018495Y032865D01*
X018459Y032575D02*
X018279Y032575D01*
X018926Y035640D02*
X018998Y035640D01*
X019034Y035676D01*
X019108Y035640D02*
X019252Y035784D01*
X019252Y035820D01*
X019216Y035856D01*
X019144Y035856D01*
X019108Y035820D01*
X019034Y035820D02*
X018998Y035856D01*
X018926Y035856D01*
X018890Y035820D01*
X018890Y035676D01*
X018926Y035640D01*
X019108Y035640D02*
X019252Y035640D01*
X019325Y035676D02*
X019361Y035640D01*
X019433Y035640D01*
X019469Y035676D01*
X019469Y035712D01*
X019433Y035748D01*
X019397Y035748D01*
X019433Y035748D02*
X019469Y035784D01*
X019469Y035820D01*
X019433Y035856D01*
X019361Y035856D01*
X019325Y035820D01*
X020455Y039529D02*
X020455Y039745D01*
X020563Y039745D01*
X020599Y039709D01*
X020599Y039637D01*
X020563Y039601D01*
X020455Y039601D01*
X020527Y039601D02*
X020599Y039529D01*
X020672Y039565D02*
X020672Y039601D01*
X020709Y039637D01*
X020781Y039637D01*
X020817Y039601D01*
X020817Y039565D01*
X020781Y039529D01*
X020709Y039529D01*
X020672Y039565D01*
X020709Y039637D02*
X020672Y039673D01*
X020672Y039709D01*
X020709Y039745D01*
X020781Y039745D01*
X020817Y039709D01*
X020817Y039673D01*
X020781Y039637D01*
X019469Y040176D02*
X019433Y040140D01*
X019361Y040140D01*
X019325Y040176D01*
X019252Y040176D02*
X019216Y040140D01*
X019144Y040140D01*
X019108Y040176D01*
X019034Y040176D02*
X018998Y040140D01*
X018926Y040140D01*
X018890Y040176D01*
X018890Y040320D01*
X018926Y040356D01*
X018998Y040356D01*
X019034Y040320D01*
X019108Y040320D02*
X019144Y040356D01*
X019216Y040356D01*
X019252Y040320D01*
X019252Y040284D01*
X019216Y040248D01*
X019252Y040212D01*
X019252Y040176D01*
X019216Y040248D02*
X019180Y040248D01*
X019325Y040320D02*
X019361Y040356D01*
X019433Y040356D01*
X019469Y040320D01*
X019469Y040284D01*
X019433Y040248D01*
X019469Y040212D01*
X019469Y040176D01*
X019433Y040248D02*
X019397Y040248D01*
X017452Y040090D02*
X017308Y040090D01*
X017380Y040090D02*
X017380Y040306D01*
X017308Y040234D01*
X017234Y040090D02*
X017090Y040090D01*
X017090Y040306D01*
X013897Y036856D02*
X013897Y036640D01*
X013825Y036640D02*
X013969Y036640D01*
X013825Y036784D02*
X013897Y036856D01*
X013752Y036820D02*
X013752Y036784D01*
X013716Y036748D01*
X013752Y036712D01*
X013752Y036676D01*
X013716Y036640D01*
X013644Y036640D01*
X013608Y036676D01*
X013534Y036676D02*
X013498Y036640D01*
X013426Y036640D01*
X013390Y036676D01*
X013390Y036820D01*
X013426Y036856D01*
X013498Y036856D01*
X013534Y036820D01*
X013608Y036820D02*
X013644Y036856D01*
X013716Y036856D01*
X013752Y036820D01*
X013716Y036748D02*
X013680Y036748D01*
X013716Y035606D02*
X013752Y035570D01*
X013752Y035534D01*
X013716Y035498D01*
X013752Y035462D01*
X013752Y035426D01*
X013716Y035390D01*
X013644Y035390D01*
X013608Y035426D01*
X013534Y035426D02*
X013498Y035390D01*
X013426Y035390D01*
X013390Y035426D01*
X013390Y035570D01*
X013426Y035606D01*
X013498Y035606D01*
X013534Y035570D01*
X013608Y035570D02*
X013644Y035606D01*
X013716Y035606D01*
X013716Y035498D02*
X013680Y035498D01*
X013825Y035570D02*
X013861Y035606D01*
X013933Y035606D01*
X013969Y035570D01*
X013969Y035534D01*
X013825Y035390D01*
X013969Y035390D01*
X011216Y039140D02*
X011216Y039356D01*
X011108Y039248D01*
X011252Y039248D01*
X011034Y039248D02*
X010998Y039212D01*
X010890Y039212D01*
X010890Y039140D02*
X010890Y039356D01*
X010998Y039356D01*
X011034Y039320D01*
X011034Y039248D01*
X010962Y039212D02*
X011034Y039140D01*
X012137Y025219D02*
X012137Y025075D01*
X012029Y025183D01*
X012245Y025183D01*
X012245Y025002D02*
X012245Y024858D01*
X012245Y024930D02*
X012029Y024930D01*
X012101Y024858D01*
X012065Y024784D02*
X012029Y024748D01*
X012029Y024676D01*
X012065Y024640D01*
X012209Y024640D01*
X012245Y024676D01*
X012245Y024748D01*
X012209Y024784D01*
X013029Y024748D02*
X013029Y024676D01*
X013065Y024640D01*
X013209Y024640D01*
X013245Y024676D01*
X013245Y024748D01*
X013209Y024784D01*
X013245Y024858D02*
X013245Y025002D01*
X013245Y024930D02*
X013029Y024930D01*
X013101Y024858D01*
X013065Y024784D02*
X013029Y024748D01*
X013065Y025075D02*
X013029Y025111D01*
X013029Y025183D01*
X013065Y025219D01*
X013101Y025219D01*
X013137Y025183D01*
X013173Y025219D01*
X013209Y025219D01*
X013245Y025183D01*
X013245Y025111D01*
X013209Y025075D01*
X013137Y025147D02*
X013137Y025183D01*
X011231Y023906D02*
X011231Y023834D01*
X011195Y023797D01*
X011159Y023797D01*
X011123Y023834D01*
X011123Y023906D01*
X011159Y023942D01*
X011195Y023942D01*
X011231Y023906D01*
X011123Y023906D02*
X011087Y023942D01*
X011051Y023942D01*
X011015Y023906D01*
X011015Y023834D01*
X011051Y023797D01*
X011087Y023797D01*
X011123Y023834D01*
X011231Y023724D02*
X011231Y023580D01*
X011231Y023652D02*
X011015Y023652D01*
X011087Y023580D01*
X011051Y023507D02*
X011015Y023471D01*
X011015Y023399D01*
X011051Y023362D01*
X011195Y023362D01*
X011231Y023399D01*
X011231Y023471D01*
X011195Y023507D01*
X011880Y021750D02*
X015380Y021750D01*
X016051Y023362D02*
X016195Y023362D01*
X016231Y023399D01*
X016231Y023471D01*
X016195Y023507D01*
X016231Y023580D02*
X016087Y023724D01*
X016051Y023724D01*
X016015Y023688D01*
X016015Y023616D01*
X016051Y023580D01*
X016051Y023507D02*
X016015Y023471D01*
X016015Y023399D01*
X016051Y023362D01*
X016231Y023580D02*
X016231Y023724D01*
X016195Y023797D02*
X016051Y023942D01*
X016195Y023942D01*
X016231Y023906D01*
X016231Y023834D01*
X016195Y023797D01*
X016051Y023797D01*
X016015Y023834D01*
X016015Y023906D01*
X016051Y023942D01*
X013731Y019817D02*
X013731Y019672D01*
X013587Y019817D01*
X013551Y019817D01*
X013515Y019781D01*
X013515Y019709D01*
X013551Y019672D01*
X013515Y019527D02*
X013731Y019527D01*
X013731Y019455D02*
X013731Y019599D01*
X013587Y019455D02*
X013515Y019527D01*
X013551Y019382D02*
X013515Y019346D01*
X013515Y019274D01*
X013551Y019237D01*
X013695Y019237D01*
X013731Y019274D01*
X013731Y019346D01*
X013695Y019382D01*
X013731Y019164D02*
X013515Y019164D01*
X013515Y019020D02*
X013731Y019164D01*
X013731Y019020D02*
X013515Y019020D01*
X013515Y018947D02*
X013515Y018802D01*
X013731Y018802D01*
X013731Y018947D01*
X013623Y018875D02*
X013623Y018802D01*
X013767Y018729D02*
X013767Y018585D01*
X013731Y018512D02*
X013659Y018440D01*
X013659Y018476D02*
X013659Y018367D01*
X013731Y018367D02*
X013515Y018367D01*
X013515Y018476D01*
X013551Y018512D01*
X013623Y018512D01*
X013659Y018476D01*
X012767Y018585D02*
X012767Y018729D01*
X012731Y018802D02*
X012731Y018947D01*
X012731Y019020D02*
X012515Y019020D01*
X012731Y019164D01*
X012515Y019164D01*
X012551Y019237D02*
X012695Y019237D01*
X012731Y019274D01*
X012731Y019346D01*
X012695Y019382D01*
X012731Y019455D02*
X012731Y019599D01*
X012731Y019527D02*
X012515Y019527D01*
X012587Y019455D01*
X012551Y019382D02*
X012515Y019346D01*
X012515Y019274D01*
X012551Y019237D01*
X012515Y018947D02*
X012515Y018802D01*
X012731Y018802D01*
X012623Y018802D02*
X012623Y018875D01*
X012623Y018512D02*
X012659Y018476D01*
X012659Y018367D01*
X012731Y018367D02*
X012515Y018367D01*
X012515Y018476D01*
X012551Y018512D01*
X012623Y018512D01*
X012659Y018440D02*
X012731Y018512D01*
X012731Y019672D02*
X012731Y019817D01*
X012731Y019745D02*
X012515Y019745D01*
X012587Y019672D01*
X012245Y016969D02*
X012245Y016825D01*
X012101Y016969D01*
X012065Y016969D01*
X012029Y016933D01*
X012029Y016861D01*
X012065Y016825D01*
X012029Y016680D02*
X012245Y016680D01*
X012245Y016608D02*
X012245Y016752D01*
X012101Y016608D02*
X012029Y016680D01*
X012065Y016534D02*
X012029Y016498D01*
X012029Y016426D01*
X012065Y016390D01*
X012209Y016390D01*
X012245Y016426D01*
X012245Y016498D01*
X012209Y016534D01*
X013029Y016498D02*
X013029Y016426D01*
X013065Y016390D01*
X013209Y016390D01*
X013245Y016426D01*
X013245Y016498D01*
X013209Y016534D01*
X013245Y016608D02*
X013245Y016752D01*
X013245Y016680D02*
X013029Y016680D01*
X013101Y016608D01*
X013065Y016534D02*
X013029Y016498D01*
X013101Y016825D02*
X013029Y016897D01*
X013245Y016897D01*
X013245Y016825D02*
X013245Y016969D01*
X011231Y015406D02*
X011195Y015442D01*
X011159Y015442D01*
X011123Y015406D01*
X011123Y015297D01*
X011195Y015297D01*
X011231Y015334D01*
X011231Y015406D01*
X011123Y015297D02*
X011051Y015370D01*
X011015Y015442D01*
X011015Y015152D02*
X011231Y015152D01*
X011231Y015080D02*
X011231Y015224D01*
X011087Y015080D02*
X011015Y015152D01*
X011051Y015007D02*
X011015Y014971D01*
X011015Y014899D01*
X011051Y014862D01*
X011195Y014862D01*
X011231Y014899D01*
X011231Y014971D01*
X011195Y015007D01*
X011880Y013250D02*
X015380Y013250D01*
X016051Y014862D02*
X016195Y014862D01*
X016231Y014899D01*
X016231Y014971D01*
X016195Y015007D01*
X016231Y015080D02*
X016231Y015224D01*
X016231Y015152D02*
X016015Y015152D01*
X016087Y015080D01*
X016051Y015007D02*
X016015Y014971D01*
X016015Y014899D01*
X016051Y014862D01*
X016051Y015297D02*
X016087Y015297D01*
X016123Y015334D01*
X016123Y015442D01*
X016195Y015442D02*
X016051Y015442D01*
X016015Y015406D01*
X016015Y015334D01*
X016051Y015297D01*
X016195Y015297D02*
X016231Y015334D01*
X016231Y015406D01*
X016195Y015442D01*
X018904Y017426D02*
X018940Y017390D01*
X019084Y017390D01*
X019120Y017426D01*
X019120Y017498D01*
X019084Y017534D01*
X019156Y017608D02*
X019156Y017752D01*
X019120Y017825D02*
X018904Y017825D01*
X018904Y017933D01*
X018940Y017969D01*
X019012Y017969D01*
X019048Y017933D01*
X019048Y017825D01*
X019048Y017897D02*
X019120Y017969D01*
X019084Y018043D02*
X019120Y018079D01*
X019120Y018151D01*
X019084Y018187D01*
X019048Y018187D01*
X019012Y018151D01*
X019012Y018079D01*
X018976Y018043D01*
X018940Y018043D01*
X018904Y018079D01*
X018904Y018151D01*
X018940Y018187D01*
X018904Y018260D02*
X018904Y018404D01*
X018904Y018332D02*
X019120Y018332D01*
X018940Y017534D02*
X018904Y017498D01*
X018904Y017426D01*
X019654Y016180D02*
X019870Y016180D01*
X019870Y016108D02*
X019870Y016252D01*
X019726Y016108D02*
X019654Y016180D01*
X019690Y016034D02*
X019654Y015998D01*
X019654Y015926D01*
X019690Y015890D01*
X019834Y015890D01*
X019870Y015926D01*
X019870Y015998D01*
X019834Y016034D01*
X020765Y018455D02*
X020765Y018563D01*
X020801Y018599D01*
X020873Y018599D01*
X020909Y018563D01*
X020909Y018455D01*
X020909Y018527D02*
X020981Y018599D01*
X020945Y018672D02*
X020981Y018709D01*
X020981Y018781D01*
X020945Y018817D01*
X020909Y018817D01*
X020873Y018781D01*
X020873Y018745D01*
X020873Y018781D02*
X020837Y018817D01*
X020801Y018817D01*
X020765Y018781D01*
X020765Y018709D01*
X020801Y018672D01*
X020765Y018455D02*
X020981Y018455D01*
X021515Y018455D02*
X021515Y018563D01*
X021551Y018599D01*
X021623Y018599D01*
X021659Y018563D01*
X021659Y018455D01*
X021659Y018527D02*
X021731Y018599D01*
X021731Y018672D02*
X021587Y018817D01*
X021551Y018817D01*
X021515Y018781D01*
X021515Y018709D01*
X021551Y018672D01*
X021731Y018672D02*
X021731Y018817D01*
X021731Y018455D02*
X021515Y018455D01*
X022265Y018455D02*
X022265Y018563D01*
X022301Y018599D01*
X022373Y018599D01*
X022409Y018563D01*
X022409Y018455D01*
X022409Y018527D02*
X022481Y018599D01*
X022481Y018672D02*
X022481Y018817D01*
X022481Y018745D02*
X022265Y018745D01*
X022337Y018672D01*
X022265Y018455D02*
X022481Y018455D01*
X020495Y019390D02*
X020279Y019390D01*
X020279Y019498D01*
X020315Y019534D01*
X020387Y019534D01*
X020423Y019498D01*
X020423Y019390D01*
X020423Y019462D02*
X020495Y019534D01*
X020495Y019608D02*
X020459Y019608D01*
X020315Y019752D01*
X020279Y019752D01*
X020279Y019608D01*
X020552Y021529D02*
X020697Y021529D01*
X020770Y021529D02*
X020770Y021745D01*
X020842Y021673D01*
X020914Y021745D01*
X020914Y021529D01*
X020987Y021565D02*
X020987Y021709D01*
X021024Y021745D01*
X021096Y021745D01*
X021132Y021709D01*
X021132Y021565D01*
X021096Y021529D01*
X021024Y021529D01*
X020987Y021565D01*
X021205Y021601D02*
X021277Y021529D01*
X021349Y021601D01*
X021349Y021745D01*
X021422Y021745D02*
X021422Y021529D01*
X021567Y021529D01*
X021495Y021637D02*
X021422Y021637D01*
X021422Y021745D02*
X021567Y021745D01*
X021205Y021745D02*
X021205Y021601D01*
X020697Y021745D02*
X020552Y021745D01*
X020552Y021529D01*
X020552Y021637D02*
X020625Y021637D01*
X019106Y021709D02*
X019070Y021672D01*
X019106Y021709D02*
X019106Y021781D01*
X019070Y021817D01*
X018998Y021817D01*
X018962Y021781D01*
X018962Y021745D01*
X018998Y021672D01*
X018890Y021672D01*
X018890Y021817D01*
X018926Y021599D02*
X018962Y021599D01*
X018998Y021563D01*
X019034Y021599D01*
X019070Y021599D01*
X019106Y021563D01*
X019106Y021491D01*
X019070Y021455D01*
X019070Y021382D02*
X019106Y021346D01*
X019106Y021274D01*
X019070Y021237D01*
X018926Y021237D01*
X018890Y021274D01*
X018890Y021346D01*
X018926Y021382D01*
X018926Y021455D02*
X018890Y021491D01*
X018890Y021563D01*
X018926Y021599D01*
X018998Y021563D02*
X018998Y021527D01*
X022955Y021529D02*
X022955Y021745D01*
X023063Y021745D01*
X023099Y021709D01*
X023099Y021637D01*
X023063Y021601D01*
X022955Y021601D01*
X023027Y021601D02*
X023099Y021529D01*
X023172Y021565D02*
X023209Y021529D01*
X023281Y021529D01*
X023317Y021565D01*
X023317Y021601D01*
X023281Y021637D01*
X023172Y021637D01*
X023172Y021565D01*
X023172Y021637D02*
X023245Y021709D01*
X023317Y021745D01*
X024654Y022176D02*
X024690Y022140D01*
X024834Y022140D01*
X024870Y022176D01*
X024870Y022248D01*
X024834Y022284D01*
X024834Y022358D02*
X024870Y022394D01*
X024870Y022466D01*
X024834Y022502D01*
X024798Y022502D01*
X024762Y022466D01*
X024762Y022430D01*
X024762Y022466D02*
X024726Y022502D01*
X024690Y022502D01*
X024654Y022466D01*
X024654Y022394D01*
X024690Y022358D01*
X024690Y022284D02*
X024654Y022248D01*
X024654Y022176D01*
X024762Y022575D02*
X024762Y022683D01*
X024798Y022719D01*
X024834Y022719D01*
X024870Y022683D01*
X024870Y022611D01*
X024834Y022575D01*
X024762Y022575D01*
X024690Y022647D01*
X024654Y022719D01*
X025891Y019781D02*
X025891Y019636D01*
X025999Y019636D01*
X025963Y019708D01*
X025963Y019744D01*
X025999Y019781D01*
X026071Y019781D01*
X026108Y019744D01*
X026108Y019672D01*
X026071Y019636D01*
X026108Y019563D02*
X026035Y019491D01*
X026035Y019527D02*
X026035Y019419D01*
X026108Y019419D02*
X025891Y019419D01*
X025891Y019527D01*
X025927Y019563D01*
X025999Y019563D01*
X026035Y019527D01*
X025834Y016002D02*
X025798Y016002D01*
X025762Y015966D01*
X025762Y015858D01*
X025834Y015858D01*
X025870Y015894D01*
X025870Y015966D01*
X025834Y016002D01*
X025690Y015930D02*
X025762Y015858D01*
X025690Y015930D02*
X025654Y016002D01*
X025690Y015784D02*
X025654Y015748D01*
X025654Y015676D01*
X025690Y015640D01*
X025834Y015640D01*
X025870Y015676D01*
X025870Y015748D01*
X025834Y015784D01*
X019584Y007344D02*
X019620Y007308D01*
X019620Y007236D01*
X019584Y007200D01*
X019548Y007200D01*
X019512Y007236D01*
X019512Y007308D01*
X019548Y007344D01*
X019584Y007344D01*
X019512Y007308D02*
X019476Y007344D01*
X019440Y007344D01*
X019404Y007308D01*
X019404Y007236D01*
X019440Y007200D01*
X019476Y007200D01*
X019512Y007236D01*
X019548Y007127D02*
X019584Y007127D01*
X019620Y007091D01*
X019620Y007019D01*
X019584Y006983D01*
X019584Y006909D02*
X019620Y006873D01*
X019620Y006801D01*
X019584Y006765D01*
X019440Y006765D01*
X019404Y006801D01*
X019404Y006873D01*
X019440Y006909D01*
X019440Y006983D02*
X019404Y007019D01*
X019404Y007091D01*
X019440Y007127D01*
X019476Y007127D01*
X019512Y007091D01*
X019548Y007127D01*
X019512Y007091D02*
X019512Y007055D01*
X019245Y007091D02*
X019245Y007019D01*
X019209Y006983D01*
X019209Y006909D02*
X019245Y006873D01*
X019245Y006801D01*
X019209Y006765D01*
X019065Y006765D01*
X019029Y006801D01*
X019029Y006873D01*
X019065Y006909D01*
X019065Y006983D02*
X019029Y007019D01*
X019029Y007091D01*
X019065Y007127D01*
X019101Y007127D01*
X019137Y007091D01*
X019173Y007127D01*
X019209Y007127D01*
X019245Y007091D01*
X019137Y007091D02*
X019137Y007055D01*
X019209Y007200D02*
X019245Y007200D01*
X019209Y007200D02*
X019065Y007344D01*
X019029Y007344D01*
X019029Y007200D01*
X018392Y007197D02*
X018392Y007052D01*
X018356Y006979D02*
X018284Y006907D01*
X018284Y006943D02*
X018284Y006835D01*
X018356Y006835D02*
X018140Y006835D01*
X018140Y006943D01*
X018176Y006979D01*
X018248Y006979D01*
X018284Y006943D01*
X018017Y007052D02*
X018017Y007197D01*
X017981Y007270D02*
X017981Y007378D01*
X017945Y007414D01*
X017909Y007414D01*
X017873Y007378D01*
X017873Y007270D01*
X017873Y007378D02*
X017837Y007414D01*
X017801Y007414D01*
X017765Y007378D01*
X017765Y007270D01*
X017981Y007270D01*
X018140Y007270D02*
X018140Y007378D01*
X018176Y007414D01*
X018212Y007414D01*
X018248Y007378D01*
X018248Y007270D01*
X018248Y007378D02*
X018284Y007414D01*
X018320Y007414D01*
X018356Y007378D01*
X018356Y007270D01*
X018140Y007270D01*
X018140Y007487D02*
X018320Y007487D01*
X018356Y007524D01*
X018356Y007596D01*
X018320Y007632D01*
X018140Y007632D01*
X018140Y007705D02*
X018140Y007849D01*
X018140Y007777D02*
X018356Y007777D01*
X018320Y007922D02*
X018356Y007959D01*
X018356Y008031D01*
X018320Y008067D01*
X018284Y008067D01*
X018248Y008031D01*
X018248Y007995D01*
X018248Y008031D02*
X018212Y008067D01*
X018176Y008067D01*
X018140Y008031D01*
X018140Y007959D01*
X018176Y007922D01*
X017981Y008031D02*
X017765Y008031D01*
X017873Y007922D01*
X017873Y008067D01*
X017765Y007849D02*
X017765Y007705D01*
X017765Y007777D02*
X017981Y007777D01*
X017945Y007632D02*
X017765Y007632D01*
X017765Y007487D02*
X017945Y007487D01*
X017981Y007524D01*
X017981Y007596D01*
X017945Y007632D01*
X017606Y007596D02*
X017606Y007524D01*
X017570Y007487D01*
X017390Y007487D01*
X017426Y007414D02*
X017462Y007414D01*
X017498Y007378D01*
X017498Y007270D01*
X017498Y007378D02*
X017534Y007414D01*
X017570Y007414D01*
X017606Y007378D01*
X017606Y007270D01*
X017390Y007270D01*
X017390Y007378D01*
X017426Y007414D01*
X017231Y007378D02*
X017231Y007270D01*
X017015Y007270D01*
X017015Y007378D01*
X017051Y007414D01*
X017087Y007414D01*
X017123Y007378D01*
X017123Y007270D01*
X017123Y007378D02*
X017159Y007414D01*
X017195Y007414D01*
X017231Y007378D01*
X017195Y007487D02*
X017231Y007524D01*
X017231Y007596D01*
X017195Y007632D01*
X017015Y007632D01*
X017015Y007705D02*
X017015Y007849D01*
X017015Y007777D02*
X017231Y007777D01*
X017231Y007922D02*
X017087Y008067D01*
X017051Y008067D01*
X017015Y008031D01*
X017015Y007959D01*
X017051Y007922D01*
X017231Y007922D02*
X017231Y008067D01*
X017390Y007995D02*
X017606Y007995D01*
X017606Y008067D02*
X017606Y007922D01*
X017462Y007922D02*
X017390Y007995D01*
X017390Y007849D02*
X017390Y007705D01*
X017390Y007777D02*
X017606Y007777D01*
X017570Y007632D02*
X017390Y007632D01*
X017570Y007632D02*
X017606Y007596D01*
X017642Y007197D02*
X017642Y007052D01*
X017606Y006979D02*
X017534Y006907D01*
X017534Y006943D02*
X017534Y006835D01*
X017606Y006835D02*
X017390Y006835D01*
X017390Y006943D01*
X017426Y006979D01*
X017498Y006979D01*
X017534Y006943D01*
X017765Y006943D02*
X017801Y006979D01*
X017873Y006979D01*
X017909Y006943D01*
X017909Y006835D01*
X017909Y006907D02*
X017981Y006979D01*
X017981Y006835D02*
X017765Y006835D01*
X017765Y006943D01*
X017267Y007052D02*
X017267Y007197D01*
X017231Y006979D02*
X017159Y006907D01*
X017159Y006943D02*
X017159Y006835D01*
X017231Y006835D02*
X017015Y006835D01*
X017015Y006943D01*
X017051Y006979D01*
X017123Y006979D01*
X017159Y006943D01*
X017195Y007487D02*
X017015Y007487D01*
X016334Y008140D02*
X016370Y008176D01*
X016370Y008248D01*
X016334Y008284D01*
X016370Y008358D02*
X016226Y008502D01*
X016190Y008502D01*
X016154Y008466D01*
X016154Y008394D01*
X016190Y008358D01*
X016190Y008284D02*
X016154Y008248D01*
X016154Y008176D01*
X016190Y008140D01*
X016334Y008140D01*
X016370Y008358D02*
X016370Y008502D01*
X016370Y008575D02*
X016334Y008575D01*
X016190Y008719D01*
X016154Y008719D01*
X016154Y008575D01*
X015995Y008502D02*
X015995Y008358D01*
X015851Y008502D01*
X015815Y008502D01*
X015779Y008466D01*
X015779Y008394D01*
X015815Y008358D01*
X015815Y008284D02*
X015779Y008248D01*
X015779Y008176D01*
X015815Y008140D01*
X015959Y008140D01*
X015995Y008176D01*
X015995Y008248D01*
X015959Y008284D01*
X015887Y008575D02*
X015887Y008719D01*
X015995Y008683D02*
X015779Y008683D01*
X015887Y008575D01*
X015620Y008611D02*
X015584Y008575D01*
X015620Y008611D02*
X015620Y008683D01*
X015584Y008719D01*
X015512Y008719D01*
X015476Y008683D01*
X015476Y008647D01*
X015512Y008575D01*
X015404Y008575D01*
X015404Y008719D01*
X015440Y008502D02*
X015404Y008466D01*
X015404Y008394D01*
X015440Y008358D01*
X015440Y008284D02*
X015404Y008248D01*
X015404Y008176D01*
X015440Y008140D01*
X015584Y008140D01*
X015620Y008176D01*
X015620Y008248D01*
X015584Y008284D01*
X015620Y008358D02*
X015476Y008502D01*
X015440Y008502D01*
X015620Y008502D02*
X015620Y008358D01*
X013767Y010552D02*
X013767Y010697D01*
X013731Y010770D02*
X013731Y010914D01*
X013731Y010987D02*
X013515Y010987D01*
X013731Y011132D01*
X013515Y011132D01*
X013551Y011205D02*
X013695Y011205D01*
X013731Y011241D01*
X013731Y011313D01*
X013695Y011349D01*
X013695Y011422D02*
X013731Y011459D01*
X013731Y011531D01*
X013695Y011567D01*
X013659Y011567D01*
X013623Y011531D01*
X013623Y011422D01*
X013695Y011422D01*
X013623Y011422D02*
X013551Y011495D01*
X013515Y011567D01*
X013551Y011349D02*
X013515Y011313D01*
X013515Y011241D01*
X013551Y011205D01*
X013515Y010914D02*
X013515Y010770D01*
X013731Y010770D01*
X013623Y010770D02*
X013623Y010842D01*
X013623Y010479D02*
X013659Y010443D01*
X013659Y010335D01*
X013659Y010407D02*
X013731Y010479D01*
X013623Y010479D02*
X013551Y010479D01*
X013515Y010443D01*
X013515Y010335D01*
X013731Y010335D01*
X012767Y010552D02*
X012767Y010697D01*
X012731Y010770D02*
X012731Y010914D01*
X012731Y010987D02*
X012515Y010987D01*
X012731Y011132D01*
X012515Y011132D01*
X012551Y011205D02*
X012695Y011205D01*
X012731Y011241D01*
X012731Y011313D01*
X012695Y011349D01*
X012695Y011422D02*
X012731Y011459D01*
X012731Y011531D01*
X012695Y011567D01*
X012623Y011567D01*
X012587Y011531D01*
X012587Y011495D01*
X012623Y011422D01*
X012515Y011422D01*
X012515Y011567D01*
X012551Y011349D02*
X012515Y011313D01*
X012515Y011241D01*
X012551Y011205D01*
X012515Y010914D02*
X012515Y010770D01*
X012731Y010770D01*
X012623Y010770D02*
X012623Y010842D01*
X012623Y010479D02*
X012659Y010443D01*
X012659Y010335D01*
X012659Y010407D02*
X012731Y010479D01*
X012623Y010479D02*
X012551Y010479D01*
X012515Y010443D01*
X012515Y010335D01*
X012731Y010335D01*
X010380Y013250D02*
X006880Y013250D01*
X006195Y014865D02*
X006231Y014901D01*
X006231Y014973D01*
X006195Y015009D01*
X006231Y015082D02*
X006231Y015227D01*
X006231Y015155D02*
X006015Y015155D01*
X006087Y015082D01*
X006051Y015009D02*
X006015Y014973D01*
X006015Y014901D01*
X006051Y014865D01*
X006195Y014865D01*
X006195Y015300D02*
X006231Y015336D01*
X006231Y015408D01*
X006195Y015444D01*
X006123Y015444D01*
X006087Y015408D01*
X006087Y015372D01*
X006123Y015300D01*
X006015Y015300D01*
X006015Y015444D01*
X007065Y016515D02*
X007209Y016515D01*
X007245Y016551D01*
X007245Y016623D01*
X007209Y016659D01*
X007245Y016733D02*
X007245Y016877D01*
X007245Y016805D02*
X007029Y016805D01*
X007101Y016733D01*
X007065Y016659D02*
X007029Y016623D01*
X007029Y016551D01*
X007065Y016515D01*
X007065Y016950D02*
X007029Y016986D01*
X007029Y017058D01*
X007065Y017094D01*
X007209Y016950D01*
X007245Y016986D01*
X007245Y017058D01*
X007209Y017094D01*
X007065Y017094D01*
X007065Y016950D02*
X007209Y016950D01*
X008029Y016841D02*
X008029Y016769D01*
X008065Y016733D01*
X008101Y016733D01*
X008137Y016769D01*
X008137Y016877D01*
X008209Y016877D02*
X008065Y016877D01*
X008029Y016841D01*
X008209Y016877D02*
X008245Y016841D01*
X008245Y016769D01*
X008209Y016733D01*
X008209Y016659D02*
X008245Y016623D01*
X008245Y016551D01*
X008209Y016515D01*
X008065Y016515D01*
X008029Y016551D01*
X008029Y016623D01*
X008065Y016659D01*
X007731Y018585D02*
X007515Y018585D01*
X007515Y018693D01*
X007551Y018729D01*
X007623Y018729D01*
X007659Y018693D01*
X007659Y018585D01*
X007659Y018657D02*
X007731Y018729D01*
X007767Y018802D02*
X007767Y018947D01*
X007731Y019020D02*
X007731Y019164D01*
X007731Y019237D02*
X007515Y019237D01*
X007731Y019382D01*
X007515Y019382D01*
X007551Y019455D02*
X007515Y019491D01*
X007515Y019563D01*
X007551Y019599D01*
X007587Y019672D02*
X007515Y019745D01*
X007731Y019745D01*
X007731Y019817D02*
X007731Y019672D01*
X007695Y019599D02*
X007731Y019563D01*
X007731Y019491D01*
X007695Y019455D01*
X007551Y019455D01*
X007515Y019164D02*
X007515Y019020D01*
X007731Y019020D01*
X007623Y019020D02*
X007623Y019092D01*
X008515Y019020D02*
X008731Y019020D01*
X008731Y019164D01*
X008731Y019237D02*
X008515Y019237D01*
X008731Y019382D01*
X008515Y019382D01*
X008551Y019455D02*
X008515Y019491D01*
X008515Y019563D01*
X008551Y019599D01*
X008551Y019672D02*
X008515Y019709D01*
X008515Y019781D01*
X008551Y019817D01*
X008587Y019817D01*
X008731Y019672D01*
X008731Y019817D01*
X008695Y019599D02*
X008731Y019563D01*
X008731Y019491D01*
X008695Y019455D01*
X008551Y019455D01*
X008515Y019164D02*
X008515Y019020D01*
X008623Y019020D02*
X008623Y019092D01*
X008767Y018947D02*
X008767Y018802D01*
X008731Y018729D02*
X008659Y018657D01*
X008659Y018693D02*
X008659Y018585D01*
X008731Y018585D02*
X008515Y018585D01*
X008515Y018693D01*
X008551Y018729D01*
X008623Y018729D01*
X008659Y018693D01*
X010380Y021750D02*
X006880Y021750D01*
X006195Y023362D02*
X006231Y023399D01*
X006231Y023471D01*
X006195Y023507D01*
X006231Y023580D02*
X006231Y023724D01*
X006231Y023652D02*
X006015Y023652D01*
X006087Y023580D01*
X006051Y023507D02*
X006015Y023471D01*
X006015Y023399D01*
X006051Y023362D01*
X006195Y023362D01*
X006195Y023797D02*
X006231Y023797D01*
X006195Y023797D02*
X006051Y023942D01*
X006015Y023942D01*
X006015Y023797D01*
X007029Y024676D02*
X007065Y024640D01*
X007209Y024640D01*
X007245Y024676D01*
X007245Y024748D01*
X007209Y024784D01*
X007209Y024858D02*
X007173Y024858D01*
X007137Y024894D01*
X007137Y024966D01*
X007173Y025002D01*
X007209Y025002D01*
X007245Y024966D01*
X007245Y024894D01*
X007209Y024858D01*
X007137Y024894D02*
X007101Y024858D01*
X007065Y024858D01*
X007029Y024894D01*
X007029Y024966D01*
X007065Y025002D01*
X007101Y025002D01*
X007137Y024966D01*
X007065Y024784D02*
X007029Y024748D01*
X007029Y024676D01*
X008029Y024676D02*
X008065Y024640D01*
X008209Y024640D01*
X008245Y024676D01*
X008245Y024748D01*
X008209Y024784D01*
X008209Y024858D02*
X008245Y024858D01*
X008209Y024858D02*
X008065Y025002D01*
X008029Y025002D01*
X008029Y024858D01*
X008065Y024784D02*
X008029Y024748D01*
X008029Y024676D01*
X007695Y011567D02*
X007731Y011531D01*
X007731Y011459D01*
X007695Y011422D01*
X007695Y011349D02*
X007731Y011313D01*
X007731Y011241D01*
X007695Y011205D01*
X007551Y011205D01*
X007515Y011241D01*
X007515Y011313D01*
X007551Y011349D01*
X007551Y011422D02*
X007515Y011459D01*
X007515Y011531D01*
X007551Y011567D01*
X007587Y011567D01*
X007623Y011531D01*
X007659Y011567D01*
X007695Y011567D01*
X007623Y011531D02*
X007623Y011495D01*
X007731Y011132D02*
X007515Y011132D01*
X007515Y010987D02*
X007731Y011132D01*
X007731Y010987D02*
X007515Y010987D01*
X007515Y010914D02*
X007515Y010770D01*
X007731Y010770D01*
X007731Y010914D01*
X007623Y010842D02*
X007623Y010770D01*
X007767Y010697D02*
X007767Y010552D01*
X007731Y010479D02*
X007659Y010407D01*
X007659Y010443D02*
X007659Y010335D01*
X007731Y010335D02*
X007515Y010335D01*
X007515Y010443D01*
X007551Y010479D01*
X007623Y010479D01*
X007659Y010443D01*
X008515Y010443D02*
X008551Y010479D01*
X008623Y010479D01*
X008659Y010443D01*
X008659Y010335D01*
X008659Y010407D02*
X008731Y010479D01*
X008767Y010552D02*
X008767Y010697D01*
X008731Y010770D02*
X008731Y010914D01*
X008731Y010987D02*
X008515Y010987D01*
X008731Y011132D01*
X008515Y011132D01*
X008551Y011205D02*
X008515Y011241D01*
X008515Y011313D01*
X008551Y011349D01*
X008623Y011422D02*
X008623Y011567D01*
X008515Y011531D02*
X008623Y011422D01*
X008695Y011349D02*
X008731Y011313D01*
X008731Y011241D01*
X008695Y011205D01*
X008551Y011205D01*
X008515Y010914D02*
X008515Y010770D01*
X008731Y010770D01*
X008623Y010770D02*
X008623Y010842D01*
X008515Y010443D02*
X008515Y010335D01*
X008731Y010335D01*
X008731Y011531D02*
X008515Y011531D01*
X017404Y009219D02*
X017440Y009147D01*
X017512Y009075D01*
X017512Y009183D01*
X017548Y009219D01*
X017584Y009219D01*
X017620Y009183D01*
X017620Y009111D01*
X017584Y009075D01*
X017512Y009075D01*
X017476Y009002D02*
X017440Y009002D01*
X017404Y008966D01*
X017404Y008894D01*
X017440Y008858D01*
X017440Y008784D02*
X017404Y008748D01*
X017404Y008676D01*
X017440Y008640D01*
X017584Y008640D01*
X017620Y008676D01*
X017620Y008748D01*
X017584Y008784D01*
X017620Y008858D02*
X017476Y009002D01*
X017620Y009002D02*
X017620Y008858D01*
X022890Y033265D02*
X022890Y033481D01*
X022998Y033481D01*
X023034Y033445D01*
X023034Y033373D01*
X022998Y033337D01*
X022890Y033337D01*
X022962Y033337D02*
X023034Y033265D01*
X023108Y033265D02*
X023108Y033409D01*
X023180Y033481D01*
X023252Y033409D01*
X023252Y033265D01*
X023325Y033265D02*
X023433Y033265D01*
X023469Y033301D01*
X023469Y033445D01*
X023433Y033481D01*
X023325Y033481D01*
X023325Y033265D01*
X023252Y033373D02*
X023108Y033373D01*
X023543Y033337D02*
X023651Y033337D01*
X023687Y033373D01*
X023687Y033445D01*
X023651Y033481D01*
X023543Y033481D01*
X023543Y033265D01*
X023615Y033337D02*
X023687Y033265D01*
X023760Y033265D02*
X023904Y033265D01*
X023832Y033265D02*
X023832Y033481D01*
X023760Y033409D01*
X023978Y033409D02*
X024050Y033481D01*
X024122Y033409D01*
X024122Y033265D01*
X024122Y033373D02*
X023978Y033373D01*
X023978Y033409D02*
X023978Y033265D01*
X023978Y034265D02*
X023978Y034409D01*
X024050Y034481D01*
X024122Y034409D01*
X024122Y034265D01*
X024122Y034373D02*
X023978Y034373D01*
X023904Y034301D02*
X023868Y034265D01*
X023796Y034265D01*
X023760Y034301D01*
X023904Y034445D01*
X023904Y034301D01*
X023760Y034301D02*
X023760Y034445D01*
X023796Y034481D01*
X023868Y034481D01*
X023904Y034445D01*
X023687Y034445D02*
X023687Y034373D01*
X023651Y034337D01*
X023543Y034337D01*
X023615Y034337D02*
X023687Y034265D01*
X023543Y034265D02*
X023543Y034481D01*
X023651Y034481D01*
X023687Y034445D01*
X023469Y034445D02*
X023433Y034481D01*
X023325Y034481D01*
X023325Y034265D01*
X023433Y034265D01*
X023469Y034301D01*
X023469Y034445D01*
X023252Y034409D02*
X023252Y034265D01*
X023252Y034373D02*
X023108Y034373D01*
X023108Y034409D02*
X023180Y034481D01*
X023252Y034409D01*
X023108Y034409D02*
X023108Y034265D01*
X023034Y034265D02*
X022962Y034337D01*
X022998Y034337D02*
X022890Y034337D01*
X022890Y034265D02*
X022890Y034481D01*
X022998Y034481D01*
X023034Y034445D01*
X023034Y034373D01*
X022998Y034337D01*
X023034Y035265D02*
X022962Y035337D01*
X022998Y035337D02*
X022890Y035337D01*
X022890Y035265D02*
X022890Y035481D01*
X022998Y035481D01*
X023034Y035445D01*
X023034Y035373D01*
X022998Y035337D01*
X023108Y035373D02*
X023252Y035373D01*
X023252Y035409D02*
X023252Y035265D01*
X023325Y035265D02*
X023433Y035265D01*
X023469Y035301D01*
X023469Y035445D01*
X023433Y035481D01*
X023325Y035481D01*
X023325Y035265D01*
X023252Y035409D02*
X023180Y035481D01*
X023108Y035409D01*
X023108Y035265D01*
X023543Y035265D02*
X023543Y035481D01*
X023651Y035481D01*
X023687Y035445D01*
X023687Y035373D01*
X023651Y035337D01*
X023543Y035337D01*
X023615Y035337D02*
X023687Y035265D01*
X023760Y035301D02*
X023904Y035445D01*
X023904Y035301D01*
X023868Y035265D01*
X023796Y035265D01*
X023760Y035301D01*
X023760Y035445D01*
X023796Y035481D01*
X023868Y035481D01*
X023904Y035445D01*
X023978Y035481D02*
X024086Y035481D01*
X024122Y035445D01*
X024122Y035409D01*
X024086Y035373D01*
X023978Y035373D01*
X024086Y035373D02*
X024122Y035337D01*
X024122Y035301D01*
X024086Y035265D01*
X023978Y035265D01*
X023978Y035481D01*
X023978Y036265D02*
X024086Y036265D01*
X024122Y036301D01*
X024122Y036337D01*
X024086Y036373D01*
X023978Y036373D01*
X024086Y036373D02*
X024122Y036409D01*
X024122Y036445D01*
X024086Y036481D01*
X023978Y036481D01*
X023978Y036265D01*
X023904Y036265D02*
X023760Y036265D01*
X023832Y036265D02*
X023832Y036481D01*
X023760Y036409D01*
X023687Y036373D02*
X023651Y036337D01*
X023543Y036337D01*
X023615Y036337D02*
X023687Y036265D01*
X023687Y036373D02*
X023687Y036445D01*
X023651Y036481D01*
X023543Y036481D01*
X023543Y036265D01*
X023469Y036301D02*
X023469Y036445D01*
X023433Y036481D01*
X023325Y036481D01*
X023325Y036265D01*
X023433Y036265D01*
X023469Y036301D01*
X023252Y036265D02*
X023252Y036409D01*
X023180Y036481D01*
X023108Y036409D01*
X023108Y036265D01*
X023034Y036265D02*
X022962Y036337D01*
X022998Y036337D02*
X022890Y036337D01*
X022890Y036265D02*
X022890Y036481D01*
X022998Y036481D01*
X023034Y036445D01*
X023034Y036373D01*
X022998Y036337D01*
X023108Y036373D02*
X023252Y036373D01*
X023426Y038237D02*
X023570Y038237D01*
X023606Y038274D01*
X023606Y038346D01*
X023570Y038382D01*
X023570Y038455D02*
X023606Y038491D01*
X023606Y038563D01*
X023570Y038599D01*
X023534Y038599D01*
X023498Y038563D01*
X023498Y038527D01*
X023498Y038563D02*
X023462Y038599D01*
X023426Y038599D01*
X023390Y038563D01*
X023390Y038491D01*
X023426Y038455D01*
X023426Y038382D02*
X023390Y038346D01*
X023390Y038274D01*
X023426Y038237D01*
X023498Y038672D02*
X023498Y038817D01*
X023390Y038781D02*
X023498Y038672D01*
X023606Y038781D02*
X023390Y038781D01*
D17*
X022790Y019075D02*
X022740Y019075D01*
X022715Y019050D01*
X022668Y019050D02*
X022668Y018950D01*
X022643Y018925D01*
X022593Y018925D01*
X022568Y018950D01*
X022568Y019050D01*
X022593Y019075D01*
X022643Y019075D01*
X022668Y019050D01*
X022618Y018975D02*
X022668Y018925D01*
X022715Y018925D02*
X022815Y019025D01*
X022815Y019050D01*
X022790Y019075D01*
X022815Y018925D02*
X022715Y018925D01*
X021832Y017035D02*
X021832Y016885D01*
X021782Y016885D02*
X021882Y016885D01*
X021782Y016985D02*
X021832Y017035D01*
X021735Y017035D02*
X021735Y016910D01*
X021710Y016885D01*
X021660Y016885D01*
X021635Y016910D01*
X021635Y017035D01*
X020535Y013688D02*
X020535Y013588D01*
X020535Y013638D02*
X020385Y013638D01*
X020435Y013588D01*
X020410Y013540D02*
X020385Y013540D01*
X020410Y013540D02*
X020460Y013490D01*
X020535Y013490D01*
X020460Y013490D02*
X020410Y013440D01*
X020385Y013440D01*
X022656Y008292D02*
X022806Y008292D01*
X022806Y008242D02*
X022806Y008342D01*
X022706Y008242D02*
X022656Y008292D01*
X022681Y008195D02*
X022656Y008170D01*
X022656Y008120D01*
X022681Y008095D01*
X022706Y008095D01*
X022731Y008120D01*
X022731Y008170D01*
X022756Y008195D01*
X022781Y008195D01*
X022806Y008170D01*
X022806Y008120D01*
X022781Y008095D01*
X024465Y018925D02*
X024440Y018950D01*
X024440Y019050D01*
X024465Y019075D01*
X024515Y019075D01*
X024540Y019050D01*
X024540Y018950D01*
X024515Y018925D01*
X024465Y018925D01*
X024490Y018975D02*
X024540Y018925D01*
X024588Y018925D02*
X024688Y018925D01*
X024638Y018925D02*
X024638Y019075D01*
X024588Y019025D01*
D18*
X015721Y030065D02*
X015721Y030695D01*
X015248Y030065D02*
X015012Y030065D01*
X014539Y030065D02*
X014539Y030695D01*
D19*
X018590Y037380D03*
D20*
X017130Y038270D02*
X017130Y036490D01*
X015630Y036490D02*
X015630Y038270D01*
X022348Y039977D02*
X022425Y039900D01*
X022578Y039900D01*
X022655Y039977D01*
X022655Y040130D01*
X022578Y040207D01*
X022501Y040207D01*
X022348Y040130D01*
X022348Y040360D01*
X022655Y040360D01*
X022808Y040360D02*
X022808Y040053D01*
X022962Y039900D01*
X023115Y040053D01*
X023115Y040360D01*
X023269Y040360D02*
X023269Y039900D01*
X023576Y039900D01*
X023729Y039900D02*
X023729Y040360D01*
X024036Y040360D01*
X024190Y040360D02*
X024420Y040360D01*
X024497Y040284D01*
X024497Y039977D01*
X024420Y039900D01*
X024190Y039900D01*
X024190Y040360D01*
X023883Y040130D02*
X023729Y040130D01*
X023729Y039900D02*
X024036Y039900D01*
D21*
X021571Y039894D03*
X021571Y040366D03*
X009189Y040366D03*
X009189Y039894D03*
D22*
X009189Y040130D03*
X021571Y040130D03*
M02*
