G75*
G70*
%OFA0B0*%
%FSLAX24Y24*%
%IPPOS*%
%LPD*%
%AMOC8*
5,1,8,0,0,1.08239X$1,22.5*
%
%ADD10R,0.0010X0.0010*%
%ADD11R,0.0090X0.0010*%
%ADD12R,0.0070X0.0010*%
%ADD13R,0.0170X0.0010*%
%ADD14R,0.0340X0.0010*%
%ADD15R,0.0080X0.0010*%
%ADD16R,0.0350X0.0010*%
%ADD17R,0.0130X0.0010*%
%ADD18R,0.0120X0.0010*%
%ADD19R,0.0150X0.0010*%
%ADD20R,0.0210X0.0010*%
%ADD21R,0.0330X0.0010*%
%ADD22R,0.0190X0.0010*%
%ADD23R,0.0110X0.0010*%
%ADD24R,0.0230X0.0010*%
%ADD25R,0.0280X0.0010*%
%ADD26R,0.0250X0.0010*%
%ADD27R,0.0300X0.0010*%
%ADD28R,0.0260X0.0010*%
%ADD29R,0.0360X0.0010*%
%ADD30R,0.0270X0.0010*%
%ADD31R,0.0290X0.0010*%
%ADD32R,0.0140X0.0010*%
%ADD33R,0.0100X0.0010*%
%ADD34R,0.0240X0.0010*%
%ADD35R,0.0310X0.0010*%
%ADD36R,0.0320X0.0010*%
%ADD37R,0.0160X0.0010*%
%ADD38R,0.0050X0.0010*%
%ADD39R,0.0220X0.0010*%
%ADD40R,0.0020X0.0010*%
%ADD41R,0.0060X0.0010*%
%ADD42R,0.0630X0.0010*%
%ADD43R,0.0640X0.0010*%
%ADD44R,0.0390X0.0010*%
%ADD45R,0.0430X0.0010*%
%ADD46R,0.0460X0.0010*%
%ADD47R,0.0490X0.0010*%
%ADD48R,0.0180X0.0010*%
%ADD49R,0.0620X0.0010*%
%ADD50R,0.0610X0.0010*%
%ADD51R,0.0600X0.0010*%
%ADD52R,0.0590X0.0010*%
%ADD53R,0.0580X0.0010*%
%ADD54R,0.0570X0.0010*%
%ADD55R,0.0560X0.0010*%
%ADD56R,0.0200X0.0010*%
%ADD57R,0.0450X0.0010*%
%ADD58R,0.0410X0.0010*%
%ADD59R,0.0380X0.0010*%
%ADD60C,0.0000*%
%ADD61OC8,0.1025*%
%ADD62C,0.0749*%
%ADD63C,0.1773*%
%ADD64R,0.0330X0.0580*%
%ADD65OC8,0.0820*%
%ADD66R,0.0480X0.0240*%
%ADD67R,0.0340X0.0880*%
%ADD68R,0.0580X0.0300*%
%ADD69R,0.0300X0.0580*%
%ADD70R,0.0356X0.0474*%
%ADD71R,0.0474X0.0631*%
%ADD72R,0.0454X0.0454*%
%ADD73R,0.0572X0.0474*%
%ADD74R,0.0474X0.0572*%
%ADD75R,0.2521X0.2206*%
%ADD76R,0.0710X0.0474*%
%ADD77R,0.0395X0.0552*%
%ADD78C,0.0674*%
%ADD79R,0.0749X0.0356*%
%ADD80R,0.1025X0.1025*%
%ADD81R,0.0674X0.0674*%
%ADD82C,0.0780*%
%ADD83R,0.1143X0.0710*%
%ADD84R,0.0580X0.0330*%
%ADD85R,0.0552X0.0552*%
%ADD86R,0.0513X0.0631*%
%ADD87R,0.0380X0.0680*%
%ADD88C,0.0555*%
D10*
X005260Y026830D03*
X005380Y026830D03*
X005310Y027100D03*
X005320Y027170D03*
X005390Y027140D03*
X005380Y027430D03*
X005260Y027430D03*
X006230Y027360D03*
X006450Y027240D03*
X006470Y027240D03*
X006490Y027240D03*
X006510Y027240D03*
X006530Y027240D03*
X006550Y027240D03*
X006560Y027430D03*
X006440Y027830D03*
X006430Y027900D03*
X006400Y027890D03*
X006340Y027890D03*
X006320Y027830D03*
X006250Y027860D03*
X006380Y028090D03*
X006390Y028160D03*
X006400Y028370D03*
X006340Y028370D03*
X006320Y028430D03*
X006290Y028420D03*
X006420Y028430D03*
X006980Y027430D03*
X007080Y027430D03*
X007300Y027390D03*
X007370Y027400D03*
X007420Y027410D03*
X007720Y027090D03*
X007740Y027090D03*
X007760Y027090D03*
X007780Y027090D03*
X007800Y027090D03*
X007790Y027000D03*
X007770Y027000D03*
X007760Y026850D03*
X007850Y027220D03*
X007930Y027220D03*
X007080Y026830D03*
X006980Y026830D03*
X006630Y029840D03*
X006610Y030360D03*
X006630Y030420D03*
X007130Y030420D03*
X007110Y030160D03*
X007180Y030130D03*
X007460Y030830D03*
X007530Y030820D03*
X007550Y030900D03*
X007650Y030900D03*
X007670Y030820D03*
X007750Y030840D03*
X007780Y030850D03*
X007620Y031370D03*
X007650Y031460D03*
X007680Y031450D03*
X007410Y031460D03*
X007320Y031170D03*
X007300Y031170D03*
X007280Y031170D03*
X007260Y031170D03*
X007240Y031170D03*
X007850Y031680D03*
X007870Y031680D03*
X007890Y031680D03*
X007910Y031680D03*
X007930Y031680D03*
X007620Y031950D03*
X007600Y031950D03*
X007580Y031950D03*
X007560Y031950D03*
X007500Y032030D03*
X007680Y032030D03*
X008670Y030420D03*
X008660Y030090D03*
X006170Y029840D03*
X006170Y030420D03*
D11*
X006460Y030350D03*
X006460Y030330D03*
X006460Y030310D03*
X006460Y030290D03*
X006460Y030270D03*
X006460Y030250D03*
X006460Y030230D03*
X006460Y030210D03*
X006460Y030190D03*
X006460Y030170D03*
X006460Y030150D03*
X006460Y030130D03*
X006460Y030110D03*
X006460Y030090D03*
X006460Y030070D03*
X006460Y030050D03*
X006460Y030030D03*
X006460Y030010D03*
X006460Y029990D03*
X006460Y029970D03*
X006460Y029950D03*
X006460Y029930D03*
X006460Y029910D03*
X006720Y029950D03*
X006730Y029960D03*
X006740Y029990D03*
X006750Y030020D03*
X006760Y030070D03*
X006760Y030090D03*
X006760Y030110D03*
X006760Y030130D03*
X006760Y030150D03*
X006760Y030170D03*
X006750Y030240D03*
X006740Y030270D03*
X006730Y030300D03*
X006720Y030310D03*
X007180Y030350D03*
X007190Y030340D03*
X007200Y030330D03*
X007200Y030310D03*
X007210Y030280D03*
X007210Y030270D03*
X007210Y030260D03*
X007210Y030250D03*
X007210Y030240D03*
X007200Y030210D03*
X007190Y030180D03*
X007180Y030170D03*
X007170Y030160D03*
X007200Y030050D03*
X007210Y030020D03*
X007210Y030010D03*
X007210Y030000D03*
X007210Y029960D03*
X007210Y029940D03*
X007210Y029920D03*
X007220Y029870D03*
X007220Y029850D03*
X007230Y029840D03*
X007410Y029840D03*
X007410Y029860D03*
X007410Y029880D03*
X007410Y029920D03*
X007410Y029940D03*
X007410Y029960D03*
X007410Y030000D03*
X007410Y030020D03*
X007410Y030040D03*
X007410Y030080D03*
X007410Y030100D03*
X007410Y030120D03*
X007410Y030160D03*
X007410Y030180D03*
X007410Y030200D03*
X007410Y030240D03*
X007410Y030260D03*
X007410Y030280D03*
X007410Y030320D03*
X007410Y030340D03*
X007410Y030360D03*
X007410Y030400D03*
X007410Y030420D03*
X007570Y030420D03*
X007580Y030410D03*
X007580Y030390D03*
X007580Y030370D03*
X007590Y030360D03*
X007590Y030340D03*
X007600Y030310D03*
X007610Y030280D03*
X007620Y030250D03*
X007620Y030230D03*
X007640Y030170D03*
X007840Y030150D03*
X007860Y030230D03*
X007870Y030260D03*
X007880Y030290D03*
X007880Y030310D03*
X007890Y030340D03*
X007900Y030350D03*
X007900Y030370D03*
X007900Y030390D03*
X007910Y030400D03*
X007910Y030420D03*
X008070Y030320D03*
X008070Y030240D03*
X008070Y030080D03*
X008070Y030000D03*
X008070Y029920D03*
X007740Y029870D03*
X007740Y029860D03*
X007740Y029850D03*
X008480Y029850D03*
X008480Y029870D03*
X008480Y029890D03*
X008480Y029910D03*
X008480Y029930D03*
X008480Y029950D03*
X008480Y029970D03*
X008480Y029990D03*
X008480Y030010D03*
X008480Y030030D03*
X008480Y030050D03*
X008480Y030070D03*
X008480Y030090D03*
X008480Y030170D03*
X008480Y030190D03*
X008480Y030210D03*
X008480Y030230D03*
X008480Y030250D03*
X008480Y030270D03*
X008480Y030290D03*
X008480Y030310D03*
X008480Y030330D03*
X008480Y030350D03*
X008740Y030340D03*
X008740Y030330D03*
X008750Y030320D03*
X008760Y030310D03*
X008760Y030290D03*
X008760Y030270D03*
X008760Y030250D03*
X008760Y030230D03*
X008750Y030200D03*
X008740Y030190D03*
X008710Y030160D03*
X008730Y030080D03*
X008740Y030070D03*
X008750Y030060D03*
X008750Y030050D03*
X008760Y030030D03*
X008760Y030010D03*
X008760Y029990D03*
X008760Y029970D03*
X008760Y029950D03*
X008760Y029930D03*
X008760Y029910D03*
X008760Y029890D03*
X008770Y029880D03*
X008770Y029860D03*
X008780Y029850D03*
X008780Y029840D03*
X008460Y030890D03*
X008470Y030920D03*
X008490Y030980D03*
X008490Y031000D03*
X008510Y031060D03*
X008520Y031090D03*
X008530Y031100D03*
X008530Y031120D03*
X008530Y031140D03*
X008540Y031150D03*
X008550Y031180D03*
X008580Y031270D03*
X008590Y031300D03*
X008590Y031320D03*
X008600Y031350D03*
X008610Y031360D03*
X008610Y031380D03*
X008620Y031410D03*
X008630Y031420D03*
X008630Y031440D03*
X008640Y031470D03*
X008650Y031500D03*
X008660Y031530D03*
X008670Y031560D03*
X008670Y031580D03*
X008680Y031590D03*
X008690Y031620D03*
X008690Y031640D03*
X008700Y031650D03*
X008700Y031660D03*
X008710Y031680D03*
X008710Y031700D03*
X008720Y031710D03*
X008720Y031720D03*
X008720Y031730D03*
X008730Y031740D03*
X008730Y031760D03*
X008740Y031790D03*
X008750Y031800D03*
X008750Y031820D03*
X008760Y031850D03*
X008870Y031860D03*
X008870Y031840D03*
X008870Y031820D03*
X008880Y031810D03*
X008890Y031780D03*
X008900Y031750D03*
X008910Y031720D03*
X008910Y031700D03*
X008920Y031690D03*
X008920Y031670D03*
X008930Y031660D03*
X008930Y031640D03*
X008940Y031610D03*
X008950Y031580D03*
X008960Y031550D03*
X008970Y031520D03*
X008980Y031490D03*
X008990Y031460D03*
X008990Y031440D03*
X009000Y031420D03*
X009000Y031410D03*
X009010Y031400D03*
X009010Y031380D03*
X009030Y031340D03*
X009030Y031320D03*
X009040Y031290D03*
X009070Y031180D03*
X009080Y031170D03*
X009090Y031140D03*
X009100Y031110D03*
X009110Y031080D03*
X009110Y031060D03*
X009120Y031030D03*
X009130Y031000D03*
X009150Y030940D03*
X009430Y030940D03*
X009430Y030960D03*
X009430Y030980D03*
X009430Y031000D03*
X009430Y031020D03*
X009430Y031040D03*
X009430Y031060D03*
X009430Y031080D03*
X009430Y031100D03*
X009430Y031120D03*
X009430Y031140D03*
X009430Y031160D03*
X009430Y031180D03*
X009430Y031200D03*
X009430Y031220D03*
X009430Y031240D03*
X009430Y031260D03*
X009430Y031280D03*
X009430Y031300D03*
X009430Y031320D03*
X009430Y031340D03*
X009430Y031360D03*
X009430Y031380D03*
X009430Y031400D03*
X009430Y031420D03*
X009430Y031440D03*
X009430Y031460D03*
X009430Y031480D03*
X009430Y031500D03*
X009430Y031520D03*
X009430Y031540D03*
X009430Y031560D03*
X009430Y031580D03*
X009430Y031600D03*
X009430Y031620D03*
X009430Y031640D03*
X009430Y031660D03*
X009430Y031680D03*
X009430Y031700D03*
X009430Y031720D03*
X009430Y031740D03*
X009430Y031760D03*
X009430Y031780D03*
X009430Y031800D03*
X009430Y031820D03*
X009530Y031820D03*
X009530Y031800D03*
X009540Y031790D03*
X009540Y031780D03*
X009540Y031770D03*
X009550Y031760D03*
X009550Y031740D03*
X009560Y031730D03*
X009570Y031700D03*
X009570Y031680D03*
X009580Y031670D03*
X009580Y031660D03*
X009580Y031650D03*
X009590Y031640D03*
X009590Y031620D03*
X009600Y031610D03*
X009600Y031600D03*
X009600Y031590D03*
X009610Y031580D03*
X009610Y031560D03*
X009620Y031550D03*
X009620Y031530D03*
X009630Y031520D03*
X009630Y031510D03*
X009630Y031500D03*
X009640Y031490D03*
X009640Y031480D03*
X009640Y031470D03*
X009650Y031460D03*
X009650Y031450D03*
X009650Y031440D03*
X009660Y031430D03*
X009660Y031410D03*
X009670Y031380D03*
X009680Y031370D03*
X009680Y031350D03*
X009680Y031330D03*
X009690Y031320D03*
X009700Y031310D03*
X009700Y031290D03*
X009710Y031270D03*
X009710Y031260D03*
X009720Y031250D03*
X009720Y031230D03*
X009730Y031200D03*
X009740Y031170D03*
X009740Y031150D03*
X009750Y031140D03*
X009760Y031110D03*
X009760Y031090D03*
X009770Y031080D03*
X009770Y031070D03*
X009780Y031050D03*
X009780Y031030D03*
X009790Y031020D03*
X009890Y031000D03*
X009900Y031030D03*
X009910Y031060D03*
X009920Y031090D03*
X009920Y031110D03*
X009930Y031120D03*
X009940Y031150D03*
X009940Y031170D03*
X009950Y031180D03*
X009950Y031190D03*
X009950Y031200D03*
X009960Y031210D03*
X009960Y031230D03*
X009970Y031240D03*
X009980Y031270D03*
X009980Y031280D03*
X009980Y031290D03*
X009990Y031300D03*
X009990Y031310D03*
X009990Y031320D03*
X010000Y031330D03*
X010000Y031350D03*
X010010Y031360D03*
X010010Y031370D03*
X010010Y031380D03*
X010020Y031390D03*
X010020Y031410D03*
X010030Y031420D03*
X010030Y031430D03*
X010030Y031440D03*
X010040Y031450D03*
X010040Y031460D03*
X010040Y031470D03*
X010050Y031480D03*
X010050Y031500D03*
X010060Y031510D03*
X010060Y031520D03*
X010060Y031530D03*
X010070Y031540D03*
X010070Y031560D03*
X010080Y031570D03*
X010080Y031590D03*
X010090Y031600D03*
X010090Y031620D03*
X010090Y031640D03*
X010100Y031650D03*
X010110Y031660D03*
X010110Y031680D03*
X010120Y031690D03*
X010120Y031700D03*
X010120Y031710D03*
X010130Y031740D03*
X010140Y031770D03*
X010150Y031780D03*
X010150Y031800D03*
X010150Y031820D03*
X010160Y031830D03*
X010260Y031830D03*
X010260Y031810D03*
X010260Y031790D03*
X010260Y031770D03*
X010260Y031750D03*
X010260Y031730D03*
X010250Y031720D03*
X010260Y031710D03*
X010250Y031700D03*
X010260Y031690D03*
X010250Y031680D03*
X010260Y031670D03*
X010250Y031660D03*
X010260Y031650D03*
X010250Y031640D03*
X010260Y031630D03*
X010250Y031620D03*
X010250Y031600D03*
X010250Y031580D03*
X010250Y031560D03*
X010250Y031540D03*
X010250Y031520D03*
X010250Y031500D03*
X010250Y031480D03*
X010250Y031460D03*
X010250Y031440D03*
X010250Y031420D03*
X010250Y031400D03*
X010250Y031380D03*
X010250Y031360D03*
X010250Y031340D03*
X010250Y031320D03*
X010250Y031300D03*
X010250Y031280D03*
X010250Y031260D03*
X010250Y031240D03*
X010250Y031220D03*
X010250Y031200D03*
X010250Y031180D03*
X010250Y031160D03*
X010250Y031140D03*
X010250Y031120D03*
X010250Y031100D03*
X010250Y031080D03*
X010250Y031060D03*
X010250Y031040D03*
X010250Y031020D03*
X010250Y031000D03*
X010250Y030980D03*
X010250Y030960D03*
X010250Y030940D03*
X010250Y030920D03*
X010250Y030900D03*
X010250Y030880D03*
X010250Y030860D03*
X010250Y030840D03*
X009840Y030850D03*
X009840Y030870D03*
X009430Y030880D03*
X009430Y030900D03*
X009430Y030920D03*
X009430Y030860D03*
X009430Y030840D03*
X008810Y032020D03*
X007870Y031780D03*
X007880Y031730D03*
X007890Y031160D03*
X007890Y031140D03*
X007890Y031120D03*
X007890Y031100D03*
X007890Y031080D03*
X007290Y031060D03*
X007280Y031090D03*
X007280Y031110D03*
X007270Y031160D03*
X007310Y031680D03*
X007310Y031780D03*
X006530Y031780D03*
X006530Y031800D03*
X006530Y031820D03*
X006530Y031840D03*
X006530Y031860D03*
X006530Y031880D03*
X006530Y031900D03*
X006530Y031920D03*
X006530Y031940D03*
X006530Y031760D03*
X006530Y031740D03*
X006530Y031720D03*
X006530Y031700D03*
X006530Y031680D03*
X006530Y031660D03*
X006530Y031640D03*
X006530Y031620D03*
X006530Y031600D03*
X006530Y031580D03*
X006530Y031560D03*
X006530Y031540D03*
X006530Y031520D03*
X006530Y031500D03*
X006530Y031400D03*
X006530Y031380D03*
X006530Y031360D03*
X006530Y031340D03*
X006530Y031320D03*
X006530Y031300D03*
X006530Y031280D03*
X006530Y031260D03*
X006530Y031240D03*
X006530Y031220D03*
X006530Y031200D03*
X006530Y031180D03*
X006530Y031160D03*
X006530Y031140D03*
X006530Y031120D03*
X006530Y031100D03*
X006530Y031080D03*
X006530Y031060D03*
X006530Y031040D03*
X006530Y031020D03*
X006530Y031000D03*
X006530Y030980D03*
X006530Y030960D03*
X006530Y030940D03*
X006530Y030920D03*
X006050Y031040D03*
X006050Y031050D03*
X006050Y031060D03*
X006050Y031070D03*
X006050Y031080D03*
X006060Y031090D03*
X006060Y031110D03*
X006060Y031120D03*
X006060Y031130D03*
X006070Y031140D03*
X006070Y031160D03*
X006070Y031180D03*
X006070Y031200D03*
X006080Y031210D03*
X006080Y031220D03*
X006080Y031230D03*
X006090Y031240D03*
X006090Y031260D03*
X006090Y031280D03*
X006090Y031300D03*
X006100Y031310D03*
X006100Y031320D03*
X006100Y031330D03*
X006110Y031340D03*
X006110Y031360D03*
X006110Y031380D03*
X006120Y031410D03*
X006120Y031420D03*
X006120Y031430D03*
X006130Y031440D03*
X006130Y031460D03*
X006130Y031480D03*
X006140Y031510D03*
X006140Y031530D03*
X006150Y031540D03*
X006150Y031560D03*
X006150Y031580D03*
X006160Y031610D03*
X006170Y031660D03*
X006170Y031680D03*
X006180Y031710D03*
X006190Y031760D03*
X006190Y031780D03*
X006200Y031810D03*
X006210Y031860D03*
X006220Y031910D03*
X006230Y031960D03*
X005900Y031270D03*
X005900Y031260D03*
X005900Y031250D03*
X005900Y031230D03*
X005910Y031220D03*
X005910Y031210D03*
X005910Y031200D03*
X005920Y031190D03*
X005920Y031170D03*
X005920Y031150D03*
X005930Y031140D03*
X005930Y031130D03*
X005930Y031120D03*
X005940Y031090D03*
X005940Y031070D03*
X005940Y031050D03*
X005950Y031040D03*
X005950Y031020D03*
X006000Y030850D03*
X006000Y030840D03*
X005890Y031280D03*
X005890Y031300D03*
X005890Y031320D03*
X005880Y031330D03*
X005880Y031350D03*
X005870Y031360D03*
X005880Y031370D03*
X005870Y031380D03*
X005870Y031400D03*
X005860Y031410D03*
X005860Y031420D03*
X005860Y031430D03*
X005860Y031450D03*
X005850Y031460D03*
X005850Y031470D03*
X005850Y031480D03*
X005840Y031490D03*
X005840Y031510D03*
X005840Y031530D03*
X005830Y031540D03*
X005830Y031550D03*
X005830Y031560D03*
X005820Y031570D03*
X005820Y031590D03*
X005820Y031600D03*
X005820Y031610D03*
X005810Y031620D03*
X005810Y031640D03*
X005800Y031650D03*
X005800Y031670D03*
X005800Y031680D03*
X005800Y031690D03*
X005800Y031710D03*
X005790Y031720D03*
X005790Y031730D03*
X005790Y031740D03*
X005780Y031750D03*
X005780Y031770D03*
X005780Y031790D03*
X005770Y031800D03*
X005770Y031810D03*
X005770Y031820D03*
X005670Y031820D03*
X005660Y031810D03*
X005660Y031790D03*
X005660Y031770D03*
X005650Y031760D03*
X005650Y031750D03*
X005650Y031740D03*
X005640Y031730D03*
X005650Y031720D03*
X005640Y031710D03*
X005640Y031700D03*
X005640Y031690D03*
X005630Y031680D03*
X005630Y031660D03*
X005630Y031640D03*
X005620Y031630D03*
X005620Y031620D03*
X005620Y031610D03*
X005610Y031600D03*
X005610Y031580D03*
X005610Y031560D03*
X005600Y031550D03*
X005600Y031540D03*
X005600Y031530D03*
X005590Y031520D03*
X005590Y031500D03*
X005590Y031490D03*
X005590Y031480D03*
X005580Y031470D03*
X005580Y031450D03*
X005580Y031440D03*
X005580Y031430D03*
X005570Y031420D03*
X005570Y031410D03*
X005570Y031400D03*
X005570Y031380D03*
X005560Y031370D03*
X005560Y031360D03*
X005560Y031350D03*
X005550Y031340D03*
X005550Y031320D03*
X005550Y031300D03*
X005540Y031290D03*
X005540Y031280D03*
X005540Y031270D03*
X005540Y031250D03*
X005530Y031240D03*
X005530Y031230D03*
X005530Y031220D03*
X005520Y031210D03*
X005520Y031190D03*
X005520Y031170D03*
X005510Y031160D03*
X005510Y031150D03*
X005510Y031140D03*
X005500Y031130D03*
X005500Y031110D03*
X005500Y031090D03*
X005490Y031080D03*
X005490Y031060D03*
X005390Y031040D03*
X005380Y031050D03*
X005380Y031070D03*
X005380Y031080D03*
X005380Y031090D03*
X005380Y031110D03*
X005370Y031120D03*
X005370Y031140D03*
X005370Y031160D03*
X005360Y031170D03*
X005360Y031180D03*
X005360Y031190D03*
X005360Y031210D03*
X005350Y031220D03*
X005350Y031240D03*
X005350Y031260D03*
X005340Y031290D03*
X005330Y031320D03*
X005330Y031340D03*
X005330Y031360D03*
X005320Y031390D03*
X005310Y031420D03*
X005310Y031440D03*
X005310Y031460D03*
X005300Y031490D03*
X005290Y031520D03*
X005290Y031540D03*
X005280Y031570D03*
X005270Y031620D03*
X005270Y031640D03*
X005250Y031720D03*
X005250Y031740D03*
X005230Y031820D03*
X005230Y031840D03*
X005210Y031920D03*
X005210Y031940D03*
X005200Y031970D03*
X005190Y032020D03*
X005670Y031840D03*
X005390Y031020D03*
X005430Y030840D03*
X005660Y028410D03*
X005660Y028390D03*
X005650Y028360D03*
X005640Y028310D03*
X005640Y028290D03*
X005620Y028190D03*
X005460Y028190D03*
X005360Y028210D03*
X005410Y028360D03*
X005410Y028380D03*
X005170Y028340D03*
X005160Y028370D03*
X005160Y028390D03*
X005180Y028290D03*
X005180Y028270D03*
X005190Y028240D03*
X005200Y028190D03*
X005220Y028070D03*
X005270Y027900D03*
X005270Y027880D03*
X005270Y027860D03*
X005550Y027860D03*
X005550Y027880D03*
X005500Y028030D03*
X005820Y028030D03*
X005820Y028050D03*
X005820Y028070D03*
X005820Y028090D03*
X005820Y028110D03*
X005820Y028190D03*
X005820Y028210D03*
X005820Y028230D03*
X005820Y028250D03*
X005820Y028270D03*
X005820Y028290D03*
X005820Y028310D03*
X005820Y028330D03*
X005820Y028350D03*
X005820Y028010D03*
X005820Y027990D03*
X005820Y027970D03*
X005820Y027950D03*
X005820Y027930D03*
X005820Y027910D03*
X006220Y027950D03*
X006230Y027940D03*
X006240Y027930D03*
X006220Y027970D03*
X006220Y027990D03*
X006380Y027830D03*
X006490Y027900D03*
X006500Y027920D03*
X006500Y027930D03*
X006510Y027940D03*
X006510Y027960D03*
X006510Y028000D03*
X006510Y028020D03*
X006500Y028030D03*
X006500Y028050D03*
X006490Y028060D03*
X006680Y028070D03*
X006680Y028090D03*
X006680Y028110D03*
X006680Y028130D03*
X006680Y028150D03*
X006680Y028170D03*
X006680Y028190D03*
X006680Y028210D03*
X006680Y028230D03*
X006680Y028250D03*
X006680Y028270D03*
X006680Y028290D03*
X006680Y028310D03*
X006680Y028330D03*
X006680Y028350D03*
X006680Y028370D03*
X006680Y028390D03*
X006680Y028410D03*
X006500Y028330D03*
X006490Y028340D03*
X006480Y028350D03*
X006470Y028360D03*
X006500Y028310D03*
X006510Y028280D03*
X006270Y028360D03*
X006260Y028350D03*
X006250Y028340D03*
X006240Y028330D03*
X006240Y028310D03*
X006240Y028230D03*
X006250Y028220D03*
X006680Y028050D03*
X006680Y028030D03*
X006680Y028010D03*
X006680Y027990D03*
X006680Y027970D03*
X006680Y027950D03*
X006680Y027930D03*
X006680Y027910D03*
X007060Y027910D03*
X007060Y027930D03*
X007060Y027950D03*
X007060Y027970D03*
X007060Y027990D03*
X007060Y028010D03*
X007060Y028030D03*
X007060Y028050D03*
X007060Y028070D03*
X007060Y028090D03*
X007060Y028110D03*
X007060Y028190D03*
X007060Y028210D03*
X007060Y028230D03*
X007060Y028250D03*
X007060Y028270D03*
X007060Y028290D03*
X007060Y028310D03*
X007060Y028330D03*
X007060Y028350D03*
X007450Y028400D03*
X007460Y028390D03*
X007460Y028380D03*
X007460Y028370D03*
X007470Y028360D03*
X007480Y028350D03*
X007480Y028330D03*
X007490Y028320D03*
X007490Y028310D03*
X007500Y028290D03*
X007510Y028260D03*
X007520Y028250D03*
X007520Y028230D03*
X007530Y028220D03*
X007540Y028190D03*
X007550Y028180D03*
X007560Y028150D03*
X007660Y028170D03*
X007680Y028210D03*
X007700Y028250D03*
X007700Y028270D03*
X007710Y028280D03*
X007720Y028290D03*
X007720Y028310D03*
X007730Y028320D03*
X007740Y028330D03*
X007740Y028350D03*
X007750Y028360D03*
X007750Y028380D03*
X007760Y028390D03*
X007770Y028400D03*
X007770Y028410D03*
X007770Y028420D03*
X008110Y028400D03*
X008110Y028320D03*
X008110Y028240D03*
X008110Y028160D03*
X008110Y028080D03*
X008110Y028000D03*
X008110Y027920D03*
X007610Y028060D03*
X007770Y027320D03*
X007770Y027300D03*
X007770Y027280D03*
X007860Y026830D03*
X006620Y027430D03*
X006330Y027320D03*
X006330Y027310D03*
X006320Y027330D03*
X006310Y027340D03*
X006340Y027290D03*
X006340Y027270D03*
X006340Y027250D03*
X006340Y027230D03*
X006340Y027210D03*
X006330Y027180D03*
X006320Y027170D03*
X006310Y027160D03*
X005630Y027200D03*
X005630Y027280D03*
X005630Y027360D03*
X005460Y027310D03*
X005450Y027320D03*
X005440Y027330D03*
X005460Y027290D03*
X005460Y027270D03*
X005320Y027430D03*
X005200Y027330D03*
X005190Y027320D03*
X005180Y027290D03*
X005180Y027270D03*
X005190Y027240D03*
X005190Y027220D03*
X005200Y027210D03*
X005210Y027200D03*
X005170Y027000D03*
X005170Y026980D03*
X005180Y026950D03*
X005180Y026930D03*
X005190Y026920D03*
X005200Y026910D03*
X005210Y026900D03*
X005320Y026830D03*
X005430Y026900D03*
X005440Y026910D03*
X005450Y026920D03*
X005460Y026950D03*
X005460Y026970D03*
X005460Y026990D03*
X005460Y027010D03*
X005460Y027030D03*
X005450Y027040D03*
X005440Y027050D03*
X005630Y027040D03*
X005630Y026960D03*
X008910Y027920D03*
X008910Y028000D03*
X008910Y028080D03*
X008910Y028240D03*
X008910Y028320D03*
D12*
X008760Y029900D03*
X008760Y029920D03*
X008760Y029940D03*
X008760Y029960D03*
X008760Y029980D03*
X008760Y030000D03*
X008760Y030020D03*
X008740Y030180D03*
X008760Y030240D03*
X008760Y030260D03*
X008760Y030280D03*
X007880Y030300D03*
X007870Y030270D03*
X007860Y030220D03*
X007850Y030190D03*
X007840Y030160D03*
X007840Y030140D03*
X007830Y030130D03*
X007830Y030120D03*
X007830Y030110D03*
X007820Y030100D03*
X007820Y030080D03*
X007810Y030060D03*
X007810Y030050D03*
X007800Y030020D03*
X007800Y030010D03*
X007800Y030000D03*
X007790Y029990D03*
X007790Y029970D03*
X007780Y029960D03*
X007780Y029940D03*
X007700Y029940D03*
X007700Y029960D03*
X007690Y029970D03*
X007690Y029990D03*
X007690Y030010D03*
X007680Y030020D03*
X007680Y030040D03*
X007670Y030050D03*
X007670Y030060D03*
X007670Y030070D03*
X007660Y030080D03*
X007660Y030100D03*
X007660Y030120D03*
X007650Y030130D03*
X007650Y030140D03*
X007640Y030160D03*
X007640Y030180D03*
X007630Y030210D03*
X007620Y030240D03*
X007600Y030300D03*
X007600Y030320D03*
X007410Y030290D03*
X007410Y030370D03*
X007410Y030210D03*
X007410Y030130D03*
X007410Y030050D03*
X007410Y029970D03*
X007410Y029890D03*
X007220Y029860D03*
X007210Y029970D03*
X007200Y030200D03*
X007200Y030320D03*
X006740Y030280D03*
X005480Y031020D03*
X005660Y028420D03*
X005660Y028400D03*
X005650Y028350D03*
X005640Y028320D03*
X005640Y028300D03*
X005630Y028250D03*
X005620Y028220D03*
X005620Y028200D03*
X005620Y028180D03*
X005610Y028150D03*
X005610Y028140D03*
X005610Y028130D03*
X005600Y028100D03*
X005600Y028080D03*
X005590Y028050D03*
X005590Y028040D03*
X005590Y028030D03*
X005580Y028020D03*
X005500Y028020D03*
X005500Y028040D03*
X005490Y028050D03*
X005490Y028060D03*
X005490Y028070D03*
X005480Y028080D03*
X005480Y028100D03*
X005480Y028120D03*
X005480Y028140D03*
X005470Y028150D03*
X005470Y028170D03*
X005460Y028180D03*
X005460Y028200D03*
X005450Y028210D03*
X005450Y028230D03*
X005450Y028240D03*
X005450Y028250D03*
X005370Y028250D03*
X005360Y028240D03*
X005360Y028220D03*
X005360Y028200D03*
X005350Y028190D03*
X005360Y028180D03*
X005350Y028170D03*
X005340Y028140D03*
X005340Y028130D03*
X005340Y028120D03*
X005340Y028100D03*
X005330Y028090D03*
X005330Y028080D03*
X005330Y028070D03*
X005320Y028060D03*
X005320Y028040D03*
X005320Y028020D03*
X005310Y028010D03*
X005230Y028010D03*
X005230Y028030D03*
X005220Y028060D03*
X005220Y028080D03*
X005220Y028100D03*
X005210Y028130D03*
X005200Y028160D03*
X005200Y028180D03*
X005190Y028230D03*
X005180Y028260D03*
X005180Y028280D03*
X005180Y028300D03*
X005170Y028330D03*
X005160Y028380D03*
X005160Y028400D03*
X005410Y028410D03*
X006220Y028000D03*
X006220Y027980D03*
X006510Y028010D03*
X006510Y027950D03*
X006510Y028270D03*
X006500Y028320D03*
X006370Y028430D03*
X006240Y028320D03*
X006340Y027280D03*
X006340Y027260D03*
X006340Y027240D03*
X006340Y027220D03*
X007030Y027430D03*
X007470Y027410D03*
X007030Y026830D03*
X007560Y028160D03*
X007540Y028200D03*
X007520Y028240D03*
X007660Y028160D03*
X007700Y028260D03*
X007720Y028300D03*
X009760Y031100D03*
X009920Y031100D03*
X009840Y030860D03*
X009840Y030840D03*
X010000Y031340D03*
X005440Y027340D03*
X005460Y027300D03*
X005460Y027280D03*
X005460Y027260D03*
X005460Y027000D03*
X005460Y026980D03*
X005180Y026940D03*
X005200Y027340D03*
D13*
X005320Y027130D03*
X005350Y027120D03*
X005360Y027110D03*
X005330Y026840D03*
X006370Y027840D03*
X006390Y028120D03*
X006380Y028130D03*
X006350Y028140D03*
X006340Y028150D03*
X006000Y030990D03*
X006000Y031010D03*
X005440Y031010D03*
X005440Y030990D03*
X005720Y031850D03*
X005720Y031870D03*
X007450Y031500D03*
X007750Y031360D03*
X007760Y031350D03*
X008810Y031900D03*
X009460Y031910D03*
X009470Y031900D03*
X009470Y031880D03*
X009470Y031860D03*
X009460Y031930D03*
X009840Y030990D03*
X010210Y031860D03*
X010210Y031880D03*
X010220Y031890D03*
X010220Y031910D03*
X010220Y031930D03*
D14*
X008195Y030400D03*
X008205Y029880D03*
X008205Y029860D03*
X009035Y028400D03*
X009045Y027880D03*
X009045Y027860D03*
X008625Y027840D03*
X007185Y028410D03*
X005945Y028410D03*
X006105Y029910D03*
X005705Y029900D03*
X005305Y029910D03*
X005705Y030380D03*
X006105Y030350D03*
X006625Y026920D03*
X005765Y026840D03*
D15*
X005635Y026900D03*
X005635Y026910D03*
X005635Y026920D03*
X005635Y026930D03*
X005635Y026940D03*
X005635Y026950D03*
X005635Y026970D03*
X005635Y026980D03*
X005635Y026990D03*
X005635Y027000D03*
X005635Y027010D03*
X005635Y027020D03*
X005635Y027030D03*
X005635Y027050D03*
X005635Y027060D03*
X005635Y027070D03*
X005635Y027080D03*
X005635Y027090D03*
X005635Y027100D03*
X005635Y027110D03*
X005635Y027180D03*
X005635Y027190D03*
X005635Y027210D03*
X005635Y027220D03*
X005635Y027230D03*
X005635Y027240D03*
X005635Y027250D03*
X005635Y027260D03*
X005635Y027270D03*
X005635Y027290D03*
X005635Y027300D03*
X005635Y027310D03*
X005635Y027320D03*
X005635Y027330D03*
X005635Y027340D03*
X005635Y027350D03*
X005455Y027020D03*
X005465Y026960D03*
X005455Y026940D03*
X005455Y026930D03*
X005175Y026960D03*
X005175Y026970D03*
X005165Y026990D03*
X005195Y027230D03*
X005185Y027250D03*
X005185Y027260D03*
X005185Y027280D03*
X005185Y027300D03*
X005185Y027310D03*
X005265Y027840D03*
X005265Y027850D03*
X005235Y028020D03*
X005225Y028040D03*
X005225Y028050D03*
X005215Y028090D03*
X005215Y028110D03*
X005215Y028120D03*
X005205Y028140D03*
X005205Y028150D03*
X005205Y028170D03*
X005195Y028200D03*
X005195Y028210D03*
X005195Y028220D03*
X005185Y028250D03*
X005175Y028310D03*
X005175Y028320D03*
X005165Y028350D03*
X005165Y028360D03*
X005155Y028410D03*
X005155Y028420D03*
X005405Y028400D03*
X005405Y028390D03*
X005365Y028230D03*
X005345Y028160D03*
X005345Y028150D03*
X005335Y028110D03*
X005325Y028050D03*
X005315Y028030D03*
X005485Y028090D03*
X005485Y028110D03*
X005475Y028130D03*
X005465Y028160D03*
X005605Y028120D03*
X005605Y028110D03*
X005595Y028090D03*
X005595Y028070D03*
X005595Y028060D03*
X005615Y028160D03*
X005615Y028170D03*
X005625Y028210D03*
X005625Y028230D03*
X005625Y028240D03*
X005635Y028260D03*
X005635Y028270D03*
X005635Y028280D03*
X005645Y028330D03*
X005645Y028340D03*
X005655Y028370D03*
X005655Y028380D03*
X005825Y028360D03*
X005825Y028340D03*
X005825Y028320D03*
X005825Y028300D03*
X005825Y028280D03*
X005825Y028260D03*
X005825Y028240D03*
X005825Y028220D03*
X005825Y028200D03*
X005825Y028180D03*
X005825Y028100D03*
X005825Y028080D03*
X005825Y028060D03*
X005825Y028040D03*
X005825Y028020D03*
X005825Y028000D03*
X005825Y027980D03*
X005825Y027960D03*
X005825Y027940D03*
X005825Y027920D03*
X005825Y027900D03*
X005545Y027850D03*
X005545Y027840D03*
X006055Y027360D03*
X006055Y027350D03*
X006055Y027340D03*
X006055Y027330D03*
X006055Y027320D03*
X006055Y027310D03*
X006055Y027300D03*
X006055Y027290D03*
X006055Y027280D03*
X006055Y027270D03*
X006055Y027260D03*
X006055Y027250D03*
X006055Y027240D03*
X006055Y027230D03*
X006055Y027220D03*
X006055Y027210D03*
X006055Y027200D03*
X006055Y027190D03*
X006055Y027180D03*
X006055Y027170D03*
X006055Y027160D03*
X006055Y027150D03*
X006055Y027140D03*
X006055Y027070D03*
X006055Y027060D03*
X006055Y027050D03*
X006055Y027040D03*
X006055Y027030D03*
X006055Y027020D03*
X006055Y027010D03*
X006055Y027000D03*
X006055Y026990D03*
X006055Y026980D03*
X006055Y026970D03*
X006055Y026960D03*
X006055Y026950D03*
X006055Y026940D03*
X006055Y026930D03*
X006055Y026920D03*
X006055Y026910D03*
X006055Y026900D03*
X006055Y026890D03*
X006055Y026880D03*
X006055Y026870D03*
X006055Y026860D03*
X006055Y026850D03*
X006055Y026840D03*
X006335Y027190D03*
X006335Y027200D03*
X006335Y027300D03*
X006245Y027920D03*
X006225Y027960D03*
X006235Y028240D03*
X006235Y028250D03*
X006235Y028260D03*
X006235Y028270D03*
X006235Y028280D03*
X006235Y028290D03*
X006235Y028300D03*
X006505Y028300D03*
X006505Y028290D03*
X006515Y028260D03*
X006685Y028260D03*
X006685Y028280D03*
X006685Y028300D03*
X006685Y028320D03*
X006685Y028340D03*
X006685Y028360D03*
X006685Y028380D03*
X006685Y028400D03*
X006685Y028420D03*
X006685Y028240D03*
X006685Y028220D03*
X006685Y028200D03*
X006685Y028180D03*
X006685Y028160D03*
X006685Y028140D03*
X006685Y028120D03*
X006685Y028100D03*
X006685Y028080D03*
X006685Y028060D03*
X006685Y028040D03*
X006685Y028020D03*
X006685Y028000D03*
X006685Y027980D03*
X006685Y027960D03*
X006685Y027940D03*
X006685Y027920D03*
X006685Y027900D03*
X006515Y027970D03*
X006515Y027980D03*
X006515Y027990D03*
X006505Y028040D03*
X007065Y028040D03*
X007065Y028060D03*
X007065Y028080D03*
X007065Y028100D03*
X007065Y028020D03*
X007065Y028000D03*
X007065Y027980D03*
X007065Y027960D03*
X007065Y027940D03*
X007065Y027920D03*
X007065Y027900D03*
X007065Y028180D03*
X007065Y028200D03*
X007065Y028220D03*
X007065Y028240D03*
X007065Y028260D03*
X007065Y028280D03*
X007065Y028300D03*
X007065Y028320D03*
X007065Y028340D03*
X007065Y028360D03*
X007475Y028340D03*
X007495Y028300D03*
X007505Y028280D03*
X007505Y028270D03*
X007535Y028210D03*
X007555Y028170D03*
X007655Y028150D03*
X007665Y028180D03*
X007675Y028190D03*
X007675Y028200D03*
X007685Y028220D03*
X007685Y028230D03*
X007695Y028240D03*
X007735Y028340D03*
X007605Y028050D03*
X007605Y028040D03*
X007605Y028030D03*
X007605Y028020D03*
X007605Y028010D03*
X007605Y028000D03*
X007605Y027990D03*
X007605Y027980D03*
X007605Y027970D03*
X007605Y027960D03*
X007605Y027950D03*
X007605Y027940D03*
X007605Y027930D03*
X007605Y027920D03*
X007605Y027910D03*
X007605Y027900D03*
X007605Y027890D03*
X007605Y027880D03*
X007605Y027870D03*
X007605Y027860D03*
X007605Y027850D03*
X007605Y027840D03*
X008115Y027900D03*
X008115Y027910D03*
X008115Y027930D03*
X008115Y027940D03*
X008115Y027950D03*
X008115Y027960D03*
X008115Y027970D03*
X008115Y027980D03*
X008115Y027990D03*
X008115Y028010D03*
X008115Y028020D03*
X008115Y028030D03*
X008115Y028040D03*
X008115Y028050D03*
X008115Y028060D03*
X008115Y028070D03*
X008115Y028090D03*
X008115Y028100D03*
X008115Y028110D03*
X008115Y028120D03*
X008115Y028130D03*
X008115Y028140D03*
X008115Y028150D03*
X008115Y028170D03*
X008115Y028180D03*
X008115Y028190D03*
X008115Y028200D03*
X008115Y028210D03*
X008115Y028220D03*
X008115Y028230D03*
X008115Y028250D03*
X008115Y028260D03*
X008115Y028270D03*
X008115Y028280D03*
X008115Y028290D03*
X008115Y028300D03*
X008115Y028310D03*
X008115Y028330D03*
X008115Y028340D03*
X008115Y028350D03*
X008115Y028360D03*
X008115Y028370D03*
X008115Y028380D03*
X008115Y028390D03*
X008115Y028410D03*
X008115Y028420D03*
X008495Y028360D03*
X008495Y028350D03*
X008495Y028340D03*
X008495Y028330D03*
X008495Y028320D03*
X008495Y028310D03*
X008495Y028300D03*
X008495Y028290D03*
X008495Y028280D03*
X008495Y028270D03*
X008495Y028260D03*
X008495Y028250D03*
X008495Y028240D03*
X008495Y028230D03*
X008495Y028220D03*
X008495Y028210D03*
X008495Y028200D03*
X008495Y028190D03*
X008495Y028180D03*
X008495Y028110D03*
X008495Y028100D03*
X008495Y028090D03*
X008495Y028080D03*
X008495Y028070D03*
X008495Y028060D03*
X008495Y028050D03*
X008495Y028040D03*
X008495Y028030D03*
X008495Y028020D03*
X008495Y028010D03*
X008495Y028000D03*
X008495Y027990D03*
X008495Y027980D03*
X008495Y027970D03*
X008495Y027960D03*
X008495Y027950D03*
X008495Y027940D03*
X008495Y027930D03*
X008495Y027920D03*
X008495Y027910D03*
X008495Y027900D03*
X008915Y027900D03*
X008915Y027910D03*
X008915Y027930D03*
X008915Y027940D03*
X008915Y027950D03*
X008915Y027960D03*
X008915Y027970D03*
X008915Y027980D03*
X008915Y027990D03*
X008915Y028010D03*
X008915Y028020D03*
X008915Y028030D03*
X008915Y028040D03*
X008915Y028050D03*
X008915Y028060D03*
X008915Y028070D03*
X008915Y028090D03*
X008915Y028100D03*
X008915Y028110D03*
X008915Y028180D03*
X008915Y028190D03*
X008915Y028200D03*
X008915Y028210D03*
X008915Y028220D03*
X008915Y028230D03*
X008915Y028250D03*
X008915Y028260D03*
X008915Y028270D03*
X008915Y028280D03*
X008915Y028290D03*
X008915Y028300D03*
X008915Y028310D03*
X008915Y028330D03*
X008915Y028340D03*
X008915Y028350D03*
X008915Y028360D03*
X008765Y029870D03*
X008755Y030040D03*
X008755Y030210D03*
X008755Y030220D03*
X008755Y030300D03*
X008485Y030300D03*
X008485Y030320D03*
X008485Y030340D03*
X008485Y030360D03*
X008485Y030280D03*
X008485Y030260D03*
X008485Y030240D03*
X008485Y030220D03*
X008485Y030200D03*
X008485Y030180D03*
X008485Y030160D03*
X008485Y030080D03*
X008485Y030060D03*
X008485Y030040D03*
X008485Y030020D03*
X008485Y030000D03*
X008485Y029980D03*
X008485Y029960D03*
X008485Y029940D03*
X008485Y029920D03*
X008485Y029900D03*
X008485Y029880D03*
X008485Y029860D03*
X008485Y029840D03*
X008075Y029900D03*
X008075Y029910D03*
X008075Y029930D03*
X008075Y029940D03*
X008075Y029950D03*
X008075Y029960D03*
X008075Y029970D03*
X008075Y029980D03*
X008075Y029990D03*
X008075Y030010D03*
X008075Y030020D03*
X008075Y030030D03*
X008075Y030040D03*
X008075Y030050D03*
X008075Y030060D03*
X008075Y030070D03*
X008075Y030090D03*
X008075Y030100D03*
X008075Y030110D03*
X008075Y030180D03*
X008075Y030190D03*
X008075Y030200D03*
X008075Y030210D03*
X008075Y030220D03*
X008075Y030230D03*
X008075Y030250D03*
X008075Y030260D03*
X008075Y030270D03*
X008075Y030280D03*
X008075Y030290D03*
X008075Y030300D03*
X008075Y030310D03*
X008075Y030330D03*
X008075Y030340D03*
X008075Y030350D03*
X008075Y030360D03*
X007915Y030410D03*
X007905Y030380D03*
X007895Y030360D03*
X007885Y030330D03*
X007885Y030320D03*
X007875Y030280D03*
X007865Y030250D03*
X007865Y030240D03*
X007855Y030210D03*
X007855Y030200D03*
X007845Y030180D03*
X007845Y030170D03*
X007825Y030090D03*
X007815Y030070D03*
X007805Y030040D03*
X007805Y030030D03*
X007675Y030030D03*
X007665Y030090D03*
X007655Y030110D03*
X007645Y030150D03*
X007635Y030190D03*
X007635Y030200D03*
X007625Y030220D03*
X007615Y030260D03*
X007615Y030270D03*
X007605Y030290D03*
X007595Y030330D03*
X007585Y030350D03*
X007585Y030380D03*
X007575Y030400D03*
X007405Y030410D03*
X007405Y030390D03*
X007405Y030380D03*
X007405Y030350D03*
X007405Y030330D03*
X007405Y030310D03*
X007405Y030300D03*
X007405Y030270D03*
X007405Y030250D03*
X007405Y030230D03*
X007405Y030220D03*
X007405Y030190D03*
X007405Y030170D03*
X007405Y030150D03*
X007405Y030140D03*
X007405Y030110D03*
X007405Y030090D03*
X007405Y030070D03*
X007405Y030060D03*
X007405Y030030D03*
X007405Y030010D03*
X007405Y029990D03*
X007405Y029980D03*
X007405Y029950D03*
X007405Y029930D03*
X007405Y029910D03*
X007405Y029900D03*
X007405Y029870D03*
X007405Y029850D03*
X007215Y029880D03*
X007215Y029890D03*
X007215Y029900D03*
X007215Y029910D03*
X007215Y029930D03*
X007215Y029950D03*
X007215Y029980D03*
X007215Y029990D03*
X007205Y030030D03*
X007205Y030040D03*
X007195Y030060D03*
X007195Y030190D03*
X007205Y030220D03*
X007205Y030230D03*
X007205Y030290D03*
X007205Y030300D03*
X006935Y030300D03*
X006935Y030310D03*
X006935Y030320D03*
X006935Y030330D03*
X006935Y030340D03*
X006935Y030350D03*
X006935Y030360D03*
X006935Y030290D03*
X006935Y030280D03*
X006935Y030270D03*
X006935Y030260D03*
X006935Y030250D03*
X006935Y030240D03*
X006935Y030230D03*
X006935Y030220D03*
X006935Y030210D03*
X006935Y030200D03*
X006935Y030190D03*
X006935Y030180D03*
X006935Y030170D03*
X006935Y030160D03*
X006935Y030090D03*
X006935Y030080D03*
X006935Y030070D03*
X006935Y030060D03*
X006935Y030050D03*
X006935Y030040D03*
X006935Y030030D03*
X006935Y030020D03*
X006935Y030010D03*
X006935Y030000D03*
X006935Y029990D03*
X006935Y029980D03*
X006935Y029970D03*
X006935Y029960D03*
X006935Y029950D03*
X006935Y029940D03*
X006935Y029930D03*
X006935Y029920D03*
X006935Y029910D03*
X006935Y029900D03*
X006935Y029890D03*
X006935Y029880D03*
X006935Y029870D03*
X006935Y029860D03*
X006935Y029850D03*
X006935Y029840D03*
X006735Y029970D03*
X006735Y029980D03*
X006745Y030000D03*
X006745Y030010D03*
X006755Y030030D03*
X006755Y030040D03*
X006755Y030050D03*
X006755Y030060D03*
X006755Y030080D03*
X006755Y030100D03*
X006755Y030120D03*
X006755Y030140D03*
X006755Y030160D03*
X006755Y030180D03*
X006755Y030190D03*
X006755Y030200D03*
X006755Y030210D03*
X006755Y030220D03*
X006755Y030230D03*
X006745Y030250D03*
X006745Y030260D03*
X006735Y030290D03*
X006715Y030320D03*
X006705Y030340D03*
X006465Y030340D03*
X006465Y030360D03*
X006465Y030320D03*
X006465Y030300D03*
X006465Y030280D03*
X006465Y030260D03*
X006465Y030240D03*
X006465Y030220D03*
X006465Y030200D03*
X006465Y030180D03*
X006465Y030160D03*
X006465Y030140D03*
X006465Y030120D03*
X006465Y030100D03*
X006465Y030080D03*
X006465Y030060D03*
X006465Y030040D03*
X006465Y030020D03*
X006465Y030000D03*
X006465Y029980D03*
X006465Y029960D03*
X006465Y029940D03*
X006465Y029920D03*
X006465Y029900D03*
X006715Y029940D03*
X006045Y031020D03*
X006055Y031100D03*
X005945Y031060D03*
X005935Y031080D03*
X005935Y031100D03*
X005935Y031110D03*
X005925Y031160D03*
X005915Y031180D03*
X005905Y031240D03*
X005875Y031340D03*
X005855Y031440D03*
X005845Y031500D03*
X005835Y031520D03*
X005825Y031580D03*
X005805Y031660D03*
X005795Y031700D03*
X005785Y031760D03*
X005775Y031780D03*
X005765Y031840D03*
X005665Y031800D03*
X005655Y031780D03*
X005585Y031460D03*
X005535Y031260D03*
X005525Y031200D03*
X005515Y031180D03*
X005505Y031120D03*
X005495Y031100D03*
X005485Y031050D03*
X005485Y031040D03*
X005385Y031060D03*
X005375Y031100D03*
X007745Y029840D03*
X009795Y031000D03*
X009795Y031010D03*
X009785Y031040D03*
X009775Y031060D03*
X009755Y031120D03*
X009755Y031130D03*
X009745Y031160D03*
X009735Y031180D03*
X009735Y031190D03*
X009725Y031210D03*
X009725Y031220D03*
X009715Y031240D03*
X009705Y031280D03*
X009695Y031300D03*
X009685Y031340D03*
X009675Y031360D03*
X009665Y031400D03*
X009655Y031420D03*
X009615Y031540D03*
X010015Y031400D03*
X009975Y031260D03*
X009975Y031250D03*
X009965Y031220D03*
X009945Y031160D03*
X009935Y031140D03*
X009935Y031130D03*
X009915Y031080D03*
X009915Y031070D03*
X009905Y031050D03*
X009905Y031040D03*
X009895Y031020D03*
X009895Y031010D03*
X010075Y031580D03*
X010255Y031740D03*
X010255Y031760D03*
X010255Y031780D03*
X010255Y031800D03*
X010255Y031820D03*
D16*
X008200Y029840D03*
X007590Y030850D03*
X007190Y028390D03*
X007190Y028370D03*
X007190Y027890D03*
X007190Y027870D03*
X007190Y027850D03*
X006620Y026900D03*
X006620Y026880D03*
X006630Y026870D03*
X006620Y026860D03*
X006630Y026850D03*
X006620Y026840D03*
X005950Y027850D03*
X005950Y027870D03*
X005950Y027890D03*
X005950Y028370D03*
X005950Y028390D03*
X005700Y029840D03*
X005710Y029850D03*
X005700Y029860D03*
X005710Y029870D03*
X005700Y029880D03*
X005710Y029890D03*
X005710Y029910D03*
X005700Y029920D03*
X005700Y030340D03*
X005710Y030350D03*
X005700Y030360D03*
X005710Y030370D03*
X005710Y030390D03*
X005700Y030400D03*
X005710Y030410D03*
X005700Y030420D03*
X005760Y026880D03*
X009040Y027840D03*
D17*
X007960Y027110D03*
X007950Y026920D03*
X007770Y026920D03*
X007760Y026930D03*
X007760Y027130D03*
X007450Y027400D03*
X007140Y027270D03*
X007030Y027420D03*
X006940Y027330D03*
X006720Y027310D03*
X006720Y027210D03*
X006700Y027170D03*
X006680Y027130D03*
X006670Y027120D03*
X006660Y027110D03*
X006650Y027090D03*
X006640Y027070D03*
X006630Y027060D03*
X006620Y027050D03*
X006610Y027040D03*
X006600Y027030D03*
X006580Y026990D03*
X006570Y026980D03*
X006560Y026970D03*
X006550Y026960D03*
X006500Y027270D03*
X006520Y027330D03*
X006530Y027340D03*
X006430Y028100D03*
X006310Y028160D03*
X006300Y028170D03*
X005550Y027960D03*
X005540Y027970D03*
X005540Y027950D03*
X005270Y027950D03*
X005270Y027960D03*
X005270Y027980D03*
X005270Y027940D03*
X005410Y028260D03*
X005410Y028280D03*
X005410Y028290D03*
X005410Y028300D03*
X005220Y027190D03*
X005240Y027170D03*
X005390Y027100D03*
X005400Y027090D03*
X006920Y026990D03*
X006940Y026930D03*
X006950Y026920D03*
X007030Y026840D03*
X007110Y026920D03*
X007610Y028100D03*
X007740Y029910D03*
X007740Y029930D03*
X007810Y030940D03*
X007840Y030970D03*
X007840Y031290D03*
X007830Y031300D03*
X007370Y031560D03*
X007360Y031570D03*
X007350Y031580D03*
X007340Y031590D03*
X007360Y031890D03*
X007370Y031900D03*
X007380Y031910D03*
X007390Y031920D03*
X007790Y031920D03*
X007800Y031910D03*
X007810Y031900D03*
X007820Y031890D03*
X007320Y030990D03*
X007360Y030950D03*
X007370Y030940D03*
X006240Y030310D03*
X006230Y030320D03*
X006240Y029950D03*
X006230Y029940D03*
X006000Y030890D03*
X006000Y030910D03*
X006000Y030920D03*
X006000Y030930D03*
X005440Y030910D03*
X005430Y030920D03*
X005710Y031940D03*
X005720Y031950D03*
X008810Y031960D03*
X008820Y031970D03*
X009450Y032000D03*
X009450Y032020D03*
X009840Y030930D03*
X009840Y030910D03*
X010230Y031980D03*
X010230Y032000D03*
X010240Y032010D03*
D18*
X010235Y032020D03*
X009845Y030920D03*
X008815Y031980D03*
X008815Y031990D03*
X007865Y031250D03*
X007845Y031280D03*
X007855Y030990D03*
X007855Y030980D03*
X007835Y030960D03*
X007345Y030960D03*
X007335Y030970D03*
X007325Y031630D03*
X007345Y031870D03*
X007355Y031880D03*
X006245Y030300D03*
X006245Y030290D03*
X006255Y030280D03*
X006255Y030270D03*
X006265Y030250D03*
X006265Y030230D03*
X006265Y030220D03*
X006265Y030200D03*
X006265Y030180D03*
X006265Y030160D03*
X006265Y030120D03*
X006265Y030100D03*
X006265Y030080D03*
X006265Y030040D03*
X006265Y030030D03*
X006265Y030010D03*
X006255Y029990D03*
X006255Y029980D03*
X006245Y029970D03*
X005995Y029970D03*
X005995Y029990D03*
X005995Y030010D03*
X005995Y030030D03*
X005995Y030050D03*
X005995Y030070D03*
X005995Y030090D03*
X005995Y030110D03*
X005995Y030130D03*
X005995Y030150D03*
X005995Y030170D03*
X005995Y030190D03*
X005995Y030210D03*
X005995Y030230D03*
X005995Y030250D03*
X005995Y030270D03*
X005995Y030290D03*
X005995Y030310D03*
X005995Y030330D03*
X005995Y029950D03*
X005995Y029930D03*
X005585Y029940D03*
X005585Y029960D03*
X005585Y030000D03*
X005585Y030020D03*
X005585Y030040D03*
X005585Y030080D03*
X005585Y030200D03*
X005585Y030240D03*
X005585Y030260D03*
X005585Y030280D03*
X005585Y030320D03*
X005435Y030880D03*
X005435Y030890D03*
X005435Y030900D03*
X005195Y030410D03*
X005195Y030390D03*
X005195Y030370D03*
X005195Y030350D03*
X005195Y030330D03*
X005195Y030310D03*
X005195Y030290D03*
X005195Y030270D03*
X005195Y030250D03*
X005195Y030230D03*
X005195Y030210D03*
X005195Y030190D03*
X005195Y030170D03*
X005195Y030150D03*
X005195Y030130D03*
X005195Y030110D03*
X005195Y030090D03*
X005195Y030070D03*
X005195Y030050D03*
X005195Y030030D03*
X005195Y030010D03*
X005195Y029990D03*
X005195Y029970D03*
X005195Y029950D03*
X005195Y029930D03*
X005405Y028320D03*
X005405Y028310D03*
X005545Y027940D03*
X005545Y027930D03*
X005235Y027180D03*
X005225Y026890D03*
X005415Y026890D03*
X006495Y027250D03*
X006505Y027290D03*
X006515Y027320D03*
X006705Y027340D03*
X006715Y027330D03*
X006725Y027290D03*
X006725Y027280D03*
X006725Y027270D03*
X006725Y027260D03*
X006725Y027230D03*
X006715Y027200D03*
X006715Y027190D03*
X006705Y027180D03*
X006695Y027160D03*
X006695Y027150D03*
X006685Y027140D03*
X006645Y027080D03*
X006595Y027020D03*
X006915Y027030D03*
X006915Y027050D03*
X006915Y027070D03*
X006915Y027110D03*
X006915Y027130D03*
X006915Y027150D03*
X006915Y027190D03*
X006915Y027210D03*
X006915Y027230D03*
X006915Y027250D03*
X006915Y027270D03*
X006925Y027290D03*
X006935Y027320D03*
X007115Y027340D03*
X007125Y027330D03*
X007125Y027320D03*
X007135Y027290D03*
X007145Y027250D03*
X007145Y027230D03*
X007145Y027210D03*
X007145Y027190D03*
X007145Y027160D03*
X007145Y027150D03*
X007145Y027140D03*
X007145Y027130D03*
X007145Y027110D03*
X007145Y027080D03*
X007145Y027070D03*
X007145Y027050D03*
X007145Y027030D03*
X007145Y027010D03*
X007145Y026990D03*
X007135Y026970D03*
X007125Y026940D03*
X007125Y026930D03*
X006925Y026960D03*
X006925Y026970D03*
X006915Y027010D03*
X007455Y027000D03*
X007455Y026980D03*
X007455Y026950D03*
X007455Y026920D03*
X007455Y026900D03*
X007455Y026870D03*
X007455Y026840D03*
X007455Y027030D03*
X007455Y027060D03*
X007455Y027080D03*
X007455Y027110D03*
X007455Y027140D03*
X007455Y027160D03*
X007455Y027190D03*
X007455Y027220D03*
X007455Y027240D03*
X007455Y027270D03*
X007745Y026980D03*
X007755Y026940D03*
X007955Y026930D03*
X007965Y026950D03*
X007965Y026960D03*
X007975Y026980D03*
X007975Y027010D03*
X007975Y027030D03*
X007975Y027050D03*
X007975Y027080D03*
X007965Y027100D03*
X007955Y027120D03*
X006455Y028090D03*
X007745Y029890D03*
X007745Y029920D03*
X005715Y031960D03*
X005715Y031970D03*
D19*
X005710Y031910D03*
X005720Y031900D03*
X006000Y030980D03*
X006000Y030960D03*
X006210Y030330D03*
X006210Y029930D03*
X005430Y030950D03*
X005440Y030960D03*
X005430Y030970D03*
X005410Y028270D03*
X005550Y028010D03*
X005540Y028000D03*
X005550Y027990D03*
X005270Y027990D03*
X005270Y027970D03*
X005320Y027420D03*
X005300Y027140D03*
X006530Y026930D03*
X006620Y027420D03*
X006410Y028110D03*
X006380Y028420D03*
X007610Y028130D03*
X007950Y027130D03*
X007860Y026840D03*
X007800Y030920D03*
X007810Y030930D03*
X007810Y031310D03*
X007800Y031320D03*
X007790Y031330D03*
X007780Y031340D03*
X007770Y031930D03*
X007760Y031940D03*
X007590Y032030D03*
X007420Y031940D03*
X008810Y031950D03*
X008810Y031930D03*
X009450Y031970D03*
X009460Y031960D03*
X009460Y031940D03*
X009450Y031990D03*
X009840Y030960D03*
X010220Y031920D03*
X010220Y031940D03*
X010230Y031950D03*
X010230Y031970D03*
X010230Y031990D03*
D20*
X008550Y030420D03*
X007710Y031380D03*
X007530Y031460D03*
X007590Y032020D03*
X006050Y030420D03*
X006050Y029840D03*
X006380Y027850D03*
X007030Y027400D03*
X007030Y026860D03*
X007860Y026860D03*
X005320Y026850D03*
X005320Y027410D03*
D21*
X005760Y027410D03*
X005760Y027420D03*
X005760Y027400D03*
X005760Y027390D03*
X005760Y027380D03*
X005760Y027370D03*
X006180Y027370D03*
X006180Y027130D03*
X005760Y026890D03*
X005760Y026870D03*
X005760Y026860D03*
X005760Y026850D03*
X005950Y027840D03*
X005950Y027860D03*
X005950Y027880D03*
X005950Y028380D03*
X005950Y028400D03*
X005950Y028420D03*
X007190Y028420D03*
X007190Y028400D03*
X007190Y028380D03*
X007190Y027880D03*
X007190Y027860D03*
X007190Y027840D03*
X008200Y029850D03*
X008200Y029870D03*
X008200Y029890D03*
X008600Y030150D03*
X008600Y030370D03*
X008200Y030370D03*
X008200Y030380D03*
X008200Y030390D03*
X008200Y030410D03*
X008200Y030420D03*
X007590Y032000D03*
X006110Y030340D03*
X006110Y029920D03*
X005310Y029920D03*
X005310Y029900D03*
X005300Y029890D03*
X005310Y029880D03*
X005300Y029870D03*
X005310Y029860D03*
X005300Y029850D03*
X005310Y029840D03*
X008620Y028420D03*
X008620Y028410D03*
X008620Y028400D03*
X008620Y028390D03*
X008620Y028380D03*
X008620Y028370D03*
X009040Y028370D03*
X009040Y028380D03*
X009040Y028390D03*
X009040Y028410D03*
X009040Y028420D03*
X009040Y027890D03*
X009040Y027870D03*
X009040Y027850D03*
X008620Y027850D03*
X008620Y027860D03*
X008620Y027870D03*
X008620Y027880D03*
X008620Y027890D03*
D22*
X007870Y026850D03*
X007410Y027390D03*
X007030Y027410D03*
X006610Y027410D03*
X007030Y026850D03*
X006370Y028410D03*
X006520Y029840D03*
X006520Y030420D03*
X007440Y030900D03*
X007760Y030900D03*
X007770Y030910D03*
X007730Y031370D03*
X007480Y031480D03*
X007470Y031490D03*
X007430Y031510D03*
X007450Y031950D03*
X007730Y031950D03*
X008810Y031870D03*
X009470Y031870D03*
X009470Y031850D03*
X009480Y031840D03*
X010210Y031850D03*
D23*
X009840Y030900D03*
X009430Y030910D03*
X009430Y030930D03*
X009430Y030950D03*
X009430Y030970D03*
X009430Y030990D03*
X009430Y031010D03*
X009430Y031030D03*
X009430Y031050D03*
X009430Y031070D03*
X009430Y031090D03*
X009430Y031110D03*
X009430Y031130D03*
X009430Y031150D03*
X009430Y031170D03*
X009430Y031190D03*
X009430Y031210D03*
X009430Y031230D03*
X009430Y031250D03*
X009430Y031270D03*
X009430Y031290D03*
X009430Y031310D03*
X009430Y031330D03*
X009430Y031350D03*
X009430Y031370D03*
X009430Y031390D03*
X009430Y031410D03*
X009430Y031430D03*
X009430Y031450D03*
X009430Y031470D03*
X009430Y031490D03*
X009430Y031510D03*
X009430Y031530D03*
X009430Y031550D03*
X009430Y031570D03*
X009430Y031590D03*
X008990Y031450D03*
X008970Y031510D03*
X008950Y031590D03*
X008910Y031710D03*
X008710Y031690D03*
X008690Y031630D03*
X008630Y031430D03*
X008610Y031370D03*
X008590Y031310D03*
X008510Y031050D03*
X008490Y030990D03*
X008480Y030960D03*
X008470Y030930D03*
X008470Y030910D03*
X008460Y030880D03*
X008450Y030870D03*
X008450Y030850D03*
X008180Y030860D03*
X008170Y030870D03*
X008180Y030880D03*
X008170Y030890D03*
X008180Y030900D03*
X008170Y030910D03*
X008180Y030920D03*
X008170Y030930D03*
X008180Y030940D03*
X008170Y030950D03*
X008180Y030960D03*
X008170Y030850D03*
X008180Y030840D03*
X007870Y031010D03*
X007860Y031000D03*
X007880Y031040D03*
X007890Y031070D03*
X007890Y031090D03*
X007890Y031110D03*
X007890Y031130D03*
X007890Y031150D03*
X007890Y031170D03*
X007880Y031200D03*
X007880Y031210D03*
X007880Y031220D03*
X007870Y031230D03*
X007860Y031240D03*
X007860Y031260D03*
X007850Y031270D03*
X007880Y031740D03*
X007870Y031790D03*
X007860Y031820D03*
X007850Y031830D03*
X007850Y031850D03*
X007840Y031860D03*
X007830Y031870D03*
X007820Y031880D03*
X007340Y031860D03*
X007330Y031850D03*
X007330Y031830D03*
X007320Y031820D03*
X007310Y031790D03*
X007310Y031770D03*
X007310Y031750D03*
X007310Y031710D03*
X007310Y031690D03*
X007310Y031670D03*
X007310Y031650D03*
X007320Y031640D03*
X007330Y031610D03*
X007340Y031600D03*
X007290Y031070D03*
X007290Y031050D03*
X007300Y031030D03*
X007300Y031020D03*
X007310Y031010D03*
X007320Y031000D03*
X007320Y030980D03*
X007600Y030820D03*
X007160Y030360D03*
X007170Y030090D03*
X007190Y030070D03*
X006690Y029910D03*
X006680Y029900D03*
X006260Y030000D03*
X006260Y030020D03*
X006270Y030050D03*
X006270Y030060D03*
X006270Y030070D03*
X006270Y030090D03*
X006270Y030110D03*
X006270Y030130D03*
X006270Y030140D03*
X006270Y030150D03*
X006270Y030170D03*
X006270Y030190D03*
X006270Y030210D03*
X006260Y030240D03*
X006260Y030260D03*
X006000Y030260D03*
X006000Y030280D03*
X006000Y030300D03*
X006000Y030320D03*
X006000Y030240D03*
X006000Y030220D03*
X006000Y030200D03*
X006000Y030180D03*
X006000Y030160D03*
X006000Y030140D03*
X006000Y030120D03*
X006000Y030100D03*
X006000Y030080D03*
X006000Y030060D03*
X006000Y030040D03*
X006000Y030020D03*
X006000Y030000D03*
X006000Y029980D03*
X006000Y029960D03*
X006000Y029940D03*
X006240Y029960D03*
X006680Y030360D03*
X006690Y030350D03*
X006530Y030930D03*
X006530Y030950D03*
X006530Y030970D03*
X006530Y030990D03*
X006530Y031010D03*
X006530Y031030D03*
X006530Y031050D03*
X006530Y031070D03*
X006530Y031090D03*
X006530Y031110D03*
X006530Y031130D03*
X006530Y031150D03*
X006530Y031170D03*
X006530Y031190D03*
X006530Y031210D03*
X006530Y031230D03*
X006530Y031250D03*
X006530Y031270D03*
X006530Y031290D03*
X006530Y031310D03*
X006530Y031330D03*
X006530Y031350D03*
X006530Y031370D03*
X006530Y031390D03*
X006530Y031410D03*
X006530Y031510D03*
X006530Y031530D03*
X006530Y031550D03*
X006530Y031570D03*
X006530Y031590D03*
X006530Y031610D03*
X006530Y031630D03*
X006530Y031650D03*
X006530Y031670D03*
X006530Y031690D03*
X006530Y031710D03*
X006530Y031730D03*
X006530Y031750D03*
X006530Y031770D03*
X006530Y031790D03*
X006530Y031810D03*
X006530Y031830D03*
X006530Y031850D03*
X006530Y031870D03*
X006530Y031890D03*
X006530Y031910D03*
X006530Y031930D03*
X006240Y032000D03*
X006230Y031970D03*
X006230Y031950D03*
X006210Y031870D03*
X006210Y031850D03*
X006190Y031770D03*
X006190Y031750D03*
X006180Y031720D03*
X006170Y031670D03*
X006150Y031570D03*
X006130Y031470D03*
X006110Y031370D03*
X006090Y031270D03*
X006000Y030900D03*
X006000Y030880D03*
X006000Y030870D03*
X006000Y030860D03*
X005590Y030330D03*
X005590Y030310D03*
X005590Y030300D03*
X005590Y030290D03*
X005590Y030270D03*
X005590Y030250D03*
X005590Y030230D03*
X005590Y030220D03*
X005590Y030210D03*
X005590Y030190D03*
X005590Y030090D03*
X005590Y030070D03*
X005590Y030060D03*
X005590Y030050D03*
X005590Y030030D03*
X005590Y030010D03*
X005590Y029990D03*
X005590Y029980D03*
X005590Y029970D03*
X005590Y029950D03*
X005590Y029930D03*
X005200Y029940D03*
X005200Y029960D03*
X005200Y029980D03*
X005200Y030000D03*
X005200Y030020D03*
X005200Y030040D03*
X005200Y030060D03*
X005200Y030080D03*
X005200Y030100D03*
X005200Y030120D03*
X005200Y030140D03*
X005200Y030160D03*
X005200Y030180D03*
X005200Y030200D03*
X005200Y030220D03*
X005200Y030240D03*
X005200Y030260D03*
X005200Y030280D03*
X005200Y030300D03*
X005200Y030320D03*
X005200Y030340D03*
X005200Y030360D03*
X005200Y030380D03*
X005200Y030400D03*
X005200Y030420D03*
X005430Y030870D03*
X005350Y031230D03*
X005330Y031330D03*
X005310Y031430D03*
X005290Y031530D03*
X005290Y031550D03*
X005270Y031630D03*
X005260Y031680D03*
X005250Y031730D03*
X005240Y031780D03*
X005230Y031830D03*
X005220Y031880D03*
X005210Y031910D03*
X005210Y031930D03*
X005210Y031950D03*
X005200Y031980D03*
X005190Y032010D03*
X005710Y031990D03*
X005720Y031980D03*
X007740Y029900D03*
X007740Y029880D03*
X008720Y030360D03*
X008730Y030350D03*
X009170Y030850D03*
X009180Y030840D03*
X009170Y030870D03*
X009160Y030900D03*
X009150Y030930D03*
X009150Y030950D03*
X009130Y030990D03*
X009110Y031070D03*
X009030Y031330D03*
X009010Y031390D03*
X008820Y032000D03*
X009430Y030890D03*
X009430Y030870D03*
X009430Y030850D03*
X007610Y028090D03*
X007610Y028070D03*
X007770Y027330D03*
X007770Y027310D03*
X007770Y027290D03*
X007770Y027270D03*
X007760Y027220D03*
X007760Y027200D03*
X007760Y027120D03*
X007750Y027110D03*
X007750Y026990D03*
X007750Y026970D03*
X007750Y026960D03*
X007750Y026950D03*
X007960Y026940D03*
X007970Y026970D03*
X007970Y026990D03*
X007980Y027000D03*
X007980Y027020D03*
X007980Y027040D03*
X007980Y027060D03*
X007970Y027070D03*
X007970Y027090D03*
X007890Y027210D03*
X007460Y027200D03*
X007450Y027210D03*
X007450Y027230D03*
X007450Y027250D03*
X007460Y027260D03*
X007460Y027280D03*
X007450Y027290D03*
X007460Y027180D03*
X007450Y027170D03*
X007450Y027150D03*
X007450Y027130D03*
X007460Y027120D03*
X007460Y027100D03*
X007450Y027090D03*
X007450Y027070D03*
X007450Y027050D03*
X007460Y027040D03*
X007460Y027020D03*
X007450Y027010D03*
X007450Y026990D03*
X007450Y026970D03*
X007460Y026960D03*
X007460Y026940D03*
X007450Y026930D03*
X007450Y026910D03*
X007450Y026890D03*
X007460Y026880D03*
X007460Y026860D03*
X007450Y026850D03*
X007140Y026960D03*
X007130Y026950D03*
X007140Y026980D03*
X007140Y027000D03*
X007140Y027020D03*
X007140Y027040D03*
X007140Y027060D03*
X007150Y027090D03*
X007140Y027100D03*
X007140Y027120D03*
X007150Y027170D03*
X007140Y027180D03*
X007140Y027200D03*
X007140Y027220D03*
X007140Y027240D03*
X007140Y027260D03*
X007140Y027280D03*
X007140Y027300D03*
X007130Y027310D03*
X006940Y027340D03*
X006930Y027310D03*
X006920Y027300D03*
X006920Y027280D03*
X006920Y027260D03*
X006920Y027240D03*
X006920Y027220D03*
X006920Y027200D03*
X006920Y027180D03*
X006910Y027170D03*
X006920Y027160D03*
X006920Y027140D03*
X006920Y027120D03*
X006920Y027100D03*
X006910Y027090D03*
X006920Y027080D03*
X006920Y027060D03*
X006920Y027040D03*
X006920Y027020D03*
X006920Y027000D03*
X006920Y026980D03*
X006930Y026950D03*
X006940Y026940D03*
X006660Y027100D03*
X006720Y027220D03*
X006720Y027240D03*
X006730Y027250D03*
X006720Y027300D03*
X006720Y027320D03*
X006510Y027310D03*
X006500Y027300D03*
X006500Y027280D03*
X006500Y027260D03*
X006310Y027350D03*
X006300Y027360D03*
X006310Y027150D03*
X006300Y027140D03*
X006270Y027890D03*
X006260Y027900D03*
X006250Y027910D03*
X006470Y027890D03*
X006490Y027910D03*
X006460Y028080D03*
X006280Y028180D03*
X006270Y028190D03*
X006260Y028200D03*
X005550Y027910D03*
X005540Y027920D03*
X005550Y027890D03*
X005270Y027890D03*
X005270Y027910D03*
X005270Y027920D03*
X005270Y027930D03*
X005410Y028330D03*
X005410Y028350D03*
X005410Y027370D03*
X005230Y027370D03*
X005420Y027080D03*
X005430Y027070D03*
D24*
X005320Y026860D03*
X005320Y027400D03*
X006380Y027860D03*
X007030Y027390D03*
X007400Y027380D03*
X007400Y027360D03*
X007400Y027350D03*
X007400Y027340D03*
X007400Y027320D03*
X007400Y027300D03*
X007030Y026870D03*
X007690Y031390D03*
X007660Y031400D03*
X007550Y031450D03*
X007510Y031470D03*
D25*
X007035Y030400D03*
X007035Y030120D03*
X006615Y027370D03*
X006155Y027400D03*
X005325Y026870D03*
X007855Y026890D03*
X007855Y026900D03*
X007845Y027190D03*
D26*
X007860Y026870D03*
X007030Y026880D03*
X007030Y027380D03*
X006620Y027390D03*
X006610Y027380D03*
X005320Y027390D03*
X006540Y029850D03*
X006550Y029860D03*
X006550Y030400D03*
X006540Y030410D03*
X007600Y030830D03*
X007640Y031410D03*
X007570Y031440D03*
D27*
X008185Y030170D03*
X008185Y030150D03*
X008185Y030140D03*
X008185Y030130D03*
X008185Y030120D03*
X007045Y030140D03*
X006095Y029880D03*
X005685Y030140D03*
X006085Y030390D03*
X005935Y028120D03*
X005745Y027170D03*
X005745Y027160D03*
X005745Y027150D03*
X005745Y027140D03*
X005745Y027130D03*
X005325Y026880D03*
X006615Y027350D03*
X007175Y028120D03*
X007855Y027170D03*
X007855Y027160D03*
X007875Y027370D03*
X007875Y027390D03*
X007855Y026910D03*
X008605Y028120D03*
X008605Y028130D03*
X008605Y028140D03*
X008605Y028150D03*
X008605Y028160D03*
X008605Y028170D03*
X009025Y028170D03*
X009025Y028150D03*
X009025Y028140D03*
X009025Y028130D03*
X009025Y028120D03*
D28*
X007855Y026880D03*
X007035Y026900D03*
X007595Y031430D03*
D29*
X006625Y026910D03*
X006625Y026890D03*
D30*
X007030Y026890D03*
X007030Y027350D03*
X007030Y027360D03*
X007030Y027370D03*
X006370Y027870D03*
X006150Y027410D03*
X006150Y027090D03*
X005320Y027380D03*
X006370Y028380D03*
X006370Y028390D03*
X006070Y029850D03*
X006080Y029860D03*
X006080Y030400D03*
X006070Y030410D03*
X007030Y030410D03*
X007030Y030130D03*
X008570Y030410D03*
D31*
X008590Y030400D03*
X008590Y030140D03*
X008580Y030130D03*
X008590Y030120D03*
X007590Y030840D03*
X006570Y030380D03*
X006560Y030390D03*
X006570Y029880D03*
X006560Y029870D03*
X006080Y029870D03*
X006090Y030380D03*
X005930Y028160D03*
X005930Y028140D03*
X006370Y027880D03*
X006610Y027360D03*
X007030Y026910D03*
X007850Y027180D03*
X007870Y027340D03*
X007870Y027360D03*
X007870Y027380D03*
X007870Y027400D03*
X007880Y027410D03*
X007870Y027420D03*
X007170Y028140D03*
X007170Y028160D03*
X006160Y027100D03*
D32*
X006535Y026940D03*
X006545Y026950D03*
X006585Y027000D03*
X006585Y027010D03*
X007605Y028110D03*
X007605Y028120D03*
X007895Y027200D03*
X007825Y030950D03*
X007375Y030930D03*
X007385Y031540D03*
X007375Y031550D03*
X008815Y031940D03*
X009445Y032010D03*
X009455Y031980D03*
X009845Y030950D03*
X009845Y030940D03*
X010225Y031960D03*
X005995Y030950D03*
X005995Y030940D03*
X005435Y030940D03*
X005435Y030930D03*
X005715Y031920D03*
X005715Y031930D03*
X005545Y027980D03*
X005275Y028000D03*
X005265Y027160D03*
D33*
X005435Y027060D03*
X005435Y027350D03*
X005425Y027360D03*
X005215Y027360D03*
X005205Y027350D03*
X005265Y027870D03*
X005545Y027870D03*
X005545Y027900D03*
X005405Y028340D03*
X005405Y028370D03*
X006255Y028210D03*
X006275Y028370D03*
X006465Y028370D03*
X006475Y028070D03*
X007445Y028410D03*
X007445Y028420D03*
X007755Y028370D03*
X007605Y028080D03*
X007765Y027260D03*
X007765Y027250D03*
X007765Y027240D03*
X007765Y027230D03*
X007765Y027210D03*
X007755Y027100D03*
X006705Y029920D03*
X006705Y029930D03*
X006705Y030330D03*
X007185Y030080D03*
X007295Y031040D03*
X007285Y031080D03*
X007275Y031100D03*
X007275Y031120D03*
X007275Y031130D03*
X007275Y031140D03*
X007275Y031150D03*
X007325Y031620D03*
X007315Y031660D03*
X007305Y031700D03*
X007305Y031720D03*
X007305Y031730D03*
X007305Y031740D03*
X007305Y031760D03*
X007315Y031800D03*
X007315Y031810D03*
X007325Y031840D03*
X007855Y031840D03*
X007865Y031810D03*
X007865Y031800D03*
X007875Y031770D03*
X007875Y031760D03*
X007875Y031750D03*
X007885Y031720D03*
X007885Y031710D03*
X007885Y031700D03*
X007885Y031690D03*
X007885Y031190D03*
X007885Y031180D03*
X007885Y031060D03*
X007885Y031050D03*
X007875Y031030D03*
X007875Y031020D03*
X008175Y030970D03*
X008465Y030900D03*
X008475Y030940D03*
X008475Y030950D03*
X008485Y030970D03*
X008495Y031010D03*
X008505Y031020D03*
X008505Y031030D03*
X008505Y031040D03*
X008515Y031070D03*
X008515Y031080D03*
X008525Y031110D03*
X008535Y031130D03*
X008545Y031160D03*
X008545Y031170D03*
X008585Y031280D03*
X008585Y031290D03*
X008595Y031330D03*
X008595Y031340D03*
X008615Y031390D03*
X008615Y031400D03*
X008635Y031450D03*
X008635Y031460D03*
X008645Y031480D03*
X008645Y031490D03*
X008655Y031510D03*
X008655Y031520D03*
X008665Y031540D03*
X008665Y031550D03*
X008675Y031570D03*
X008685Y031600D03*
X008685Y031610D03*
X008705Y031670D03*
X008725Y031750D03*
X008735Y031770D03*
X008735Y031780D03*
X008745Y031810D03*
X008755Y031830D03*
X008755Y031840D03*
X008765Y031860D03*
X008865Y031850D03*
X008875Y031830D03*
X008885Y031800D03*
X008885Y031790D03*
X008895Y031770D03*
X008895Y031760D03*
X008905Y031740D03*
X008905Y031730D03*
X008915Y031680D03*
X008925Y031650D03*
X008935Y031630D03*
X008935Y031620D03*
X008945Y031600D03*
X008955Y031570D03*
X008955Y031560D03*
X008965Y031540D03*
X008965Y031530D03*
X008975Y031500D03*
X008985Y031480D03*
X008985Y031470D03*
X008995Y031430D03*
X009015Y031370D03*
X009025Y031360D03*
X009025Y031350D03*
X009035Y031310D03*
X009035Y031300D03*
X009045Y031280D03*
X009045Y031270D03*
X009085Y031160D03*
X009085Y031150D03*
X009095Y031130D03*
X009095Y031120D03*
X009105Y031100D03*
X009105Y031090D03*
X009115Y031050D03*
X009115Y031040D03*
X009125Y031020D03*
X009125Y031010D03*
X009135Y030980D03*
X009135Y030970D03*
X009145Y030960D03*
X009155Y030920D03*
X009155Y030910D03*
X009165Y030890D03*
X009165Y030880D03*
X009175Y030860D03*
X009665Y031390D03*
X009605Y031570D03*
X009585Y031630D03*
X009575Y031690D03*
X009565Y031710D03*
X009565Y031720D03*
X009555Y031750D03*
X009535Y031810D03*
X009425Y031810D03*
X009425Y031790D03*
X009425Y031770D03*
X009425Y031750D03*
X009425Y031730D03*
X009425Y031710D03*
X009425Y031690D03*
X009425Y031670D03*
X009425Y031650D03*
X009425Y031630D03*
X009425Y031610D03*
X010045Y031490D03*
X010065Y031550D03*
X010085Y031610D03*
X010095Y031630D03*
X010105Y031670D03*
X010125Y031720D03*
X010125Y031730D03*
X010135Y031750D03*
X010135Y031760D03*
X010145Y031790D03*
X010155Y031810D03*
X010255Y031610D03*
X010255Y031590D03*
X010255Y031570D03*
X010255Y031550D03*
X010255Y031530D03*
X010255Y031510D03*
X010255Y031490D03*
X010255Y031470D03*
X010255Y031450D03*
X010255Y031430D03*
X010255Y031410D03*
X010255Y031390D03*
X010255Y031370D03*
X010255Y031350D03*
X010255Y031330D03*
X010255Y031310D03*
X010255Y031290D03*
X010255Y031270D03*
X010255Y031250D03*
X010255Y031230D03*
X010255Y031210D03*
X010255Y031190D03*
X010255Y031170D03*
X010255Y031150D03*
X010255Y031130D03*
X010255Y031110D03*
X010255Y031090D03*
X010255Y031070D03*
X010255Y031050D03*
X010255Y031030D03*
X010255Y031010D03*
X010255Y030990D03*
X010255Y030970D03*
X010255Y030950D03*
X010255Y030930D03*
X010255Y030910D03*
X010255Y030890D03*
X010255Y030870D03*
X010255Y030850D03*
X009845Y030880D03*
X009845Y030890D03*
X008725Y030170D03*
X008725Y030090D03*
X008445Y030840D03*
X008455Y030860D03*
X008815Y032010D03*
X006245Y032010D03*
X006245Y032020D03*
X006235Y031990D03*
X006235Y031980D03*
X006225Y031940D03*
X006225Y031930D03*
X006225Y031920D03*
X006215Y031900D03*
X006215Y031890D03*
X006215Y031880D03*
X006205Y031840D03*
X006205Y031830D03*
X006205Y031820D03*
X006195Y031800D03*
X006195Y031790D03*
X006185Y031740D03*
X006185Y031730D03*
X006175Y031700D03*
X006175Y031690D03*
X006165Y031650D03*
X006165Y031640D03*
X006165Y031630D03*
X006165Y031620D03*
X006155Y031600D03*
X006155Y031590D03*
X006145Y031550D03*
X006145Y031520D03*
X006135Y031500D03*
X006135Y031490D03*
X006125Y031450D03*
X006115Y031400D03*
X006115Y031390D03*
X006105Y031350D03*
X006095Y031290D03*
X006085Y031250D03*
X006075Y031190D03*
X006075Y031170D03*
X006065Y031150D03*
X005895Y031290D03*
X005885Y031310D03*
X005865Y031390D03*
X005815Y031630D03*
X005635Y031670D03*
X005625Y031650D03*
X005615Y031590D03*
X005605Y031570D03*
X005595Y031510D03*
X005565Y031390D03*
X005555Y031330D03*
X005545Y031310D03*
X005345Y031280D03*
X005345Y031270D03*
X005345Y031250D03*
X005335Y031300D03*
X005335Y031310D03*
X005325Y031350D03*
X005325Y031370D03*
X005325Y031380D03*
X005315Y031400D03*
X005315Y031410D03*
X005305Y031450D03*
X005305Y031470D03*
X005305Y031480D03*
X005295Y031500D03*
X005295Y031510D03*
X005285Y031560D03*
X005285Y031580D03*
X005275Y031590D03*
X005275Y031600D03*
X005275Y031610D03*
X005265Y031650D03*
X005265Y031660D03*
X005265Y031670D03*
X005255Y031690D03*
X005255Y031700D03*
X005255Y031710D03*
X005245Y031750D03*
X005245Y031760D03*
X005245Y031770D03*
X005235Y031790D03*
X005235Y031800D03*
X005235Y031810D03*
X005225Y031850D03*
X005225Y031860D03*
X005225Y031870D03*
X005215Y031890D03*
X005215Y031900D03*
X005205Y031960D03*
X005195Y031990D03*
X005195Y032000D03*
X005355Y031200D03*
X005365Y031150D03*
X005375Y031130D03*
X005495Y031070D03*
X005435Y030860D03*
X005435Y030850D03*
X005715Y032000D03*
X005715Y032010D03*
X005715Y032020D03*
D34*
X007615Y031420D03*
X006135Y027080D03*
D35*
X006170Y027110D03*
X006170Y027390D03*
X005740Y027120D03*
X005930Y028130D03*
X005930Y028150D03*
X005930Y028170D03*
X006800Y027880D03*
X006800Y027860D03*
X006800Y027840D03*
X007170Y028130D03*
X007170Y028150D03*
X007170Y028170D03*
X007850Y027150D03*
X007860Y027140D03*
X007870Y027350D03*
X008230Y027850D03*
X008230Y027860D03*
X008230Y027870D03*
X008230Y027880D03*
X008230Y027890D03*
X009020Y028160D03*
X008600Y030100D03*
X008590Y030110D03*
X008600Y030380D03*
X008590Y030390D03*
X008180Y030160D03*
X007050Y030150D03*
X007050Y030110D03*
X007050Y030380D03*
X007050Y030390D03*
X006570Y030370D03*
X006570Y029890D03*
X006100Y030360D03*
X005690Y030170D03*
X005680Y030160D03*
X005690Y030150D03*
X005690Y030130D03*
X005690Y030110D03*
X007590Y032010D03*
D36*
X007055Y030370D03*
X007055Y030100D03*
X006105Y029900D03*
X006095Y029890D03*
X005685Y030100D03*
X005685Y030120D03*
X005685Y030180D03*
X006095Y030370D03*
X006795Y027890D03*
X006795Y027870D03*
X006795Y027850D03*
X006175Y027380D03*
X006175Y027120D03*
X008225Y027840D03*
D37*
X007605Y028140D03*
X007745Y029950D03*
X007395Y030920D03*
X007415Y031520D03*
X007405Y031530D03*
X007405Y031930D03*
X008815Y031920D03*
X008815Y031910D03*
X009455Y031950D03*
X009465Y031920D03*
X009845Y030980D03*
X009845Y030970D03*
X010215Y031900D03*
X005995Y031000D03*
X005995Y030970D03*
X005435Y030980D03*
X005435Y031000D03*
X005715Y031860D03*
X005715Y031880D03*
X005715Y031890D03*
X005285Y027150D03*
D38*
X007890Y027220D03*
D39*
X007395Y027310D03*
X007395Y027330D03*
X007395Y027370D03*
X006615Y027400D03*
X006125Y027420D03*
X006365Y028400D03*
X007005Y030420D03*
D40*
X007505Y027420D03*
D41*
X007695Y029980D03*
X007685Y030000D03*
X007795Y029980D03*
X005405Y028420D03*
X005455Y028220D03*
D42*
X006800Y030840D03*
X006800Y030860D03*
X006800Y030880D03*
X006800Y030900D03*
X006790Y031950D03*
X006790Y031970D03*
X006790Y031990D03*
X006790Y032010D03*
D43*
X006795Y030910D03*
X006795Y030890D03*
X006795Y030870D03*
X006795Y030850D03*
D44*
X007600Y030860D03*
D45*
X007590Y030870D03*
X007590Y031970D03*
D46*
X007595Y030880D03*
D47*
X007600Y030890D03*
D48*
X007415Y030910D03*
X005995Y031030D03*
X005435Y031030D03*
X005715Y031830D03*
X008815Y031880D03*
X008815Y031890D03*
X009465Y031890D03*
X010205Y031840D03*
X010215Y031870D03*
D49*
X008815Y031190D03*
X006795Y031960D03*
X006795Y031980D03*
X006795Y032000D03*
X006795Y032020D03*
D50*
X008810Y031200D03*
D51*
X008815Y031210D03*
X008815Y031220D03*
D52*
X008810Y031230D03*
X008810Y031250D03*
D53*
X008815Y031240D03*
D54*
X008810Y031260D03*
X006760Y031430D03*
X006760Y031450D03*
X006760Y031470D03*
X006760Y031490D03*
D55*
X006765Y031480D03*
X006765Y031460D03*
X006765Y031440D03*
X006765Y031420D03*
D56*
X009475Y031830D03*
D57*
X007590Y031960D03*
D58*
X007590Y031980D03*
D59*
X007585Y031990D03*
D60*
X002893Y002850D02*
X002880Y002830D01*
X002898Y002833D02*
X002902Y002830D01*
X002908Y002830D01*
X002912Y002833D01*
X002912Y002850D01*
X002920Y002843D02*
X002930Y002843D01*
X002935Y002840D02*
X002939Y002843D01*
X002945Y002843D01*
X002949Y002840D01*
X002949Y002837D01*
X002935Y002837D01*
X002935Y002840D02*
X002935Y002833D01*
X002939Y002830D01*
X002945Y002830D01*
X002954Y002830D02*
X002954Y002843D01*
X002954Y002837D02*
X002960Y002843D01*
X002964Y002843D01*
X002969Y002840D02*
X002972Y002843D01*
X002982Y002843D01*
X002979Y002837D02*
X002972Y002837D01*
X002969Y002840D01*
X002969Y002830D02*
X002979Y002830D01*
X002982Y002833D01*
X002979Y002837D01*
X002987Y002830D02*
X003001Y002850D01*
X003006Y002843D02*
X003006Y002833D01*
X003009Y002830D01*
X003013Y002833D01*
X003016Y002830D01*
X003019Y002833D01*
X003019Y002843D01*
X003024Y002840D02*
X003028Y002843D01*
X003034Y002843D01*
X003038Y002840D01*
X003038Y002837D01*
X003024Y002837D01*
X003024Y002840D02*
X003024Y002833D01*
X003028Y002830D01*
X003034Y002830D01*
X003043Y002830D02*
X003053Y002830D01*
X003056Y002833D01*
X003053Y002837D01*
X003046Y002837D01*
X003043Y002840D01*
X003046Y002843D01*
X003056Y002843D01*
X003061Y002830D02*
X003074Y002850D01*
X003079Y002850D02*
X003090Y002850D01*
X003093Y002847D01*
X003093Y002833D01*
X003090Y002830D01*
X003079Y002830D01*
X003079Y002850D01*
X003098Y002843D02*
X003098Y002830D01*
X003098Y002837D02*
X003105Y002843D01*
X003108Y002843D01*
X003113Y002843D02*
X003117Y002843D01*
X003117Y002830D01*
X003120Y002830D02*
X003113Y002830D01*
X003126Y002843D02*
X003132Y002830D01*
X003139Y002843D01*
X003144Y002840D02*
X003147Y002843D01*
X003154Y002843D01*
X003157Y002840D01*
X003157Y002837D01*
X003144Y002837D01*
X003144Y002840D02*
X003144Y002833D01*
X003147Y002830D01*
X003154Y002830D01*
X003162Y002830D02*
X003176Y002850D01*
X003184Y002843D02*
X003181Y002840D01*
X003181Y002833D01*
X003184Y002830D01*
X003194Y002830D01*
X003199Y002833D02*
X003203Y002837D01*
X003213Y002837D01*
X003213Y002840D02*
X003213Y002830D01*
X003203Y002830D01*
X003199Y002833D01*
X003203Y002843D02*
X003209Y002843D01*
X003213Y002840D01*
X003218Y002837D02*
X003224Y002843D01*
X003228Y002843D01*
X003233Y002843D02*
X003236Y002843D01*
X003236Y002830D01*
X003233Y002830D02*
X003240Y002830D01*
X003245Y002830D02*
X003245Y002843D01*
X003249Y002843D01*
X003252Y002840D01*
X003255Y002843D01*
X003259Y002840D01*
X003259Y002830D01*
X003264Y002830D02*
X003274Y002830D01*
X003277Y002833D01*
X003277Y002840D01*
X003274Y002843D01*
X003264Y002843D01*
X003264Y002850D02*
X003264Y002830D01*
X003252Y002830D02*
X003252Y002840D01*
X003236Y002850D02*
X003236Y002853D01*
X003218Y002843D02*
X003218Y002830D01*
X003194Y002843D02*
X003184Y002843D01*
X003117Y002853D02*
X003117Y002850D01*
X003282Y002840D02*
X003282Y002833D01*
X003285Y002830D01*
X003292Y002830D01*
X003295Y002833D01*
X003295Y002840D01*
X003292Y002843D01*
X003285Y002843D01*
X003282Y002840D01*
X003300Y002840D02*
X003304Y002843D01*
X003314Y002843D01*
X003319Y002847D02*
X003322Y002850D01*
X003329Y002850D01*
X003332Y002847D01*
X003332Y002843D01*
X003319Y002830D01*
X003332Y002830D01*
X003314Y002833D02*
X003310Y002837D01*
X003304Y002837D01*
X003300Y002840D01*
X003300Y002830D02*
X003310Y002830D01*
X003314Y002833D01*
X003356Y002830D02*
X003366Y002830D01*
X003369Y002833D01*
X003369Y002840D01*
X003366Y002843D01*
X003356Y002843D01*
X003356Y002823D01*
X003374Y002833D02*
X003377Y002830D01*
X003387Y002830D01*
X003393Y002830D02*
X003403Y002830D01*
X003406Y002833D01*
X003406Y002840D01*
X003403Y002843D01*
X003393Y002843D01*
X003387Y002843D02*
X003377Y002843D01*
X003374Y002840D01*
X003374Y002833D01*
X003393Y002830D02*
X003393Y002850D01*
X003411Y002833D02*
X003414Y002833D01*
X003414Y002830D01*
X003411Y002830D01*
X003411Y002833D01*
X003420Y002830D02*
X003430Y002830D01*
X003434Y002833D01*
X003434Y002837D01*
X003430Y002840D01*
X003420Y002840D01*
X003420Y002830D02*
X003420Y002850D01*
X003430Y002850D01*
X003434Y002847D01*
X003434Y002843D01*
X003430Y002840D01*
X003439Y002830D02*
X003439Y002850D01*
X003445Y002843D01*
X003452Y002850D01*
X003452Y002830D01*
X003457Y002830D02*
X003457Y002850D01*
X003467Y002850D01*
X003470Y002847D01*
X003470Y002840D01*
X003467Y002837D01*
X003457Y002837D01*
X002930Y002833D02*
X002927Y002837D01*
X002920Y002837D01*
X002917Y002840D01*
X002920Y002843D01*
X002917Y002830D02*
X002927Y002830D01*
X002930Y002833D01*
X002898Y002833D02*
X002898Y002850D01*
D61*
X015927Y010266D03*
X020947Y010266D03*
X020691Y033967D03*
X018329Y033967D03*
X015967Y033967D03*
X013604Y033967D03*
X005829Y033967D03*
D62*
X013191Y038692D03*
X014569Y038692D03*
X020941Y005123D03*
X022319Y005123D03*
D63*
X026130Y004880D03*
X004880Y004880D03*
X004755Y038880D03*
X026130Y038880D03*
D64*
X025830Y033880D03*
X025480Y033880D03*
X025130Y033880D03*
X025130Y032880D03*
X025480Y032880D03*
X025830Y032880D03*
D65*
X025380Y029880D03*
X025380Y028880D03*
X025380Y027880D03*
X025380Y026880D03*
X025380Y025880D03*
X026380Y025880D03*
X026380Y026880D03*
X026380Y027880D03*
X026380Y028880D03*
X026380Y029880D03*
X026630Y010630D03*
X026530Y009630D03*
X026630Y008630D03*
X025630Y008630D03*
X025530Y009630D03*
X025630Y010630D03*
D66*
X019825Y030496D03*
X019825Y030752D03*
X019825Y031008D03*
X019825Y031264D03*
X017935Y031264D03*
X017935Y031008D03*
X017935Y030752D03*
X017935Y030496D03*
D67*
X015130Y023590D03*
X014630Y023590D03*
X014130Y023590D03*
X013630Y023590D03*
X013130Y023590D03*
X012630Y023590D03*
X012130Y023590D03*
X012130Y021170D03*
X012630Y021170D03*
X013130Y021170D03*
X013630Y021170D03*
X014130Y021170D03*
X014630Y021170D03*
X015130Y021170D03*
X015130Y015090D03*
X014630Y015090D03*
X014130Y015090D03*
X013630Y015090D03*
X013130Y015090D03*
X012630Y015090D03*
X012130Y015090D03*
X012130Y012670D03*
X012630Y012670D03*
X013130Y012670D03*
X013630Y012670D03*
X014130Y012670D03*
X014630Y012670D03*
X015130Y012670D03*
X010130Y012670D03*
X009630Y012670D03*
X009130Y012670D03*
X008630Y012670D03*
X008130Y012670D03*
X007630Y012670D03*
X007130Y012670D03*
X007130Y015090D03*
X007630Y015090D03*
X008130Y015090D03*
X008630Y015090D03*
X009130Y015090D03*
X009630Y015090D03*
X010130Y015090D03*
X010130Y021170D03*
X009630Y021170D03*
X009130Y021170D03*
X008630Y021170D03*
X008130Y021170D03*
X007630Y021170D03*
X007130Y021170D03*
X007130Y023590D03*
X007630Y023590D03*
X008130Y023590D03*
X008630Y023590D03*
X009130Y023590D03*
X009630Y023590D03*
X010130Y023590D03*
D68*
X021190Y015982D03*
X021190Y015667D03*
X021190Y015352D03*
X021190Y015037D03*
X021190Y014723D03*
X021190Y014408D03*
X021190Y014093D03*
X021190Y013778D03*
X024570Y013778D03*
X024570Y014093D03*
X024570Y014408D03*
X024570Y014723D03*
X024570Y015037D03*
X024570Y015352D03*
X024570Y015667D03*
X024570Y015982D03*
D69*
X023982Y016570D03*
X023667Y016570D03*
X023352Y016570D03*
X023037Y016570D03*
X022723Y016570D03*
X022408Y016570D03*
X022093Y016570D03*
X021778Y016570D03*
X021778Y013190D03*
X022093Y013190D03*
X022408Y013190D03*
X022723Y013190D03*
X023037Y013190D03*
X023352Y013190D03*
X023667Y013190D03*
X023982Y013190D03*
D70*
X015504Y029908D03*
X014756Y029908D03*
X014756Y030852D03*
X015130Y030852D03*
X015504Y030852D03*
D71*
X021883Y020063D03*
X022258Y019197D03*
X022632Y020063D03*
X023756Y020063D03*
X024130Y019197D03*
X024504Y020063D03*
D72*
X025493Y019944D03*
X025493Y019373D03*
X023415Y021130D03*
X022845Y021130D03*
X021415Y021130D03*
X020845Y021130D03*
X020880Y019915D03*
X020880Y019345D03*
X020880Y018165D03*
X020880Y017595D03*
X021630Y017595D03*
X021630Y018165D03*
X022380Y018165D03*
X022380Y017595D03*
X015880Y007665D03*
X015880Y007095D03*
X015130Y007095D03*
X015130Y007665D03*
X014380Y007665D03*
X014380Y007095D03*
X013630Y007095D03*
X013630Y007665D03*
X013130Y010845D03*
X013130Y011415D03*
X012130Y011415D03*
X012130Y010845D03*
X008130Y010845D03*
X008130Y011415D03*
X007130Y011415D03*
X007130Y010845D03*
X007130Y019345D03*
X007130Y019915D03*
X008130Y019915D03*
X008130Y019345D03*
X012130Y019345D03*
X012130Y019915D03*
X013130Y019915D03*
X013130Y019345D03*
X018880Y032095D03*
X018880Y032665D03*
X022595Y032880D03*
X023165Y032880D03*
X023165Y033880D03*
X022595Y033880D03*
X022595Y034880D03*
X023165Y034880D03*
X023165Y035880D03*
X022595Y035880D03*
D73*
X022880Y038236D03*
X022880Y039024D03*
X016630Y030774D03*
X016630Y029986D03*
X013755Y029986D03*
X013755Y030774D03*
X013630Y025524D03*
X013630Y024736D03*
X012630Y024736D03*
X012630Y025524D03*
X011130Y022774D03*
X011130Y021986D03*
X008630Y024736D03*
X008630Y025524D03*
X007630Y025524D03*
X007630Y024736D03*
X006130Y022774D03*
X006130Y021986D03*
X007630Y017024D03*
X007630Y016236D03*
X008630Y016236D03*
X008630Y017024D03*
X011130Y014274D03*
X011130Y013486D03*
X012630Y016236D03*
X012630Y017024D03*
X013630Y017024D03*
X013630Y016236D03*
X016130Y014274D03*
X016130Y013486D03*
X016880Y009524D03*
X016880Y008736D03*
X014880Y008736D03*
X014880Y009524D03*
X014130Y009524D03*
X014130Y008736D03*
X013380Y008736D03*
X013380Y009524D03*
X017880Y005524D03*
X017880Y004736D03*
X018880Y004736D03*
X018880Y005524D03*
X019880Y014736D03*
X019880Y015524D03*
X020130Y017486D03*
X020130Y018274D03*
X016130Y021986D03*
X016130Y022774D03*
X025880Y015274D03*
X025880Y014486D03*
X006130Y014276D03*
X006130Y013489D03*
D74*
X014736Y028880D03*
X015524Y028880D03*
X015524Y032130D03*
X014736Y032130D03*
X014274Y036130D03*
X013486Y036130D03*
X013486Y037380D03*
X014274Y037380D03*
X018736Y035130D03*
X019524Y035130D03*
X019524Y039630D03*
X018736Y039630D03*
X025486Y022630D03*
X026274Y022630D03*
X020274Y021880D03*
X019486Y021880D03*
D75*
X020614Y037380D03*
D76*
X017740Y036482D03*
X017740Y038278D03*
D77*
X017734Y039630D03*
X017026Y039630D03*
D78*
X016630Y005630D03*
X016630Y004630D03*
X015630Y004630D03*
X015630Y005630D03*
X014630Y005630D03*
X014630Y004630D03*
X013630Y004630D03*
X013630Y005630D03*
X012630Y005630D03*
X012630Y004630D03*
X011630Y004630D03*
X011630Y005630D03*
X010630Y005630D03*
X010630Y004630D03*
X009630Y004630D03*
X009630Y005630D03*
D79*
X019880Y012908D03*
X019880Y013380D03*
X019880Y013852D03*
D80*
X016380Y036514D03*
X016380Y038246D03*
D81*
X027130Y012630D03*
D82*
X027130Y013630D03*
X027130Y014630D03*
X027130Y015630D03*
X027130Y016630D03*
X027130Y017630D03*
D83*
X012201Y031829D03*
X012201Y032931D03*
D84*
X027630Y011730D03*
X027630Y011380D03*
X027630Y011030D03*
D85*
X022043Y040130D03*
X021217Y040130D03*
X009543Y040130D03*
X008717Y040130D03*
D86*
X010786Y040130D03*
X011474Y040130D03*
X021286Y039255D03*
X021974Y039255D03*
D87*
X022761Y009440D03*
X022761Y007440D03*
X024261Y007440D03*
X024261Y009440D03*
D88*
X022296Y006188D03*
X020949Y006188D03*
X016130Y028130D03*
X017380Y032130D03*
X019630Y032880D03*
X014380Y035130D03*
X012130Y035130D03*
M02*
