G75*
G70*
%OFA0B0*%
%FSLAX24Y24*%
%IPPOS*%
%LPD*%
%AMOC8*
5,1,8,0,0,1.08239X$1,22.5*
%
%ADD10C,0.0060*%
%ADD11C,0.0080*%
%ADD12C,0.0050*%
%ADD13C,0.0020*%
%ADD14C,0.0100*%
%ADD15R,0.0300X0.0340*%
%ADD16C,0.0040*%
%ADD17C,0.0030*%
%ADD18R,0.0118X0.0059*%
%ADD19R,0.0118X0.0118*%
D10*
X003994Y004880D02*
X003996Y004939D01*
X004002Y004998D01*
X004012Y005056D01*
X004025Y005114D01*
X004043Y005171D01*
X004064Y005226D01*
X004089Y005280D01*
X004118Y005332D01*
X004150Y005381D01*
X004185Y005429D01*
X004223Y005474D01*
X004264Y005517D01*
X004308Y005557D01*
X004354Y005593D01*
X004403Y005627D01*
X004454Y005657D01*
X004507Y005684D01*
X004562Y005707D01*
X004617Y005726D01*
X004675Y005742D01*
X004733Y005754D01*
X004791Y005762D01*
X004850Y005766D01*
X004910Y005766D01*
X004969Y005762D01*
X005027Y005754D01*
X005085Y005742D01*
X005143Y005726D01*
X005198Y005707D01*
X005253Y005684D01*
X005306Y005657D01*
X005357Y005627D01*
X005406Y005593D01*
X005452Y005557D01*
X005496Y005517D01*
X005537Y005474D01*
X005575Y005429D01*
X005610Y005381D01*
X005642Y005332D01*
X005671Y005280D01*
X005696Y005226D01*
X005717Y005171D01*
X005735Y005114D01*
X005748Y005056D01*
X005758Y004998D01*
X005764Y004939D01*
X005766Y004880D01*
X005764Y004821D01*
X005758Y004762D01*
X005748Y004704D01*
X005735Y004646D01*
X005717Y004589D01*
X005696Y004534D01*
X005671Y004480D01*
X005642Y004428D01*
X005610Y004379D01*
X005575Y004331D01*
X005537Y004286D01*
X005496Y004243D01*
X005452Y004203D01*
X005406Y004167D01*
X005357Y004133D01*
X005306Y004103D01*
X005253Y004076D01*
X005198Y004053D01*
X005143Y004034D01*
X005085Y004018D01*
X005027Y004006D01*
X004969Y003998D01*
X004910Y003994D01*
X004850Y003994D01*
X004791Y003998D01*
X004733Y004006D01*
X004675Y004018D01*
X004617Y004034D01*
X004562Y004053D01*
X004507Y004076D01*
X004454Y004103D01*
X004403Y004133D01*
X004354Y004167D01*
X004308Y004203D01*
X004264Y004243D01*
X004223Y004286D01*
X004185Y004331D01*
X004150Y004379D01*
X004118Y004428D01*
X004089Y004480D01*
X004064Y004534D01*
X004043Y004589D01*
X004025Y004646D01*
X004012Y004704D01*
X004002Y004762D01*
X003996Y004821D01*
X003994Y004880D01*
X003110Y004880D02*
X003112Y004967D01*
X003119Y005053D01*
X003129Y005140D01*
X003144Y005225D01*
X003163Y005310D01*
X003186Y005394D01*
X003213Y005476D01*
X003245Y005557D01*
X003280Y005637D01*
X003319Y005714D01*
X003362Y005790D01*
X003408Y005863D01*
X003458Y005934D01*
X003512Y006003D01*
X003569Y006069D01*
X003628Y006132D01*
X003691Y006191D01*
X003757Y006248D01*
X003826Y006302D01*
X003897Y006352D01*
X003970Y006398D01*
X004046Y006441D01*
X004123Y006480D01*
X004203Y006515D01*
X004284Y006547D01*
X004366Y006574D01*
X004450Y006597D01*
X004535Y006616D01*
X004620Y006631D01*
X004707Y006641D01*
X004793Y006648D01*
X004880Y006650D01*
X004967Y006648D01*
X005053Y006641D01*
X005140Y006631D01*
X005225Y006616D01*
X005310Y006597D01*
X005394Y006574D01*
X005476Y006547D01*
X005557Y006515D01*
X005637Y006480D01*
X005714Y006441D01*
X005790Y006398D01*
X005863Y006352D01*
X005934Y006302D01*
X006003Y006248D01*
X006069Y006191D01*
X006132Y006132D01*
X006191Y006069D01*
X006248Y006003D01*
X006302Y005934D01*
X006352Y005863D01*
X006398Y005790D01*
X006441Y005714D01*
X006480Y005637D01*
X006515Y005557D01*
X006547Y005476D01*
X006574Y005394D01*
X006597Y005310D01*
X006616Y005225D01*
X006631Y005140D01*
X006641Y005053D01*
X006648Y004967D01*
X006650Y004880D01*
X006648Y004793D01*
X006641Y004707D01*
X006631Y004620D01*
X006616Y004535D01*
X006597Y004450D01*
X006574Y004366D01*
X006547Y004284D01*
X006515Y004203D01*
X006480Y004123D01*
X006441Y004046D01*
X006398Y003970D01*
X006352Y003897D01*
X006302Y003826D01*
X006248Y003757D01*
X006191Y003691D01*
X006132Y003628D01*
X006069Y003569D01*
X006003Y003512D01*
X005934Y003458D01*
X005863Y003408D01*
X005790Y003362D01*
X005714Y003319D01*
X005637Y003280D01*
X005557Y003245D01*
X005476Y003213D01*
X005394Y003186D01*
X005310Y003163D01*
X005225Y003144D01*
X005140Y003129D01*
X005053Y003119D01*
X004967Y003112D01*
X004880Y003110D01*
X004793Y003112D01*
X004707Y003119D01*
X004620Y003129D01*
X004535Y003144D01*
X004450Y003163D01*
X004366Y003186D01*
X004284Y003213D01*
X004203Y003245D01*
X004123Y003280D01*
X004046Y003319D01*
X003970Y003362D01*
X003897Y003408D01*
X003826Y003458D01*
X003757Y003512D01*
X003691Y003569D01*
X003628Y003628D01*
X003569Y003691D01*
X003512Y003757D01*
X003458Y003826D01*
X003408Y003897D01*
X003362Y003970D01*
X003319Y004046D01*
X003280Y004123D01*
X003245Y004203D01*
X003213Y004284D01*
X003186Y004366D01*
X003163Y004450D01*
X003144Y004535D01*
X003129Y004620D01*
X003119Y004707D01*
X003112Y004793D01*
X003110Y004880D01*
X006880Y013260D02*
X006880Y013680D01*
X006880Y014080D01*
X006880Y014500D01*
X006882Y014523D01*
X006887Y014546D01*
X006896Y014568D01*
X006909Y014588D01*
X006924Y014606D01*
X006942Y014621D01*
X006962Y014634D01*
X006984Y014643D01*
X007007Y014648D01*
X007030Y014650D01*
X006880Y014080D02*
X006907Y014078D01*
X006934Y014073D01*
X006960Y014063D01*
X006984Y014051D01*
X007006Y014035D01*
X007026Y014017D01*
X007043Y013995D01*
X007058Y013972D01*
X007068Y013947D01*
X007076Y013921D01*
X007080Y013894D01*
X007080Y013866D01*
X007076Y013839D01*
X007068Y013813D01*
X007058Y013788D01*
X007043Y013765D01*
X007026Y013743D01*
X007006Y013725D01*
X006984Y013709D01*
X006960Y013697D01*
X006934Y013687D01*
X006907Y013682D01*
X006880Y013680D01*
X006880Y013260D02*
X006882Y013237D01*
X006887Y013214D01*
X006896Y013192D01*
X006909Y013172D01*
X006924Y013154D01*
X006942Y013139D01*
X006962Y013126D01*
X006984Y013117D01*
X007007Y013112D01*
X007030Y013110D01*
X010230Y013110D02*
X010253Y013112D01*
X010276Y013117D01*
X010298Y013126D01*
X010318Y013139D01*
X010336Y013154D01*
X010351Y013172D01*
X010364Y013192D01*
X010373Y013214D01*
X010378Y013237D01*
X010380Y013260D01*
X010380Y014500D01*
X010378Y014523D01*
X010373Y014546D01*
X010364Y014568D01*
X010351Y014588D01*
X010336Y014606D01*
X010318Y014621D01*
X010298Y014634D01*
X010276Y014643D01*
X010253Y014648D01*
X010230Y014650D01*
X011880Y014500D02*
X011880Y014080D01*
X011880Y013680D01*
X011880Y013260D01*
X011882Y013237D01*
X011887Y013214D01*
X011896Y013192D01*
X011909Y013172D01*
X011924Y013154D01*
X011942Y013139D01*
X011962Y013126D01*
X011984Y013117D01*
X012007Y013112D01*
X012030Y013110D01*
X011880Y013680D02*
X011907Y013682D01*
X011934Y013687D01*
X011960Y013697D01*
X011984Y013709D01*
X012006Y013725D01*
X012026Y013743D01*
X012043Y013765D01*
X012058Y013788D01*
X012068Y013813D01*
X012076Y013839D01*
X012080Y013866D01*
X012080Y013894D01*
X012076Y013921D01*
X012068Y013947D01*
X012058Y013972D01*
X012043Y013995D01*
X012026Y014017D01*
X012006Y014035D01*
X011984Y014051D01*
X011960Y014063D01*
X011934Y014073D01*
X011907Y014078D01*
X011880Y014080D01*
X011880Y014500D02*
X011882Y014523D01*
X011887Y014546D01*
X011896Y014568D01*
X011909Y014588D01*
X011924Y014606D01*
X011942Y014621D01*
X011962Y014634D01*
X011984Y014643D01*
X012007Y014648D01*
X012030Y014650D01*
X015230Y014650D02*
X015253Y014648D01*
X015276Y014643D01*
X015298Y014634D01*
X015318Y014621D01*
X015336Y014606D01*
X015351Y014588D01*
X015364Y014568D01*
X015373Y014546D01*
X015378Y014523D01*
X015380Y014500D01*
X015380Y013260D01*
X015378Y013237D01*
X015373Y013214D01*
X015364Y013192D01*
X015351Y013172D01*
X015336Y013154D01*
X015318Y013139D01*
X015298Y013126D01*
X015276Y013117D01*
X015253Y013112D01*
X015230Y013110D01*
X015230Y021610D02*
X015253Y021612D01*
X015276Y021617D01*
X015298Y021626D01*
X015318Y021639D01*
X015336Y021654D01*
X015351Y021672D01*
X015364Y021692D01*
X015373Y021714D01*
X015378Y021737D01*
X015380Y021760D01*
X015380Y023000D01*
X015378Y023023D01*
X015373Y023046D01*
X015364Y023068D01*
X015351Y023088D01*
X015336Y023106D01*
X015318Y023121D01*
X015298Y023134D01*
X015276Y023143D01*
X015253Y023148D01*
X015230Y023150D01*
X012030Y023150D02*
X012007Y023148D01*
X011984Y023143D01*
X011962Y023134D01*
X011942Y023121D01*
X011924Y023106D01*
X011909Y023088D01*
X011896Y023068D01*
X011887Y023046D01*
X011882Y023023D01*
X011880Y023000D01*
X011880Y022580D01*
X011880Y022180D01*
X011880Y021760D01*
X011882Y021737D01*
X011887Y021714D01*
X011896Y021692D01*
X011909Y021672D01*
X011924Y021654D01*
X011942Y021639D01*
X011962Y021626D01*
X011984Y021617D01*
X012007Y021612D01*
X012030Y021610D01*
X011880Y022180D02*
X011907Y022182D01*
X011934Y022187D01*
X011960Y022197D01*
X011984Y022209D01*
X012006Y022225D01*
X012026Y022243D01*
X012043Y022265D01*
X012058Y022288D01*
X012068Y022313D01*
X012076Y022339D01*
X012080Y022366D01*
X012080Y022394D01*
X012076Y022421D01*
X012068Y022447D01*
X012058Y022472D01*
X012043Y022495D01*
X012026Y022517D01*
X012006Y022535D01*
X011984Y022551D01*
X011960Y022563D01*
X011934Y022573D01*
X011907Y022578D01*
X011880Y022580D01*
X010380Y023000D02*
X010380Y021760D01*
X010378Y021737D01*
X010373Y021714D01*
X010364Y021692D01*
X010351Y021672D01*
X010336Y021654D01*
X010318Y021639D01*
X010298Y021626D01*
X010276Y021617D01*
X010253Y021612D01*
X010230Y021610D01*
X010380Y023000D02*
X010378Y023023D01*
X010373Y023046D01*
X010364Y023068D01*
X010351Y023088D01*
X010336Y023106D01*
X010318Y023121D01*
X010298Y023134D01*
X010276Y023143D01*
X010253Y023148D01*
X010230Y023150D01*
X007030Y023150D02*
X007007Y023148D01*
X006984Y023143D01*
X006962Y023134D01*
X006942Y023121D01*
X006924Y023106D01*
X006909Y023088D01*
X006896Y023068D01*
X006887Y023046D01*
X006882Y023023D01*
X006880Y023000D01*
X006880Y022580D01*
X006880Y022180D01*
X006880Y021760D01*
X006882Y021737D01*
X006887Y021714D01*
X006896Y021692D01*
X006909Y021672D01*
X006924Y021654D01*
X006942Y021639D01*
X006962Y021626D01*
X006984Y021617D01*
X007007Y021612D01*
X007030Y021610D01*
X006880Y022180D02*
X006907Y022182D01*
X006934Y022187D01*
X006960Y022197D01*
X006984Y022209D01*
X007006Y022225D01*
X007026Y022243D01*
X007043Y022265D01*
X007058Y022288D01*
X007068Y022313D01*
X007076Y022339D01*
X007080Y022366D01*
X007080Y022394D01*
X007076Y022421D01*
X007068Y022447D01*
X007058Y022472D01*
X007043Y022495D01*
X007026Y022517D01*
X007006Y022535D01*
X006984Y022551D01*
X006960Y022563D01*
X006934Y022573D01*
X006907Y022578D01*
X006880Y022580D01*
X003869Y038880D02*
X003871Y038939D01*
X003877Y038998D01*
X003887Y039056D01*
X003900Y039114D01*
X003918Y039171D01*
X003939Y039226D01*
X003964Y039280D01*
X003993Y039332D01*
X004025Y039381D01*
X004060Y039429D01*
X004098Y039474D01*
X004139Y039517D01*
X004183Y039557D01*
X004229Y039593D01*
X004278Y039627D01*
X004329Y039657D01*
X004382Y039684D01*
X004437Y039707D01*
X004492Y039726D01*
X004550Y039742D01*
X004608Y039754D01*
X004666Y039762D01*
X004725Y039766D01*
X004785Y039766D01*
X004844Y039762D01*
X004902Y039754D01*
X004960Y039742D01*
X005018Y039726D01*
X005073Y039707D01*
X005128Y039684D01*
X005181Y039657D01*
X005232Y039627D01*
X005281Y039593D01*
X005327Y039557D01*
X005371Y039517D01*
X005412Y039474D01*
X005450Y039429D01*
X005485Y039381D01*
X005517Y039332D01*
X005546Y039280D01*
X005571Y039226D01*
X005592Y039171D01*
X005610Y039114D01*
X005623Y039056D01*
X005633Y038998D01*
X005639Y038939D01*
X005641Y038880D01*
X005639Y038821D01*
X005633Y038762D01*
X005623Y038704D01*
X005610Y038646D01*
X005592Y038589D01*
X005571Y038534D01*
X005546Y038480D01*
X005517Y038428D01*
X005485Y038379D01*
X005450Y038331D01*
X005412Y038286D01*
X005371Y038243D01*
X005327Y038203D01*
X005281Y038167D01*
X005232Y038133D01*
X005181Y038103D01*
X005128Y038076D01*
X005073Y038053D01*
X005018Y038034D01*
X004960Y038018D01*
X004902Y038006D01*
X004844Y037998D01*
X004785Y037994D01*
X004725Y037994D01*
X004666Y037998D01*
X004608Y038006D01*
X004550Y038018D01*
X004492Y038034D01*
X004437Y038053D01*
X004382Y038076D01*
X004329Y038103D01*
X004278Y038133D01*
X004229Y038167D01*
X004183Y038203D01*
X004139Y038243D01*
X004098Y038286D01*
X004060Y038331D01*
X004025Y038379D01*
X003993Y038428D01*
X003964Y038480D01*
X003939Y038534D01*
X003918Y038589D01*
X003900Y038646D01*
X003887Y038704D01*
X003877Y038762D01*
X003871Y038821D01*
X003869Y038880D01*
X002985Y038880D02*
X002987Y038967D01*
X002994Y039053D01*
X003004Y039140D01*
X003019Y039225D01*
X003038Y039310D01*
X003061Y039394D01*
X003088Y039476D01*
X003120Y039557D01*
X003155Y039637D01*
X003194Y039714D01*
X003237Y039790D01*
X003283Y039863D01*
X003333Y039934D01*
X003387Y040003D01*
X003444Y040069D01*
X003503Y040132D01*
X003566Y040191D01*
X003632Y040248D01*
X003701Y040302D01*
X003772Y040352D01*
X003845Y040398D01*
X003921Y040441D01*
X003998Y040480D01*
X004078Y040515D01*
X004159Y040547D01*
X004241Y040574D01*
X004325Y040597D01*
X004410Y040616D01*
X004495Y040631D01*
X004582Y040641D01*
X004668Y040648D01*
X004755Y040650D01*
X004842Y040648D01*
X004928Y040641D01*
X005015Y040631D01*
X005100Y040616D01*
X005185Y040597D01*
X005269Y040574D01*
X005351Y040547D01*
X005432Y040515D01*
X005512Y040480D01*
X005589Y040441D01*
X005665Y040398D01*
X005738Y040352D01*
X005809Y040302D01*
X005878Y040248D01*
X005944Y040191D01*
X006007Y040132D01*
X006066Y040069D01*
X006123Y040003D01*
X006177Y039934D01*
X006227Y039863D01*
X006273Y039790D01*
X006316Y039714D01*
X006355Y039637D01*
X006390Y039557D01*
X006422Y039476D01*
X006449Y039394D01*
X006472Y039310D01*
X006491Y039225D01*
X006506Y039140D01*
X006516Y039053D01*
X006523Y038967D01*
X006525Y038880D01*
X006523Y038793D01*
X006516Y038707D01*
X006506Y038620D01*
X006491Y038535D01*
X006472Y038450D01*
X006449Y038366D01*
X006422Y038284D01*
X006390Y038203D01*
X006355Y038123D01*
X006316Y038046D01*
X006273Y037970D01*
X006227Y037897D01*
X006177Y037826D01*
X006123Y037757D01*
X006066Y037691D01*
X006007Y037628D01*
X005944Y037569D01*
X005878Y037512D01*
X005809Y037458D01*
X005738Y037408D01*
X005665Y037362D01*
X005589Y037319D01*
X005512Y037280D01*
X005432Y037245D01*
X005351Y037213D01*
X005269Y037186D01*
X005185Y037163D01*
X005100Y037144D01*
X005015Y037129D01*
X004928Y037119D01*
X004842Y037112D01*
X004755Y037110D01*
X004668Y037112D01*
X004582Y037119D01*
X004495Y037129D01*
X004410Y037144D01*
X004325Y037163D01*
X004241Y037186D01*
X004159Y037213D01*
X004078Y037245D01*
X003998Y037280D01*
X003921Y037319D01*
X003845Y037362D01*
X003772Y037408D01*
X003701Y037458D01*
X003632Y037512D01*
X003566Y037569D01*
X003503Y037628D01*
X003444Y037691D01*
X003387Y037757D01*
X003333Y037826D01*
X003283Y037897D01*
X003237Y037970D01*
X003194Y038046D01*
X003155Y038123D01*
X003120Y038203D01*
X003088Y038284D01*
X003061Y038366D01*
X003038Y038450D01*
X003019Y038535D01*
X003004Y038620D01*
X002994Y038707D01*
X002987Y038793D01*
X002985Y038880D01*
X017262Y039394D02*
X017498Y039394D01*
X017498Y039866D02*
X017262Y039866D01*
X024880Y034180D02*
X024880Y033580D01*
X024882Y033563D01*
X024886Y033546D01*
X024893Y033530D01*
X024903Y033516D01*
X024916Y033503D01*
X024930Y033493D01*
X024946Y033486D01*
X024963Y033482D01*
X024980Y033480D01*
X025980Y033480D01*
X025997Y033482D01*
X026014Y033486D01*
X026030Y033493D01*
X026044Y033503D01*
X026057Y033516D01*
X026067Y033530D01*
X026074Y033546D01*
X026078Y033563D01*
X026080Y033580D01*
X026080Y034180D01*
X026078Y034197D01*
X026074Y034214D01*
X026067Y034230D01*
X026057Y034244D01*
X026044Y034257D01*
X026030Y034267D01*
X026014Y034274D01*
X025997Y034278D01*
X025980Y034280D01*
X024980Y034280D01*
X024963Y034278D01*
X024946Y034274D01*
X024930Y034267D01*
X024916Y034257D01*
X024903Y034244D01*
X024893Y034230D01*
X024886Y034214D01*
X024882Y034197D01*
X024880Y034180D01*
X024980Y033280D02*
X025980Y033280D01*
X025997Y033278D01*
X026014Y033274D01*
X026030Y033267D01*
X026044Y033257D01*
X026057Y033244D01*
X026067Y033230D01*
X026074Y033214D01*
X026078Y033197D01*
X026080Y033180D01*
X026080Y032580D01*
X026078Y032563D01*
X026074Y032546D01*
X026067Y032530D01*
X026057Y032516D01*
X026044Y032503D01*
X026030Y032493D01*
X026014Y032486D01*
X025997Y032482D01*
X025980Y032480D01*
X024980Y032480D01*
X024963Y032482D01*
X024946Y032486D01*
X024930Y032493D01*
X024916Y032503D01*
X024903Y032516D01*
X024893Y032530D01*
X024886Y032546D01*
X024882Y032563D01*
X024880Y032580D01*
X024880Y033180D01*
X024882Y033197D01*
X024886Y033214D01*
X024893Y033230D01*
X024903Y033244D01*
X024916Y033257D01*
X024930Y033267D01*
X024946Y033274D01*
X024963Y033278D01*
X024980Y033280D01*
X025244Y038880D02*
X025246Y038939D01*
X025252Y038998D01*
X025262Y039056D01*
X025275Y039114D01*
X025293Y039171D01*
X025314Y039226D01*
X025339Y039280D01*
X025368Y039332D01*
X025400Y039381D01*
X025435Y039429D01*
X025473Y039474D01*
X025514Y039517D01*
X025558Y039557D01*
X025604Y039593D01*
X025653Y039627D01*
X025704Y039657D01*
X025757Y039684D01*
X025812Y039707D01*
X025867Y039726D01*
X025925Y039742D01*
X025983Y039754D01*
X026041Y039762D01*
X026100Y039766D01*
X026160Y039766D01*
X026219Y039762D01*
X026277Y039754D01*
X026335Y039742D01*
X026393Y039726D01*
X026448Y039707D01*
X026503Y039684D01*
X026556Y039657D01*
X026607Y039627D01*
X026656Y039593D01*
X026702Y039557D01*
X026746Y039517D01*
X026787Y039474D01*
X026825Y039429D01*
X026860Y039381D01*
X026892Y039332D01*
X026921Y039280D01*
X026946Y039226D01*
X026967Y039171D01*
X026985Y039114D01*
X026998Y039056D01*
X027008Y038998D01*
X027014Y038939D01*
X027016Y038880D01*
X027014Y038821D01*
X027008Y038762D01*
X026998Y038704D01*
X026985Y038646D01*
X026967Y038589D01*
X026946Y038534D01*
X026921Y038480D01*
X026892Y038428D01*
X026860Y038379D01*
X026825Y038331D01*
X026787Y038286D01*
X026746Y038243D01*
X026702Y038203D01*
X026656Y038167D01*
X026607Y038133D01*
X026556Y038103D01*
X026503Y038076D01*
X026448Y038053D01*
X026393Y038034D01*
X026335Y038018D01*
X026277Y038006D01*
X026219Y037998D01*
X026160Y037994D01*
X026100Y037994D01*
X026041Y037998D01*
X025983Y038006D01*
X025925Y038018D01*
X025867Y038034D01*
X025812Y038053D01*
X025757Y038076D01*
X025704Y038103D01*
X025653Y038133D01*
X025604Y038167D01*
X025558Y038203D01*
X025514Y038243D01*
X025473Y038286D01*
X025435Y038331D01*
X025400Y038379D01*
X025368Y038428D01*
X025339Y038480D01*
X025314Y038534D01*
X025293Y038589D01*
X025275Y038646D01*
X025262Y038704D01*
X025252Y038762D01*
X025246Y038821D01*
X025244Y038880D01*
X024360Y038880D02*
X024362Y038967D01*
X024369Y039053D01*
X024379Y039140D01*
X024394Y039225D01*
X024413Y039310D01*
X024436Y039394D01*
X024463Y039476D01*
X024495Y039557D01*
X024530Y039637D01*
X024569Y039714D01*
X024612Y039790D01*
X024658Y039863D01*
X024708Y039934D01*
X024762Y040003D01*
X024819Y040069D01*
X024878Y040132D01*
X024941Y040191D01*
X025007Y040248D01*
X025076Y040302D01*
X025147Y040352D01*
X025220Y040398D01*
X025296Y040441D01*
X025373Y040480D01*
X025453Y040515D01*
X025534Y040547D01*
X025616Y040574D01*
X025700Y040597D01*
X025785Y040616D01*
X025870Y040631D01*
X025957Y040641D01*
X026043Y040648D01*
X026130Y040650D01*
X026217Y040648D01*
X026303Y040641D01*
X026390Y040631D01*
X026475Y040616D01*
X026560Y040597D01*
X026644Y040574D01*
X026726Y040547D01*
X026807Y040515D01*
X026887Y040480D01*
X026964Y040441D01*
X027040Y040398D01*
X027113Y040352D01*
X027184Y040302D01*
X027253Y040248D01*
X027319Y040191D01*
X027382Y040132D01*
X027441Y040069D01*
X027498Y040003D01*
X027552Y039934D01*
X027602Y039863D01*
X027648Y039790D01*
X027691Y039714D01*
X027730Y039637D01*
X027765Y039557D01*
X027797Y039476D01*
X027824Y039394D01*
X027847Y039310D01*
X027866Y039225D01*
X027881Y039140D01*
X027891Y039053D01*
X027898Y038967D01*
X027900Y038880D01*
X027898Y038793D01*
X027891Y038707D01*
X027881Y038620D01*
X027866Y038535D01*
X027847Y038450D01*
X027824Y038366D01*
X027797Y038284D01*
X027765Y038203D01*
X027730Y038123D01*
X027691Y038046D01*
X027648Y037970D01*
X027602Y037897D01*
X027552Y037826D01*
X027498Y037757D01*
X027441Y037691D01*
X027382Y037628D01*
X027319Y037569D01*
X027253Y037512D01*
X027184Y037458D01*
X027113Y037408D01*
X027040Y037362D01*
X026964Y037319D01*
X026887Y037280D01*
X026807Y037245D01*
X026726Y037213D01*
X026644Y037186D01*
X026560Y037163D01*
X026475Y037144D01*
X026390Y037129D01*
X026303Y037119D01*
X026217Y037112D01*
X026130Y037110D01*
X026043Y037112D01*
X025957Y037119D01*
X025870Y037129D01*
X025785Y037144D01*
X025700Y037163D01*
X025616Y037186D01*
X025534Y037213D01*
X025453Y037245D01*
X025373Y037280D01*
X025296Y037319D01*
X025220Y037362D01*
X025147Y037408D01*
X025076Y037458D01*
X025007Y037512D01*
X024941Y037569D01*
X024878Y037628D01*
X024819Y037691D01*
X024762Y037757D01*
X024708Y037826D01*
X024658Y037897D01*
X024612Y037970D01*
X024569Y038046D01*
X024530Y038123D01*
X024495Y038203D01*
X024463Y038284D01*
X024436Y038366D01*
X024413Y038450D01*
X024394Y038535D01*
X024379Y038620D01*
X024369Y038707D01*
X024362Y038793D01*
X024360Y038880D01*
X024690Y019890D02*
X023570Y019890D01*
X023570Y019370D01*
X024690Y019370D01*
X024690Y019890D01*
X022818Y019890D02*
X022818Y019370D01*
X021698Y019370D01*
X021698Y019890D01*
X022818Y019890D01*
X021640Y016260D02*
X021500Y016120D01*
X021500Y013500D01*
X024260Y013500D01*
X024260Y016260D01*
X021640Y016260D01*
X021659Y015960D02*
X021661Y015983D01*
X021667Y016006D01*
X021676Y016027D01*
X021689Y016047D01*
X021705Y016064D01*
X021723Y016078D01*
X021743Y016089D01*
X021765Y016097D01*
X021788Y016101D01*
X021812Y016101D01*
X021835Y016097D01*
X021857Y016089D01*
X021877Y016078D01*
X021895Y016064D01*
X021911Y016047D01*
X021924Y016027D01*
X021933Y016006D01*
X021939Y015983D01*
X021941Y015960D01*
X021939Y015937D01*
X021933Y015914D01*
X021924Y015893D01*
X021911Y015873D01*
X021895Y015856D01*
X021877Y015842D01*
X021857Y015831D01*
X021835Y015823D01*
X021812Y015819D01*
X021788Y015819D01*
X021765Y015823D01*
X021743Y015831D01*
X021723Y015842D01*
X021705Y015856D01*
X021689Y015873D01*
X021676Y015893D01*
X021667Y015914D01*
X021661Y015937D01*
X021659Y015960D01*
X027230Y011880D02*
X027230Y010880D01*
X027232Y010863D01*
X027236Y010846D01*
X027243Y010830D01*
X027253Y010816D01*
X027266Y010803D01*
X027280Y010793D01*
X027296Y010786D01*
X027313Y010782D01*
X027330Y010780D01*
X027930Y010780D01*
X027947Y010782D01*
X027964Y010786D01*
X027980Y010793D01*
X027994Y010803D01*
X028007Y010816D01*
X028017Y010830D01*
X028024Y010846D01*
X028028Y010863D01*
X028030Y010880D01*
X028030Y011880D01*
X028028Y011897D01*
X028024Y011914D01*
X028017Y011930D01*
X028007Y011944D01*
X027994Y011957D01*
X027980Y011967D01*
X027964Y011974D01*
X027947Y011978D01*
X027930Y011980D01*
X027330Y011980D01*
X027313Y011978D01*
X027296Y011974D01*
X027280Y011967D01*
X027266Y011957D01*
X027253Y011944D01*
X027243Y011930D01*
X027236Y011914D01*
X027232Y011897D01*
X027230Y011880D01*
X025244Y004880D02*
X025246Y004939D01*
X025252Y004998D01*
X025262Y005056D01*
X025275Y005114D01*
X025293Y005171D01*
X025314Y005226D01*
X025339Y005280D01*
X025368Y005332D01*
X025400Y005381D01*
X025435Y005429D01*
X025473Y005474D01*
X025514Y005517D01*
X025558Y005557D01*
X025604Y005593D01*
X025653Y005627D01*
X025704Y005657D01*
X025757Y005684D01*
X025812Y005707D01*
X025867Y005726D01*
X025925Y005742D01*
X025983Y005754D01*
X026041Y005762D01*
X026100Y005766D01*
X026160Y005766D01*
X026219Y005762D01*
X026277Y005754D01*
X026335Y005742D01*
X026393Y005726D01*
X026448Y005707D01*
X026503Y005684D01*
X026556Y005657D01*
X026607Y005627D01*
X026656Y005593D01*
X026702Y005557D01*
X026746Y005517D01*
X026787Y005474D01*
X026825Y005429D01*
X026860Y005381D01*
X026892Y005332D01*
X026921Y005280D01*
X026946Y005226D01*
X026967Y005171D01*
X026985Y005114D01*
X026998Y005056D01*
X027008Y004998D01*
X027014Y004939D01*
X027016Y004880D01*
X027014Y004821D01*
X027008Y004762D01*
X026998Y004704D01*
X026985Y004646D01*
X026967Y004589D01*
X026946Y004534D01*
X026921Y004480D01*
X026892Y004428D01*
X026860Y004379D01*
X026825Y004331D01*
X026787Y004286D01*
X026746Y004243D01*
X026702Y004203D01*
X026656Y004167D01*
X026607Y004133D01*
X026556Y004103D01*
X026503Y004076D01*
X026448Y004053D01*
X026393Y004034D01*
X026335Y004018D01*
X026277Y004006D01*
X026219Y003998D01*
X026160Y003994D01*
X026100Y003994D01*
X026041Y003998D01*
X025983Y004006D01*
X025925Y004018D01*
X025867Y004034D01*
X025812Y004053D01*
X025757Y004076D01*
X025704Y004103D01*
X025653Y004133D01*
X025604Y004167D01*
X025558Y004203D01*
X025514Y004243D01*
X025473Y004286D01*
X025435Y004331D01*
X025400Y004379D01*
X025368Y004428D01*
X025339Y004480D01*
X025314Y004534D01*
X025293Y004589D01*
X025275Y004646D01*
X025262Y004704D01*
X025252Y004762D01*
X025246Y004821D01*
X025244Y004880D01*
X024360Y004880D02*
X024362Y004967D01*
X024369Y005053D01*
X024379Y005140D01*
X024394Y005225D01*
X024413Y005310D01*
X024436Y005394D01*
X024463Y005476D01*
X024495Y005557D01*
X024530Y005637D01*
X024569Y005714D01*
X024612Y005790D01*
X024658Y005863D01*
X024708Y005934D01*
X024762Y006003D01*
X024819Y006069D01*
X024878Y006132D01*
X024941Y006191D01*
X025007Y006248D01*
X025076Y006302D01*
X025147Y006352D01*
X025220Y006398D01*
X025296Y006441D01*
X025373Y006480D01*
X025453Y006515D01*
X025534Y006547D01*
X025616Y006574D01*
X025700Y006597D01*
X025785Y006616D01*
X025870Y006631D01*
X025957Y006641D01*
X026043Y006648D01*
X026130Y006650D01*
X026217Y006648D01*
X026303Y006641D01*
X026390Y006631D01*
X026475Y006616D01*
X026560Y006597D01*
X026644Y006574D01*
X026726Y006547D01*
X026807Y006515D01*
X026887Y006480D01*
X026964Y006441D01*
X027040Y006398D01*
X027113Y006352D01*
X027184Y006302D01*
X027253Y006248D01*
X027319Y006191D01*
X027382Y006132D01*
X027441Y006069D01*
X027498Y006003D01*
X027552Y005934D01*
X027602Y005863D01*
X027648Y005790D01*
X027691Y005714D01*
X027730Y005637D01*
X027765Y005557D01*
X027797Y005476D01*
X027824Y005394D01*
X027847Y005310D01*
X027866Y005225D01*
X027881Y005140D01*
X027891Y005053D01*
X027898Y004967D01*
X027900Y004880D01*
X027898Y004793D01*
X027891Y004707D01*
X027881Y004620D01*
X027866Y004535D01*
X027847Y004450D01*
X027824Y004366D01*
X027797Y004284D01*
X027765Y004203D01*
X027730Y004123D01*
X027691Y004046D01*
X027648Y003970D01*
X027602Y003897D01*
X027552Y003826D01*
X027498Y003757D01*
X027441Y003691D01*
X027382Y003628D01*
X027319Y003569D01*
X027253Y003512D01*
X027184Y003458D01*
X027113Y003408D01*
X027040Y003362D01*
X026964Y003319D01*
X026887Y003280D01*
X026807Y003245D01*
X026726Y003213D01*
X026644Y003186D01*
X026560Y003163D01*
X026475Y003144D01*
X026390Y003129D01*
X026303Y003119D01*
X026217Y003112D01*
X026130Y003110D01*
X026043Y003112D01*
X025957Y003119D01*
X025870Y003129D01*
X025785Y003144D01*
X025700Y003163D01*
X025616Y003186D01*
X025534Y003213D01*
X025453Y003245D01*
X025373Y003280D01*
X025296Y003319D01*
X025220Y003362D01*
X025147Y003408D01*
X025076Y003458D01*
X025007Y003512D01*
X024941Y003569D01*
X024878Y003628D01*
X024819Y003691D01*
X024762Y003757D01*
X024708Y003826D01*
X024658Y003897D01*
X024612Y003970D01*
X024569Y004046D01*
X024530Y004123D01*
X024495Y004203D01*
X024463Y004284D01*
X024436Y004366D01*
X024413Y004450D01*
X024394Y004535D01*
X024379Y004620D01*
X024369Y004707D01*
X024362Y004793D01*
X024360Y004880D01*
D11*
X023999Y007440D02*
X023011Y007440D01*
X022511Y007834D02*
X022511Y009046D01*
X023023Y009440D02*
X023999Y009440D01*
X024511Y009046D02*
X024511Y007834D01*
X025130Y008380D02*
X025130Y008880D01*
X025380Y009130D01*
X026880Y009130D01*
X027130Y008880D01*
X027130Y008380D01*
X026880Y008130D01*
X025380Y008130D01*
X025130Y008380D01*
X025380Y009130D02*
X025130Y009380D01*
X025130Y009880D01*
X025380Y010130D01*
X026880Y010130D01*
X027130Y009880D01*
X027130Y009380D01*
X026880Y009130D01*
X026880Y010130D02*
X027130Y010380D01*
X027130Y010880D01*
X026880Y011130D01*
X025380Y011130D01*
X025130Y010880D01*
X025130Y010380D01*
X025380Y010130D01*
X024998Y010380D02*
X024998Y010880D01*
X026139Y011640D02*
X026209Y011570D01*
X026349Y011570D01*
X026419Y011640D01*
X026419Y011780D01*
X026279Y011780D01*
X026139Y011920D02*
X026139Y011640D01*
X026139Y011920D02*
X026209Y011990D01*
X026349Y011990D01*
X026419Y011920D01*
X026599Y011990D02*
X026809Y011990D01*
X026879Y011920D01*
X026879Y011780D01*
X026809Y011710D01*
X026599Y011710D01*
X026599Y011570D02*
X026599Y011990D01*
X026739Y011710D02*
X026879Y011570D01*
X027060Y011570D02*
X027060Y011990D01*
X027340Y011570D01*
X027340Y011990D01*
X023011Y008440D02*
X023013Y008484D01*
X023019Y008528D01*
X023029Y008571D01*
X023042Y008613D01*
X023059Y008654D01*
X023080Y008693D01*
X023104Y008730D01*
X023131Y008765D01*
X023161Y008797D01*
X023194Y008827D01*
X023230Y008853D01*
X023267Y008877D01*
X023307Y008896D01*
X023348Y008913D01*
X023391Y008925D01*
X023434Y008934D01*
X023478Y008939D01*
X023522Y008940D01*
X023566Y008937D01*
X023610Y008930D01*
X023653Y008919D01*
X023695Y008905D01*
X023735Y008887D01*
X023774Y008865D01*
X023810Y008841D01*
X023844Y008813D01*
X023876Y008782D01*
X023905Y008748D01*
X023931Y008712D01*
X023953Y008674D01*
X023972Y008634D01*
X023987Y008592D01*
X023999Y008550D01*
X024007Y008506D01*
X024011Y008462D01*
X024011Y008418D01*
X024007Y008374D01*
X023999Y008330D01*
X023987Y008288D01*
X023972Y008246D01*
X023953Y008206D01*
X023931Y008168D01*
X023905Y008132D01*
X023876Y008098D01*
X023844Y008067D01*
X023810Y008039D01*
X023774Y008015D01*
X023735Y007993D01*
X023695Y007975D01*
X023653Y007961D01*
X023610Y007950D01*
X023566Y007943D01*
X023522Y007940D01*
X023478Y007941D01*
X023434Y007946D01*
X023391Y007955D01*
X023348Y007967D01*
X023307Y007984D01*
X023267Y008003D01*
X023230Y008027D01*
X023194Y008053D01*
X023161Y008083D01*
X023131Y008115D01*
X023104Y008150D01*
X023080Y008187D01*
X023059Y008226D01*
X023042Y008267D01*
X023029Y008309D01*
X023019Y008352D01*
X023013Y008396D01*
X023011Y008440D01*
X020136Y012671D02*
X019624Y012671D01*
X019624Y014089D02*
X020136Y014089D01*
X018567Y006784D02*
X016371Y006784D01*
X016371Y006173D01*
X014889Y006173D01*
X014889Y006784D01*
X016371Y006784D01*
X016374Y006419D02*
X018124Y006419D01*
X018124Y003841D01*
X013871Y003841D01*
X013871Y004087D02*
X013871Y003476D01*
X012389Y003476D01*
X010468Y003476D01*
X010468Y003595D01*
X009886Y003595D01*
X009886Y003476D01*
X007693Y003476D01*
X007693Y006784D01*
X009889Y006784D01*
X009889Y006173D01*
X011371Y006173D01*
X011371Y006784D01*
X014889Y006784D01*
X014888Y006419D02*
X011372Y006419D01*
X011371Y006784D02*
X009889Y006784D01*
X009886Y006419D02*
X008136Y006419D01*
X008136Y003841D01*
X012389Y003841D01*
X012389Y004087D02*
X012389Y003476D01*
X012389Y004087D02*
X013871Y004087D01*
X013871Y003476D02*
X015886Y003476D01*
X015886Y003595D01*
X016468Y003595D01*
X016468Y003476D01*
X018567Y003476D01*
X018567Y006784D01*
X026139Y018270D02*
X026349Y018270D01*
X026419Y018340D01*
X026419Y018410D01*
X026349Y018480D01*
X026139Y018480D01*
X026139Y018270D02*
X026139Y018690D01*
X026349Y018690D01*
X026419Y018620D01*
X026419Y018550D01*
X026349Y018480D01*
X026599Y018690D02*
X026599Y018270D01*
X026879Y018270D01*
X027060Y018270D02*
X027060Y018690D01*
X027130Y018480D02*
X027340Y018270D01*
X027060Y018410D02*
X027340Y018690D01*
X027652Y023904D02*
X024148Y023904D01*
X024108Y023904D02*
X024108Y031856D01*
X027652Y031856D01*
X027652Y028746D01*
X027061Y028746D01*
X027061Y027014D01*
X027652Y027014D01*
X027652Y023904D01*
X026973Y025630D02*
X026973Y026130D01*
X027652Y027014D02*
X027652Y028746D01*
X021140Y036090D02*
X018780Y036090D01*
X018780Y038670D01*
X021140Y038670D01*
X016774Y037667D02*
X015986Y037667D01*
X016380Y037667D02*
X015986Y037127D01*
X016774Y037127D01*
X016380Y037667D01*
D12*
X018289Y031471D02*
X019471Y031471D01*
X019471Y030289D01*
X018289Y030289D01*
X018289Y031471D01*
X026630Y018130D02*
X027630Y018130D01*
X027630Y012130D01*
X026630Y012130D01*
X026630Y018130D01*
X026505Y017979D02*
X026460Y018024D01*
X026280Y018024D01*
X026235Y017979D01*
X026235Y017844D01*
X026505Y017844D01*
X026505Y017979D01*
X026505Y017730D02*
X026235Y017730D01*
X026235Y017550D02*
X026505Y017730D01*
X026505Y017550D02*
X026235Y017550D01*
X026280Y017435D02*
X026235Y017390D01*
X026235Y017300D01*
X026280Y017255D01*
X026460Y017255D01*
X026505Y017300D01*
X026505Y017390D01*
X026460Y017435D01*
X026370Y017435D01*
X026370Y017345D01*
X026415Y017024D02*
X026460Y017024D01*
X026505Y016979D01*
X026505Y016889D01*
X026460Y016844D01*
X026370Y016889D02*
X026370Y016979D01*
X026415Y017024D01*
X026280Y017024D02*
X026235Y016979D01*
X026235Y016889D01*
X026280Y016844D01*
X026325Y016844D01*
X026370Y016889D01*
X026235Y016730D02*
X026235Y016550D01*
X026235Y016640D02*
X026505Y016640D01*
X026460Y016435D02*
X026505Y016390D01*
X026505Y016300D01*
X026460Y016255D01*
X026280Y016255D01*
X026235Y016300D01*
X026235Y016390D01*
X026280Y016435D01*
X026280Y016024D02*
X026235Y015979D01*
X026235Y015889D01*
X026280Y015844D01*
X026460Y015844D01*
X026505Y015889D01*
X026505Y015979D01*
X026460Y016024D01*
X026460Y015730D02*
X026505Y015685D01*
X026505Y015595D01*
X026460Y015550D01*
X026280Y015550D01*
X026235Y015595D01*
X026235Y015685D01*
X026280Y015730D01*
X026235Y015435D02*
X026415Y015435D01*
X026505Y015345D01*
X026415Y015255D01*
X026235Y015255D01*
X026235Y014934D02*
X026235Y014844D01*
X026235Y014889D02*
X026505Y014889D01*
X026505Y014844D02*
X026505Y014934D01*
X026505Y014730D02*
X026235Y014550D01*
X026280Y014435D02*
X026370Y014435D01*
X026415Y014390D01*
X026415Y014255D01*
X026505Y014255D02*
X026235Y014255D01*
X026235Y014390D01*
X026280Y014435D01*
X026415Y014345D02*
X026505Y014435D01*
X026505Y014550D02*
X026235Y014730D01*
X026280Y014024D02*
X026235Y013979D01*
X026235Y013889D01*
X026280Y013844D01*
X026460Y013844D01*
X026505Y013889D01*
X026505Y013979D01*
X026460Y014024D01*
X026280Y014024D01*
X026235Y013730D02*
X026505Y013550D01*
X026505Y013730D02*
X026235Y013550D01*
X026235Y013435D02*
X026235Y013255D01*
X026235Y013345D02*
X026505Y013345D01*
X026505Y013024D02*
X026415Y012934D01*
X026415Y012979D02*
X026415Y012844D01*
X026505Y012844D02*
X026235Y012844D01*
X026235Y012979D01*
X026280Y013024D01*
X026370Y013024D01*
X026415Y012979D01*
X026235Y012730D02*
X026235Y012550D01*
X026235Y012640D02*
X026505Y012640D01*
X026460Y012435D02*
X026280Y012435D01*
X026235Y012390D01*
X026235Y012255D01*
X026505Y012255D01*
X026505Y012390D01*
X026460Y012435D01*
D13*
X015380Y013250D02*
X011880Y013250D01*
X010380Y013250D02*
X006880Y013250D01*
X006880Y021750D02*
X010380Y021750D01*
X011880Y021750D02*
X015380Y021750D01*
D14*
X015248Y030065D02*
X015012Y030065D01*
X014539Y030065D02*
X014539Y030695D01*
X015721Y030695D02*
X015721Y030065D01*
D15*
X018590Y037380D03*
D16*
X017130Y038270D02*
X017130Y036490D01*
X015630Y036490D02*
X015630Y038270D01*
D17*
X022306Y039768D02*
X022553Y039768D01*
X022430Y039645D02*
X022430Y039892D01*
X008453Y040400D02*
X008206Y040400D01*
X008330Y040277D02*
X008330Y040524D01*
D18*
X009189Y040366D03*
X009189Y039894D03*
X021571Y039894D03*
X021571Y040366D03*
D19*
X021571Y040130D03*
X009189Y040130D03*
M02*
