G75*
G70*
%OFA0B0*%
%FSLAX24Y24*%
%IPPOS*%
%LPD*%
%AMOC8*
5,1,8,0,0,1.08239X$1,22.5*
%
%ADD10R,0.0400X0.0160*%
%ADD11R,0.0260X0.0800*%
%ADD12R,0.0500X0.0220*%
%ADD13R,0.0220X0.0500*%
%ADD14R,0.0276X0.0394*%
%ADD15R,0.0394X0.0551*%
%ADD16R,0.0374X0.0374*%
%ADD17R,0.0492X0.0394*%
%ADD18R,0.0394X0.0492*%
%ADD19R,0.2441X0.2126*%
%ADD20R,0.0630X0.0394*%
%ADD21R,0.0315X0.0472*%
%ADD22R,0.0669X0.0276*%
%ADD23R,0.0945X0.0945*%
%ADD24R,0.1063X0.0630*%
%ADD25R,0.0472X0.0472*%
%ADD26R,0.0433X0.0551*%
%ADD27R,0.0300X0.0600*%
D10*
X017935Y030496D03*
X017935Y030752D03*
X017935Y031008D03*
X017935Y031264D03*
X019825Y031264D03*
X019825Y031008D03*
X019825Y030752D03*
X019825Y030496D03*
D11*
X015130Y023590D03*
X014630Y023590D03*
X014130Y023590D03*
X013630Y023590D03*
X013130Y023590D03*
X012630Y023590D03*
X012130Y023590D03*
X012130Y021170D03*
X012630Y021170D03*
X013130Y021170D03*
X013630Y021170D03*
X014130Y021170D03*
X014630Y021170D03*
X015130Y021170D03*
X015130Y015090D03*
X014630Y015090D03*
X014130Y015090D03*
X013630Y015090D03*
X013130Y015090D03*
X012630Y015090D03*
X012130Y015090D03*
X012130Y012670D03*
X012630Y012670D03*
X013130Y012670D03*
X013630Y012670D03*
X014130Y012670D03*
X014630Y012670D03*
X015130Y012670D03*
X010130Y012670D03*
X009630Y012670D03*
X009130Y012670D03*
X008630Y012670D03*
X008130Y012670D03*
X007630Y012670D03*
X007130Y012670D03*
X007130Y015090D03*
X007630Y015090D03*
X008130Y015090D03*
X008630Y015090D03*
X009130Y015090D03*
X009630Y015090D03*
X010130Y015090D03*
X010130Y021170D03*
X009630Y021170D03*
X009130Y021170D03*
X008630Y021170D03*
X008130Y021170D03*
X007630Y021170D03*
X007130Y021170D03*
X007130Y023590D03*
X007630Y023590D03*
X008130Y023590D03*
X008630Y023590D03*
X009130Y023590D03*
X009630Y023590D03*
X010130Y023590D03*
D12*
X021190Y015982D03*
X021190Y015667D03*
X021190Y015352D03*
X021190Y015037D03*
X021190Y014723D03*
X021190Y014408D03*
X021190Y014093D03*
X021190Y013778D03*
X024570Y013778D03*
X024570Y014093D03*
X024570Y014408D03*
X024570Y014723D03*
X024570Y015037D03*
X024570Y015352D03*
X024570Y015667D03*
X024570Y015982D03*
D13*
X023982Y016570D03*
X023667Y016570D03*
X023352Y016570D03*
X023037Y016570D03*
X022723Y016570D03*
X022408Y016570D03*
X022093Y016570D03*
X021778Y016570D03*
X021778Y013190D03*
X022093Y013190D03*
X022408Y013190D03*
X022723Y013190D03*
X023037Y013190D03*
X023352Y013190D03*
X023667Y013190D03*
X023982Y013190D03*
D14*
X015504Y029908D03*
X014756Y029908D03*
X014756Y030852D03*
X015130Y030852D03*
X015504Y030852D03*
D15*
X021883Y020063D03*
X022258Y019197D03*
X022632Y020063D03*
X023756Y020063D03*
X024130Y019197D03*
X024504Y020063D03*
D16*
X007130Y010845D03*
X007130Y011415D03*
X008130Y011415D03*
X008130Y010845D03*
X012130Y010845D03*
X012130Y011415D03*
X013130Y011415D03*
X013130Y010845D03*
X013630Y007665D03*
X013630Y007095D03*
X014380Y007095D03*
X014380Y007665D03*
X015130Y007665D03*
X015130Y007095D03*
X015880Y007095D03*
X015880Y007665D03*
X020880Y017595D03*
X020880Y018165D03*
X020880Y019345D03*
X020880Y019915D03*
X020845Y021130D03*
X021415Y021130D03*
X022845Y021130D03*
X023415Y021130D03*
X025493Y019944D03*
X025493Y019373D03*
X022380Y018165D03*
X022380Y017595D03*
X021630Y017595D03*
X021630Y018165D03*
X013130Y019345D03*
X013130Y019915D03*
X012130Y019915D03*
X012130Y019345D03*
X008130Y019345D03*
X008130Y019915D03*
X007130Y019915D03*
X007130Y019345D03*
X018880Y032095D03*
X018880Y032665D03*
X022595Y032880D03*
X023165Y032880D03*
X023165Y033880D03*
X022595Y033880D03*
X022595Y034880D03*
X023165Y034880D03*
X023165Y035880D03*
X022595Y035880D03*
D17*
X022880Y038236D03*
X022880Y039024D03*
X016630Y030774D03*
X016630Y029986D03*
X013755Y029986D03*
X013755Y030774D03*
X013630Y025524D03*
X013630Y024736D03*
X012630Y024736D03*
X012630Y025524D03*
X011130Y022774D03*
X011130Y021986D03*
X008630Y024736D03*
X008630Y025524D03*
X007630Y025524D03*
X007630Y024736D03*
X006130Y022774D03*
X006130Y021986D03*
X007630Y017024D03*
X007630Y016236D03*
X008630Y016236D03*
X008630Y017024D03*
X011130Y014274D03*
X011130Y013486D03*
X012630Y016236D03*
X012630Y017024D03*
X013630Y017024D03*
X013630Y016236D03*
X016130Y014274D03*
X016130Y013486D03*
X016880Y009524D03*
X016880Y008736D03*
X014880Y008736D03*
X014880Y009524D03*
X014130Y009524D03*
X014130Y008736D03*
X013380Y008736D03*
X013380Y009524D03*
X017880Y005524D03*
X017880Y004736D03*
X018880Y004736D03*
X018880Y005524D03*
X019880Y014736D03*
X019880Y015524D03*
X020130Y017486D03*
X020130Y018274D03*
X016130Y021986D03*
X016130Y022774D03*
X025880Y015274D03*
X025880Y014486D03*
X006130Y014276D03*
X006130Y013489D03*
D18*
X014736Y028880D03*
X015524Y028880D03*
X015524Y032130D03*
X014736Y032130D03*
X014274Y036130D03*
X013486Y036130D03*
X013486Y037380D03*
X014274Y037380D03*
X018736Y035130D03*
X019524Y035130D03*
X019524Y039630D03*
X018736Y039630D03*
X025486Y022630D03*
X026274Y022630D03*
X020274Y021880D03*
X019486Y021880D03*
D19*
X020614Y037380D03*
D20*
X017740Y036482D03*
X017740Y038278D03*
D21*
X017734Y039630D03*
X017026Y039630D03*
D22*
X019880Y013852D03*
X019880Y013380D03*
X019880Y012908D03*
D23*
X016380Y036514D03*
X016380Y038246D03*
D24*
X012201Y032931D03*
X012201Y031829D03*
D25*
X009543Y040130D03*
X008717Y040130D03*
X021217Y040130D03*
X022043Y040130D03*
D26*
X021974Y039255D03*
X021286Y039255D03*
X011474Y040130D03*
X010786Y040130D03*
D27*
X022761Y009440D03*
X022761Y007440D03*
X024261Y007440D03*
X024261Y009440D03*
M02*
