G75*
G70*
%OFA0B0*%
%FSLAX24Y24*%
%IPPOS*%
%LPD*%
%AMOC8*
5,1,8,0,0,1.08239X$1,22.5*
%
%ADD10C,0.0040*%
%ADD11C,0.0030*%
D10*
X020154Y003725D02*
X020154Y003844D01*
X020154Y004016D01*
X023106Y004016D01*
X023106Y003844D01*
X023106Y003725D01*
X020154Y003725D01*
X020154Y003844D02*
X023106Y003844D01*
X023106Y004016D02*
X023106Y004336D01*
X023106Y004526D01*
X020154Y004526D01*
X020154Y004336D01*
X020154Y004016D01*
X020154Y004336D02*
X023106Y004336D01*
X022996Y004288D02*
X022746Y004288D01*
X022871Y004038D01*
X022996Y004288D01*
X022985Y004266D02*
X022757Y004266D01*
X022776Y004228D02*
X022966Y004228D01*
X022947Y004189D02*
X022795Y004189D01*
X022815Y004151D02*
X022928Y004151D01*
X022908Y004112D02*
X022834Y004112D01*
X022853Y004074D02*
X022889Y004074D01*
X023106Y004526D02*
X023106Y005728D01*
X020154Y005728D01*
X020154Y005915D01*
X020154Y006600D01*
X023106Y006600D01*
X023106Y005915D01*
X020154Y005915D01*
X020154Y005728D02*
X020154Y004526D01*
X020469Y005401D02*
X020466Y005403D01*
X020370Y005123D02*
X020372Y005170D01*
X020378Y005217D01*
X020387Y005263D01*
X020401Y005308D01*
X020418Y005352D01*
X020439Y005395D01*
X020463Y005435D01*
X020490Y005474D01*
X020521Y005510D01*
X020554Y005543D01*
X020590Y005574D01*
X020629Y005601D01*
X020669Y005625D01*
X020712Y005646D01*
X020756Y005663D01*
X020801Y005677D01*
X020847Y005686D01*
X020894Y005692D01*
X020941Y005694D01*
X020988Y005692D01*
X021035Y005686D01*
X021081Y005677D01*
X021126Y005663D01*
X021170Y005646D01*
X021213Y005625D01*
X021253Y005601D01*
X021292Y005574D01*
X021328Y005543D01*
X021361Y005510D01*
X021392Y005474D01*
X021419Y005435D01*
X021443Y005395D01*
X021464Y005352D01*
X021481Y005308D01*
X021495Y005263D01*
X021504Y005217D01*
X021510Y005170D01*
X021512Y005123D01*
X021510Y005076D01*
X021504Y005029D01*
X021495Y004983D01*
X021481Y004938D01*
X021464Y004894D01*
X021443Y004851D01*
X021419Y004811D01*
X021392Y004772D01*
X021361Y004736D01*
X021328Y004703D01*
X021292Y004672D01*
X021253Y004645D01*
X021213Y004621D01*
X021170Y004600D01*
X021126Y004583D01*
X021081Y004569D01*
X021035Y004560D01*
X020988Y004554D01*
X020941Y004552D01*
X020894Y004554D01*
X020847Y004560D01*
X020801Y004569D01*
X020756Y004583D01*
X020712Y004600D01*
X020669Y004621D01*
X020629Y004645D01*
X020590Y004672D01*
X020554Y004703D01*
X020521Y004736D01*
X020490Y004772D01*
X020463Y004811D01*
X020439Y004851D01*
X020418Y004894D01*
X020401Y004938D01*
X020387Y004983D01*
X020378Y005029D01*
X020372Y005076D01*
X020370Y005123D01*
X020794Y006058D02*
X021101Y006058D01*
X020794Y006364D01*
X020794Y006441D01*
X020871Y006518D01*
X021024Y006518D01*
X021101Y006441D01*
X021844Y005403D02*
X021847Y005401D01*
X021748Y005123D02*
X021750Y005170D01*
X021756Y005217D01*
X021765Y005263D01*
X021779Y005308D01*
X021796Y005352D01*
X021817Y005395D01*
X021841Y005435D01*
X021868Y005474D01*
X021899Y005510D01*
X021932Y005543D01*
X021968Y005574D01*
X022007Y005601D01*
X022047Y005625D01*
X022090Y005646D01*
X022134Y005663D01*
X022179Y005677D01*
X022225Y005686D01*
X022272Y005692D01*
X022319Y005694D01*
X022366Y005692D01*
X022413Y005686D01*
X022459Y005677D01*
X022504Y005663D01*
X022548Y005646D01*
X022591Y005625D01*
X022631Y005601D01*
X022670Y005574D01*
X022706Y005543D01*
X022739Y005510D01*
X022770Y005474D01*
X022797Y005435D01*
X022821Y005395D01*
X022842Y005352D01*
X022859Y005308D01*
X022873Y005263D01*
X022882Y005217D01*
X022888Y005170D01*
X022890Y005123D01*
X022888Y005076D01*
X022882Y005029D01*
X022873Y004983D01*
X022859Y004938D01*
X022842Y004894D01*
X022821Y004851D01*
X022797Y004811D01*
X022770Y004772D01*
X022739Y004736D01*
X022706Y004703D01*
X022670Y004672D01*
X022631Y004645D01*
X022591Y004621D01*
X022548Y004600D01*
X022504Y004583D01*
X022459Y004569D01*
X022413Y004560D01*
X022366Y004554D01*
X022319Y004552D01*
X022272Y004554D01*
X022225Y004560D01*
X022179Y004569D01*
X022134Y004583D01*
X022090Y004600D01*
X022047Y004621D01*
X022007Y004645D01*
X021968Y004672D01*
X021932Y004703D01*
X021899Y004736D01*
X021868Y004772D01*
X021841Y004811D01*
X021817Y004851D01*
X021796Y004894D01*
X021779Y004938D01*
X021765Y004983D01*
X021756Y005029D01*
X021750Y005076D01*
X021748Y005123D01*
X022169Y006058D02*
X022476Y006058D01*
X022323Y006058D02*
X022323Y006518D01*
X022476Y006364D01*
X023106Y005915D02*
X023106Y005728D01*
X024915Y020600D02*
X027160Y020600D01*
X027160Y021604D01*
X027160Y022195D02*
X027160Y023160D01*
X024915Y023160D01*
X024600Y022845D01*
X024699Y021575D02*
X024718Y021509D01*
X024741Y021443D01*
X024768Y021379D01*
X024798Y021317D01*
X024832Y021256D01*
X024868Y021198D01*
X024909Y021142D01*
X024952Y021088D01*
X024998Y021036D01*
X025048Y020988D01*
X025100Y020942D01*
X025154Y020899D01*
X025211Y020860D01*
X025270Y020823D01*
X025331Y020790D01*
X025393Y020761D01*
X025457Y020735D01*
X025523Y020713D01*
X025590Y020695D01*
X025657Y020680D01*
X025726Y020670D01*
X025795Y020663D01*
X025864Y020660D01*
X025933Y020661D01*
X026002Y020666D01*
X026071Y020675D01*
X026139Y020688D01*
X026206Y020705D01*
X026272Y020725D01*
X026337Y020749D01*
X026400Y020777D01*
X026462Y020808D01*
X026521Y020843D01*
X026579Y020881D01*
X026635Y020923D01*
X026688Y020967D01*
X026738Y021015D01*
X026786Y021065D01*
X026830Y021118D01*
X026872Y021173D01*
X026911Y021230D01*
X026946Y021290D01*
X026977Y021352D01*
X027005Y021415D01*
X027030Y021479D01*
X027051Y021545D01*
X027061Y022185D02*
X027042Y022251D01*
X027019Y022317D01*
X026992Y022381D01*
X026962Y022443D01*
X026928Y022504D01*
X026892Y022562D01*
X026851Y022618D01*
X026808Y022672D01*
X026762Y022724D01*
X026712Y022772D01*
X026660Y022818D01*
X026606Y022861D01*
X026549Y022900D01*
X026490Y022937D01*
X026429Y022970D01*
X026367Y022999D01*
X026303Y023025D01*
X026237Y023047D01*
X026170Y023065D01*
X026103Y023080D01*
X026034Y023090D01*
X025965Y023097D01*
X025896Y023100D01*
X025827Y023099D01*
X025758Y023094D01*
X025689Y023085D01*
X025621Y023072D01*
X025554Y023055D01*
X025488Y023035D01*
X025423Y023011D01*
X025360Y022983D01*
X025298Y022952D01*
X025239Y022917D01*
X025181Y022879D01*
X025125Y022837D01*
X025072Y022793D01*
X025022Y022745D01*
X024974Y022695D01*
X024930Y022642D01*
X024888Y022587D01*
X024849Y022530D01*
X024814Y022470D01*
X024783Y022408D01*
X024755Y022345D01*
X024730Y022281D01*
X024709Y022215D01*
X024600Y020915D02*
X024915Y020600D01*
X024160Y037350D02*
X023195Y037350D01*
X022604Y037350D02*
X021600Y037350D01*
X021600Y039595D01*
X021915Y039910D01*
X022575Y039811D02*
X022509Y039792D01*
X022443Y039769D01*
X022379Y039742D01*
X022317Y039712D01*
X022256Y039678D01*
X022198Y039642D01*
X022142Y039601D01*
X022088Y039558D01*
X022036Y039512D01*
X021988Y039462D01*
X021942Y039410D01*
X021899Y039356D01*
X021860Y039299D01*
X021823Y039240D01*
X021790Y039179D01*
X021761Y039117D01*
X021735Y039053D01*
X021713Y038987D01*
X021695Y038920D01*
X021680Y038853D01*
X021670Y038784D01*
X021663Y038715D01*
X021660Y038646D01*
X021661Y038577D01*
X021666Y038508D01*
X021675Y038439D01*
X021688Y038371D01*
X021705Y038304D01*
X021725Y038238D01*
X021749Y038173D01*
X021777Y038110D01*
X021808Y038048D01*
X021843Y037989D01*
X021881Y037931D01*
X021923Y037875D01*
X021967Y037822D01*
X022015Y037772D01*
X022065Y037724D01*
X022118Y037680D01*
X022173Y037638D01*
X022230Y037599D01*
X022290Y037564D01*
X022352Y037533D01*
X022415Y037505D01*
X022479Y037480D01*
X022545Y037459D01*
X023185Y037449D02*
X023251Y037468D01*
X023317Y037491D01*
X023381Y037518D01*
X023443Y037548D01*
X023504Y037582D01*
X023562Y037618D01*
X023618Y037659D01*
X023672Y037702D01*
X023724Y037748D01*
X023772Y037798D01*
X023818Y037850D01*
X023861Y037904D01*
X023900Y037961D01*
X023937Y038020D01*
X023970Y038081D01*
X023999Y038143D01*
X024025Y038207D01*
X024047Y038273D01*
X024065Y038340D01*
X024080Y038407D01*
X024090Y038476D01*
X024097Y038545D01*
X024100Y038614D01*
X024099Y038683D01*
X024094Y038752D01*
X024085Y038821D01*
X024072Y038889D01*
X024055Y038956D01*
X024035Y039022D01*
X024011Y039087D01*
X023983Y039150D01*
X023952Y039212D01*
X023917Y039271D01*
X023879Y039329D01*
X023837Y039385D01*
X023793Y039438D01*
X023745Y039488D01*
X023695Y039536D01*
X023642Y039580D01*
X023587Y039622D01*
X023530Y039661D01*
X023470Y039696D01*
X023408Y039727D01*
X023345Y039755D01*
X023281Y039780D01*
X023215Y039801D01*
X023845Y039910D02*
X024160Y039595D01*
X024160Y037350D01*
X015356Y037412D02*
X015356Y037294D01*
X012404Y037294D01*
X012404Y037412D01*
X012404Y037585D01*
X015356Y037585D01*
X015356Y037412D01*
X012404Y037412D01*
X012404Y037585D02*
X012404Y037905D01*
X012404Y038095D01*
X015356Y038095D01*
X015356Y037905D01*
X015356Y037585D01*
X015160Y037684D02*
X015082Y037684D01*
X015101Y037646D02*
X015141Y037646D01*
X015121Y037607D02*
X015122Y037607D01*
X015121Y037606D02*
X014996Y037856D01*
X015246Y037856D01*
X015121Y037606D01*
X015063Y037723D02*
X015179Y037723D01*
X015199Y037761D02*
X015044Y037761D01*
X015024Y037800D02*
X015218Y037800D01*
X015237Y037838D02*
X015005Y037838D01*
X015356Y037905D02*
X012404Y037905D01*
X012404Y038095D02*
X012404Y039297D01*
X015356Y039297D01*
X015356Y038095D01*
X013998Y038692D02*
X014000Y038739D01*
X014006Y038786D01*
X014015Y038832D01*
X014029Y038877D01*
X014046Y038921D01*
X014067Y038964D01*
X014091Y039004D01*
X014118Y039043D01*
X014149Y039079D01*
X014182Y039112D01*
X014218Y039143D01*
X014257Y039170D01*
X014297Y039194D01*
X014340Y039215D01*
X014384Y039232D01*
X014429Y039246D01*
X014475Y039255D01*
X014522Y039261D01*
X014569Y039263D01*
X014616Y039261D01*
X014663Y039255D01*
X014709Y039246D01*
X014754Y039232D01*
X014798Y039215D01*
X014841Y039194D01*
X014881Y039170D01*
X014920Y039143D01*
X014956Y039112D01*
X014989Y039079D01*
X015020Y039043D01*
X015047Y039004D01*
X015071Y038964D01*
X015092Y038921D01*
X015109Y038877D01*
X015123Y038832D01*
X015132Y038786D01*
X015138Y038739D01*
X015140Y038692D01*
X015138Y038645D01*
X015132Y038598D01*
X015123Y038552D01*
X015109Y038507D01*
X015092Y038463D01*
X015071Y038420D01*
X015047Y038380D01*
X015020Y038341D01*
X014989Y038305D01*
X014956Y038272D01*
X014920Y038241D01*
X014881Y038214D01*
X014841Y038190D01*
X014798Y038169D01*
X014754Y038152D01*
X014709Y038138D01*
X014663Y038129D01*
X014616Y038123D01*
X014569Y038121D01*
X014522Y038123D01*
X014475Y038129D01*
X014429Y038138D01*
X014384Y038152D01*
X014340Y038169D01*
X014297Y038190D01*
X014257Y038214D01*
X014218Y038241D01*
X014182Y038272D01*
X014149Y038305D01*
X014118Y038341D01*
X014091Y038380D01*
X014067Y038420D01*
X014046Y038463D01*
X014029Y038507D01*
X014015Y038552D01*
X014006Y038598D01*
X014000Y038645D01*
X013998Y038692D01*
X014097Y038969D02*
X014094Y038972D01*
X014419Y039626D02*
X014726Y039626D01*
X014573Y039626D02*
X014573Y040087D01*
X014726Y039933D01*
X015356Y040168D02*
X015356Y039484D01*
X012404Y039484D01*
X012404Y040168D01*
X015356Y040168D01*
X015356Y039484D02*
X015356Y039297D01*
X013351Y039626D02*
X013044Y039933D01*
X013044Y040010D01*
X013121Y040087D01*
X013274Y040087D01*
X013351Y040010D01*
X013351Y039626D02*
X013044Y039626D01*
X012716Y038972D02*
X012719Y038969D01*
X012404Y039297D02*
X012404Y039484D01*
X012160Y039595D02*
X011845Y039910D01*
X012160Y039595D02*
X012160Y037350D01*
X011195Y037350D01*
X010604Y037350D02*
X009600Y037350D01*
X009600Y039595D01*
X009915Y039910D01*
X009410Y039595D02*
X009095Y039910D01*
X009410Y039595D02*
X009410Y037350D01*
X008445Y037350D01*
X007854Y037350D02*
X006850Y037350D01*
X006850Y039595D01*
X007165Y039910D01*
X007825Y039811D02*
X007759Y039792D01*
X007693Y039769D01*
X007629Y039742D01*
X007567Y039712D01*
X007506Y039678D01*
X007448Y039642D01*
X007392Y039601D01*
X007338Y039558D01*
X007286Y039512D01*
X007238Y039462D01*
X007192Y039410D01*
X007149Y039356D01*
X007110Y039299D01*
X007073Y039240D01*
X007040Y039179D01*
X007011Y039117D01*
X006985Y039053D01*
X006963Y038987D01*
X006945Y038920D01*
X006930Y038853D01*
X006920Y038784D01*
X006913Y038715D01*
X006910Y038646D01*
X006911Y038577D01*
X006916Y038508D01*
X006925Y038439D01*
X006938Y038371D01*
X006955Y038304D01*
X006975Y038238D01*
X006999Y038173D01*
X007027Y038110D01*
X007058Y038048D01*
X007093Y037989D01*
X007131Y037931D01*
X007173Y037875D01*
X007217Y037822D01*
X007265Y037772D01*
X007315Y037724D01*
X007368Y037680D01*
X007423Y037638D01*
X007480Y037599D01*
X007540Y037564D01*
X007602Y037533D01*
X007665Y037505D01*
X007729Y037480D01*
X007795Y037459D01*
X008435Y037449D02*
X008501Y037468D01*
X008567Y037491D01*
X008631Y037518D01*
X008693Y037548D01*
X008754Y037582D01*
X008812Y037618D01*
X008868Y037659D01*
X008922Y037702D01*
X008974Y037748D01*
X009022Y037798D01*
X009068Y037850D01*
X009111Y037904D01*
X009150Y037961D01*
X009187Y038020D01*
X009220Y038081D01*
X009249Y038143D01*
X009275Y038207D01*
X009297Y038273D01*
X009315Y038340D01*
X009330Y038407D01*
X009340Y038476D01*
X009347Y038545D01*
X009350Y038614D01*
X009349Y038683D01*
X009344Y038752D01*
X009335Y038821D01*
X009322Y038889D01*
X009305Y038956D01*
X009285Y039022D01*
X009261Y039087D01*
X009233Y039150D01*
X009202Y039212D01*
X009167Y039271D01*
X009129Y039329D01*
X009087Y039385D01*
X009043Y039438D01*
X008995Y039488D01*
X008945Y039536D01*
X008892Y039580D01*
X008837Y039622D01*
X008780Y039661D01*
X008720Y039696D01*
X008658Y039727D01*
X008595Y039755D01*
X008531Y039780D01*
X008465Y039801D01*
X010575Y039811D02*
X010509Y039792D01*
X010443Y039769D01*
X010379Y039742D01*
X010317Y039712D01*
X010256Y039678D01*
X010198Y039642D01*
X010142Y039601D01*
X010088Y039558D01*
X010036Y039512D01*
X009988Y039462D01*
X009942Y039410D01*
X009899Y039356D01*
X009860Y039299D01*
X009823Y039240D01*
X009790Y039179D01*
X009761Y039117D01*
X009735Y039053D01*
X009713Y038987D01*
X009695Y038920D01*
X009680Y038853D01*
X009670Y038784D01*
X009663Y038715D01*
X009660Y038646D01*
X009661Y038577D01*
X009666Y038508D01*
X009675Y038439D01*
X009688Y038371D01*
X009705Y038304D01*
X009725Y038238D01*
X009749Y038173D01*
X009777Y038110D01*
X009808Y038048D01*
X009843Y037989D01*
X009881Y037931D01*
X009923Y037875D01*
X009967Y037822D01*
X010015Y037772D01*
X010065Y037724D01*
X010118Y037680D01*
X010173Y037638D01*
X010230Y037599D01*
X010290Y037564D01*
X010352Y037533D01*
X010415Y037505D01*
X010479Y037480D01*
X010545Y037459D01*
X011185Y037449D02*
X011251Y037468D01*
X011317Y037491D01*
X011381Y037518D01*
X011443Y037548D01*
X011504Y037582D01*
X011562Y037618D01*
X011618Y037659D01*
X011672Y037702D01*
X011724Y037748D01*
X011772Y037798D01*
X011818Y037850D01*
X011861Y037904D01*
X011900Y037961D01*
X011937Y038020D01*
X011970Y038081D01*
X011999Y038143D01*
X012025Y038207D01*
X012047Y038273D01*
X012065Y038340D01*
X012080Y038407D01*
X012090Y038476D01*
X012097Y038545D01*
X012100Y038614D01*
X012099Y038683D01*
X012094Y038752D01*
X012085Y038821D01*
X012072Y038889D01*
X012055Y038956D01*
X012035Y039022D01*
X012011Y039087D01*
X011983Y039150D01*
X011952Y039212D01*
X011917Y039271D01*
X011879Y039329D01*
X011837Y039385D01*
X011793Y039438D01*
X011745Y039488D01*
X011695Y039536D01*
X011642Y039580D01*
X011587Y039622D01*
X011530Y039661D01*
X011470Y039696D01*
X011408Y039727D01*
X011345Y039755D01*
X011281Y039780D01*
X011215Y039801D01*
X012620Y038692D02*
X012622Y038739D01*
X012628Y038786D01*
X012637Y038832D01*
X012651Y038877D01*
X012668Y038921D01*
X012689Y038964D01*
X012713Y039004D01*
X012740Y039043D01*
X012771Y039079D01*
X012804Y039112D01*
X012840Y039143D01*
X012879Y039170D01*
X012919Y039194D01*
X012962Y039215D01*
X013006Y039232D01*
X013051Y039246D01*
X013097Y039255D01*
X013144Y039261D01*
X013191Y039263D01*
X013238Y039261D01*
X013285Y039255D01*
X013331Y039246D01*
X013376Y039232D01*
X013420Y039215D01*
X013463Y039194D01*
X013503Y039170D01*
X013542Y039143D01*
X013578Y039112D01*
X013611Y039079D01*
X013642Y039043D01*
X013669Y039004D01*
X013693Y038964D01*
X013714Y038921D01*
X013731Y038877D01*
X013745Y038832D01*
X013754Y038786D01*
X013760Y038739D01*
X013762Y038692D01*
X013760Y038645D01*
X013754Y038598D01*
X013745Y038552D01*
X013731Y038507D01*
X013714Y038463D01*
X013693Y038420D01*
X013669Y038380D01*
X013642Y038341D01*
X013611Y038305D01*
X013578Y038272D01*
X013542Y038241D01*
X013503Y038214D01*
X013463Y038190D01*
X013420Y038169D01*
X013376Y038152D01*
X013331Y038138D01*
X013285Y038129D01*
X013238Y038123D01*
X013191Y038121D01*
X013144Y038123D01*
X013097Y038129D01*
X013051Y038138D01*
X013006Y038152D01*
X012962Y038169D01*
X012919Y038190D01*
X012879Y038214D01*
X012840Y038241D01*
X012804Y038272D01*
X012771Y038305D01*
X012740Y038341D01*
X012713Y038380D01*
X012689Y038420D01*
X012668Y038463D01*
X012651Y038507D01*
X012637Y038552D01*
X012628Y038598D01*
X012622Y038645D01*
X012620Y038692D01*
D11*
X012053Y037015D02*
X012115Y036954D01*
X012115Y036707D01*
X012053Y036645D01*
X011930Y036645D01*
X011868Y036707D01*
X011747Y036645D02*
X011500Y036892D01*
X011500Y036954D01*
X011562Y037015D01*
X011685Y037015D01*
X011747Y036954D01*
X011868Y036954D02*
X011930Y037015D01*
X012053Y037015D01*
X011747Y036645D02*
X011500Y036645D01*
X011378Y036707D02*
X011317Y036645D01*
X011193Y036645D01*
X011131Y036707D01*
X011131Y036954D01*
X011193Y037015D01*
X011317Y037015D01*
X011378Y036954D01*
X011378Y036892D01*
X011317Y036830D01*
X011131Y036830D01*
X009365Y036707D02*
X009303Y036645D01*
X009180Y036645D01*
X009118Y036707D01*
X008997Y036707D02*
X008935Y036645D01*
X008812Y036645D01*
X008750Y036707D01*
X008750Y036768D01*
X008812Y036830D01*
X008873Y036830D01*
X008812Y036830D02*
X008750Y036892D01*
X008750Y036954D01*
X008812Y037015D01*
X008935Y037015D01*
X008997Y036954D01*
X009118Y036954D02*
X009180Y037015D01*
X009303Y037015D01*
X009365Y036954D01*
X009365Y036707D01*
X008628Y036707D02*
X008567Y036645D01*
X008443Y036645D01*
X008381Y036707D01*
X008381Y036954D01*
X008628Y036707D01*
X008628Y036954D01*
X008567Y037015D01*
X008443Y037015D01*
X008381Y036954D01*
X023131Y036395D02*
X023378Y036395D01*
X023500Y036395D02*
X023747Y036395D01*
X023500Y036642D01*
X023500Y036704D01*
X023562Y036765D01*
X023685Y036765D01*
X023747Y036704D01*
X023868Y036704D02*
X023930Y036765D01*
X024053Y036765D01*
X024115Y036704D01*
X024115Y036457D01*
X024053Y036395D01*
X023930Y036395D01*
X023868Y036457D01*
X023378Y036642D02*
X023255Y036765D01*
X023255Y036395D01*
X026193Y024015D02*
X026317Y024015D01*
X026378Y023954D01*
X026500Y023954D02*
X026562Y024015D01*
X026685Y024015D01*
X026747Y023954D01*
X026868Y023954D02*
X026930Y024015D01*
X027053Y024015D01*
X027115Y023954D01*
X027115Y023707D01*
X027053Y023645D01*
X026930Y023645D01*
X026868Y023707D01*
X026747Y023645D02*
X026500Y023892D01*
X026500Y023954D01*
X026500Y023645D02*
X026747Y023645D01*
X026378Y023645D02*
X026131Y023892D01*
X026131Y023954D01*
X026193Y024015D01*
X026131Y023645D02*
X026378Y023645D01*
M02*
