%
M48
M72
T01C0.0118
T02C0.0315
T03C0.0394
T04C0.0400
T05C0.0433
T06C0.0472
T07C0.1693
%
T01
X5005Y9005
X5380Y10505
X7130Y10005
X7130Y8755
X8255Y8255
X9130Y7255
X8005Y5880
X6880Y7005
X8255Y9880
X10130Y12630
X10515Y14178
X11130Y14630
X10576Y15158
X12108Y14178
X12880Y14130
X13380Y13630
X13755Y11755
X13880Y10130
X14380Y10130
X14880Y10130
X14630Y8880
X13880Y8880
X13380Y8880
X13130Y8005
X13130Y6505
X12005Y8005
X11755Y6505
X12005Y9755
X13380Y10130
X11505Y12005
X8380Y13630
X7880Y14130
X7146Y14116
X6130Y14630
X5255Y13380
X3755Y11880
X3755Y15005
X5255Y16380
X6380Y17755
X6005Y19005
X6630Y20380
X6145Y21926
X6130Y23130
X7146Y22630
X7880Y22630
X8380Y22130
X8630Y20380
X8255Y18630
X8130Y17630
X10169Y21194
X11149Y21990
X10638Y22630
X11130Y23130
X10638Y23610
X10880Y25255
X12230Y22630
X12880Y22630
X13380Y22130
X15140Y21191
X16110Y21990
X15599Y22630
X15599Y23610
X16130Y23130
X17130Y22630
X17130Y23630
X16130Y25255
X16630Y26880
X17880Y25630
X18880Y26630
X19505Y27630
X19505Y29005
X19446Y29880
X18880Y29880
X18380Y30258
X18630Y31380
X18130Y32130
X16630Y32130
X17380Y34880
X17630Y35130
X17005Y35630
X18255Y35630
X19505Y35130
X20630Y36630
X21505Y37380
X22255Y38630
X22880Y39630
X22630Y40380
X20630Y40130
X19755Y40130
X19755Y39130
X20630Y39130
X20630Y38130
X19630Y37380
X18880Y38630
X18630Y39630
X18630Y40255
X17380Y39005
X16630Y39630
X17380Y37380
X18130Y37380
X23130Y33380
X23505Y34380
X23130Y32130
X23630Y31505
X23630Y30380
X23630Y29005
X23630Y28005
X23630Y26755
X23630Y25505
X23630Y23755
X23630Y22505
X23005Y22005
X22505Y22505
X22130Y21880
X21630Y21880
X21255Y22505
X20505Y22505
X20505Y23755
X21005Y23755
X21630Y24130
X22130Y24130
X22505Y23755
X21630Y25380
X20630Y24880
X19130Y24380
X19130Y23630
X18380Y23630
X18380Y22630
X19130Y22630
X19130Y21130
X18630Y20130
X19130Y19130
X19880Y19130
X20520Y20525
X21635Y18201
X22385Y18196
X21380Y16880
X20505Y15380
X20505Y15005
X19880Y14630
X19005Y13380
X17755Y11880
X17630Y9755
X17380Y7630
X19130Y7630
X20380Y6880
X20380Y8380
X21005Y9380
X21630Y8255
X22380Y9505
X22755Y8130
X22755Y6880
X21630Y6880
X23005Y4880
X21630Y4505
X20130Y4880
X18880Y5505
X17880Y5505
X15505Y9005
X15130Y12630
X16129Y13474
X15538Y14116
X16130Y14630
X15538Y15158
X16755Y15380
X17130Y14005
X18380Y16005
X18505Y16755
X16130Y17130
X15755Y18880
X17255Y20130
X13130Y17255
X12630Y18130
X11005Y18755
X10755Y17630
X13130Y26130
X13130Y27255
X12620Y31630
X12620Y31946
X12243Y31946
X12243Y31630
X11865Y31630
X11865Y31946
X11505Y36255
X10505Y36255
X9255Y36255
X8005Y36255
X6505Y36505
X5255Y36505
X3505Y36005
X3505Y34755
X3505Y33255
X3505Y31755
X3505Y30255
X3505Y28755
X3505Y27255
X3505Y25755
X3505Y24255
X3505Y22755
X3505Y21255
X3505Y19505
X4005Y17755
X16630Y29130
X18130Y29130
X24880Y23130
X25380Y23130
X25880Y21880
X25130Y21255
X25130Y20505
X25005Y19630
X25005Y18880
X25005Y17880
X24130Y18630
X23773Y18380
X23755Y17755
X25005Y16505
X25255Y15255
X25880Y15255
X26630Y16130
X25380Y13880
X24880Y12880
X25130Y12630
X24930Y12313
X25255Y12005
X24880Y11255
X26130Y12630
X27130Y11380
X27630Y10630
X24380Y13130
X23130Y11880
X22630Y11880
X22630Y10630
X23031Y10659
X21880Y10630
X19880Y10630
X19005Y9755
X22130Y14130
X22380Y14505
X22130Y15005
X22630Y15880
X23031Y15559
X23130Y15130
X23503Y15130
X23319Y15941
X26005Y19130
X25880Y20505
X26755Y21880
X7630Y39380
T02
X12130Y35130
X14380Y35130
X17380Y32130
X19630Y32880
X16130Y28130
X20949Y6188
X22296Y6188
T03
X27130Y12630
X16630Y5630
X16630Y4630
X15630Y4630
X15630Y5630
X14630Y5630
X14630Y4630
X13630Y4630
X13630Y5630
X12630Y5630
X12630Y4630
X11630Y4630
X11630Y5630
X10630Y5630
X10630Y4630
X9630Y4630
X9630Y5630
T04
X25530Y9630
X25630Y8630
X26530Y9630
X26630Y8630
X26630Y10630
X25630Y10630
X27130Y13630
X27130Y14630
X27130Y15630
X27130Y16630
X27130Y17630
X26380Y25880
X26380Y26880
X26380Y27880
X26380Y28880
X26380Y29880
X25380Y29880
X25380Y28880
X25380Y27880
X25380Y26880
X25380Y25880
T05
X14569Y38692
X13191Y38692
X20941Y5123
X22319Y5123
T06
X20947Y10266
X15927Y10266
X15967Y33967
X18329Y33967
X20691Y33967
X13604Y33967
X5829Y33967
T07
X4880Y4880
X26130Y4880
X26130Y38880
X4755Y38880
M30
